<svg xmlns="http://www.w3.org/2000/svg" width="375" viewBox="0 0 375 375" height="375" version="1.0"><path d="M 183.078125 368.910156 C 88.019531 368.910156 7.820312 261.25 7.820312 193.621094 C 7.820312 189.304688 11.335938 185.804688 15.636719 185.804688 L 350.535156 185.804688 C 354.847656 185.804688 358.351562 189.304688 358.351562 193.621094 C 358.351562 261.25 278.148438 368.910156 183.078125 368.910156 Z M 23.832031 201.441406 C 29.523438 263.144531 100.09375 353.257812 183.09375 353.257812 C 266.109375 353.257812 336.648438 263.128906 342.371094 201.441406 Z M 23.832031 201.441406"/><path d="M 234.554688 373.460938 L 125.09375 373.460938 C 120.796875 373.460938 117.277344 369.945312 117.277344 365.644531 C 117.277344 361.328125 120.796875 357.824219 125.09375 357.824219 L 234.554688 357.824219 C 238.871094 357.824219 242.371094 361.328125 242.371094 365.644531 C 242.371094 369.945312 238.871094 373.460938 234.554688 373.460938 Z M 234.554688 373.460938"/><path d="M 144.59375 153.621094 C 142.59375 153.621094 140.589844 152.855469 139.058594 151.339844 C 126.347656 138.609375 132.101562 121.363281 137.167969 106.132812 C 142 91.621094 144.546875 82.410156 139.058594 76.921875 C 136.011719 73.875 136.011719 68.917969 139.058594 65.867188 C 142.09375 62.820312 147.066406 62.820312 150.113281 65.867188 C 162.828125 78.597656 157.058594 95.84375 152.007812 111.074219 C 147.160156 125.585938 144.609375 134.796875 150.113281 140.285156 C 153.148438 143.332031 153.148438 148.289062 150.113281 151.339844 C 148.582031 152.871094 146.597656 153.621094 144.59375 153.621094 Z M 144.59375 153.621094"/><path d="M 181.78125 153.621094 C 179.777344 153.621094 177.777344 152.855469 176.242188 151.339844 C 163.984375 139.0625 168.878906 114.5 174.085938 88.464844 C 177.855469 69.574219 182.5625 46.085938 176.242188 39.738281 C 173.195312 36.6875 173.195312 31.730469 176.242188 28.683594 C 179.277344 25.632812 184.25 25.632812 187.300781 28.683594 C 199.558594 40.941406 194.632812 65.507812 189.441406 91.527344 C 185.65625 110.417969 180.964844 133.933594 187.300781 140.285156 C 190.332031 143.332031 190.332031 148.289062 187.300781 151.339844 C 185.78125 152.871094 183.78125 153.621094 181.78125 153.621094 Z M 181.78125 153.621094"/><path d="M 218.980469 153.621094 C 216.976562 153.621094 214.976562 152.855469 213.445312 151.339844 C 200.730469 138.609375 206.46875 121.363281 211.550781 106.132812 C 216.398438 91.621094 218.933594 82.410156 213.445312 76.921875 C 210.394531 73.875 210.394531 68.917969 213.445312 65.867188 C 216.492188 62.820312 221.449219 62.820312 224.5 65.867188 C 237.210938 78.597656 231.441406 95.84375 226.390625 111.074219 C 221.542969 125.585938 218.996094 134.796875 224.5 140.285156 C 227.53125 143.332031 227.53125 148.289062 224.5 151.339844 C 222.984375 152.871094 220.980469 153.621094 218.980469 153.621094 Z M 218.980469 153.621094"/><path d="M 281.464844 193.621094 C 279.464844 193.621094 277.460938 192.855469 275.929688 191.339844 C 272.878906 188.289062 272.878906 183.332031 275.929688 180.28125 L 354.113281 102.097656 C 357.148438 99.050781 362.121094 99.050781 365.167969 102.097656 C 368.203125 105.148438 368.203125 110.105469 365.167969 113.152344 L 286.984375 191.339844 C 285.46875 192.855469 283.464844 193.621094 281.464844 193.621094 Z M 281.464844 193.621094"/></svg>