<svg xmlns="http://www.w3.org/2000/svg" width="375" viewBox="0 0 375 375" height="375" version="1.0"><defs><clipPath id="a"><path d="M 75 264 L 80 264 L 80 265.5 L 75 265.5 Z M 75 264"/></clipPath><clipPath id="b"><path d="M 81 264 L 87 264 L 87 265.5 L 81 265.5 Z M 81 264"/></clipPath><clipPath id="c"><path d="M 68 264 L 73 264 L 73 265.5 L 68 265.5 Z M 68 264"/></clipPath><clipPath id="d"><path d="M 3.671875 37.5 L 371.171875 37.5 L 371.171875 248 L 3.671875 248 Z M 3.671875 37.5"/></clipPath></defs><path fill="#100F0D" d="M 81.863281 211.132812 L 86.085938 211.132812 L 86.085938 206.894531 L 81.863281 206.894531 L 81.863281 211.132812"/><path fill="#100F0D" d="M 81.863281 223.886719 L 86.085938 223.886719 L 86.085938 219.664062 L 81.863281 219.664062 L 81.863281 223.886719"/><path fill="#100F0D" d="M 81.863281 217.511719 L 86.085938 217.511719 L 86.085938 213.273438 L 81.863281 213.273438 L 81.863281 217.511719"/><path fill="#100F0D" d="M 81.863281 204.738281 L 86.085938 204.738281 L 86.085938 200.515625 L 81.863281 200.515625 L 81.863281 204.738281"/><path fill="#100F0D" d="M 81.863281 236.660156 L 86.085938 236.660156 L 86.085938 232.421875 L 81.863281 232.421875 L 81.863281 236.660156"/><path fill="#100F0D" d="M 81.863281 249.445312 L 86.085938 249.445312 L 86.085938 245.222656 L 81.863281 245.222656 L 81.863281 249.445312"/><path fill="#100F0D" d="M 81.863281 243.039062 L 86.085938 243.039062 L 86.085938 238.8125 L 81.863281 238.8125 L 81.863281 243.039062"/><path fill="#100F0D" d="M 86.085938 187.746094 L 81.863281 187.746094 L 81.863281 191.984375 L 86.085938 191.984375 L 86.085938 187.746094"/><path fill="#100F0D" d="M 81.863281 230.265625 L 86.085938 230.265625 L 86.085938 226.042969 L 81.863281 226.042969 L 81.863281 230.265625"/><path fill="#100F0D" d="M 75.058594 236.660156 L 79.28125 236.660156 L 79.28125 232.421875 L 75.058594 232.421875 L 75.058594 236.660156"/><path fill="#100F0D" d="M 75.058594 230.265625 L 79.28125 230.265625 L 79.28125 226.042969 L 75.058594 226.042969 L 75.058594 230.265625"/><path fill="#100F0D" d="M 81.863281 255.824219 L 86.085938 255.824219 L 86.085938 251.597656 L 81.863281 251.597656 L 81.863281 255.824219"/><path fill="#100F0D" d="M 75.058594 243.039062 L 79.28125 243.039062 L 79.28125 238.8125 L 75.058594 238.8125 L 75.058594 243.039062"/><path fill="#100F0D" d="M 75.058594 223.886719 L 79.28125 223.886719 L 79.28125 219.664062 L 75.058594 219.664062 L 75.058594 223.886719"/><path fill="#100F0D" d="M 75.058594 217.511719 L 79.28125 217.511719 L 79.28125 213.273438 L 75.058594 213.273438 L 75.058594 217.511719"/><path fill="#100F0D" d="M 75.058594 262.214844 L 79.28125 262.214844 L 79.28125 257.992188 L 75.058594 257.992188 L 75.058594 262.214844"/><path fill="#100F0D" d="M 81.863281 198.363281 L 86.085938 198.363281 L 86.085938 194.136719 L 81.863281 194.136719 L 81.863281 198.363281"/><path fill="#100F0D" d="M 75.058594 255.824219 L 79.28125 255.824219 L 79.28125 251.597656 L 75.058594 251.597656 L 75.058594 255.824219"/><path fill="#100F0D" d="M 75.058594 249.445312 L 79.28125 249.445312 L 79.28125 245.222656 L 75.058594 245.222656 L 75.058594 249.445312"/><g clip-path="url(#a)"><path fill="#100F0D" d="M 75.058594 265.132812 L 79.28125 265.132812 L 79.28125 264.371094 L 75.058594 264.371094 L 75.058594 265.132812"/></g><path fill="#100F0D" d="M 166.476562 146.90625 L 170.523438 146.90625 L 170.523438 142.871094 L 166.476562 142.871094 L 166.476562 146.90625"/><path fill="#100F0D" d="M 181.765625 105.519531 C 181.535156 105.363281 181.191406 105.074219 181.0625 104.613281 C 180.929688 105.03125 180.660156 105.304688 180.429688 105.460938 L 180.429688 111.066406 L 181.765625 111.066406 L 181.765625 105.519531"/><path fill="#100F0D" d="M 81.863281 262.214844 L 86.085938 262.214844 L 86.085938 257.992188 L 81.863281 257.992188 L 81.863281 262.214844"/><path fill="#100F0D" d="M 167.035156 121.867188 L 167.25 121.507812 L 167.25 123.246094 L 167.164062 123.246094 L 167.164062 123.417969 L 168.828125 123.417969 L 168.828125 123.246094 L 168.742188 123.246094 L 168.742188 121.507812 L 168.960938 121.867188 L 168.960938 121.679688 L 167.996094 119.667969 L 167.035156 121.679688 L 167.035156 121.867188"/><path fill="#100F0D" d="M 168.742188 105.460938 C 168.515625 105.304688 168.226562 105.03125 168.113281 104.628906 C 167.996094 105.089844 167.636719 105.390625 167.410156 105.535156 L 167.410156 111.066406 L 168.742188 111.066406 L 168.742188 105.460938"/><path fill="#100F0D" d="M 178.691406 179.773438 L 182.726562 179.773438 L 182.726562 175.738281 L 178.691406 175.738281 L 178.691406 179.773438"/><path fill="#100F0D" d="M 154.273438 179.773438 L 158.320312 179.773438 L 158.320312 175.738281 L 154.273438 175.738281 L 154.273438 179.773438"/><path fill="#100F0D" d="M 182.726562 164.777344 L 178.691406 164.777344 L 178.691406 168.828125 L 182.726562 168.828125 L 182.726562 164.777344"/><path fill="#100F0D" d="M 183.515625 105.460938 C 183.300781 105.289062 183.011719 105.015625 182.914062 104.613281 C 182.785156 105.015625 182.511719 105.289062 182.28125 105.460938 L 182.28125 111.066406 L 183.515625 111.066406 L 183.515625 105.460938"/><path fill="#100F0D" d="M 178.691406 146.90625 L 182.726562 146.90625 L 182.726562 142.871094 L 178.691406 142.871094 L 178.691406 146.90625"/><path fill="#100F0D" d="M 182.726562 153.816406 L 178.691406 153.816406 L 178.691406 157.867188 L 182.726562 157.867188 L 182.726562 153.816406"/><path fill="#100F0D" d="M 138.210938 208.289062 L 143.507812 208.289062 L 143.507812 203 L 138.210938 203 L 138.210938 208.289062"/><path fill="#100F0D" d="M 96.507812 169.128906 C 96.390625 168.957031 96.234375 168.785156 96.019531 168.683594 C 96.003906 168.667969 95.992188 168.667969 95.976562 168.667969 C 96.105469 168.796875 96.234375 168.914062 96.347656 169.042969 C 96.449219 169.15625 96.535156 169.273438 96.621094 169.375 C 96.59375 169.285156 96.550781 169.214844 96.507812 169.128906"/><path fill="#100F0D" d="M 143.507812 185.648438 L 138.210938 185.648438 L 138.210938 190.933594 L 143.507812 190.933594 L 143.507812 185.648438"/><g clip-path="url(#b)"><path fill="#100F0D" d="M 81.863281 265.132812 L 86.085938 265.132812 L 86.085938 264.371094 L 81.863281 264.371094 L 81.863281 265.132812"/></g><path fill="#100F0D" d="M 138.210938 242.996094 L 143.507812 242.996094 L 143.507812 237.695312 L 138.210938 237.695312 L 138.210938 242.996094"/><path fill="#100F0D" d="M 138.210938 225.640625 L 143.507812 225.640625 L 143.507812 220.355469 L 138.210938 220.355469 L 138.210938 225.640625"/><path fill="#100F0D" d="M 158.320312 142.871094 L 154.273438 142.871094 L 154.273438 146.90625 L 158.320312 146.90625 L 158.320312 142.871094"/><path fill="#100F0D" d="M 154.273438 157.867188 L 158.320312 157.867188 L 158.320312 153.816406 L 154.273438 153.816406 L 154.273438 157.867188"/><path fill="#100F0D" d="M 154.273438 168.828125 L 158.320312 168.828125 L 158.320312 164.777344 L 154.273438 164.777344 L 154.273438 168.828125"/><path fill="#100F0D" d="M 180.257812 121.867188 L 180.472656 121.507812 L 180.472656 123.246094 L 180.386719 123.246094 L 180.386719 123.417969 L 182.035156 123.417969 L 182.035156 123.246094 L 181.964844 123.246094 L 181.964844 121.507812 L 182.167969 121.867188 L 182.167969 121.679688 L 181.21875 119.667969 L 180.257812 121.679688 L 180.257812 121.867188"/><path fill="#100F0D" d="M 20.324219 228.183594 L 29.984375 228.183594 L 29.984375 226.890625 L 20.324219 226.890625 L 20.324219 228.183594"/><path fill="#100F0D" d="M 20.324219 231.859375 L 29.984375 231.859375 L 29.984375 230.570312 L 20.324219 230.570312 L 20.324219 231.859375"/><path fill="#100F0D" d="M 20.324219 224.507812 L 29.984375 224.507812 L 29.984375 223.214844 L 20.324219 223.214844 L 20.324219 224.507812"/><path fill="#100F0D" d="M 20.324219 220.828125 L 29.984375 220.828125 L 29.984375 219.523438 L 20.324219 219.523438 L 20.324219 220.828125"/><path fill="#100F0D" d="M 20.324219 235.554688 L 29.984375 235.554688 L 29.984375 234.246094 L 20.324219 234.246094 L 20.324219 235.554688"/><path fill="#100F0D" d="M 20.324219 246.585938 L 29.984375 246.585938 L 29.984375 245.292969 L 20.324219 245.292969 L 20.324219 246.585938"/><path fill="#100F0D" d="M 20.324219 217.152344 L 29.984375 217.152344 L 29.984375 215.84375 L 20.324219 215.84375 L 20.324219 217.152344"/><path fill="#100F0D" d="M 20.324219 242.90625 L 29.984375 242.90625 L 29.984375 241.601562 L 20.324219 241.601562 L 20.324219 242.90625"/><path fill="#100F0D" d="M 20.324219 239.230469 L 29.984375 239.230469 L 29.984375 237.921875 L 20.324219 237.921875 L 20.324219 239.230469"/><path fill="#100F0D" d="M 13.289062 253.910156 L 16.703125 253.910156 L 16.703125 250.492188 L 13.289062 250.492188 L 13.289062 253.910156"/><path fill="#100F0D" d="M 13.289062 229.894531 L 16.703125 229.894531 L 16.703125 226.472656 L 13.289062 226.472656 L 13.289062 229.894531"/><path fill="#100F0D" d="M 16.703125 210.457031 L 13.289062 210.457031 L 13.289062 213.875 L 16.703125 213.875 L 16.703125 210.457031"/><path fill="#100F0D" d="M 13.289062 221.890625 L 16.703125 221.890625 L 16.703125 218.472656 L 13.289062 218.472656 L 13.289062 221.890625"/><path fill="#100F0D" d="M 13.289062 237.894531 L 16.703125 237.894531 L 16.703125 234.476562 L 13.289062 234.476562 L 13.289062 237.894531"/><path fill="#100F0D" d="M 20.324219 213.460938 L 29.984375 213.460938 L 29.984375 212.167969 L 20.324219 212.167969 L 20.324219 213.460938"/><path fill="#100F0D" d="M 13.289062 245.910156 L 16.703125 245.910156 L 16.703125 242.492188 L 13.289062 242.492188 L 13.289062 245.910156"/><path fill="#100F0D" d="M 29.984375 204.8125 L 20.324219 204.8125 L 20.324219 206.105469 L 29.984375 206.105469 L 29.984375 204.8125"/><path fill="#100F0D" d="M 20.324219 209.78125 L 29.984375 209.78125 L 29.984375 208.488281 L 20.324219 208.488281 L 20.324219 209.78125"/><path fill="#100F0D" d="M 20.324219 250.261719 L 29.984375 250.261719 L 29.984375 248.96875 L 20.324219 248.96875 L 20.324219 250.261719"/><g clip-path="url(#c)"><path fill="#100F0D" d="M 68.253906 265.132812 L 72.476562 265.132812 L 72.476562 264.371094 L 68.253906 264.371094 L 68.253906 265.132812"/></g><path fill="#100F0D" d="M 68.253906 262.214844 L 72.476562 262.214844 L 72.476562 257.992188 L 68.253906 257.992188 L 68.253906 262.214844"/><path fill="#100F0D" d="M 68.253906 255.824219 L 72.476562 255.824219 L 72.476562 251.597656 L 68.253906 251.597656 L 68.253906 255.824219"/><path fill="#100F0D" d="M 68.253906 249.445312 L 72.476562 249.445312 L 72.476562 245.222656 L 68.253906 245.222656 L 68.253906 249.445312"/><path fill="#100F0D" d="M 68.253906 243.039062 L 72.476562 243.039062 L 72.476562 238.8125 L 68.253906 238.8125 L 68.253906 243.039062"/><path fill="#100F0D" d="M 75.058594 211.132812 L 79.28125 211.132812 L 79.28125 206.894531 L 75.058594 206.894531 L 75.058594 211.132812"/><path fill="#100F0D" d="M 79.28125 187.746094 L 75.058594 187.746094 L 75.058594 191.984375 L 79.28125 191.984375 L 79.28125 187.746094"/><path fill="#100F0D" d="M 75.058594 204.738281 L 79.28125 204.738281 L 79.28125 200.515625 L 75.058594 200.515625 L 75.058594 204.738281"/><path fill="#100F0D" d="M 68.253906 236.660156 L 72.476562 236.660156 L 72.476562 232.421875 L 68.253906 232.421875 L 68.253906 236.660156"/><path fill="#100F0D" d="M 75.058594 198.363281 L 79.28125 198.363281 L 79.28125 194.136719 L 75.058594 194.136719 L 75.058594 198.363281"/><path fill="#100F0D" d="M 20.324219 253.941406 L 29.984375 253.941406 L 29.984375 252.648438 L 20.324219 252.648438 L 20.324219 253.941406"/><path fill="#100F0D" d="M 72.476562 187.746094 L 68.253906 187.746094 L 68.253906 191.984375 L 72.476562 191.984375 L 72.476562 187.746094"/><path fill="#100F0D" d="M 68.253906 198.363281 L 72.476562 198.363281 L 72.476562 194.136719 L 68.253906 194.136719 L 68.253906 198.363281"/><path fill="#100F0D" d="M 20.324219 264.988281 L 29.984375 264.988281 L 29.984375 263.679688 L 20.324219 263.679688 L 20.324219 264.988281"/><path fill="#100F0D" d="M 20.324219 257.617188 L 29.984375 257.617188 L 29.984375 256.324219 L 20.324219 256.324219 L 20.324219 257.617188"/><path fill="#100F0D" d="M 68.253906 211.132812 L 72.476562 211.132812 L 72.476562 206.894531 L 68.253906 206.894531 L 68.253906 211.132812"/><path fill="#100F0D" d="M 68.253906 223.886719 L 72.476562 223.886719 L 72.476562 219.664062 L 68.253906 219.664062 L 68.253906 223.886719"/><path fill="#100F0D" d="M 68.253906 217.511719 L 72.476562 217.511719 L 72.476562 213.273438 L 68.253906 213.273438 L 68.253906 217.511719"/><path fill="#100F0D" d="M 68.253906 204.738281 L 72.476562 204.738281 L 72.476562 200.515625 L 68.253906 200.515625 L 68.253906 204.738281"/><path fill="#100F0D" d="M 68.253906 230.265625 L 72.476562 230.265625 L 72.476562 226.042969 L 68.253906 226.042969 L 68.253906 230.265625"/><path fill="#100F0D" d="M 20.324219 261.308594 L 29.984375 261.308594 L 29.984375 260.003906 L 20.324219 260.003906 L 20.324219 261.308594"/><path fill="#100F0D" d="M 337.019531 245.636719 L 341.3125 245.636719 L 341.3125 241.328125 L 337.019531 241.328125 L 337.019531 245.636719"/><path fill="#100F0D" d="M 337.019531 239.144531 L 341.3125 239.144531 L 341.3125 234.835938 L 337.019531 234.835938 L 337.019531 239.144531"/><path fill="#100F0D" d="M 337.019531 232.636719 L 341.3125 232.636719 L 341.3125 228.34375 L 337.019531 228.34375 L 337.019531 232.636719"/><path fill="#100F0D" d="M 343.9375 226.144531 L 348.230469 226.144531 L 348.230469 221.847656 L 343.9375 221.847656 L 343.9375 226.144531"/><path fill="#100F0D" d="M 348.230469 208.863281 L 343.9375 208.863281 L 343.9375 213.15625 L 348.230469 213.15625 L 348.230469 208.863281"/><path fill="#100F0D" d="M 343.9375 219.652344 L 348.230469 219.652344 L 348.230469 215.355469 L 343.9375 215.355469 L 343.9375 219.652344"/><path fill="#100F0D" d="M 330.097656 239.144531 L 334.390625 239.144531 L 334.390625 234.835938 L 330.097656 234.835938 L 330.097656 239.144531"/><path fill="#100F0D" d="M 343.9375 232.636719 L 348.230469 232.636719 L 348.230469 228.34375 L 343.9375 228.34375 L 343.9375 232.636719"/><path fill="#100F0D" d="M 337.019531 226.144531 L 341.3125 226.144531 L 341.3125 221.847656 L 337.019531 221.847656 L 337.019531 226.144531"/><path fill="#100F0D" d="M 330.097656 232.636719 L 334.390625 232.636719 L 334.390625 228.34375 L 330.097656 228.34375 L 330.097656 232.636719"/><path fill="#100F0D" d="M 337.019531 219.652344 L 341.3125 219.652344 L 341.3125 215.355469 L 337.019531 215.355469 L 337.019531 219.652344"/><path fill="#100F0D" d="M 341.3125 208.863281 L 337.019531 208.863281 L 337.019531 213.15625 L 341.3125 213.15625 L 341.3125 208.863281"/><g clip-path="url(#d)"><path fill="#100F0D" d="M 302.277344 178.136719 L 308.9375 170.753906 L 308.9375 149.535156 L 309.441406 149.535156 L 339.230469 152.894531 C 339.488281 152.351562 340.03125 151.960938 340.679688 151.960938 C 341.554688 151.960938 342.257812 152.667969 342.257812 153.542969 C 342.257812 154.40625 341.554688 155.121094 340.679688 155.121094 C 339.816406 155.121094 339.101562 154.40625 339.101562 153.542969 C 339.101562 153.457031 339.113281 153.371094 339.128906 153.285156 L 309.441406 149.9375 L 309.441406 150.46875 L 337.0625 159.21875 L 337.0625 162.59375 L 309.441406 151.445312 L 309.441406 170.753906 L 316.117188 178.136719 L 316.117188 178.625 L 302.277344 178.625 Z M 343.824219 157.390625 L 337.535156 157.390625 L 339.085938 155.496094 C 339.515625 155.855469 340.078125 156.085938 340.679688 156.085938 C 341.296875 156.085938 341.84375 155.855469 342.285156 155.496094 Z M 343.824219 164.847656 L 337.535156 164.847656 L 337.535156 157.621094 L 343.824219 157.621094 Z M 358.378906 219.578125 C 358.320312 219.378906 358.277344 219.164062 358.277344 218.933594 C 358.277344 217.625 359.339844 216.5625 360.648438 216.5625 C 360.75 216.5625 360.847656 216.5625 360.949219 216.578125 C 361.378906 215.023438 362.800781 213.890625 364.480469 213.890625 C 366.519531 213.890625 368.167969 215.542969 368.167969 217.582031 C 368.167969 219.621094 366.519531 221.273438 364.480469 221.273438 C 363.691406 221.273438 362.957031 221.015625 362.339844 220.585938 C 361.910156 221.015625 361.324219 221.304688 360.648438 221.304688 C 360.316406 221.304688 360 221.230469 359.699219 221.101562 C 359.554688 221.5625 359.113281 221.90625 358.59375 221.90625 C 357.949219 221.90625 357.433594 221.375 357.433594 220.726562 C 357.433594 220.167969 357.832031 219.695312 358.378906 219.578125 Z M 365.183594 225.441406 C 364.8125 225.441406 364.464844 225.3125 364.195312 225.109375 C 363.992188 225.3125 363.707031 225.441406 363.402344 225.441406 C 363.246094 225.441406 363.089844 225.410156 362.957031 225.355469 C 362.886719 225.570312 362.6875 225.726562 362.441406 225.726562 C 362.140625 225.726562 361.898438 225.484375 361.898438 225.179688 C 361.898438 224.910156 362.082031 224.691406 362.339844 224.648438 C 362.3125 224.550781 362.296875 224.449219 362.296875 224.332031 C 362.296875 223.730469 362.785156 223.242188 363.402344 223.242188 C 363.445312 223.242188 363.488281 223.242188 363.53125 223.257812 C 363.734375 222.523438 364.394531 221.992188 365.183594 221.992188 C 366.132812 221.992188 366.90625 222.769531 366.90625 223.714844 C 366.90625 224.664062 366.132812 225.441406 365.183594 225.441406 Z M 19.117188 208.488281 L 19.117188 200.515625 L 29.984375 200.515625 L 29.984375 192.945312 L 34.535156 192.945312 L 34.535156 185.363281 L 37.5625 185.363281 L 37.5625 177.789062 L 39.457031 177.789062 L 39.457031 163.09375 L 42.285156 163.09375 L 42.285156 177.789062 L 44.179688 177.789062 L 44.179688 185.363281 L 47.210938 185.363281 L 47.210938 192.945312 L 51.761719 192.945312 L 51.761719 200.515625 L 60.417969 200.515625 L 60.417969 217.511719 L 65.558594 217.511719 L 65.558594 183.523438 L 88.785156 183.523438 L 88.785156 247.101562 L 93.0625 247.101562 C 93.105469 246.425781 93.148438 245.738281 93.164062 245.078125 C 93.191406 244.113281 93.191406 243.167969 93.164062 242.234375 C 93.121094 241.300781 93.046875 240.378906 92.933594 239.488281 C 92.816406 238.585938 92.660156 237.707031 92.429688 236.875 L 92.429688 236.859375 C 92.371094 236.269531 92.34375 235.683594 92.34375 235.09375 C 92.34375 234.519531 92.359375 233.945312 92.402344 233.382812 C 92.429688 232.808594 92.5 232.25 92.601562 231.71875 C 92.703125 231.1875 92.847656 230.667969 93.0625 230.179688 L 93.0625 230.152344 L 93.550781 221.289062 C 93.320312 221.03125 93.121094 220.726562 92.976562 220.414062 C 92.832031 220.082031 92.730469 219.738281 92.660156 219.390625 C 92.515625 218.703125 92.515625 218 92.574219 217.324219 C 92.632812 216.632812 92.761719 215.960938 92.933594 215.3125 C 93.089844 214.679688 93.292969 214.0625 93.535156 213.472656 C 93.433594 213.429688 93.335938 213.386719 93.25 213.316406 C 93.148438 213.242188 93.074219 213.144531 93.003906 213.042969 C 92.875 212.828125 92.804688 212.582031 92.773438 212.351562 C 92.730469 212.109375 92.730469 211.863281 92.746094 211.636719 C 92.761719 211.40625 92.804688 211.191406 92.847656 210.960938 C 92.546875 210.746094 92.300781 210.441406 92.15625 210.097656 C 92.015625 209.753906 91.957031 209.378906 91.941406 209.007812 C 91.941406 208.632812 91.984375 208.273438 92.058594 207.929688 C 92.128906 207.570312 92.230469 207.226562 92.34375 206.894531 C 92.574219 206.21875 92.859375 205.585938 93.175781 204.984375 C 93.476562 204.410156 93.792969 203.863281 94.152344 203.347656 C 93.5625 203.476562 92.933594 203.375 92.429688 203.089844 C 91.882812 202.785156 91.484375 202.269531 91.296875 201.695312 C 91.109375 201.121094 91.152344 200.488281 91.398438 199.957031 C 91.65625 199.4375 91.925781 198.9375 92.199219 198.449219 C 92.746094 197.457031 93.320312 196.539062 93.910156 195.660156 C 93.996094 195.53125 94.082031 195.402344 94.167969 195.273438 C 94.050781 195.203125 93.9375 195.117188 93.867188 195 C 93.765625 194.871094 93.707031 194.726562 93.648438 194.582031 C 93.578125 194.3125 93.535156 194.023438 93.550781 193.734375 C 93.378906 193.722656 93.21875 193.679688 93.074219 193.59375 C 92.917969 193.492188 92.804688 193.335938 92.746094 193.160156 C 92.703125 192.988281 92.703125 192.800781 92.71875 192.628906 C 92.730469 192.472656 92.773438 192.328125 92.832031 192.183594 C 92.675781 192.183594 92.5 192.171875 92.359375 192.128906 C 92.171875 192.070312 92.015625 191.953125 91.914062 191.796875 C 91.796875 191.652344 91.742188 191.464844 91.710938 191.292969 C 91.699219 191.121094 91.699219 190.964844 91.710938 190.792969 C 91.496094 190.691406 91.308594 190.546875 91.179688 190.332031 C 91.050781 190.117188 90.996094 189.871094 90.980469 189.628906 C 90.980469 189.382812 91.007812 189.152344 91.050781 188.910156 C 91.09375 188.75 91.152344 188.609375 91.210938 188.464844 C 90.894531 187.992188 90.878906 187.328125 91.09375 186.785156 C 91.382812 186.109375 91.925781 185.589844 92.457031 185.101562 C 91.941406 185.058594 91.582031 184.542969 91.410156 184.054688 C 91.238281 183.550781 91.152344 182.992188 90.835938 182.574219 C 90.519531 182.171875 90.003906 181.957031 89.585938 181.640625 C 88.8125 181.082031 88.324219 180.191406 88.125 179.242188 C 87.9375 178.308594 88.007812 177.332031 88.210938 176.398438 C 88.625 174.402344 89.617188 172.535156 90.980469 171.023438 C 90.664062 169.515625 90.378906 168.023438 90.132812 166.585938 C 89.730469 164.246094 89.414062 161.988281 89.128906 159.878906 C 88.855469 157.75 88.613281 155.753906 88.425781 153.875 C 87.707031 153.859375 87.132812 153.457031 87.132812 152.9375 L 87.132812 152.078125 L 87.117188 152.078125 L 87.117188 152.0625 C 87.105469 151.015625 87.105469 149.664062 87.105469 148.097656 C 87.074219 148.097656 87.0625 148.097656 87.046875 148.097656 C 86.976562 148.113281 86.890625 148.082031 86.832031 148.039062 C 86.773438 147.984375 86.746094 147.910156 86.746094 147.839844 C 86.746094 147.566406 86.746094 147.308594 86.746094 147.050781 C 86.746094 146.691406 86.746094 146.332031 86.746094 145.957031 C 86.746094 145.597656 86.746094 145.238281 86.746094 144.867188 C 86.746094 144.59375 86.746094 144.304688 86.746094 144.019531 C 86.746094 143.875 86.847656 143.773438 86.976562 143.746094 C 87.019531 143.746094 87.046875 143.746094 87.089844 143.746094 C 87.089844 143.070312 87.089844 142.394531 87.089844 141.691406 L 87.089844 141.675781 C 86.703125 141.648438 86.402344 141.332031 86.402344 140.945312 L 86.402344 139.796875 C 85.871094 139.824219 85.339844 139.851562 84.808594 139.894531 C 84.808594 139.609375 84.808594 139.320312 84.808594 139.035156 C 84.808594 138.601562 84.808594 138.15625 84.808594 137.710938 C 85.4375 137.65625 86.070312 137.625 86.703125 137.597656 C 86.6875 137.039062 86.6875 136.433594 86.6875 135.789062 L 86.6875 135.746094 L 86.703125 135.746094 C 86.414062 135.429688 84.992188 133.648438 86.832031 130.875 C 87.835938 129.351562 88.640625 128.359375 89.242188 127.339844 C 89.242188 127.339844 93.292969 133.402344 90.335938 135.757812 L 90.335938 135.789062 C 90.320312 136.375 90.320312 136.980469 90.304688 137.597656 C 90.953125 137.625 91.582031 137.65625 92.230469 137.710938 C 92.230469 138.15625 92.230469 138.601562 92.230469 139.035156 C 92.230469 139.320312 92.230469 139.609375 92.230469 139.894531 C 91.699219 139.851562 91.167969 139.824219 90.636719 139.796875 L 90.636719 140.945312 C 90.636719 141.359375 90.304688 141.691406 89.902344 141.691406 C 89.902344 142.207031 89.902344 142.769531 89.902344 143.316406 C 90.105469 143.386719 90.292969 143.5 90.433594 143.644531 C 90.605469 143.789062 90.75 143.945312 90.867188 144.121094 C 90.910156 144.175781 90.9375 144.25 90.980469 144.304688 C 90.980469 144.320312 90.980469 144.320312 90.980469 144.320312 C 90.996094 144.347656 91.007812 144.378906 91.023438 144.40625 C 91.167969 144.664062 91.265625 144.910156 91.339844 145.167969 C 91.425781 145.5 91.484375 145.828125 91.496094 146.128906 C 91.527344 146.433594 91.527344 146.703125 91.527344 146.949219 C 91.511719 147.367188 91.46875 147.695312 91.441406 147.941406 C 91.425781 148.097656 91.425781 148.257812 91.425781 148.414062 C 91.554688 150.570312 91.726562 152.679688 91.972656 154.777344 C 92.214844 156.859375 92.53125 158.914062 92.933594 160.910156 C 93.347656 162.910156 93.851562 164.863281 94.554688 166.714844 C 94.667969 167.015625 94.785156 167.304688 94.914062 167.605469 L 94.929688 167.578125 C 95.273438 167.921875 95.601562 168.265625 95.933594 168.625 C 95.960938 168.640625 96.003906 168.640625 96.035156 168.65625 C 96.25 168.769531 96.40625 168.941406 96.519531 169.113281 C 96.578125 169.214844 96.621094 169.316406 96.664062 169.417969 C 96.964844 169.761719 97.269531 170.105469 97.554688 170.480469 C 99.578125 172.980469 101.289062 175.738281 102.652344 178.652344 C 102.792969 178.824219 102.9375 178.984375 103.097656 179.128906 C 103.097656 179.128906 103.109375 179.140625 103.109375 179.140625 L 103.28125 176.441406 C 102.910156 175.878906 102.621094 175.25 102.421875 174.574219 C 102.421875 174.542969 102.40625 174.515625 102.40625 174.488281 C 101.171875 174.285156 101.042969 173.410156 101.042969 173.195312 C 100.941406 173.207031 100.855469 173.222656 100.757812 173.222656 C 100.65625 173.222656 100.539062 173.207031 100.441406 173.179688 C 100.339844 173.136719 100.253906 173.078125 100.195312 172.992188 C 100.125 172.890625 100.097656 172.792969 100.082031 172.691406 C 100.082031 172.648438 100.082031 172.589844 100.082031 172.546875 L 100.097656 172.390625 C 100.097656 172.304688 100.097656 172.203125 100.109375 172.117188 C 100.125 171.914062 100.152344 171.730469 100.195312 171.542969 C 100.238281 171.3125 100.296875 171.097656 100.355469 170.867188 C 100.238281 170.59375 100.125 170.308594 100.054688 170.003906 C 99.9375 169.515625 99.910156 168.972656 99.964844 168.453125 C 99.980469 168.394531 99.996094 168.339844 100.011719 168.28125 L 95.890625 166.929688 C 95.859375 166.917969 95.832031 166.886719 95.847656 166.859375 C 95.847656 166.832031 95.875 166.800781 95.902344 166.800781 L 100.585938 166.65625 C 100.8125 166.269531 101.085938 165.882812 101.417969 165.550781 C 101.472656 165.496094 101.53125 165.453125 101.589844 165.410156 L 98.761719 161.097656 C 98.730469 161.070312 98.746094 161.011719 98.773438 160.984375 C 98.804688 160.957031 98.847656 160.957031 98.875 160.984375 L 103.65625 164.117188 C 103.898438 164.015625 104.144531 163.929688 104.402344 163.855469 C 104.632812 163.800781 104.875 163.757812 105.121094 163.714844 L 106.339844 157.835938 C 106.355469 157.792969 106.398438 157.75 106.441406 157.75 C 106.484375 157.75 106.511719 157.792969 106.527344 157.835938 L 107.746094 163.726562 C 107.832031 163.742188 107.917969 163.742188 108.003906 163.769531 C 108.40625 163.84375 108.808594 163.984375 109.199219 164.128906 L 113.992188 160.984375 C 114.019531 160.957031 114.0625 160.957031 114.09375 160.984375 C 114.121094 161.011719 114.136719 161.070312 114.105469 161.097656 L 111.265625 165.421875 C 111.292969 165.453125 111.308594 165.464844 111.335938 165.480469 C 111.695312 165.824219 111.996094 166.226562 112.253906 166.65625 L 116.976562 166.800781 C 117.019531 166.800781 117.035156 166.832031 117.050781 166.859375 C 117.050781 166.886719 117.035156 166.917969 117.007812 166.929688 L 112.828125 168.308594 C 112.859375 168.539062 112.886719 168.753906 112.886719 168.972656 C 112.871094 168.972656 112.886719 169.042969 112.871094 169.15625 C 112.871094 169.285156 112.859375 169.460938 112.828125 169.6875 C 112.785156 169.933594 112.730469 170.21875 112.597656 170.550781 C 112.570312 170.652344 112.511719 170.765625 112.46875 170.867188 C 112.484375 170.9375 112.5 170.996094 112.527344 171.054688 C 112.644531 171.527344 112.6875 171.886719 112.714844 172.132812 C 112.730469 172.304688 112.730469 172.417969 112.730469 172.476562 C 112.730469 172.492188 112.730469 172.519531 112.730469 172.519531 C 112.742188 172.589844 112.730469 172.675781 112.714844 172.761719 C 112.714844 172.777344 112.714844 172.792969 112.699219 172.804688 C 112.699219 172.820312 112.699219 172.835938 112.699219 172.847656 C 112.65625 172.949219 112.585938 173.035156 112.484375 173.09375 C 112.414062 173.121094 112.355469 173.152344 112.285156 173.164062 C 112.425781 174.011719 112.929688 177.746094 111.59375 181.296875 C 111.40625 181.265625 111.222656 181.253906 111.050781 181.238281 C 111.234375 181.253906 111.40625 181.28125 111.59375 181.296875 C 111.625 181.308594 111.652344 181.308594 111.679688 181.308594 C 111.679688 181.308594 111.679688 181.296875 111.679688 181.296875 C 111.695312 181.296875 111.695312 181.296875 111.710938 181.308594 C 111.765625 181.308594 111.808594 181.324219 111.867188 181.324219 C 111.894531 181.324219 111.925781 181.339844 111.953125 181.339844 C 111.996094 181.339844 112.039062 181.339844 112.070312 181.355469 C 112.125 181.355469 112.183594 181.367188 112.242188 181.382812 C 112.253906 181.382812 112.269531 181.398438 112.296875 181.398438 C 112.339844 181.410156 112.382812 181.410156 112.441406 181.425781 C 112.542969 181.453125 112.644531 181.46875 112.742188 181.496094 C 112.785156 181.511719 112.828125 181.527344 112.871094 181.527344 C 112.914062 181.539062 112.945312 181.554688 112.988281 181.554688 C 113.101562 181.597656 113.203125 181.625 113.304688 181.667969 C 113.402344 181.699219 113.503906 181.742188 113.605469 181.769531 C 113.632812 181.785156 113.660156 181.800781 113.691406 181.8125 C 113.835938 181.871094 113.992188 181.941406 114.136719 182.015625 C 114.136719 182.027344 114.148438 182.027344 114.164062 182.042969 C 114.308594 182.113281 114.453125 182.199219 114.59375 182.289062 C 114.59375 182.300781 114.59375 182.300781 114.59375 182.300781 C 116.820312 183.78125 116.933594 186.453125 116.691406 188.234375 L 116.734375 188.261719 C 116.734375 188.261719 117.207031 190.574219 118.773438 191.394531 L 119.648438 190.332031 L 119.675781 190.289062 L 119.71875 190.316406 L 119.804688 190.390625 L 120.726562 190.589844 L 126.480469 195.257812 L 125.605469 196.308594 C 125.949219 196.507812 126.164062 196.925781 126.164062 197.328125 C 126.152344 197.875 125.835938 198.363281 125.503906 198.792969 C 124.917969 199.539062 124.226562 200.214844 123.464844 200.773438 C 123.066406 201.078125 122.632812 201.335938 122.144531 201.40625 C 121.917969 201.4375 121.65625 201.394531 121.441406 201.308594 L 120.855469 202.011719 C 120.984375 204.09375 121.039062 209.652344 117.765625 208.316406 C 117.898438 209.164062 117.996094 210.027344 118.113281 210.859375 C 118.484375 213.777344 118.757812 216.589844 118.945312 219.277344 L 118.960938 219.523438 L 118.902344 219.421875 C 118.914062 219.480469 118.914062 219.523438 118.914062 219.59375 C 118.914062 219.695312 118.902344 219.824219 118.859375 219.96875 C 118.828125 220.039062 118.785156 220.125 118.730469 220.183594 C 118.671875 220.253906 118.585938 220.3125 118.484375 220.324219 L 118.472656 220.324219 C 118.914062 224.636719 118.773438 229.417969 118.773438 229.417969 C 118.773438 229.417969 118.960938 232.722656 119.117188 234.878906 C 119.132812 235.152344 119.160156 235.4375 119.1875 235.710938 C 119.21875 236.054688 119.246094 237.5625 117.550781 237.117188 C 117.636719 238.3125 117.722656 239.488281 117.855469 240.636719 C 118.070312 242.722656 118.355469 244.734375 118.785156 246.644531 C 118.828125 246.800781 118.871094 246.945312 118.914062 247.101562 L 124.269531 247.101562 L 124.269531 229.894531 L 133.757812 229.894531 L 133.757812 179.773438 L 147.957031 179.773438 L 147.957031 137.597656 L 153.441406 137.597656 L 153.441406 131.25 L 156.785156 131.25 C 157.445312 130.3125 158.078125 129.378906 158.636719 128.445312 L 159.039062 127.757812 C 161.996094 122.699219 163.617188 117.628906 164.308594 112.960938 L 164.292969 112.960938 L 164.894531 112.457031 L 164.894531 99.714844 L 164.496094 99.214844 L 164.839844 98.769531 L 164.894531 98.695312 C 164.894531 98.695312 172.878906 85.941406 173.292969 60.285156 C 172.90625 60.242188 172.605469 59.925781 172.605469 59.523438 C 172.605469 59.105469 172.921875 58.789062 173.308594 58.746094 C 173.308594 58.746094 173.308594 58.734375 173.308594 58.71875 C 173.136719 58.675781 173.007812 58.515625 173.007812 58.316406 C 173.007812 58.085938 173.195312 57.898438 173.421875 57.898438 L 173.566406 57.898438 L 174.011719 57.238281 L 174.386719 57.238281 L 174.386719 50.34375 C 174.15625 50.414062 173.941406 50.457031 173.753906 50.457031 C 173.25 50.457031 172.980469 50.199219 172.847656 49.984375 C 172.675781 49.726562 172.632812 49.453125 172.632812 49.324219 C 172.632812 49.296875 172.632812 49.222656 172.675781 49.222656 L 172.691406 49.222656 L 172.707031 49.253906 C 172.75 49.308594 172.847656 49.394531 172.949219 49.46875 C 172.71875 49.066406 172.648438 48.621094 172.648438 48.589844 L 172.632812 48.492188 L 172.964844 48.894531 C 172.863281 48.578125 172.75 48.046875 172.75 48.015625 L 172.734375 47.988281 L 172.777344 47.988281 C 172.933594 47.988281 173.066406 48.1875 173.152344 48.375 C 173.179688 48.433594 173.195312 48.492188 173.222656 48.546875 C 173.4375 49.195312 174.070312 49.582031 174.398438 49.742188 L 174.585938 47.628906 L 174.773438 49.742188 C 175.089844 49.582031 175.734375 49.207031 175.949219 48.546875 C 175.980469 48.492188 175.992188 48.433594 176.023438 48.375 C 176.109375 48.1875 176.238281 47.988281 176.378906 47.988281 L 176.425781 47.988281 L 176.425781 48.015625 C 176.425781 48.046875 176.308594 48.578125 176.207031 48.894531 L 176.523438 48.492188 L 176.511719 48.589844 C 176.511719 48.621094 176.453125 49.066406 176.222656 49.46875 C 176.308594 49.394531 176.425781 49.308594 176.46875 49.253906 L 176.46875 49.238281 L 176.496094 49.222656 L 176.511719 49.222656 L 176.523438 49.253906 C 176.554688 49.296875 176.523438 49.640625 176.367188 49.925781 C 176.222656 50.171875 175.949219 50.457031 175.417969 50.457031 C 175.230469 50.457031 175.015625 50.414062 174.789062 50.34375 L 174.789062 57.238281 L 175.160156 57.238281 L 175.589844 57.898438 L 175.75 57.898438 C 175.980469 57.898438 176.164062 58.085938 176.164062 58.316406 C 176.164062 58.515625 176.035156 58.675781 175.851562 58.71875 C 175.851562 58.734375 175.851562 58.746094 175.851562 58.746094 C 176.25 58.789062 176.554688 59.105469 176.554688 59.523438 C 176.554688 59.925781 176.25 60.242188 175.863281 60.285156 C 176.28125 85.941406 184.261719 98.695312 184.261719 98.695312 L 184.332031 98.769531 L 184.679688 99.214844 L 184.332031 99.644531 L 184.261719 99.714844 L 184.261719 112.457031 L 184.863281 112.960938 C 185.554688 117.628906 187.203125 122.699219 190.160156 127.773438 L 190.578125 128.445312 C 191.152344 129.378906 191.769531 130.3125 192.429688 131.25 L 195.761719 131.25 L 195.761719 137.597656 L 201.246094 137.597656 L 201.246094 236.488281 L 206.945312 236.488281 L 206.945312 156.445312 L 213 156.445312 L 213 148.859375 L 217.839844 148.859375 L 217.839844 141.289062 L 222.546875 141.289062 L 222.546875 133.734375 L 227.113281 133.734375 L 227.113281 126.148438 L 230.140625 126.148438 L 230.140625 118.578125 L 232.035156 118.578125 L 232.035156 103.882812 L 234.851562 103.882812 L 234.851562 118.578125 L 236.746094 118.578125 L 236.746094 126.148438 L 239.773438 126.148438 L 239.773438 133.734375 L 244.339844 133.734375 L 244.339844 141.289062 L 249.320312 141.289062 L 249.320312 148.859375 L 254.160156 148.859375 L 254.160156 156.445312 L 260.214844 156.445312 L 260.214844 246.886719 C 262.886719 242.503906 265.527344 237.664062 267.898438 232.492188 L 267.898438 229.460938 L 267.324219 229.460938 L 267.324219 228.585938 L 267.898438 228.585938 L 267.898438 226.804688 L 266.707031 226.804688 L 266.707031 225.929688 L 269.046875 225.929688 C 271.628906 221.761719 278.90625 198.535156 279.914062 195.273438 L 279.152344 195.273438 L 279.152344 194.582031 L 279.425781 194.582031 L 279.425781 193.878906 L 278.851562 193.878906 L 278.851562 193.363281 L 279.4375 193.363281 L 279.4375 192.515625 C 278.636719 192.515625 277.972656 191.96875 277.972656 191.308594 C 277.972656 190.664062 278.621094 190.128906 279.410156 190.101562 L 279.410156 187.992188 L 279.050781 187.992188 C 278.894531 187.992188 278.777344 187.875 278.777344 187.71875 L 278.777344 187.371094 C 278.777344 187.230469 278.894531 187.097656 279.050781 187.097656 L 280.601562 187.097656 C 284.75 172.804688 286.371094 131.03125 286.675781 122.113281 L 286.675781 120.875 L 286.558594 120.875 L 286.285156 120.300781 L 285.308594 117.542969 L 284.089844 117.542969 L 284.089844 115.820312 L 283.945312 115.820312 L 283.945312 115.304688 L 284.621094 115.304688 L 284.621094 110.835938 L 284.464844 110.835938 C 284.234375 110.835938 284.0625 110.648438 284.0625 110.433594 L 284.0625 110.058594 C 284.0625 109.945312 284.089844 109.859375 284.160156 109.785156 C 284.089844 109.714844 284.0625 109.613281 284.0625 109.511719 L 284.0625 109.140625 C 284.0625 108.910156 284.234375 108.738281 284.449219 108.722656 L 289.601562 104.816406 C 289.589844 104.800781 289.589844 104.789062 289.589844 104.773438 L 289.589844 103.769531 C 289.457031 103.652344 289.371094 103.496094 289.371094 103.324219 L 289.371094 98.867188 C 289.371094 98.695312 289.457031 98.523438 289.589844 98.421875 L 289.589844 96.066406 C 289.402344 96.039062 289.273438 95.867188 289.273438 95.679688 C 289.273438 95.480469 289.402344 95.320312 289.589844 95.277344 L 289.589844 94.042969 C 289.589844 93.898438 289.71875 93.769531 289.859375 93.769531 L 290.046875 93.769531 C 290.191406 93.769531 290.320312 93.898438 290.320312 94.042969 L 290.320312 95.277344 C 290.507812 95.320312 290.648438 95.480469 290.648438 95.679688 C 290.648438 95.867188 290.507812 96.039062 290.320312 96.066406 L 290.320312 98.421875 C 290.449219 98.539062 290.535156 98.695312 290.535156 98.867188 L 290.535156 103.324219 C 290.535156 103.496094 290.449219 103.652344 290.320312 103.769531 L 290.320312 104.773438 C 290.320312 104.789062 290.304688 104.800781 290.304688 104.816406 L 295.460938 108.722656 C 295.675781 108.738281 295.847656 108.910156 295.847656 109.140625 L 295.847656 109.511719 C 295.847656 109.613281 295.804688 109.714844 295.746094 109.785156 C 295.804688 109.859375 295.847656 109.945312 295.847656 110.058594 L 295.847656 110.433594 C 295.847656 110.648438 295.675781 110.835938 295.445312 110.835938 L 295.359375 110.835938 L 295.359375 115.304688 L 296.035156 115.304688 L 296.035156 115.820312 L 295.890625 115.820312 L 295.890625 117.542969 L 294.667969 117.542969 L 293.679688 120.300781 L 293.40625 120.875 L 293.292969 120.875 L 293.292969 121.851562 L 293.304688 121.851562 L 293.304688 122.113281 C 293.609375 131.03125 295.214844 172.804688 299.363281 187.097656 L 300.195312 187.097656 C 300.339844 187.097656 300.46875 187.230469 300.46875 187.371094 L 300.46875 187.71875 C 300.46875 187.875 300.339844 187.992188 300.195312 187.992188 L 300.140625 187.992188 L 300.140625 190.101562 C 300.929688 190.128906 301.558594 190.664062 301.558594 191.308594 C 301.558594 191.953125 300.957031 192.472656 300.167969 192.515625 L 300.167969 193.363281 L 300.726562 193.363281 L 300.726562 193.878906 L 300.152344 193.878906 L 300.152344 194.582031 L 300.46875 194.582031 L 300.46875 195.273438 L 299.695312 195.273438 C 300.714844 198.535156 307.992188 221.761719 310.574219 225.929688 L 312.914062 225.929688 L 312.914062 226.804688 L 311.722656 226.804688 L 311.722656 228.585938 L 312.296875 228.585938 L 312.296875 229.460938 L 311.722656 229.460938 L 311.722656 232.492188 C 312.773438 234.804688 313.878906 237.03125 315.027344 239.203125 L 318.84375 239.203125 L 318.84375 212.957031 L 319.621094 212.957031 L 319.621094 211.089844 L 320.367188 211.089844 L 320.367188 209.207031 L 320.839844 209.207031 L 320.839844 205.574219 L 321.542969 205.574219 L 321.542969 209.207031 L 322.003906 209.207031 L 322.003906 211.089844 L 322.761719 211.089844 L 322.761719 212.957031 L 323.539062 212.957031 L 323.539062 239.203125 L 327.703125 239.203125 L 327.703125 204.09375 L 338.441406 204.09375 L 338.441406 165.164062 L 342.917969 165.164062 L 342.917969 204.09375 L 350.613281 204.09375 L 350.613281 229.261719 L 355.851562 229.261719 L 355.851562 222.941406 L 358.453125 222.941406 L 358.453125 229.261719 L 361.105469 229.261719 L 361.105469 226.101562 L 363.707031 226.101562 L 363.707031 229.261719 L 370.996094 229.261719 C 371.097656 226.71875 371.171875 224.160156 371.171875 221.605469 C 371.171875 119.929688 288.796875 37.5 187.191406 37.5 C 89.976562 37.5 10.386719 112.933594 3.671875 208.488281 L 19.117188 208.488281"/></g><path fill="#100F0D" d="M 179.207031 104.613281 C 179.09375 105.03125 178.792969 105.320312 178.5625 105.476562 L 178.5625 111.066406 L 179.898438 111.066406 L 179.898438 105.503906 C 179.667969 105.363281 179.339844 105.074219 179.207031 104.613281"/><path fill="#100F0D" d="M 310.332031 177.1875 L 310.5625 177.1875 L 310.5625 176.253906 L 310.332031 176.253906 L 310.332031 177.1875"/><path fill="#100F0D" d="M 309.859375 178.136719 L 310.1875 178.136719 L 310.1875 177.1875 L 309.859375 177.1875 L 309.859375 178.136719"/><path fill="#100F0D" d="M 309.328125 175.304688 L 309.628906 175.304688 L 309.628906 174.359375 L 309.328125 174.359375 L 309.328125 175.304688"/><path fill="#100F0D" d="M 309.886719 175.304688 L 309.886719 176.253906 L 310.128906 176.253906 L 310.128906 175.304688 L 309.886719 175.304688"/><path fill="#100F0D" d="M 330.097656 226.144531 L 334.390625 226.144531 L 334.390625 221.847656 L 330.097656 221.847656 L 330.097656 226.144531"/><path fill="#100F0D" d="M 311.121094 178.136719 L 311.351562 178.136719 L 311.351562 177.1875 L 311.121094 177.1875 L 311.121094 178.136719"/><path fill="#100F0D" d="M 303.023438 178.136719 L 305.222656 178.136719 L 305.222656 177.1875 L 306.167969 177.1875 L 306.167969 178.136719 L 306.5 178.136719 L 306.5 177.1875 L 306.886719 177.1875 L 306.886719 176.253906 L 307.691406 176.253906 L 307.691406 175.304688 L 308.378906 175.304688 L 308.378906 174.359375 L 308.824219 174.359375 L 308.824219 173.425781 L 309.773438 173.425781 L 309.773438 174.359375 L 310.574219 174.359375 L 310.574219 175.304688 L 311.078125 175.304688 L 311.078125 176.253906 L 311.507812 176.253906 L 311.507812 177.1875 L 311.824219 177.1875 L 311.824219 176.253906 L 312.757812 176.253906 L 312.757812 177.1875 L 313.546875 177.1875 L 313.546875 178.136719 L 315.355469 178.136719 L 309.199219 171.3125 L 303.023438 178.136719"/><path fill="#100F0D" d="M 312.285156 178.136719 L 312.601562 178.136719 L 312.601562 177.1875 L 312.285156 177.1875 L 312.285156 178.136719"/><path fill="#100F0D" d="M 307.445312 178.136719 L 307.746094 178.136719 L 307.746094 177.1875 L 307.445312 177.1875 L 307.445312 178.136719"/><path fill="#100F0D" d="M 343.9375 252.117188 L 348.230469 252.117188 L 348.230469 247.820312 L 343.9375 247.820312 L 343.9375 252.117188"/><path fill="#100F0D" d="M 343.9375 245.636719 L 348.230469 245.636719 L 348.230469 241.328125 L 343.9375 241.328125 L 343.9375 245.636719"/><path fill="#100F0D" d="M 307.820312 177.1875 L 308.136719 177.1875 L 308.136719 176.253906 L 307.820312 176.253906 L 307.820312 177.1875"/><path fill="#100F0D" d="M 308.695312 178.136719 L 308.910156 178.136719 L 308.910156 177.1875 L 308.695312 177.1875 L 308.695312 178.136719"/><path fill="#100F0D" d="M 308.636719 176.253906 L 308.953125 176.253906 L 308.953125 175.304688 L 308.636719 175.304688 L 308.636719 176.253906"/><path fill="#100F0D" d="M 343.9375 239.144531 L 348.230469 239.144531 L 348.230469 234.835938 L 343.9375 234.835938 L 343.9375 239.144531"/><path fill="#100F0D" d="M 309.070312 177.1875 L 309.382812 177.1875 L 309.382812 176.253906 L 309.070312 176.253906 L 309.070312 177.1875"/><path fill="#100F0D" d="M 171.386719 87.777344 L 171.386719 87.964844 L 171.585938 87.605469 L 171.585938 89.34375 L 171.515625 89.34375 L 171.515625 89.53125 L 173.164062 89.53125 L 173.164062 89.34375 L 173.078125 89.34375 L 173.078125 87.605469 L 173.292969 87.964844 L 173.292969 87.777344 L 172.332031 85.769531 L 171.386719 87.777344"/><path fill="#100F0D" d="M 171.125 111.066406 L 172.460938 111.066406 L 172.460938 105.476562 C 172.230469 105.320312 171.929688 105.046875 171.816406 104.613281 C 171.6875 105.074219 171.355469 105.363281 171.125 105.519531 L 171.125 111.066406"/><path fill="#100F0D" d="M 172.992188 105.503906 L 172.992188 111.066406 L 174.328125 111.066406 L 174.328125 105.492188 C 174.082031 105.332031 173.78125 105.046875 173.667969 104.613281 C 173.539062 105.058594 173.222656 105.347656 172.992188 105.503906"/><path fill="#100F0D" d="M 170.335938 127.097656 L 170.550781 126.75 L 170.550781 128.476562 L 170.480469 128.476562 L 170.480469 128.664062 L 172.132812 128.664062 L 172.132812 128.476562 L 172.046875 128.476562 L 172.046875 126.75 L 172.261719 127.097656 L 172.261719 126.910156 L 171.300781 124.898438 L 170.335938 126.910156 L 170.335938 127.097656"/><path fill="#100F0D" d="M 173.625 94.085938 L 173.839844 93.726562 L 173.839844 95.464844 L 173.769531 95.464844 L 173.769531 95.636719 L 175.40625 95.636719 L 175.40625 95.464844 L 175.332031 95.464844 L 175.332031 93.726562 L 175.546875 94.085938 L 175.546875 93.898438 L 174.585938 91.886719 L 173.625 93.898438 L 173.625 94.085938"/><path fill="#100F0D" d="M 170.523438 164.777344 L 166.476562 164.777344 L 166.476562 168.828125 L 170.523438 168.828125 L 170.523438 164.777344"/><path fill="#100F0D" d="M 166.476562 179.773438 L 170.523438 179.773438 L 170.523438 175.738281 L 166.476562 175.738281 L 166.476562 179.773438"/><path fill="#100F0D" d="M 169.132812 93.882812 L 169.132812 94.085938 L 169.347656 93.710938 L 169.347656 95.449219 L 169.261719 95.449219 L 169.261719 95.636719 L 170.910156 95.636719 L 170.910156 95.449219 L 170.839844 95.449219 L 170.839844 93.726562 L 171.039062 94.085938 L 171.039062 93.882812 L 170.09375 91.875 L 169.132812 93.882812"/><path fill="#100F0D" d="M 170.59375 105.476562 C 170.367188 105.320312 170.078125 105.03125 169.964844 104.613281 C 169.835938 105.089844 169.503906 105.375 169.261719 105.519531 L 169.261719 111.066406 L 170.59375 111.066406 L 170.59375 105.476562"/><path fill="#100F0D" d="M 334.390625 208.863281 L 330.097656 208.863281 L 330.097656 213.15625 L 334.390625 213.15625 L 334.390625 208.863281"/><path fill="#100F0D" d="M 176.953125 126.910156 L 176.953125 127.097656 L 177.15625 126.75 L 177.15625 128.476562 L 177.085938 128.476562 L 177.085938 128.664062 L 178.734375 128.664062 L 178.734375 128.476562 L 178.648438 128.476562 L 178.648438 126.75 L 178.863281 127.097656 L 178.863281 126.910156 L 177.902344 124.898438 L 176.953125 126.910156"/><path fill="#100F0D" d="M 177.355469 104.613281 C 177.242188 105.046875 176.941406 105.320312 176.710938 105.492188 L 176.710938 111.066406 L 178.046875 111.066406 L 178.046875 105.503906 C 177.800781 105.347656 177.484375 105.058594 177.355469 104.613281"/><path fill="#100F0D" d="M 170.523438 153.816406 L 166.476562 153.816406 L 166.476562 157.867188 L 170.523438 157.867188 L 170.523438 153.816406"/><path fill="#100F0D" d="M 173.625 81.859375 L 173.839844 81.5 L 173.839844 83.238281 L 173.769531 83.238281 L 173.769531 83.425781 L 175.40625 83.425781 L 175.40625 83.238281 L 175.332031 83.238281 L 175.332031 81.5 L 175.546875 81.859375 L 175.546875 81.675781 L 174.585938 79.664062 L 173.625 81.675781 L 173.625 81.859375"/><path fill="#100F0D" d="M 175.878906 87.792969 L 175.878906 87.980469 L 176.078125 87.621094 L 176.078125 89.359375 L 176.007812 89.359375 L 176.007812 89.53125 L 177.660156 89.53125 L 177.660156 89.359375 L 177.585938 89.359375 L 177.585938 87.621094 L 177.789062 87.980469 L 177.789062 87.792969 L 176.824219 85.78125 L 175.878906 87.792969"/><path fill="#100F0D" d="M 173.625 75.570312 L 173.625 75.753906 L 173.839844 75.398438 L 173.839844 77.132812 L 173.769531 77.132812 L 173.769531 77.320312 L 175.40625 77.320312 L 175.40625 77.132812 L 175.332031 77.132812 L 175.332031 75.398438 L 175.546875 75.753906 L 175.546875 75.570312 L 174.585938 73.558594 L 173.625 75.570312"/><path fill="#100F0D" d="M 174.84375 105.492188 L 174.84375 111.066406 L 176.179688 111.066406 L 176.179688 105.492188 C 175.949219 105.347656 175.632812 105.058594 175.519531 104.613281 C 175.390625 105.046875 175.074219 105.332031 174.84375 105.492188"/><path fill="#100F0D" d="M 175.5625 121.867188 L 175.5625 121.679688 L 174.601562 119.667969 L 173.652344 121.679688 L 173.652344 121.867188 L 173.855469 121.507812 L 173.855469 123.246094 L 173.78125 123.246094 L 173.78125 123.417969 L 175.433594 123.417969 L 175.433594 123.246094 L 175.363281 123.246094 L 175.363281 121.507812 L 175.5625 121.867188"/><path fill="#100F0D" d="M 330.097656 219.652344 L 334.390625 219.652344 L 334.390625 215.355469 L 330.097656 215.355469 L 330.097656 219.652344"/><path fill="#100F0D" d="M 230.429688 204.796875 L 236.730469 204.796875 L 236.730469 198.503906 L 230.429688 198.503906 L 230.429688 204.796875"/><path fill="#100F0D" d="M 236.730469 165.480469 L 230.429688 165.480469 L 230.429688 171.785156 L 236.730469 171.785156 L 236.730469 165.480469"/><path fill="#100F0D" d="M 230.429688 188.292969 L 236.730469 188.292969 L 236.730469 181.984375 L 230.429688 181.984375 L 230.429688 188.292969"/><path fill="#100F0D" d="M 213.316406 188.292969 L 219.621094 188.292969 L 219.621094 181.984375 L 213.316406 181.984375 L 213.316406 188.292969"/><path fill="#100F0D" d="M 219.621094 165.480469 L 213.316406 165.480469 L 213.316406 171.785156 L 219.621094 171.785156 L 219.621094 165.480469"/><path fill="#100F0D" d="M 213.316406 204.796875 L 219.621094 204.796875 L 219.621094 198.503906 L 213.316406 198.503906 L 213.316406 204.796875"/><path fill="#100F0D" d="M 178.117188 93.898438 L 178.117188 94.085938 L 178.332031 93.726562 L 178.332031 95.464844 L 178.261719 95.464844 L 178.261719 95.652344 L 179.914062 95.652344 L 179.914062 95.464844 L 179.824219 95.464844 L 179.824219 93.726562 L 180.042969 94.085938 L 180.042969 93.898438 L 179.078125 91.886719 L 178.117188 93.898438"/><path fill="#100F0D" d="M 247.539062 188.292969 L 253.84375 188.292969 L 253.84375 181.984375 L 247.539062 181.984375 L 247.539062 188.292969"/><path fill="#100F0D" d="M 285.125 225.929688 L 294.496094 225.929688 C 293.910156 221.632812 293.046875 211.277344 292.558594 205.054688 L 292.53125 205.011719 L 292.558594 205 C 292.371094 202.644531 292.242188 200.890625 292.199219 200.300781 L 287.421875 200.300781 C 287.378906 200.890625 287.25 202.644531 287.0625 205 L 287.074219 205.011719 L 287.046875 205.054688 C 286.558594 211.277344 285.699219 221.632812 285.125 225.929688"/><path fill="#100F0D" d="M 247.539062 204.796875 L 253.84375 204.796875 L 253.84375 198.503906 L 247.539062 198.503906 L 247.539062 204.796875"/><path fill="#100F0D" d="M 166.273438 104.628906 C 166.160156 105.03125 165.871094 105.320312 165.644531 105.476562 L 165.644531 111.066406 L 166.878906 111.066406 L 166.878906 105.460938 C 166.648438 105.304688 166.390625 105.03125 166.273438 104.628906"/><path fill="#100F0D" d="M 253.84375 165.480469 L 247.539062 165.480469 L 247.539062 171.785156 L 253.84375 171.785156 L 253.84375 165.480469"/><path fill="#100F0D" d="M 194.929688 142.871094 L 190.894531 142.871094 L 190.894531 146.90625 L 194.929688 146.90625 L 194.929688 142.871094"/><path fill="#100F0D" d="M 185.480469 127.097656 L 185.480469 126.910156 L 184.519531 124.898438 L 183.558594 126.910156 L 183.558594 127.097656 L 183.773438 126.75 L 183.773438 128.476562 L 183.6875 128.476562 L 183.6875 128.664062 L 185.339844 128.664062 L 185.339844 128.476562 L 185.265625 128.476562 L 185.265625 126.75 L 185.480469 127.097656"/><path fill="#100F0D" d="M 190.894531 157.867188 L 194.929688 157.867188 L 194.929688 153.816406 L 190.894531 153.816406 L 190.894531 157.867188"/><path fill="#100F0D" d="M 190.894531 179.773438 L 194.929688 179.773438 L 194.929688 175.738281 L 190.894531 175.738281 L 190.894531 179.773438"/><path fill="#100F0D" d="M 163.734375 126.910156 L 163.734375 127.097656 L 163.949219 126.75 L 163.949219 128.476562 L 163.863281 128.476562 L 163.863281 128.664062 L 165.515625 128.664062 L 165.515625 128.476562 L 165.441406 128.476562 L 165.441406 126.75 L 165.65625 127.097656 L 165.65625 126.910156 L 164.695312 124.898438 L 163.734375 126.910156"/><path fill="#100F0D" d="M 190.894531 168.828125 L 194.929688 168.828125 L 194.929688 164.777344 L 190.894531 164.777344 L 190.894531 168.828125"/><path fill="#100F0D" d="M 178.691406 212.582031 L 182.726562 212.582031 L 182.726562 208.546875 L 178.691406 208.546875 L 178.691406 212.582031"/><path fill="#100F0D" d="M 154.273438 212.582031 L 158.320312 212.582031 L 158.320312 208.546875 L 154.273438 208.546875 L 154.273438 212.582031"/><path fill="#100F0D" d="M 182.726562 197.585938 L 178.691406 197.585938 L 178.691406 201.636719 L 182.726562 201.636719 L 182.726562 197.585938"/><path fill="#100F0D" d="M 182.726562 186.625 L 178.691406 186.625 L 178.691406 190.675781 L 182.726562 190.675781 L 182.726562 186.625"/><path fill="#100F0D" d="M 154.273438 190.675781 L 158.320312 190.675781 L 158.320312 186.625 L 154.273438 186.625 L 154.273438 190.675781"/><path fill="#100F0D" d="M 154.273438 201.636719 L 158.320312 201.636719 L 158.320312 197.585938 L 154.273438 197.585938 L 154.273438 201.636719"/><path fill="#100F0D" d="M 170.523438 197.585938 L 166.476562 197.585938 L 166.476562 201.636719 L 170.523438 201.636719 L 170.523438 197.585938"/><path fill="#100F0D" d="M 166.476562 212.582031 L 170.523438 212.582031 L 170.523438 208.546875 L 166.476562 208.546875 L 166.476562 212.582031"/><path fill="#100F0D" d="M 170.523438 186.625 L 166.476562 186.625 L 166.476562 190.675781 L 170.523438 190.675781 L 170.523438 186.625"/><path fill="#100F0D" d="M 190.894531 190.675781 L 194.929688 190.675781 L 194.929688 186.625 L 190.894531 186.625 L 190.894531 190.675781"/><path fill="#100F0D" d="M 190.894531 212.582031 L 194.929688 212.582031 L 194.929688 208.546875 L 190.894531 208.546875 L 190.894531 212.582031"/><path fill="#100F0D" d="M 190.894531 201.636719 L 194.929688 201.636719 L 194.929688 197.585938 L 190.894531 197.585938 L 190.894531 201.636719"/></svg>