<svg xmlns="http://www.w3.org/2000/svg" width="375" viewBox="0 0 375 375" height="375" version="1.0"><defs><clipPath id="a"><path d="M 3 72 L 375 72 L 375 317.25 L 3 317.25 Z M 3 72"/></clipPath><clipPath id="b"><path d="M 253 37.5 L 266 37.5 L 266 61 L 253 61 Z M 253 37.5"/></clipPath></defs><g clip-path="url(#a)"><path d="M 328.246094 212.570312 C 327.628906 208.84375 326.71875 205.1875 325.511719 201.609375 C 327.996094 198.171875 330.195312 194.5625 332.113281 190.78125 C 334.03125 187 335.636719 183.089844 336.941406 179.054688 C 338.242188 175.015625 339.21875 170.902344 339.875 166.710938 C 340.527344 162.519531 340.851562 158.304688 340.84375 154.0625 C 340.84375 151.90625 340.757812 149.753906 340.585938 147.605469 C 340.417969 145.453125 340.160156 143.316406 339.820312 141.1875 C 339.484375 139.054688 339.058594 136.945312 338.550781 134.847656 C 338.046875 132.753906 337.457031 130.679688 336.785156 128.632812 C 336.117188 126.582031 335.363281 124.5625 334.535156 122.574219 C 333.703125 120.585938 332.796875 118.632812 331.8125 116.714844 C 330.824219 114.796875 329.765625 112.921875 328.632812 111.089844 C 327.5 109.257812 326.296875 107.472656 325.019531 105.734375 C 323.746094 103.996094 322.40625 102.3125 320.996094 100.679688 C 319.589844 99.050781 318.117188 97.476562 316.585938 95.964844 C 315.054688 94.449219 313.464844 93 311.816406 91.609375 C 310.167969 90.222656 308.46875 88.902344 306.71875 87.648438 C 304.964844 86.398438 303.167969 85.214844 301.320312 84.105469 C 299.476562 82.996094 297.589844 81.960938 295.664062 81 C 293.734375 80.039062 291.773438 79.15625 289.777344 78.355469 C 287.78125 77.550781 285.753906 76.824219 283.699219 76.183594 C 281.644531 75.539062 279.570312 74.976562 277.46875 74.5 C 275.371094 74.019531 273.257812 73.625 271.125 73.316406 C 268.996094 73.003906 266.859375 72.777344 264.710938 72.636719 C 262.5625 72.496094 260.414062 72.441406 258.261719 72.472656 C 256.109375 72.503906 253.960938 72.617188 251.816406 72.816406 C 249.675781 73.019531 247.542969 73.304688 245.421875 73.675781 C 243.300781 74.042969 241.199219 74.496094 239.113281 75.035156 C 237.03125 75.570312 234.96875 76.191406 232.933594 76.890625 C 230.898438 77.589844 228.894531 78.371094 226.917969 79.230469 C 224.945312 80.089844 223.007812 81.027344 221.109375 82.039062 C 219.210938 83.054688 217.351562 84.140625 215.539062 85.300781 C 213.726562 86.464844 211.960938 87.695312 210.242188 88.996094 C 208.527344 90.296875 206.863281 91.664062 205.257812 93.097656 C 203.648438 94.53125 202.101562 96.027344 200.609375 97.582031 C 199.121094 99.136719 197.695312 100.75 196.332031 102.421875 C 194.96875 104.089844 193.675781 105.8125 192.449219 107.582031 C 185.832031 103.722656 178.828125 100.789062 171.433594 98.789062 C 164.042969 96.789062 156.515625 95.785156 148.859375 95.78125 C 146.355469 95.792969 143.855469 95.910156 141.359375 96.132812 C 138.867188 96.359375 136.386719 96.691406 133.921875 97.128906 C 131.457031 97.566406 129.015625 98.109375 126.59375 98.757812 C 124.175781 99.402344 121.789062 100.15625 119.433594 101.007812 C 117.078125 101.859375 114.765625 102.8125 112.492188 103.863281 C 110.21875 104.914062 107.996094 106.0625 105.820312 107.304688 C 103.644531 108.546875 101.527344 109.882812 99.464844 111.304688 C 97.40625 112.730469 95.40625 114.242188 93.476562 115.835938 C 91.542969 117.433594 89.683594 119.109375 87.898438 120.863281 C 86.109375 122.621094 84.398438 124.449219 82.765625 126.351562 C 81.136719 128.253906 79.589844 130.226562 78.125 132.261719 C 76.660156 134.296875 75.289062 136.390625 74.003906 138.542969 C 72.722656 140.699219 71.53125 142.902344 70.4375 145.160156 C 69.339844 147.414062 68.34375 149.714844 67.445312 152.054688 C 66.546875 154.398438 65.753906 156.773438 65.058594 159.183594 C 64.363281 161.59375 63.773438 164.027344 63.285156 166.488281 C 61.125 166.800781 58.984375 167.210938 56.863281 167.722656 C 54.742188 168.234375 52.652344 168.84375 50.585938 169.554688 C 48.523438 170.261719 46.496094 171.066406 44.507812 171.964844 C 42.519531 172.863281 40.578125 173.855469 38.683594 174.933594 C 36.785156 176.015625 34.945312 177.183594 33.160156 178.4375 C 31.371094 179.695312 29.648438 181.027344 27.988281 182.445312 C 26.324219 183.863281 24.734375 185.351562 23.210938 186.917969 C 21.691406 188.484375 20.246094 190.117188 18.875 191.820312 C 17.507812 193.523438 16.21875 195.285156 15.015625 197.109375 C 13.8125 198.929688 12.695312 200.804688 11.667969 202.734375 C 10.640625 204.660156 9.703125 206.632812 8.859375 208.648438 C 8.015625 210.664062 7.269531 212.714844 6.617188 214.800781 C 5.964844 216.882812 5.410156 218.996094 4.957031 221.132812 C 4.503906 223.273438 4.152344 225.425781 3.898438 227.597656 C 3.644531 229.769531 3.496094 231.945312 3.445312 234.128906 C 3.398438 236.316406 3.453125 238.5 3.609375 240.679688 C 3.761719 242.859375 4.019531 245.023438 4.378906 247.179688 C 4.738281 249.335938 5.195312 251.46875 5.753906 253.582031 C 6.3125 255.695312 6.964844 257.777344 7.71875 259.828125 C 8.472656 261.878906 9.320312 263.886719 10.261719 265.859375 C 11.203125 267.832031 12.234375 269.753906 13.355469 271.628906 C 14.476562 273.503906 15.683594 275.320312 16.976562 277.082031 C 18.269531 278.839844 19.640625 280.539062 21.089844 282.171875 C 22.542969 283.800781 24.066406 285.363281 25.664062 286.851562 C 27.257812 288.339844 28.921875 289.753906 30.652344 291.085938 C 32.378906 292.417969 34.167969 293.667969 36.015625 294.832031 C 37.859375 295.996094 39.757812 297.074219 41.703125 298.058594 C 43.652344 299.046875 45.640625 299.941406 47.667969 300.738281 C 49.699219 301.539062 51.765625 302.242188 53.859375 302.847656 C 55.957031 303.457031 58.078125 303.960938 60.222656 304.371094 C 62.363281 304.777344 64.523438 305.082031 66.695312 305.285156 C 68.867188 305.492188 71.046875 305.59375 73.226562 305.59375 L 162.5625 305.59375 C 164.867188 307.464844 167.316406 309.128906 169.902344 310.582031 C 172.492188 312.035156 175.183594 313.261719 177.980469 314.253906 C 180.777344 315.246094 183.636719 315.992188 186.5625 316.496094 C 189.488281 317 192.433594 317.25 195.398438 317.25 L 323.390625 317.25 C 325.054688 317.25 326.710938 317.171875 328.367188 317.011719 C 330.023438 316.851562 331.671875 316.613281 333.304688 316.296875 C 334.9375 315.984375 336.550781 315.589844 338.148438 315.121094 C 339.746094 314.648438 341.316406 314.105469 342.859375 313.484375 C 344.402344 312.863281 345.914062 312.171875 347.394531 311.40625 C 348.871094 310.640625 350.3125 309.808594 351.710938 308.90625 C 353.109375 308.003906 354.460938 307.039062 355.769531 306.007812 C 357.078125 304.976562 358.332031 303.886719 359.535156 302.734375 C 360.738281 301.582031 361.882812 300.378906 362.972656 299.117188 C 364.0625 297.855469 365.089844 296.546875 366.050781 295.1875 C 367.015625 293.832031 367.914062 292.429688 368.746094 290.984375 C 369.574219 289.539062 370.335938 288.058594 371.023438 286.542969 C 371.714844 285.027344 372.332031 283.480469 372.875 281.90625 C 373.417969 280.328125 373.882812 278.730469 374.273438 277.109375 C 374.664062 275.492188 374.976562 273.855469 375.210938 272.207031 C 375.445312 270.554688 375.601562 268.898438 375.679688 267.234375 C 375.757812 265.566406 375.753906 263.902344 375.675781 262.238281 C 375.59375 260.574219 375.433594 258.917969 375.195312 257.265625 C 374.957031 255.617188 374.640625 253.984375 374.246094 252.363281 C 373.851562 250.746094 373.378906 249.148438 372.832031 247.574219 C 372.289062 246 371.667969 244.453125 370.972656 242.9375 C 370.28125 241.421875 369.515625 239.945312 368.683594 238.503906 C 367.847656 237.058594 366.949219 235.660156 365.980469 234.304688 C 365.015625 232.949219 363.984375 231.640625 362.894531 230.382812 C 361.800781 229.125 360.652344 227.921875 359.445312 226.773438 C 358.242188 225.625 356.984375 224.539062 355.671875 223.511719 C 354.363281 222.480469 353.007812 221.519531 351.605469 220.621094 C 350.207031 219.722656 348.765625 218.890625 347.285156 218.128906 C 345.804688 217.371094 344.292969 216.679688 342.746094 216.0625 C 341.199219 215.449219 339.628906 214.90625 338.03125 214.441406 C 336.433594 213.972656 334.816406 213.582031 333.183594 213.273438 C 331.546875 212.960938 329.902344 212.726562 328.246094 212.570312 Z M 259.394531 84.125 C 260.535156 84.125 261.679688 84.15625 262.820312 84.210938 C 263.960938 84.269531 265.097656 84.355469 266.234375 84.46875 C 267.371094 84.582031 268.503906 84.722656 269.632812 84.890625 C 270.765625 85.0625 271.886719 85.257812 273.007812 85.480469 C 274.128906 85.707031 275.242188 85.957031 276.351562 86.234375 C 277.457031 86.515625 278.558594 86.820312 279.652344 87.152344 C 280.742188 87.484375 281.828125 87.847656 282.902344 88.230469 C 283.976562 88.617188 285.042969 89.03125 286.097656 89.46875 C 287.152344 89.90625 288.195312 90.371094 289.230469 90.859375 C 290.261719 91.351562 291.28125 91.867188 292.289062 92.40625 C 293.296875 92.945312 294.289062 93.507812 295.269531 94.097656 C 296.246094 94.6875 297.210938 95.300781 298.160156 95.933594 C 299.113281 96.570312 300.046875 97.230469 300.960938 97.910156 C 301.878906 98.59375 302.78125 99.296875 303.664062 100.023438 C 304.546875 100.75 305.410156 101.496094 306.257812 102.265625 C 307.101562 103.035156 307.929688 103.820312 308.738281 104.632812 C 309.542969 105.441406 310.332031 106.269531 311.097656 107.117188 C 311.867188 107.964844 312.613281 108.832031 313.335938 109.714844 C 314.0625 110.597656 314.765625 111.5 315.445312 112.421875 C 316.125 113.339844 316.78125 114.273438 317.417969 115.226562 C 318.050781 116.175781 318.664062 117.144531 319.25 118.125 C 319.839844 119.105469 320.402344 120.101562 320.941406 121.109375 C 321.480469 122.117188 321.992188 123.140625 322.484375 124.171875 C 322.972656 125.207031 323.433594 126.253906 323.871094 127.308594 C 324.308594 128.367188 324.722656 129.433594 325.105469 130.511719 C 325.492188 131.589844 325.851562 132.675781 326.183594 133.769531 C 326.515625 134.863281 326.820312 135.964844 327.097656 137.074219 C 327.378906 138.1875 327.628906 139.300781 327.851562 140.421875 C 328.078125 141.546875 328.273438 142.671875 328.441406 143.804688 C 328.609375 144.9375 328.75 146.070312 328.863281 147.210938 C 328.976562 148.347656 329.0625 149.488281 329.117188 150.632812 C 329.175781 151.773438 329.207031 152.917969 329.207031 154.0625 C 329.222656 160.183594 328.4375 166.199219 326.859375 172.113281 C 325.28125 178.027344 322.960938 183.628906 319.898438 188.925781 C 318.375 186.277344 316.6875 183.738281 314.832031 181.3125 C 312.976562 178.882812 310.96875 176.589844 308.8125 174.429688 C 306.652344 172.265625 304.363281 170.257812 301.941406 168.398438 C 299.519531 166.539062 296.984375 164.847656 294.339844 163.320312 C 291.691406 161.796875 288.960938 160.453125 286.136719 159.292969 C 283.316406 158.128906 280.429688 157.15625 277.476562 156.375 C 274.527344 155.59375 271.539062 155.007812 268.511719 154.621094 C 265.484375 154.234375 262.445312 154.046875 259.394531 154.0625 C 250.148438 154.066406 241.246094 155.828125 232.695312 159.355469 C 231.433594 154.902344 229.824219 150.574219 227.871094 146.378906 C 225.917969 142.183594 223.644531 138.167969 221.054688 134.332031 C 218.464844 130.5 215.585938 126.894531 212.421875 123.519531 C 209.257812 120.144531 205.847656 117.039062 202.1875 114.210938 C 203.777344 111.894531 205.496094 109.679688 207.351562 107.574219 C 209.207031 105.46875 211.183594 103.480469 213.28125 101.617188 C 215.375 99.75 217.578125 98.015625 219.882812 96.417969 C 222.191406 94.820312 224.585938 93.371094 227.070312 92.0625 C 229.550781 90.757812 232.105469 89.609375 234.726562 88.613281 C 237.351562 87.617188 240.023438 86.785156 242.746094 86.117188 C 245.472656 85.449219 248.226562 84.949219 251.011719 84.613281 C 253.796875 84.28125 256.589844 84.117188 259.394531 84.125 Z M 15.050781 235.65625 C 15.058594 233.84375 15.148438 232.035156 15.324219 230.234375 C 15.5 228.429688 15.761719 226.636719 16.101562 224.859375 C 16.445312 223.078125 16.867188 221.320312 17.371094 219.578125 C 17.875 217.839844 18.460938 216.125 19.125 214.441406 C 19.789062 212.753906 20.53125 211.105469 21.347656 209.488281 C 22.164062 207.871094 23.054688 206.296875 24.015625 204.761719 C 24.980469 203.226562 26.011719 201.742188 27.113281 200.304688 C 28.214844 198.867188 29.378906 197.484375 30.609375 196.15625 C 31.839844 194.824219 33.128906 193.554688 34.472656 192.347656 C 35.820312 191.136719 37.222656 189.992188 38.675781 188.914062 C 40.128906 187.835938 41.628906 186.828125 43.175781 185.886719 C 44.722656 184.949219 46.308594 184.082031 47.9375 183.292969 C 49.5625 182.5 51.222656 181.785156 52.917969 181.148438 C 54.609375 180.511719 56.328125 179.957031 58.074219 179.480469 C 59.820312 179.003906 61.582031 178.609375 63.367188 178.296875 C 65.148438 177.984375 66.9375 177.753906 68.742188 177.609375 C 69.402344 177.558594 70.039062 177.398438 70.644531 177.128906 C 71.25 176.863281 71.796875 176.5 72.28125 176.046875 C 72.765625 175.589844 73.15625 175.070312 73.464844 174.480469 C 73.769531 173.890625 73.96875 173.265625 74.058594 172.609375 C 74.359375 170.453125 74.753906 168.316406 75.238281 166.195312 C 75.722656 164.078125 76.296875 161.980469 76.960938 159.910156 C 77.625 157.839844 78.378906 155.804688 79.21875 153.796875 C 80.058594 151.792969 80.984375 149.828125 81.992188 147.902344 C 83.003906 145.976562 84.09375 144.097656 85.265625 142.269531 C 86.4375 140.4375 87.683594 138.660156 89.007812 136.9375 C 90.332031 135.214844 91.726562 133.550781 93.195312 131.949219 C 94.664062 130.347656 96.195312 128.808594 97.796875 127.339844 C 99.398438 125.871094 101.058594 124.472656 102.777344 123.144531 C 104.496094 121.820312 106.269531 120.570312 108.097656 119.394531 C 109.925781 118.222656 111.800781 117.128906 113.722656 116.121094 C 115.644531 115.109375 117.609375 114.183594 119.609375 113.339844 C 121.613281 112.5 123.644531 111.746094 125.710938 111.078125 C 127.777344 110.414062 129.871094 109.839844 131.988281 109.355469 C 134.101562 108.867188 136.234375 108.476562 138.386719 108.175781 C 140.535156 107.875 142.695312 107.667969 144.863281 107.554688 C 147.03125 107.441406 149.199219 107.417969 151.371094 107.492188 C 153.539062 107.566406 155.703125 107.734375 157.855469 107.992188 C 160.011719 108.253906 162.152344 108.605469 164.277344 109.050781 C 166.402344 109.496094 168.503906 110.035156 170.582031 110.660156 C 172.660156 111.289062 174.707031 112.003906 176.726562 112.808594 C 178.742188 113.613281 180.722656 114.5 182.660156 115.476562 C 184.601562 116.453125 186.496094 117.507812 188.347656 118.648438 C 190.195312 119.785156 191.992188 121.003906 193.738281 122.296875 C 195.480469 123.589844 197.167969 124.957031 198.796875 126.398438 C 200.421875 127.835938 201.984375 129.34375 203.480469 130.917969 C 204.976562 132.496094 206.40625 134.132812 207.761719 135.828125 C 209.117188 137.527344 210.398438 139.28125 211.601562 141.089844 C 212.808594 142.898438 213.933594 144.757812 214.976562 146.660156 C 216.023438 148.566406 216.984375 150.515625 217.863281 152.503906 C 218.738281 154.496094 219.53125 156.515625 220.234375 158.574219 C 220.9375 160.632812 221.550781 162.714844 222.074219 164.828125 C 219.992188 166.136719 217.988281 167.550781 216.058594 169.074219 C 214.128906 170.597656 212.285156 172.21875 210.527344 173.9375 C 208.769531 175.660156 207.109375 177.46875 205.542969 179.363281 C 203.976562 181.261719 202.515625 183.234375 201.160156 185.289062 C 199.804688 187.339844 198.5625 189.460938 197.433594 191.644531 C 196.300781 193.828125 195.289062 196.070312 194.398438 198.363281 C 193.503906 200.65625 192.738281 202.988281 192.09375 205.363281 C 191.449219 207.738281 190.929688 210.140625 190.542969 212.570312 C 189.417969 212.675781 188.300781 212.816406 187.1875 212.992188 C 186.070312 213.167969 184.964844 213.378906 183.863281 213.628906 C 182.761719 213.878906 181.671875 214.160156 180.589844 214.480469 C 179.507812 214.796875 178.4375 215.152344 177.378906 215.539062 C 176.320312 215.929688 175.273438 216.351562 174.242188 216.808594 C 173.210938 217.261719 172.191406 217.753906 171.191406 218.273438 C 170.191406 218.796875 169.210938 219.351562 168.246094 219.933594 C 167.28125 220.519531 166.335938 221.136719 165.410156 221.785156 C 164.484375 222.429688 163.582031 223.105469 162.699219 223.8125 C 161.820312 224.515625 160.960938 225.25 160.128906 226.011719 C 159.292969 226.773438 158.484375 227.558594 157.703125 228.371094 C 156.917969 229.1875 156.164062 230.023438 155.433594 230.886719 C 154.707031 231.75 154.003906 232.632812 153.332031 233.539062 C 152.660156 234.449219 152.019531 235.375 151.40625 236.324219 C 150.796875 237.273438 150.214844 238.242188 149.664062 239.230469 C 149.117188 240.21875 148.597656 241.222656 148.113281 242.242188 C 147.628906 243.261719 147.179688 244.296875 146.761719 245.347656 C 146.34375 246.394531 145.960938 247.457031 145.609375 248.53125 C 145.261719 249.605469 144.945312 250.691406 144.667969 251.785156 C 144.386719 252.882812 144.144531 253.984375 143.9375 255.09375 C 143.726562 256.203125 143.554688 257.320312 143.421875 258.441406 C 143.285156 259.5625 143.183594 260.6875 143.121094 261.816406 C 143.058594 262.945312 143.03125 264.074219 143.039062 265.203125 C 143.050781 266.335938 143.097656 267.464844 143.179688 268.589844 C 143.261719 269.71875 143.378906 270.839844 143.535156 271.960938 C 143.691406 273.078125 143.878906 274.191406 144.105469 275.300781 C 144.332031 276.40625 144.597656 277.503906 144.894531 278.59375 C 145.191406 279.683594 145.523438 280.761719 145.890625 281.832031 C 146.257812 282.898438 146.660156 283.957031 147.097656 284.996094 C 147.53125 286.039062 148 287.066406 148.5 288.078125 C 149.003906 289.089844 149.539062 290.085938 150.105469 291.0625 C 150.667969 292.039062 151.265625 293 151.894531 293.9375 L 73.226562 293.9375 C 71.324219 293.933594 69.421875 293.839844 67.527344 293.652344 C 65.632812 293.460938 63.75 293.179688 61.882812 292.808594 C 60.015625 292.433594 58.167969 291.96875 56.347656 291.414062 C 54.523438 290.859375 52.734375 290.214844 50.972656 289.484375 C 49.214844 288.753906 47.496094 287.9375 45.816406 287.035156 C 44.136719 286.136719 42.503906 285.15625 40.921875 284.09375 C 39.339844 283.035156 37.808594 281.898438 36.335938 280.6875 C 34.867188 279.476562 33.457031 278.199219 32.109375 276.847656 C 30.761719 275.5 29.484375 274.085938 28.277344 272.613281 C 27.066406 271.136719 25.933594 269.605469 24.875 268.019531 C 23.816406 266.433594 22.835938 264.800781 21.9375 263.117188 C 21.039062 261.433594 20.226562 259.710938 19.496094 257.949219 C 18.765625 256.1875 18.125 254.394531 17.570312 252.566406 C 17.015625 250.742188 16.550781 248.894531 16.179688 247.023438 C 15.804688 245.152344 15.523438 243.265625 15.335938 241.367188 C 15.148438 239.46875 15.054688 237.5625 15.050781 235.65625 Z M 323.390625 305.59375 L 195.398438 305.59375 C 194.066406 305.597656 192.734375 305.539062 191.40625 305.410156 C 190.078125 305.285156 188.761719 305.09375 187.453125 304.839844 C 186.144531 304.582031 184.847656 304.261719 183.570312 303.878906 C 182.292969 303.496094 181.039062 303.050781 179.804688 302.542969 C 178.570312 302.039062 177.363281 301.472656 176.183594 300.84375 C 175.007812 300.21875 173.863281 299.539062 172.75 298.800781 C 171.636719 298.0625 170.566406 297.269531 169.53125 296.425781 C 168.496094 295.582031 167.507812 294.6875 166.5625 293.746094 C 165.613281 292.804688 164.714844 291.820312 163.867188 290.789062 C 163.015625 289.761719 162.21875 288.691406 161.472656 287.582031 C 160.730469 286.476562 160.039062 285.332031 159.40625 284.15625 C 158.773438 282.980469 158.199219 281.777344 157.6875 280.542969 C 157.171875 279.3125 156.71875 278.054688 156.324219 276.777344 C 155.933594 275.5 155.605469 274.207031 155.339844 272.898438 C 155.074219 271.589844 154.875 270.269531 154.742188 268.941406 C 154.605469 267.613281 154.535156 266.277344 154.53125 264.941406 C 154.523438 263.605469 154.585938 262.273438 154.710938 260.941406 C 154.839844 259.613281 155.027344 258.292969 155.285156 256.980469 C 155.539062 255.667969 155.859375 254.375 156.242188 253.09375 C 156.625 251.8125 157.070312 250.554688 157.574219 249.320312 C 158.082031 248.082031 158.644531 246.875 159.269531 245.695312 C 159.894531 244.511719 160.574219 243.367188 161.3125 242.253906 C 162.050781 241.140625 162.839844 240.0625 163.683594 239.027344 C 164.523438 237.992188 165.414062 237 166.355469 236.050781 C 167.292969 235.105469 168.277344 234.203125 169.304688 233.351562 C 170.335938 232.5 171.402344 231.703125 172.507812 230.957031 C 173.613281 230.210938 174.753906 229.519531 175.929688 228.886719 C 177.101562 228.25 178.304688 227.675781 179.535156 227.160156 C 180.765625 226.644531 182.019531 226.191406 183.292969 225.800781 C 184.566406 225.40625 185.859375 225.078125 187.167969 224.8125 C 188.472656 224.546875 189.789062 224.347656 191.117188 224.210938 C 192.445312 224.074219 193.773438 224.003906 195.109375 224 C 195.488281 224.023438 195.871094 224.011719 196.246094 223.964844 C 196.625 223.917969 196.996094 223.835938 197.359375 223.714844 C 197.722656 223.597656 198.074219 223.449219 198.40625 223.265625 C 198.742188 223.078125 199.054688 222.867188 199.351562 222.625 C 199.644531 222.378906 199.914062 222.113281 200.15625 221.816406 C 200.402344 221.523438 200.617188 221.207031 200.800781 220.875 C 200.984375 220.539062 201.136719 220.191406 201.257812 219.828125 C 201.375 219.464844 201.460938 219.09375 201.507812 218.714844 C 201.671875 216.921875 201.914062 215.144531 202.242188 213.378906 C 202.570312 211.609375 202.976562 209.859375 203.464844 208.132812 C 203.953125 206.402344 204.519531 204.699219 205.164062 203.019531 C 205.8125 201.34375 206.53125 199.699219 207.332031 198.089844 C 208.128906 196.480469 209 194.910156 209.941406 193.378906 C 210.882812 191.851562 211.894531 190.367188 212.976562 188.933594 C 214.054688 187.496094 215.199219 186.113281 216.40625 184.785156 C 217.613281 183.453125 218.878906 182.183594 220.203125 180.972656 C 221.53125 179.757812 222.90625 178.609375 224.339844 177.527344 C 225.769531 176.441406 227.25 175.425781 228.773438 174.476562 C 230.296875 173.53125 231.863281 172.65625 233.46875 171.855469 C 235.074219 171.050781 236.714844 170.324219 238.386719 169.675781 C 240.0625 169.027344 241.761719 168.453125 243.484375 167.960938 C 245.210938 167.46875 246.957031 167.058594 248.71875 166.726562 C 250.484375 166.394531 252.257812 166.148438 254.046875 165.980469 C 255.832031 165.816406 257.625 165.734375 259.417969 165.734375 C 261.210938 165.734375 263.003906 165.816406 264.789062 165.980469 C 266.574219 166.148438 268.351562 166.394531 270.113281 166.726562 C 271.878906 167.058594 273.625 167.46875 275.347656 167.960938 C 277.074219 168.453125 278.773438 169.027344 280.445312 169.675781 C 282.121094 170.324219 283.757812 171.050781 285.367188 171.855469 C 286.972656 172.65625 288.535156 173.53125 290.0625 174.476562 C 291.585938 175.425781 293.066406 176.441406 294.496094 177.527344 C 295.925781 178.609375 297.304688 179.757812 298.628906 180.972656 C 299.953125 182.183594 301.222656 183.453125 302.429688 184.785156 C 303.636719 186.113281 304.78125 187.496094 305.859375 188.933594 C 306.941406 190.367188 307.949219 191.851562 308.894531 193.378906 C 309.835938 194.910156 310.707031 196.480469 311.503906 198.089844 C 312.300781 199.699219 313.023438 201.34375 313.667969 203.019531 C 314.316406 204.699219 314.882812 206.402344 315.371094 208.132812 C 315.859375 209.859375 316.265625 211.609375 316.59375 213.378906 C 316.921875 215.144531 317.164062 216.921875 317.328125 218.714844 C 317.359375 219.074219 317.425781 219.429688 317.523438 219.777344 C 317.621094 220.125 317.75 220.460938 317.910156 220.785156 C 318.070312 221.105469 318.261719 221.414062 318.480469 221.703125 C 318.695312 221.992188 318.9375 222.257812 319.207031 222.5 C 319.472656 222.742188 319.757812 222.960938 320.066406 223.148438 C 320.375 223.339844 320.695312 223.5 321.03125 223.628906 C 321.371094 223.757812 321.714844 223.855469 322.070312 223.921875 C 322.425781 223.988281 322.785156 224.019531 323.144531 224.015625 L 323.5625 224.015625 C 324.878906 224.046875 326.191406 224.140625 327.496094 224.296875 C 328.804688 224.457031 330.101562 224.675781 331.386719 224.960938 C 332.671875 225.242188 333.941406 225.585938 335.191406 225.992188 C 336.445312 226.402344 337.675781 226.867188 338.882812 227.394531 C 340.089844 227.917969 341.265625 228.503906 342.417969 229.140625 C 343.566406 229.78125 344.683594 230.476562 345.769531 231.226562 C 346.851562 231.976562 347.894531 232.773438 348.902344 233.625 C 349.90625 234.476562 350.871094 235.375 351.789062 236.316406 C 352.707031 237.261719 353.582031 238.246094 354.402344 239.277344 C 355.226562 240.304688 356 241.371094 356.71875 242.472656 C 357.441406 243.578125 358.105469 244.714844 358.714844 245.882812 C 359.328125 247.050781 359.878906 248.246094 360.375 249.464844 C 360.867188 250.6875 361.304688 251.929688 361.679688 253.195312 C 362.054688 254.460938 362.367188 255.738281 362.617188 257.035156 C 362.867188 258.328125 363.054688 259.632812 363.179688 260.945312 C 363.304688 262.257812 363.363281 263.574219 363.363281 264.890625 C 363.359375 266.210938 363.292969 267.523438 363.160156 268.835938 C 363.03125 270.148438 362.839844 271.453125 362.582031 272.746094 C 362.328125 274.039062 362.007812 275.316406 361.628906 276.578125 C 361.25 277.84375 360.808594 279.082031 360.308594 280.304688 C 359.808594 281.523438 359.25 282.714844 358.636719 283.878906 C 358.019531 285.046875 357.347656 286.179688 356.625 287.28125 C 355.898438 288.378906 355.121094 289.441406 354.292969 290.46875 C 353.464844 291.492188 352.589844 292.476562 351.667969 293.414062 C 350.746094 294.355469 349.777344 295.25 348.769531 296.09375 C 347.757812 296.941406 346.710938 297.734375 345.625 298.480469 C 344.539062 299.222656 343.417969 299.914062 342.265625 300.550781 C 341.113281 301.183594 339.929688 301.761719 338.722656 302.285156 C 337.511719 302.804688 336.28125 303.265625 335.027344 303.667969 C 333.773438 304.066406 332.503906 304.40625 331.214844 304.683594 C 329.929688 304.964844 328.632812 305.179688 327.324219 305.328125 C 326.015625 305.480469 324.703125 305.570312 323.390625 305.59375 Z M 323.390625 305.59375"/></g><g clip-path="url(#b)"><path d="M 259.394531 60.8125 C 259.777344 60.8125 260.15625 60.773438 260.527344 60.699219 C 260.902344 60.625 261.269531 60.515625 261.621094 60.367188 C 261.972656 60.222656 262.308594 60.042969 262.625 59.832031 C 262.945312 59.617188 263.238281 59.375 263.507812 59.105469 C 263.777344 58.835938 264.019531 58.539062 264.230469 58.222656 C 264.445312 57.902344 264.621094 57.566406 264.769531 57.214844 C 264.914062 56.859375 265.027344 56.496094 265.101562 56.121094 C 265.175781 55.746094 265.210938 55.367188 265.210938 54.984375 L 265.210938 43.328125 C 265.210938 42.945312 265.175781 42.566406 265.101562 42.191406 C 265.027344 41.816406 264.914062 41.453125 264.769531 41.097656 C 264.621094 40.746094 264.445312 40.410156 264.230469 40.089844 C 264.019531 39.773438 263.777344 39.476562 263.507812 39.207031 C 263.238281 38.9375 262.945312 38.695312 262.625 38.480469 C 262.308594 38.269531 261.972656 38.089844 261.621094 37.945312 C 261.269531 37.796875 260.902344 37.6875 260.527344 37.613281 C 260.15625 37.539062 259.777344 37.5 259.394531 37.5 C 259.011719 37.5 258.632812 37.539062 258.257812 37.613281 C 257.882812 37.6875 257.519531 37.796875 257.167969 37.945312 C 256.816406 38.089844 256.480469 38.269531 256.160156 38.480469 C 255.84375 38.695312 255.550781 38.9375 255.28125 39.207031 C 255.011719 39.476562 254.769531 39.773438 254.558594 40.089844 C 254.34375 40.410156 254.164062 40.746094 254.019531 41.097656 C 253.875 41.453125 253.761719 41.816406 253.6875 42.191406 C 253.613281 42.566406 253.578125 42.945312 253.578125 43.328125 L 253.578125 54.984375 C 253.578125 55.367188 253.613281 55.746094 253.6875 56.121094 C 253.761719 56.496094 253.875 56.859375 254.019531 57.214844 C 254.164062 57.566406 254.34375 57.902344 254.558594 58.222656 C 254.769531 58.539062 255.011719 58.835938 255.28125 59.105469 C 255.550781 59.375 255.84375 59.617188 256.160156 59.832031 C 256.480469 60.042969 256.816406 60.222656 257.167969 60.367188 C 257.519531 60.515625 257.882812 60.625 258.257812 60.699219 C 258.632812 60.773438 259.011719 60.8125 259.394531 60.8125 Z M 259.394531 60.8125"/></g><path d="M 358.296875 159.890625 L 369.929688 159.890625 C 370.3125 159.890625 370.691406 159.851562 371.066406 159.777344 C 371.441406 159.703125 371.804688 159.59375 372.15625 159.445312 C 372.511719 159.300781 372.84375 159.121094 373.164062 158.910156 C 373.480469 158.695312 373.773438 158.453125 374.042969 158.183594 C 374.3125 157.914062 374.554688 157.617188 374.769531 157.300781 C 374.980469 156.980469 375.160156 156.644531 375.304688 156.292969 C 375.453125 155.9375 375.5625 155.574219 375.636719 155.199219 C 375.710938 154.824219 375.75 154.445312 375.75 154.0625 C 375.75 153.679688 375.710938 153.300781 375.636719 152.925781 C 375.5625 152.550781 375.453125 152.1875 375.304688 151.832031 C 375.160156 151.480469 374.980469 151.144531 374.769531 150.824219 C 374.554688 150.507812 374.3125 150.210938 374.042969 149.941406 C 373.773438 149.671875 373.480469 149.429688 373.164062 149.214844 C 372.84375 149.003906 372.511719 148.824219 372.15625 148.679688 C 371.804688 148.53125 371.441406 148.421875 371.066406 148.347656 C 370.691406 148.273438 370.3125 148.234375 369.929688 148.234375 L 358.296875 148.234375 C 357.914062 148.234375 357.535156 148.273438 357.160156 148.347656 C 356.785156 148.421875 356.421875 148.53125 356.070312 148.679688 C 355.714844 148.824219 355.378906 149.003906 355.0625 149.214844 C 354.746094 149.429688 354.453125 149.671875 354.179688 149.941406 C 353.910156 150.210938 353.671875 150.507812 353.457031 150.824219 C 353.246094 151.144531 353.066406 151.480469 352.921875 151.832031 C 352.773438 152.1875 352.664062 152.550781 352.589844 152.925781 C 352.515625 153.300781 352.476562 153.679688 352.476562 154.0625 C 352.476562 154.445312 352.515625 154.824219 352.589844 155.199219 C 352.664062 155.574219 352.773438 155.9375 352.921875 156.292969 C 353.066406 156.644531 353.246094 156.980469 353.457031 157.300781 C 353.671875 157.617188 353.910156 157.914062 354.179688 158.183594 C 354.453125 158.453125 354.746094 158.695312 355.0625 158.910156 C 355.378906 159.121094 355.714844 159.300781 356.070312 159.445312 C 356.421875 159.59375 356.785156 159.703125 357.160156 159.777344 C 357.535156 159.851562 357.914062 159.890625 358.296875 159.890625 Z M 358.296875 159.890625"/><path d="M 329.328125 89.832031 C 330.101562 89.832031 330.84375 89.683594 331.554688 89.386719 C 332.265625 89.089844 332.898438 88.667969 333.441406 88.125 L 341.667969 79.882812 C 341.929688 79.609375 342.164062 79.316406 342.371094 78.996094 C 342.574219 78.679688 342.746094 78.34375 342.886719 77.992188 C 343.027344 77.640625 343.132812 77.28125 343.203125 76.90625 C 343.269531 76.535156 343.304688 76.160156 343.300781 75.78125 C 343.296875 75.402344 343.257812 75.03125 343.183594 74.660156 C 343.105469 74.289062 342.996094 73.929688 342.847656 73.578125 C 342.703125 73.230469 342.523438 72.898438 342.3125 72.585938 C 342.101562 72.269531 341.863281 71.980469 341.597656 71.710938 C 341.332031 71.445312 341.039062 71.207031 340.726562 70.996094 C 340.414062 70.785156 340.082031 70.605469 339.734375 70.457031 C 339.386719 70.3125 339.027344 70.199219 338.65625 70.125 C 338.285156 70.046875 337.910156 70.007812 337.535156 70.003906 C 337.15625 70.003906 336.78125 70.035156 336.410156 70.105469 C 336.039062 70.175781 335.679688 70.28125 335.328125 70.421875 C 334.976562 70.558594 334.644531 70.734375 334.324219 70.9375 C 334.007812 71.144531 333.714844 71.378906 333.441406 71.640625 L 325.214844 79.882812 C 324.808594 80.289062 324.46875 80.746094 324.199219 81.253906 C 323.929688 81.765625 323.734375 82.300781 323.625 82.867188 C 323.511719 83.429688 323.484375 84 323.539062 84.574219 C 323.597656 85.148438 323.734375 85.699219 323.957031 86.234375 C 324.175781 86.765625 324.46875 87.253906 324.832031 87.699219 C 325.199219 88.144531 325.621094 88.527344 326.097656 88.847656 C 326.574219 89.167969 327.089844 89.414062 327.640625 89.578125 C 328.191406 89.746094 328.753906 89.832031 329.328125 89.832031 Z M 329.328125 89.832031"/><path d="M 185.347656 88.125 C 185.617188 88.386719 185.914062 88.621094 186.230469 88.824219 C 186.546875 89.03125 186.882812 89.203125 187.230469 89.34375 C 187.582031 89.484375 187.945312 89.589844 188.316406 89.660156 C 188.6875 89.730469 189.0625 89.761719 189.4375 89.757812 C 189.816406 89.753906 190.191406 89.714844 190.558594 89.640625 C 190.929688 89.5625 191.289062 89.453125 191.636719 89.304688 C 191.984375 89.160156 192.316406 88.980469 192.628906 88.769531 C 192.945312 88.558594 193.234375 88.320312 193.5 88.050781 C 193.769531 87.785156 194.007812 87.492188 194.21875 87.179688 C 194.429688 86.867188 194.605469 86.535156 194.753906 86.183594 C 194.898438 85.835938 195.011719 85.476562 195.085938 85.105469 C 195.164062 84.734375 195.203125 84.359375 195.207031 83.980469 C 195.207031 83.601562 195.175781 83.226562 195.105469 82.855469 C 195.035156 82.484375 194.929688 82.121094 194.792969 81.769531 C 194.652344 81.417969 194.480469 81.085938 194.273438 80.765625 C 194.070312 80.449219 193.835938 80.15625 193.574219 79.882812 L 185.347656 71.640625 C 185.078125 71.363281 184.785156 71.113281 184.46875 70.894531 C 184.148438 70.675781 183.8125 70.488281 183.457031 70.335938 C 183.101562 70.183594 182.738281 70.066406 182.359375 69.988281 C 181.980469 69.90625 181.597656 69.867188 181.210938 69.863281 C 180.828125 69.859375 180.445312 69.894531 180.0625 69.964844 C 179.683594 70.039062 179.316406 70.148438 178.957031 70.296875 C 178.601562 70.441406 178.261719 70.621094 177.941406 70.835938 C 177.617188 71.050781 177.320312 71.296875 177.046875 71.570312 C 176.773438 71.84375 176.53125 72.140625 176.316406 72.460938 C 176.105469 72.785156 175.921875 73.125 175.777344 73.484375 C 175.632812 73.839844 175.523438 74.210938 175.449219 74.589844 C 175.375 74.96875 175.339844 75.355469 175.34375 75.742188 C 175.347656 76.128906 175.390625 76.511719 175.46875 76.890625 C 175.546875 77.269531 175.664062 77.636719 175.816406 77.992188 C 175.96875 78.347656 176.15625 78.683594 176.375 79 C 176.59375 79.320312 176.84375 79.613281 177.121094 79.882812 Z M 185.347656 88.125"/></svg>