<svg xmlns="http://www.w3.org/2000/svg" width="375" viewBox="0 0 375 375" height="375" version="1.0"><defs><clipPath id="a"><path d="M 46 97.007812 L 73 97.007812 L 73 245 L 46 245 Z M 46 97.007812"/></clipPath><clipPath id="b"><path d="M 97 97.007812 L 120 97.007812 L 120 243 L 97 243 Z M 97 97.007812"/></clipPath></defs><path d="M 176.988281 196.128906 C 176.148438 213.28125 160.734375 210.769531 160.734375 210.769531 C 160.734375 210.769531 148 211.273438 147.328125 196.210938 C 146.660156 181.152344 159.058594 181.488281 159.058594 181.488281 C 159.058594 181.488281 177.824219 178.976562 176.988281 196.128906 Z M 155.199219 163.261719 C 155.199219 163.261719 127.367188 162.511719 128.871094 196.316406 C 130.378906 230.121094 158.960938 228.992188 158.960938 228.992188 C 158.960938 228.992188 193.5625 234.632812 195.445312 196.128906 C 197.324219 157.625 155.199219 163.261719 155.199219 163.261719"/><g clip-path="url(#a)"><path d="M 46.996094 97.011719 L 46.996094 240.933594 L 72.164062 244.210938 L 72.164062 97.011719 L 46.996094 97.011719"/></g><g clip-path="url(#b)"><path d="M 97.328125 97.011719 L 97.328125 225.074219 L 119.214844 242.027344 L 119.214844 101.058594 L 97.328125 97.011719"/></g><path d="M 24.566406 170.609375 L 106.082031 170.609375 C 106.082031 170.609375 110.457031 196.128906 108.269531 196.128906 C 106.082031 196.128906 19.09375 192.851562 19.09375 192.851562 L 24.566406 170.609375"/><path d="M 119.214844 208.316406 C 119.214844 208.316406 118.703125 238.1875 144.476562 245.230469 L 144.476562 270.726562 C 144.476562 270.726562 91.953125 277.773438 97.328125 208.316406 L 119.214844 208.316406"/><path d="M 202.644531 104.808594 C 206.21875 146.007812 205.542969 196.46875 204.867188 236.601562 L 272.105469 235.15625 C 273.453125 230.910156 272.105469 217.210938 272.003906 211.710938 C 267.851562 210.359375 235.007812 211.710938 228.824219 211.617188 L 228.246094 104.617188 L 202.644531 104.808594" fill-rule="evenodd"/><path d="M 355.9375 193.929688 L 332.871094 188.574219 L 332.871094 100.851562 L 355.9375 100.851562 L 355.9375 193.929688"/><path d="M 354.761719 236.601562 L 334.050781 236.601562 L 334.050781 210.273438 L 354.761719 214.488281 L 354.761719 236.601562"/><path d="M 269.769531 191.800781 C 274.726562 193.636719 279.964844 193.351562 285.488281 192.789062 C 286.199219 209.339844 293.847656 224.898438 311.410156 229.285156 L 319.199219 209.621094 C 311.410156 201.703125 301.210938 198.445312 304.328125 171.710938 C 307.019531 148.652344 310.277344 115.554688 294.554688 104.949219 C 286.480469 99.574219 265.09375 97.308594 246.539062 112.160156 C 248.664062 116.261719 263.535156 126.023438 268.351562 128.851562 C 286.90625 113.292969 293.988281 123.335938 292.714844 145.96875 C 244.699219 142.996094 250.082031 184.160156 269.769531 191.800781 Z M 274.300781 163.367188 C 277.984375 162.09375 281.949219 161.105469 286.765625 162.515625 C 287.472656 163.933594 287.332031 162.800781 287.472656 165.066406 C 288.609375 180.90625 269.484375 176.378906 274.300781 163.367188" fill-rule="evenodd"/></svg>