<svg xmlns="http://www.w3.org/2000/svg" width="375" viewBox="0 0 375 375" height="375" version="1.0"><path fill="#FFF" d="M 339.484375 218.121094 C 339.484375 218.121094 262.246094 219.859375 228.597656 219.859375 C 204.300781 192.148438 231.75 175.101562 230.722656 163.089844 C 229.925781 153.742188 220.46875 148.332031 214.449219 141.21875 C 213.625 140.355469 212.894531 139.421875 212.261719 138.414062 C 211.625 137.40625 211.097656 136.34375 210.675781 135.226562 C 210.257812 134.109375 209.953125 132.964844 209.761719 131.785156 C 209.574219 130.609375 209.507812 129.421875 209.558594 128.230469 C 210.578125 112.640625 222.855469 106.179688 231.746094 92.859375 C 238.03125 83.421875 230.363281 49.078125 251.277344 43.703125 C 272.191406 38.328125 283.277344 66.039062 292.320312 73.578125 C 301.363281 81.117188 331.4375 82.410156 338.34375 96.90625 C 339.683594 99.375 340.5625 102 340.980469 104.777344 C 341.402344 107.558594 341.339844 110.324219 340.789062 113.082031 C 338.804688 121.863281 331.847656 127.375 333.902344 135.488281 C 336.980469 147.621094 357.859375 160.5 362.109375 176.960938 C 366.359375 193.421875 352.558594 211.433594 339.484375 218.121094 Z M 339.484375 218.121094"/><path fill="#100F0D" d="M 340.800781 113.085938 L 340.78125 113.101562 C 338.355469 96.90625 319.230469 90.199219 296.550781 86.964844 C 281.160156 84.800781 269.492188 56.097656 256.882812 60.214844 C 240.1875 65.640625 247.199219 91.132812 241.585938 97.992188 C 233.261719 108.136719 209.535156 122.984375 215.554688 141.691406 L 214.457031 141.230469 C 213.632812 140.367188 212.902344 139.433594 212.269531 138.425781 C 211.632812 137.417969 211.105469 136.355469 210.683594 135.238281 C 210.265625 134.121094 209.960938 132.976562 209.773438 131.796875 C 209.582031 130.621094 209.515625 129.4375 209.566406 128.242188 C 210.585938 112.652344 222.863281 106.191406 231.753906 92.871094 C 238.039062 83.433594 230.371094 49.089844 251.285156 43.714844 C 272.199219 38.339844 283.289062 66.050781 292.328125 73.589844 C 301.371094 81.128906 331.445312 82.421875 338.351562 96.917969 C 339.691406 99.386719 340.570312 102.007812 340.988281 104.785156 C 341.410156 107.5625 341.347656 110.328125 340.800781 113.085938 Z M 340.800781 113.085938"/><path fill="#1A1A1A" d="M 228.597656 221.894531 C 227.984375 221.894531 227.472656 221.664062 227.066406 221.203125 C 209.273438 200.90625 217.894531 185.777344 224.179688 174.726562 C 226.75 170.214844 228.96875 166.320312 228.707031 163.265625 C 228.207031 157.398438 223.675781 153.128906 218.882812 148.601562 C 213.003906 143.0625 206.929688 137.332031 207.539062 128.097656 C 208.273438 116.933594 214.398438 110.164062 220.875 103 C 224.214844 99.472656 227.273438 95.714844 230.050781 91.722656 C 231.90625 88.9375 232.425781 82.871094 232.96875 76.453125 C 234.140625 62.71875 235.59375 45.621094 250.765625 41.71875 C 267.320312 37.457031 278.097656 52.097656 285.96875 62.785156 C 288.203125 66.125 290.753906 69.199219 293.621094 72.011719 C 296.769531 74.640625 303.253906 76.585938 310.113281 78.648438 C 322.03125 82.226562 335.539062 86.285156 340.183594 96.03125 C 346.3125 108.894531 342.15625 116.835938 338.8125 123.214844 C 336.671875 127.300781 334.824219 130.828125 335.882812 135 C 337.179688 140.121094 342.296875 145.761719 347.707031 151.734375 C 354.25 158.949219 361.667969 167.128906 364.074219 176.460938 C 368.757812 194.53125 353.347656 213.320312 340.425781 219.933594 C 340.148438 220.074219 339.855469 220.148438 339.542969 220.15625 C 338.773438 220.171875 261.878906 221.894531 228.597656 221.894531 Z M 256.484375 45.070312 C 254.894531 45.074219 253.332031 45.28125 251.796875 45.683594 C 239.421875 48.867188 238.160156 63.710938 237.046875 76.808594 C 236.433594 84.066406 235.894531 90.335938 233.453125 94 C 230.566406 98.160156 227.382812 102.074219 223.902344 105.746094 C 217.652344 112.65625 212.253906 118.625 211.613281 128.371094 C 211.132812 135.683594 216.253906 140.519531 221.683594 145.636719 C 226.824219 150.488281 232.144531 155.503906 232.777344 162.925781 C 233.144531 167.246094 230.632812 171.652344 227.726562 176.757812 C 221.804688 187.160156 214.453125 200.070312 229.535156 217.816406 C 261.859375 217.789062 332.519531 216.226562 338.996094 216.085938 C 356.890625 206.691406 362.792969 187.699219 360.160156 177.472656 C 358 169.117188 351.246094 161.671875 344.71875 154.46875 C 338.953125 148.109375 333.507812 142.101562 331.957031 135.996094 C 330.515625 130.304688 332.910156 125.734375 335.226562 121.3125 C 338.449219 115.160156 341.78125 108.800781 336.53125 97.777344 C 332.65625 89.667969 320.074219 85.886719 308.96875 82.550781 C 301.378906 80.269531 294.824219 78.300781 291.03125 75.140625 C 287.894531 72.136719 285.117188 68.828125 282.703125 65.214844 C 276 56.125 267.859375 45.070312 256.484375 45.070312 Z M 256.484375 45.070312"/><path fill="#1A1A1A" d="M 290.738281 230.878906 C 290.476562 230.882812 290.222656 230.832031 289.980469 230.734375 C 289.738281 230.636719 289.519531 230.5 289.332031 230.320312 C 289.140625 230.136719 288.992188 229.929688 288.882812 229.691406 C 288.773438 229.449219 288.710938 229.199219 288.699219 228.9375 C 286.617188 186.585938 284.460938 142.785156 269.652344 102.269531 C 269.558594 102.015625 269.519531 101.753906 269.527344 101.484375 C 269.539062 101.210938 269.601562 100.953125 269.714844 100.707031 C 269.828125 100.460938 269.984375 100.246094 270.183594 100.0625 C 270.382812 99.878906 270.609375 99.742188 270.863281 99.648438 C 271.117188 99.554688 271.378906 99.515625 271.652344 99.527344 C 271.921875 99.535156 272.179688 99.601562 272.425781 99.714844 C 272.671875 99.828125 272.882812 99.984375 273.066406 100.183594 C 273.25 100.382812 273.386719 100.613281 273.480469 100.867188 C 288.5 141.964844 290.671875 186.078125 292.773438 228.738281 C 292.785156 229.007812 292.746094 229.273438 292.65625 229.527344 C 292.5625 229.78125 292.429688 230.011719 292.246094 230.210938 C 292.066406 230.410156 291.851562 230.570312 291.605469 230.683594 C 291.363281 230.800781 291.105469 230.867188 290.835938 230.878906 Z M 290.738281 230.878906"/><path fill="#FFF" d="M 151.644531 106.949219 C 128.902344 99.621094 85.914062 112.238281 78.105469 151.808594 C 70.300781 191.378906 184.582031 214.53125 190.5 188.382812 C 196.417969 162.234375 197.640625 121.773438 151.644531 106.949219 Z M 151.644531 106.949219"/><path fill="#100F0D" d="M 117.507812 119.144531 C 121.335938 117.308594 125.957031 115.929688 129.703125 117.917969 C 130.394531 118.34375 131.027344 118.84375 131.601562 119.414062 C 132.179688 119.988281 132.679688 120.617188 133.109375 121.304688 C 133.539062 121.996094 133.882812 122.722656 134.144531 123.492188 C 134.40625 124.261719 134.574219 125.050781 134.652344 125.859375 C 134.933594 129.113281 134.710938 132.332031 133.976562 135.519531 L 130.667969 154.394531 C 129.648438 160.210938 128.503906 166.296875 124.796875 170.886719 C 124.152344 171.632812 123.457031 172.324219 122.703125 172.960938 C 121.953125 173.597656 121.160156 174.171875 120.320312 174.6875 C 119.480469 175.203125 118.605469 175.648438 117.699219 176.027344 C 116.792969 176.40625 115.859375 176.714844 114.90625 176.953125 C 113.949219 177.1875 112.980469 177.351562 112 177.4375 C 111.023438 177.523438 110.039062 177.535156 109.058594 177.472656 C 108.078125 177.40625 107.105469 177.269531 106.144531 177.054688 C 105.183594 176.839844 104.246094 176.554688 103.328125 176.195312 C 102.425781 175.808594 101.550781 175.359375 100.703125 174.855469 C 99.859375 174.347656 99.050781 173.789062 98.277344 173.171875 C 97.507812 172.558594 96.78125 171.894531 96.097656 171.183594 C 95.417969 170.472656 94.785156 169.71875 94.203125 168.921875 C 93.621094 168.125 93.09375 167.292969 92.625 166.425781 C 92.15625 165.558594 91.742188 164.664062 91.394531 163.742188 C 91.042969 162.820312 90.753906 161.878906 90.527344 160.917969 C 90.300781 159.957031 90.140625 158.984375 90.046875 158.003906 C 88.390625 141.292969 103.742188 125.714844 117.507812 119.144531 Z M 117.507812 119.144531"/><path fill="#100F0D" d="M 146.183594 141.042969 C 148.09375 134.121094 151.507812 126.492188 157.894531 124.945312 C 163.847656 123.5 169.632812 128.132812 173.488281 133.355469 C 175.019531 135.382812 176.363281 137.527344 177.519531 139.792969 C 178.675781 142.054688 179.628906 144.402344 180.375 146.832031 C 181.121094 149.265625 181.648438 151.742188 181.960938 154.265625 C 182.273438 156.789062 182.367188 159.320312 182.234375 161.859375 C 181.484375 172.113281 175.957031 182.101562 167.488281 186.335938 C 159.929688 190.117188 145.074219 188.753906 142.023438 178.359375 C 140.683594 173.796875 141.773438 167.515625 142.199219 162.910156 C 142.882812 155.503906 144.210938 148.214844 146.183594 141.042969 Z M 146.183594 141.042969"/><path fill="#1A1A1A" d="M 110.304688 179.546875 C 107.636719 179.554688 105.0625 179.070312 102.578125 178.089844 C 101.589844 177.664062 100.628906 177.175781 99.703125 176.625 C 98.777344 176.070312 97.894531 175.457031 97.050781 174.785156 C 96.207031 174.113281 95.410156 173.390625 94.664062 172.613281 C 93.914062 171.832031 93.222656 171.007812 92.585938 170.136719 C 91.949219 169.265625 91.371094 168.359375 90.855469 167.410156 C 90.339844 166.460938 89.886719 165.484375 89.5 164.476562 C 89.117188 163.46875 88.796875 162.4375 88.550781 161.386719 C 88.300781 160.335938 88.125 159.273438 88.019531 158.199219 C 86.324219 141.132812 101.128906 124.710938 116.625 117.304688 C 122.382812 114.546875 126.972656 114.164062 130.65625 116.125 C 131.492188 116.621094 132.257812 117.210938 132.953125 117.886719 C 133.652344 118.566406 134.261719 119.316406 134.785156 120.136719 C 135.304688 120.957031 135.726562 121.828125 136.042969 122.75 C 136.363281 123.667969 136.570312 124.613281 136.667969 125.582031 C 136.980469 129.046875 136.753906 132.476562 135.988281 135.867188 L 132.671875 154.746094 C 131.710938 160.226562 130.515625 167.054688 126.382812 172.171875 C 125.398438 173.339844 124.296875 174.390625 123.078125 175.316406 C 121.863281 176.242188 120.558594 177.023438 119.167969 177.664062 C 117.777344 178.300781 116.335938 178.777344 114.839844 179.097656 C 113.34375 179.414062 111.832031 179.566406 110.304688 179.546875 Z M 125.53125 118.976562 C 123 119.117188 120.617188 119.785156 118.378906 120.984375 C 104.519531 127.605469 90.585938 142.757812 92.085938 157.789062 C 92.257812 159.578125 92.660156 161.308594 93.296875 162.988281 C 93.933594 164.667969 94.78125 166.230469 95.835938 167.683594 C 96.894531 169.132812 98.121094 170.417969 99.523438 171.539062 C 100.921875 172.660156 102.445312 173.578125 104.089844 174.289062 C 104.90625 174.605469 105.742188 174.855469 106.597656 175.042969 C 107.453125 175.230469 108.316406 175.355469 109.191406 175.410156 C 110.066406 175.46875 110.9375 175.457031 111.808594 175.378906 C 112.683594 175.300781 113.542969 175.160156 114.394531 174.949219 C 115.246094 174.742188 116.074219 174.46875 116.882812 174.132812 C 117.691406 173.796875 118.46875 173.402344 119.21875 172.949219 C 119.96875 172.496094 120.679688 171.984375 121.351562 171.421875 C 122.019531 170.859375 122.644531 170.25 123.222656 169.589844 C 126.691406 165.304688 127.742188 159.308594 128.667969 154.027344 L 131.980469 135.164062 C 132.664062 132.191406 132.882812 129.1875 132.636719 126.152344 C 132.527344 124.835938 132.132812 123.613281 131.449219 122.480469 C 130.765625 121.351562 129.867188 120.433594 128.753906 119.730469 C 127.742188 119.207031 126.667969 118.957031 125.53125 118.976562 Z M 125.53125 118.976562"/><path fill="#1A1A1A" d="M 158.445312 190.3125 C 155.109375 190.339844 151.902344 189.707031 148.828125 188.417969 C 147.785156 188.007812 146.804688 187.488281 145.882812 186.859375 C 144.960938 186.226562 144.121094 185.5 143.363281 184.679688 C 142.601562 183.859375 141.945312 182.964844 141.386719 181.996094 C 140.832031 181.023438 140.386719 180.003906 140.0625 178.933594 C 138.839844 174.78125 139.402344 169.714844 139.902344 165.238281 C 139.996094 164.363281 140.09375 163.519531 140.164062 162.722656 C 140.863281 155.195312 142.210938 147.789062 144.214844 140.5 C 147.027344 130.300781 151.46875 124.398438 157.410156 122.960938 C 163.300781 121.53125 169.757812 124.878906 175.121094 132.148438 C 176.722656 134.273438 178.128906 136.523438 179.339844 138.898438 C 180.550781 141.269531 181.542969 143.730469 182.324219 146.277344 C 183.105469 148.824219 183.65625 151.417969 183.984375 154.0625 C 184.308594 156.707031 184.402344 159.359375 184.265625 162.019531 C 183.421875 173.507812 177.195312 183.773438 168.394531 188.171875 C 165.242188 189.652344 161.925781 190.363281 158.445312 190.3125 Z M 148.148438 141.585938 C 146.210938 148.644531 144.902344 155.816406 144.226562 163.105469 C 144.152344 163.921875 144.058594 164.789062 143.953125 165.691406 C 143.234375 169.726562 143.242188 173.757812 143.976562 177.789062 C 144.484375 179.367188 145.304688 180.757812 146.441406 181.964844 C 147.574219 183.171875 148.910156 184.074219 150.453125 184.675781 C 151.734375 185.207031 153.054688 185.601562 154.414062 185.863281 C 155.773438 186.125 157.148438 186.25 158.53125 186.238281 C 159.917969 186.222656 161.285156 186.070312 162.640625 185.78125 C 163.996094 185.492188 165.308594 185.070312 166.578125 184.515625 C 174.003906 180.804688 179.476562 171.640625 180.203125 161.71875 C 180.324219 159.300781 180.234375 156.886719 179.933594 154.484375 C 179.632812 152.082031 179.128906 149.722656 178.414062 147.40625 C 177.703125 145.09375 176.792969 142.859375 175.691406 140.703125 C 174.589844 138.546875 173.304688 136.503906 171.847656 134.574219 C 170.242188 132.402344 164.53125 125.453125 158.371094 126.933594 C 153.976562 127.996094 150.535156 132.929688 148.148438 141.589844 Z M 148.148438 141.585938"/><path fill="#1A1A1A" d="M 116.097656 144.480469 C 117.320312 163.628906 143.035156 173.765625 157.449219 158.164062 C 166.332031 148.546875 174.085938 137.742188 187.414062 135.546875 C 203.398438 159.820312 195.609375 182.679688 195.609375 182.679688 L 130.1875 182.679688 L 106.003906 165.199219 Z M 116.097656 144.480469"/><path fill="#1A1A1A" d="M 195.617188 184.71875 L 130.1875 184.71875 C 129.746094 184.71875 129.347656 184.589844 128.992188 184.332031 L 104.808594 166.851562 C 104.613281 166.710938 104.449219 166.542969 104.316406 166.34375 C 104.179688 166.144531 104.085938 165.929688 104.027344 165.695312 C 103.96875 165.460938 103.949219 165.226562 103.976562 164.984375 C 104 164.746094 104.066406 164.519531 104.167969 164.300781 L 114.265625 143.589844 C 114.46875 143.167969 114.773438 142.855469 115.191406 142.644531 C 115.605469 142.4375 116.042969 142.378906 116.496094 142.46875 C 116.953125 142.558594 117.335938 142.777344 117.640625 143.128906 C 117.945312 143.480469 118.113281 143.886719 118.140625 144.351562 C 118.230469 145.367188 118.394531 146.375 118.632812 147.367188 C 118.871094 148.359375 119.179688 149.332031 119.5625 150.277344 C 119.941406 151.226562 120.386719 152.140625 120.898438 153.023438 C 121.410156 153.90625 121.984375 154.746094 122.621094 155.546875 C 123.257812 156.34375 123.945312 157.09375 124.691406 157.792969 C 125.433594 158.488281 126.226562 159.128906 127.0625 159.710938 C 127.898438 160.296875 128.773438 160.8125 129.6875 161.269531 C 130.601562 161.722656 131.542969 162.109375 132.511719 162.425781 C 133.511719 162.796875 134.535156 163.097656 135.582031 163.316406 C 136.625 163.539062 137.683594 163.679688 138.75 163.746094 C 139.816406 163.808594 140.878906 163.792969 141.945312 163.699219 C 143.007812 163.605469 144.058594 163.433594 145.097656 163.183594 C 146.136719 162.933594 147.152344 162.605469 148.140625 162.207031 C 149.132812 161.804688 150.085938 161.332031 151.007812 160.789062 C 151.929688 160.246094 152.804688 159.640625 153.632812 158.964844 C 154.464844 158.292969 155.242188 157.5625 155.960938 156.773438 C 157.214844 155.414062 158.445312 154.035156 159.671875 152.65625 C 167.183594 144.230469 174.949219 135.519531 187.101562 133.527344 C 187.5 133.460938 187.882812 133.507812 188.253906 133.667969 C 188.625 133.832031 188.917969 134.082031 189.140625 134.417969 C 205.488281 159.246094 197.890625 182.363281 197.558594 183.335938 C 197.417969 183.75 197.167969 184.085938 196.8125 184.339844 C 196.453125 184.59375 196.054688 184.722656 195.617188 184.71875 Z M 130.84375 180.632812 L 194.070312 180.632812 C 194.882812 176.988281 195.328125 173.300781 195.410156 169.566406 C 195.488281 165.835938 195.203125 162.128906 194.550781 158.453125 C 193.894531 154.777344 192.886719 151.203125 191.523438 147.726562 C 190.164062 144.25 188.472656 140.945312 186.453125 137.804688 C 176.449219 139.957031 169.765625 147.457031 162.707031 155.367188 C 161.460938 156.761719 160.214844 158.160156 158.945312 159.535156 C 158.566406 159.9375 158.171875 160.328125 157.765625 160.707031 C 157.363281 161.085938 156.945312 161.449219 156.515625 161.800781 C 156.089844 162.152344 155.652344 162.492188 155.203125 162.816406 C 154.75 163.136719 154.292969 163.449219 153.824219 163.742188 C 153.355469 164.035156 152.878906 164.316406 152.390625 164.582031 C 151.90625 164.84375 151.410156 165.09375 150.90625 165.328125 C 150.40625 165.558594 149.894531 165.777344 149.378906 165.976562 C 148.863281 166.179688 148.34375 166.363281 147.816406 166.53125 C 147.289062 166.699219 146.753906 166.847656 146.21875 166.984375 C 145.679688 167.117188 145.140625 167.234375 144.597656 167.332031 C 144.050781 167.433594 143.503906 167.515625 142.953125 167.582031 C 142.40625 167.644531 141.855469 167.695312 141.300781 167.722656 C 140.75 167.753906 140.195312 167.765625 139.640625 167.761719 C 139.089844 167.757812 138.535156 167.734375 137.984375 167.695312 C 137.429688 167.65625 136.882812 167.597656 136.332031 167.523438 C 135.785156 167.449219 135.238281 167.355469 134.695312 167.246094 C 134.152344 167.136719 133.613281 167.011719 133.082031 166.867188 C 132.546875 166.722656 132.015625 166.5625 131.492188 166.386719 C 130.96875 166.210938 130.449219 166.015625 129.9375 165.804688 C 129.425781 165.597656 128.917969 165.371094 128.421875 165.128906 C 127.921875 164.886719 127.433594 164.628906 126.949219 164.355469 C 126.46875 164.082031 125.996094 163.796875 125.53125 163.492188 C 125.070312 163.191406 124.617188 162.871094 124.171875 162.539062 C 123.730469 162.210938 123.296875 161.863281 122.875 161.503906 C 122.453125 161.144531 122.042969 160.773438 121.644531 160.386719 C 121.246094 160.003906 120.859375 159.605469 120.488281 159.195312 C 120.113281 158.789062 119.753906 158.367188 119.40625 157.933594 C 119.058594 157.5 118.726562 157.058594 118.410156 156.605469 C 118.089844 156.152344 117.785156 155.6875 117.496094 155.214844 C 117.207031 154.742188 116.933594 154.261719 116.675781 153.773438 C 116.414062 153.28125 116.171875 152.785156 115.945312 152.28125 C 115.714844 151.773438 115.503906 151.261719 115.308594 150.742188 L 108.582031 164.539062 Z M 130.84375 180.632812"/><path fill="#1A1A1A" d="M 162.875 201.492188 C 153.816406 201.402344 144.855469 200.394531 136 198.46875 C 119.136719 194.882812 103.851562 188.832031 92.96875 181.425781 C 79.832031 172.480469 74.011719 162.101562 76.109375 151.40625 C 76.496094 149.375 76.992188 147.371094 77.59375 145.390625 C 78.199219 143.414062 78.90625 141.472656 79.71875 139.574219 C 80.53125 137.671875 81.445312 135.820312 82.457031 134.015625 C 83.472656 132.214844 84.578125 130.472656 85.78125 128.789062 C 86.980469 127.105469 88.269531 125.496094 89.644531 123.953125 C 91.019531 122.410156 92.472656 120.945312 94.007812 119.558594 C 95.539062 118.171875 97.144531 116.875 98.816406 115.664062 C 100.492188 114.453125 102.226562 113.332031 104.019531 112.308594 C 119.003906 103.464844 138.394531 100.535156 152.265625 105.003906 C 177.433594 113.113281 204.84375 134.242188 192.488281 188.832031 C 190.433594 197.917969 178.0625 201.492188 162.875 201.492188 Z M 137.917969 107 C 132.324219 107.0625 126.828125 107.84375 121.433594 109.34375 C 116.039062 110.839844 110.925781 113 106.09375 115.828125 C 104.421875 116.78125 102.808594 117.820312 101.25 118.949219 C 99.691406 120.074219 98.199219 121.28125 96.773438 122.570312 C 95.347656 123.859375 93.992188 125.222656 92.710938 126.65625 C 91.429688 128.09375 90.230469 129.59375 89.113281 131.160156 C 87.996094 132.722656 86.964844 134.34375 86.023438 136.023438 C 85.078125 137.699219 84.226562 139.421875 83.472656 141.191406 C 82.714844 142.960938 82.054688 144.765625 81.492188 146.605469 C 80.929688 148.445312 80.46875 150.3125 80.105469 152.203125 C 76.179688 172.132812 106.765625 188.082031 136.84375 194.472656 C 164.144531 200.269531 186.355469 197.457031 188.511719 187.9375 C 194.953125 159.464844 193.679688 122.648438 151.019531 108.898438 C 146.75 107.585938 142.382812 106.953125 137.917969 107 Z M 137.917969 107"/><path fill="#FFF" d="M 174.082031 221.792969 C 151.949219 221.792969 63.402344 226.8125 63.402344 226.8125 C 59.71875 218.882812 51.394531 219.050781 43.976562 217.339844 C 43.9375 217.339844 43.902344 217.335938 43.867188 217.320312 C 40.894531 216.777344 38.214844 215.578125 35.824219 213.726562 C 34.226562 212.375 33 210.742188 32.15625 208.828125 C 24.507812 192.253906 38.515625 162.628906 23.128906 154.152344 C 10.359375 147.109375 0.832031 124.367188 18.683594 109.394531 C 39.71875 91.761719 55.144531 119.417969 66.226562 124.578125 C 79.421875 130.71875 96.277344 120.960938 107.785156 130.753906 C 121.136719 142.089844 115.363281 163.710938 126.929688 168.183594 C 135.976562 171.695312 152.886719 166.089844 163.757812 183.882812 C 170.914062 195.570312 159.847656 207.707031 174.082031 221.792969 Z M 174.082031 221.792969"/><path fill="#1A1A1A" d="M 149.933594 191.339844 C 144.515625 203.039062 133.660156 209.402344 119.859375 211.644531 C 136.714844 212.175781 147.484375 211.644531 147.484375 211.644531 C 147.632812 204.796875 148.449219 198.027344 149.933594 191.339844 Z M 149.933594 191.339844"/><path fill="#1A1A1A" d="M 134.394531 213.917969 C 130.296875 213.917969 125.367188 213.863281 119.796875 213.683594 C 119.542969 213.675781 119.300781 213.621094 119.066406 213.523438 C 118.835938 213.425781 118.628906 213.285156 118.445312 213.109375 C 118.265625 212.933594 118.121094 212.730469 118.015625 212.5 C 117.910156 212.269531 117.847656 212.027344 117.832031 211.777344 C 117.816406 211.523438 117.84375 211.277344 117.921875 211.035156 C 117.996094 210.792969 118.113281 210.574219 118.269531 210.375 C 118.425781 210.175781 118.613281 210.011719 118.832031 209.882812 C 119.050781 209.753906 119.285156 209.671875 119.53125 209.628906 C 133.65625 207.332031 143.265625 200.886719 148.085938 190.480469 C 148.191406 190.25 148.335938 190.046875 148.515625 189.875 C 148.695312 189.699219 148.902344 189.5625 149.132812 189.460938 C 149.363281 189.363281 149.605469 189.308594 149.855469 189.296875 C 150.109375 189.289062 150.351562 189.324219 150.589844 189.40625 C 150.828125 189.484375 151.042969 189.605469 151.238281 189.769531 C 151.429688 189.929688 151.589844 190.117188 151.710938 190.339844 C 151.835938 190.558594 151.914062 190.792969 151.953125 191.042969 C 151.988281 191.289062 151.980469 191.539062 151.925781 191.785156 C 150.476562 198.324219 149.675781 204.941406 149.523438 211.640625 C 149.523438 211.902344 149.476562 212.15625 149.378906 212.398438 C 149.28125 212.644531 149.144531 212.859375 148.964844 213.050781 C 148.78125 213.238281 148.574219 213.390625 148.335938 213.5 C 148.097656 213.609375 147.847656 213.667969 147.585938 213.683594 C 147.515625 213.683594 142.621094 213.917969 134.394531 213.917969 Z M 133.375 209.835938 C 139.066406 209.835938 143.234375 209.746094 145.492188 209.675781 C 145.566406 207.75 145.757812 204.550781 146.253906 200.628906 C 142.625 204.625 138.332031 207.695312 133.378906 209.835938 Z M 133.375 209.835938"/><path fill="#100F0D" d="M 107.785156 130.753906 C 89.917969 123.851562 72.390625 147.214844 43.984375 122.628906 C 28.828125 109.519531 13.367188 134.761719 30.296875 147.214844 C 37.574219 152.574219 43.117188 158.726562 40.992188 174.515625 C 38.496094 193.035156 34.8125 205.382812 43.964844 217.339844 C 43.964844 217.355469 43.964844 217.355469 43.984375 217.375 L 43.859375 217.320312 L 35.824219 213.726562 C 34.226562 212.375 33 210.742188 32.15625 208.828125 C 24.507812 192.253906 38.515625 162.628906 23.128906 154.152344 C 10.359375 147.109375 0.832031 124.367188 18.683594 109.394531 C 39.71875 91.761719 55.144531 119.417969 66.226562 124.578125 C 79.421875 130.71875 96.277344 120.960938 107.785156 130.753906 Z M 107.785156 130.753906"/><path fill="#FFF" d="M 213.855469 217.554688 C 216.6875 202.179688 238.949219 151.238281 286.988281 166.425781 C 310.992188 174.015625 306.378906 212.851562 288.414062 226.015625 Z M 213.855469 217.554688"/><path fill="#1A1A1A" d="M 63.398438 228.855469 C 63.003906 228.855469 62.636719 228.75 62.304688 228.535156 C 61.96875 228.324219 61.71875 228.035156 61.550781 227.675781 C 59 222.191406 53.824219 221.265625 47.832031 220.191406 C 41.351562 219.03125 34.007812 217.722656 30.300781 209.691406 C 26.816406 202.136719 27.515625 192.417969 28.1875 183.011719 C 29.03125 171.269531 29.820312 160.171875 22.140625 155.933594 C 20.035156 154.667969 18.101562 153.175781 16.34375 151.460938 C 14.585938 149.746094 13.046875 147.851562 11.730469 145.777344 C 10.410156 143.703125 9.347656 141.503906 8.542969 139.179688 C 7.738281 136.859375 7.207031 134.472656 6.957031 132.027344 C 6.746094 129.734375 6.820312 127.453125 7.183594 125.179688 C 7.542969 122.90625 8.179688 120.710938 9.089844 118.597656 C 10 116.484375 11.15625 114.515625 12.558594 112.691406 C 13.964844 110.867188 15.570312 109.246094 17.378906 107.824219 C 34.121094 93.78125 47.75 106.246094 57.691406 115.34375 C 60.5 118.214844 63.632812 120.671875 67.082031 122.71875 C 72.539062 125.257812 78.726562 124.839844 85.277344 124.402344 C 93.5625 123.839844 102.136719 123.269531 109.097656 129.191406 C 116.328125 135.335938 118.300781 144.035156 120.039062 151.707031 C 121.652344 158.824219 122.925781 164.445312 127.667969 166.28125 C 130.574219 167.160156 133.546875 167.628906 136.578125 167.695312 C 145.777344 168.398438 157.222656 169.277344 165.496094 182.804688 C 168.800781 188.21875 168.59375 193.671875 168.390625 198.9375 C 168.117188 206.042969 167.859375 212.753906 175.523438 220.335938 C 175.820312 220.625 176.007812 220.972656 176.089844 221.378906 C 176.171875 221.785156 176.132812 222.179688 175.976562 222.5625 C 175.820312 222.945312 175.574219 223.25 175.230469 223.480469 C 174.886719 223.710938 174.511719 223.828125 174.097656 223.828125 C 152.289062 223.828125 64.410156 228.792969 63.527344 228.84375 Z M 32.710938 105.65625 C 30.339844 105.742188 28.0625 106.242188 25.871094 107.152344 C 23.683594 108.066406 21.722656 109.332031 19.988281 110.957031 C 18.425781 112.152344 17.035156 113.53125 15.820312 115.085938 C 14.605469 116.636719 13.605469 118.320312 12.820312 120.128906 C 12.035156 121.9375 11.488281 123.820312 11.183594 125.769531 C 10.878906 127.71875 10.820312 129.675781 11.015625 131.636719 C 11.242188 133.75 11.703125 135.8125 12.40625 137.820312 C 13.105469 139.824219 14.019531 141.726562 15.15625 143.523438 C 16.292969 145.320312 17.617188 146.960938 19.128906 148.453125 C 20.640625 149.945312 22.300781 151.246094 24.109375 152.355469 C 34.082031 157.855469 33.15625 170.792969 32.265625 183.304688 C 31.628906 192.195312 30.96875 201.382812 34.011719 207.976562 C 36.824219 214.074219 42.261719 215.046875 48.554688 216.171875 C 54.398438 217.21875 60.976562 218.394531 64.605469 224.703125 C 75.019531 224.117188 144.136719 220.28125 169.605469 219.800781 C 163.804688 212.246094 164.078125 205.148438 164.320312 198.785156 C 164.527344 193.695312 164.6875 189.296875 162.023438 184.9375 C 154.839844 173.1875 144.976562 172.429688 136.277344 171.765625 C 132.839844 171.679688 129.480469 171.125 126.203125 170.089844 C 119.4375 167.46875 117.800781 160.25 116.070312 152.613281 C 114.394531 145.214844 112.660156 137.566406 106.46875 132.304688 C 100.757812 127.453125 93.375 127.949219 85.554688 128.476562 C 78.78125 128.929688 71.773438 129.398438 65.375 126.433594 C 61.527344 124.226562 58.054688 121.539062 54.953125 118.367188 C 48.296875 112.285156 41.050781 105.65625 32.710938 105.65625 Z M 32.710938 105.65625"/><path fill="#1A1A1A" d="M 131.246094 240.167969 C 130.796875 240.167969 130.390625 240.03125 130.027344 239.761719 C 129.667969 239.492188 129.421875 239.140625 129.292969 238.707031 C 128 234.367188 126.496094 230.097656 124.777344 225.90625 C 123.0625 221.714844 121.144531 217.621094 119.027344 213.617188 C 116.90625 209.617188 114.59375 205.730469 112.089844 201.957031 C 109.585938 198.1875 106.902344 194.546875 104.039062 191.039062 C 101.175781 187.53125 98.148438 184.175781 94.953125 180.96875 C 91.761719 177.761719 88.414062 174.722656 84.921875 171.847656 C 81.425781 168.972656 77.800781 166.277344 74.039062 163.761719 C 70.277344 161.242188 66.402344 158.917969 62.414062 156.789062 C 62.175781 156.660156 61.96875 156.492188 61.796875 156.285156 C 61.625 156.074219 61.5 155.839844 61.421875 155.582031 C 61.339844 155.324219 61.3125 155.058594 61.339844 154.789062 C 61.363281 154.519531 61.441406 154.265625 61.566406 154.027344 C 61.695312 153.785156 61.863281 153.582031 62.070312 153.40625 C 62.277344 153.234375 62.511719 153.109375 62.769531 153.03125 C 63.027344 152.949219 63.292969 152.921875 63.5625 152.949219 C 63.832031 152.972656 64.085938 153.050781 64.324219 153.175781 C 68.433594 155.375 72.421875 157.765625 76.296875 160.359375 C 80.167969 162.949219 83.90625 165.726562 87.503906 168.6875 C 91.101562 171.648438 94.546875 174.78125 97.835938 178.082031 C 101.125 181.386719 104.246094 184.84375 107.191406 188.453125 C 110.140625 192.066406 112.90625 195.816406 115.484375 199.699219 C 118.0625 203.585938 120.441406 207.589844 122.625 211.710938 C 124.808594 215.832031 126.785156 220.050781 128.550781 224.367188 C 130.320312 228.683594 131.867188 233.074219 133.203125 237.546875 C 133.246094 237.699219 133.273438 237.855469 133.28125 238.011719 C 133.292969 238.171875 133.28125 238.328125 133.253906 238.484375 C 133.226562 238.640625 133.179688 238.792969 133.117188 238.9375 C 133.054688 239.085938 132.976562 239.222656 132.878906 239.347656 C 132.785156 239.476562 132.675781 239.589844 132.554688 239.691406 C 132.433594 239.792969 132.300781 239.882812 132.160156 239.953125 C 132.019531 240.023438 131.871094 240.078125 131.714844 240.113281 C 131.5625 240.148438 131.402344 240.167969 131.246094 240.167969 Z M 131.246094 240.167969"/><path fill="#1A1A1A" d="M 288.417969 228.054688 C 288.339844 228.054688 288.265625 228.050781 288.191406 228.042969 L 213.625 219.585938 C 213.34375 219.554688 213.082031 219.46875 212.835938 219.328125 C 212.589844 219.183594 212.382812 219 212.214844 218.773438 C 212.046875 218.546875 211.929688 218.292969 211.867188 218.019531 C 211.804688 217.742188 211.796875 217.464844 211.847656 217.1875 C 213.394531 208.800781 222.769531 181.871094 244.816406 168.597656 C 257.566406 160.917969 271.960938 159.53125 287.601562 164.476562 C 297.003906 167.449219 303.171875 175.136719 304.976562 186.121094 C 307.503906 201.535156 300.902344 219.394531 289.621094 227.664062 C 289.261719 227.925781 288.863281 228.054688 288.417969 228.054688 Z M 216.328125 215.78125 L 287.835938 223.890625 C 297.425781 216.371094 303.164062 200.265625 300.953125 186.78125 C 299.414062 177.390625 294.226562 170.855469 286.375 168.375 C 271.902344 163.792969 258.625 165.046875 246.917969 172.101562 C 228.964844 182.910156 219.050781 204.828125 216.328125 215.78125 Z M 216.328125 215.78125"/><path fill="#1A1A1A" d="M 244.265625 233.03125 C 243.976562 233.035156 243.695312 232.972656 243.429688 232.855469 C 243.164062 232.734375 242.933594 232.566406 242.738281 232.347656 C 242.546875 232.128906 242.40625 231.878906 242.320312 231.601562 C 242.230469 231.320312 242.207031 231.035156 242.242188 230.746094 C 242.792969 226.273438 243.777344 221.902344 245.195312 217.625 C 246.617188 213.351562 248.441406 209.257812 250.675781 205.347656 C 252.910156 201.4375 255.503906 197.785156 258.464844 194.394531 C 261.421875 191 264.6875 187.933594 268.253906 185.191406 C 268.46875 185.027344 268.707031 184.910156 268.96875 184.839844 C 269.230469 184.769531 269.496094 184.753906 269.761719 184.789062 C 270.03125 184.824219 270.28125 184.910156 270.515625 185.046875 C 270.75 185.183594 270.949219 185.359375 271.113281 185.574219 C 271.277344 185.789062 271.394531 186.027344 271.460938 186.289062 C 271.53125 186.550781 271.546875 186.816406 271.511719 187.085938 C 271.476562 187.355469 271.390625 187.605469 271.253906 187.839844 C 271.121094 188.074219 270.945312 188.273438 270.730469 188.4375 C 267.394531 191.03125 264.34375 193.921875 261.574219 197.117188 C 258.804688 200.308594 256.371094 203.742188 254.277344 207.410156 C 252.179688 211.082031 250.460938 214.921875 249.113281 218.929688 C 247.769531 222.941406 246.828125 227.042969 246.285156 231.234375 C 246.257812 231.484375 246.183594 231.71875 246.070312 231.9375 C 245.953125 232.160156 245.804688 232.351562 245.617188 232.519531 C 245.429688 232.683594 245.222656 232.808594 244.988281 232.898438 C 244.757812 232.988281 244.515625 233.03125 244.265625 233.03125 Z M 244.265625 233.03125"/><path fill="#1A1A1A" d="M 236.042969 193.058594 C 234.375 199.011719 239.710938 211.644531 249.773438 211.644531 C 242.789062 212.058594 235.804688 212.058594 228.816406 211.644531 C 228.816406 211.644531 234.714844 200.214844 236.042969 193.058594 Z M 236.042969 193.058594"/><path fill="#1A1A1A" d="M 236.867188 213.933594 C 234.09375 213.992188 231.320312 213.910156 228.554688 213.679688 C 228.394531 213.660156 228.234375 213.621094 228.082031 213.558594 C 227.929688 213.5 227.785156 213.425781 227.652344 213.332031 C 227.519531 213.238281 227.398438 213.128906 227.289062 213.007812 C 227.179688 212.882812 227.089844 212.75 227.011719 212.605469 C 226.9375 212.457031 226.878906 212.304688 226.839844 212.148438 C 226.800781 211.988281 226.78125 211.828125 226.78125 211.664062 C 226.777344 211.5 226.796875 211.335938 226.835938 211.175781 C 226.875 211.019531 226.929688 210.867188 227.007812 210.71875 C 229.828125 205.246094 232.109375 199.550781 233.839844 193.636719 C 233.898438 193.261719 233.976562 192.886719 234.078125 192.519531 C 234.148438 192.265625 234.265625 192.03125 234.421875 191.824219 C 234.582031 191.613281 234.777344 191.441406 235.003906 191.304688 C 235.230469 191.171875 235.472656 191.082031 235.734375 191.042969 C 235.992188 191.003906 236.253906 191.011719 236.507812 191.074219 C 236.765625 191.132812 237 191.238281 237.214844 191.390625 C 237.433594 191.542969 237.613281 191.730469 237.753906 191.949219 C 237.898438 192.171875 237.996094 192.410156 238.046875 192.671875 C 238.09375 192.929688 238.097656 193.1875 238.046875 193.449219 C 237.988281 193.753906 237.921875 194.0625 237.84375 194.390625 C 237.75 196.28125 237.988281 198.128906 238.5625 199.933594 C 239.132812 201.738281 240 203.386719 241.160156 204.878906 C 241.640625 205.585938 242.199219 206.222656 242.828125 206.796875 C 243.460938 207.371094 244.152344 207.863281 244.898438 208.273438 C 245.644531 208.683594 246.429688 209.003906 247.25 209.230469 C 248.074219 209.457031 248.910156 209.585938 249.761719 209.613281 C 250.03125 209.609375 250.292969 209.65625 250.542969 209.757812 C 250.796875 209.855469 251.019531 210 251.214844 210.1875 C 251.40625 210.375 251.558594 210.59375 251.664062 210.84375 C 251.773438 211.09375 251.828125 211.351562 251.832031 211.621094 C 251.835938 211.894531 251.789062 212.15625 251.691406 212.40625 C 251.589844 212.65625 251.449219 212.882812 251.257812 213.074219 C 251.070312 213.269531 250.851562 213.421875 250.605469 213.527344 C 250.355469 213.636719 250.097656 213.691406 249.828125 213.695312 C 244.222656 213.863281 240.011719 213.933594 236.867188 213.933594 Z M 232.007812 209.785156 C 233.738281 209.835938 236.355469 209.871094 240.175781 209.828125 C 239.347656 209.070312 238.597656 208.246094 237.921875 207.347656 C 236.804688 205.855469 235.894531 204.242188 235.199219 202.511719 C 234.089844 205.292969 232.898438 207.90625 232.007812 209.773438 Z M 232.007812 209.785156"/><path fill="#FFF" d="M 148.121094 218.113281 C 143.597656 188.382812 163.027344 141.683594 215.5625 141.683594 C 243.628906 141.683594 244.777344 195.210938 222.871094 219.929688 C 206.003906 221.8125 148.117188 218.113281 148.117188 218.113281 Z M 148.121094 218.113281"/><path fill="#1A1A1A" d="M 208.246094 222.507812 C 185.214844 222.507812 149.863281 220.261719 147.988281 220.148438 C 147.757812 220.136719 147.535156 220.082031 147.320312 219.992188 C 147.105469 219.898438 146.914062 219.773438 146.742188 219.617188 C 146.570312 219.460938 146.429688 219.277344 146.320312 219.074219 C 146.210938 218.867188 146.136719 218.648438 146.101562 218.417969 C 143.234375 199.574219 149.746094 177.640625 162.695312 162.539062 C 171.648438 152.09375 188.09375 139.644531 215.5625 139.644531 C 224.5625 139.644531 231.84375 144.824219 236.066406 154.238281 C 244.613281 173.292969 239.160156 204.625 224.398438 221.289062 C 224.050781 221.675781 223.617188 221.902344 223.097656 221.960938 C 219.574219 222.351562 214.339844 222.507812 208.246094 222.507812 Z M 149.917969 216.179688 C 159.34375 216.75 206.121094 219.464844 221.871094 217.980469 C 235.324219 202.230469 240.226562 173.464844 232.355469 155.902344 C 229.863281 150.34375 224.925781 143.71875 215.570312 143.71875 C 195.054688 143.71875 177.84375 151.148438 165.792969 165.195312 C 162.839844 168.699219 160.265625 172.464844 158.0625 176.484375 C 155.859375 180.503906 154.078125 184.703125 152.714844 189.082031 C 151.351562 193.457031 150.433594 197.929688 149.964844 202.488281 C 149.492188 207.050781 149.476562 211.613281 149.917969 216.179688 Z M 149.917969 216.179688"/><path fill="#1A1A1A" d="M 175.621094 233.566406 C 175.367188 233.566406 175.117188 233.519531 174.878906 233.425781 C 174.636719 233.332031 174.425781 233.199219 174.234375 233.023438 C 174.046875 232.851562 173.894531 232.648438 173.78125 232.414062 C 173.671875 232.183594 173.605469 231.941406 173.585938 231.683594 C 173.363281 228.421875 173.324219 225.160156 173.472656 221.898438 C 173.621094 218.632812 173.953125 215.390625 174.464844 212.164062 C 174.980469 208.9375 175.675781 205.75 176.554688 202.601562 C 177.429688 199.457031 178.480469 196.367188 179.707031 193.339844 C 180.933594 190.3125 182.328125 187.367188 183.886719 184.496094 C 185.449219 181.628906 187.164062 178.855469 189.039062 176.183594 C 190.914062 173.507812 192.933594 170.949219 195.097656 168.507812 C 197.261719 166.0625 199.558594 163.75 201.984375 161.566406 C 202.1875 161.386719 202.417969 161.253906 202.671875 161.164062 C 202.929688 161.078125 203.191406 161.042969 203.460938 161.058594 C 203.730469 161.078125 203.988281 161.144531 204.230469 161.265625 C 204.472656 161.382812 204.683594 161.542969 204.863281 161.746094 C 205.039062 161.949219 205.171875 162.179688 205.261719 162.4375 C 205.347656 162.691406 205.382812 162.957031 205.367188 163.226562 C 205.351562 163.496094 205.28125 163.753906 205.164062 163.996094 C 205.046875 164.238281 204.882812 164.449219 204.683594 164.628906 C 202.371094 166.707031 200.1875 168.910156 198.128906 171.234375 C 196.070312 173.5625 194.148438 175.996094 192.363281 178.542969 C 190.578125 181.085938 188.945312 183.726562 187.460938 186.457031 C 185.976562 189.1875 184.648438 191.992188 183.484375 194.875 C 182.316406 197.753906 181.316406 200.695312 180.480469 203.6875 C 179.648438 206.683594 178.984375 209.71875 178.496094 212.789062 C 178.003906 215.859375 177.691406 218.945312 177.550781 222.054688 C 177.410156 225.160156 177.445312 228.265625 177.65625 231.367188 C 177.679688 231.636719 177.644531 231.902344 177.5625 232.15625 C 177.480469 232.414062 177.347656 232.648438 177.171875 232.851562 C 176.996094 233.058594 176.789062 233.222656 176.546875 233.34375 C 176.304688 233.46875 176.050781 233.539062 175.78125 233.558594 C 175.730469 233.5625 175.675781 233.566406 175.621094 233.566406 Z M 175.621094 233.566406"/><path fill="#100F0D" d="M 20.855469 211.640625 L 20.855469 231.125 C 20.855469 300.835938 86.164062 360.816406 118.4375 360.816406 L 269.191406 360.816406 C 302.972656 360.816406 366.777344 298.632812 366.777344 231.125 L 366.777344 211.640625 Z M 20.855469 211.640625"/><path fill="#FFF" d="M 26.800781 270.117188 C 26.53125 270.128906 26.265625 270.085938 26.011719 269.992188 C 25.757812 269.898438 25.535156 269.761719 25.335938 269.578125 C 25.136719 269.394531 24.980469 269.179688 24.863281 268.933594 C 24.75 268.6875 24.6875 268.429688 24.675781 268.160156 C 24.667969 267.890625 24.707031 267.625 24.800781 267.371094 C 24.890625 267.117188 25.03125 266.890625 25.214844 266.691406 C 25.394531 266.492188 25.609375 266.335938 25.855469 266.222656 C 26.101562 266.105469 26.359375 266.042969 26.628906 266.03125 C 35.421875 265.273438 44.03125 263.570312 52.453125 260.925781 C 56.554688 259.632812 62.191406 257.390625 63.746094 252.894531 C 65.277344 248.507812 62.316406 243.648438 60.984375 241.761719 C 59.914062 240.257812 58.714844 238.859375 57.441406 237.378906 C 55.558594 235.304688 53.867188 233.082031 52.371094 230.710938 C 51.519531 229.246094 50.816406 227.710938 50.265625 226.105469 C 49.714844 224.5 49.324219 222.855469 49.097656 221.175781 C 48.871094 219.492188 48.808594 217.804688 48.914062 216.109375 C 49.019531 214.414062 49.289062 212.75 49.722656 211.109375 C 49.792969 210.847656 49.914062 210.609375 50.078125 210.394531 C 50.242188 210.179688 50.445312 210.007812 50.679688 209.871094 C 50.914062 209.738281 51.164062 209.652344 51.433594 209.617188 C 51.699219 209.585938 51.964844 209.601562 52.226562 209.675781 C 52.488281 209.746094 52.722656 209.863281 52.9375 210.03125 C 53.152344 210.195312 53.324219 210.394531 53.460938 210.632812 C 53.59375 210.867188 53.679688 211.117188 53.710938 211.386719 C 53.746094 211.65625 53.726562 211.921875 53.65625 212.183594 C 53.292969 213.558594 53.066406 214.957031 52.980469 216.378906 C 52.890625 217.796875 52.941406 219.214844 53.132812 220.625 C 53.324219 222.035156 53.652344 223.414062 54.113281 224.757812 C 54.578125 226.105469 55.167969 227.394531 55.882812 228.621094 C 57.257812 230.789062 58.8125 232.820312 60.542969 234.71875 C 61.816406 236.203125 63.136719 237.738281 64.3125 239.390625 C 66.433594 242.378906 69.683594 248.277344 67.601562 254.234375 C 65.449219 260.46875 58.632812 263.261719 53.683594 264.824219 C 44.976562 267.558594 36.074219 269.320312 26.980469 270.109375 C 26.921875 270.113281 26.859375 270.117188 26.800781 270.117188 Z M 26.800781 270.117188"/><path fill="#FFF" d="M 40.992188 301.210938 C 40.730469 301.210938 40.480469 301.164062 40.242188 301.066406 C 40 300.972656 39.785156 300.835938 39.597656 300.65625 C 39.410156 300.480469 39.261719 300.273438 39.148438 300.039062 C 39.039062 299.804688 38.976562 299.554688 38.960938 299.296875 C 38.945312 299.039062 38.976562 298.785156 39.058594 298.539062 C 39.136719 298.292969 39.257812 298.070312 39.425781 297.867188 C 39.589844 297.667969 39.785156 297.507812 40.011719 297.382812 C 40.238281 297.257812 40.480469 297.175781 40.738281 297.144531 C 46.960938 296.425781 53.09375 295.234375 59.136719 293.570312 C 71.28125 290.121094 80.890625 284.613281 87.695312 277.210938 C 95.605469 268.558594 99.257812 257.375 97.457031 247.285156 C 96.773438 243.972656 95.816406 240.738281 94.585938 237.585938 C 93.03125 233.679688 91.933594 229.644531 91.296875 225.484375 C 91.019531 222.980469 91.074219 220.484375 91.464844 217.996094 C 91.855469 215.507812 92.566406 213.117188 93.597656 210.820312 C 93.703125 210.566406 93.855469 210.34375 94.050781 210.148438 C 94.246094 209.957031 94.46875 209.808594 94.722656 209.707031 C 94.980469 209.605469 95.242188 209.558594 95.515625 209.5625 C 95.792969 209.566406 96.054688 209.625 96.304688 209.734375 C 96.554688 209.847656 96.773438 210.003906 96.964844 210.203125 C 97.152344 210.402344 97.292969 210.628906 97.390625 210.886719 C 97.484375 211.144531 97.527344 211.410156 97.519531 211.683594 C 97.507812 211.960938 97.441406 212.222656 97.328125 212.46875 C 96.441406 214.433594 95.832031 216.480469 95.496094 218.605469 C 95.160156 220.734375 95.109375 222.867188 95.34375 225.011719 C 95.949219 228.863281 96.976562 232.597656 98.429688 236.214844 C 99.734375 239.582031 100.746094 243.035156 101.472656 246.574219 C 103.492188 257.898438 99.464844 270.386719 90.695312 279.972656 C 83.371094 287.9375 73.128906 293.839844 60.25 297.496094 C 54.011719 299.21875 47.675781 300.449219 41.25 301.199219 C 41.164062 301.207031 41.066406 301.210938 40.992188 301.210938 Z M 40.992188 301.210938"/><path fill="#FFF" d="M 165.457031 258.554688 C 164.09375 258.554688 162.738281 258.460938 161.390625 258.28125 C 159.132812 258.023438 156.910156 257.578125 154.726562 256.949219 C 152.542969 256.320312 150.425781 255.515625 148.378906 254.535156 C 146.328125 253.550781 144.375 252.40625 142.515625 251.097656 C 140.65625 249.792969 138.914062 248.339844 137.296875 246.742188 C 135.664062 245.097656 134.226562 243.296875 132.996094 241.335938 C 131.761719 239.371094 130.757812 237.296875 129.984375 235.113281 C 129.210938 232.925781 128.6875 230.683594 128.414062 228.378906 C 128.140625 226.078125 128.121094 223.773438 128.359375 221.464844 C 128.871094 217.511719 130.210938 213.867188 132.386719 210.53125 C 132.535156 210.304688 132.71875 210.113281 132.941406 209.960938 C 133.164062 209.804688 133.410156 209.699219 133.671875 209.644531 C 133.9375 209.589844 134.203125 209.585938 134.46875 209.632812 C 134.734375 209.683594 134.980469 209.78125 135.210938 209.929688 C 135.4375 210.078125 135.625 210.261719 135.777344 210.488281 C 135.933594 210.710938 136.035156 210.953125 136.09375 211.21875 C 136.148438 211.484375 136.152344 211.75 136.101562 212.015625 C 136.050781 212.285156 135.953125 212.53125 135.804688 212.757812 C 133.96875 215.570312 132.835938 218.640625 132.398438 221.972656 C 132.199219 223.972656 132.21875 225.976562 132.460938 227.972656 C 132.707031 229.972656 133.164062 231.917969 133.839844 233.8125 C 134.515625 235.710938 135.394531 237.507812 136.46875 239.207031 C 137.542969 240.910156 138.792969 242.46875 140.214844 243.890625 C 143.152344 246.78125 146.480469 249.109375 150.199219 250.882812 C 153.917969 252.65625 157.820312 253.773438 161.914062 254.234375 C 165.566406 254.714844 172.191406 254.890625 175.554688 250.703125 C 178.730469 246.753906 177.550781 240.695312 175.386719 236.324219 C 174.273438 234.167969 173.039062 232.082031 171.6875 230.0625 C 169.707031 227.195312 168.039062 224.15625 166.675781 220.945312 C 165.527344 217.957031 164.953125 214.855469 164.945312 211.652344 C 164.941406 211.382812 164.992188 211.121094 165.09375 210.871094 C 165.195312 210.621094 165.34375 210.398438 165.53125 210.207031 C 165.722656 210.011719 165.941406 209.863281 166.191406 209.757812 C 166.441406 209.652344 166.699219 209.601562 166.96875 209.597656 L 166.980469 209.597656 C 167.25 209.597656 167.511719 209.648438 167.757812 209.753906 C 168.007812 209.855469 168.226562 210.003906 168.417969 210.191406 C 168.609375 210.382812 168.757812 210.601562 168.863281 210.851562 C 168.964844 211.097656 169.019531 211.359375 169.019531 211.628906 C 169.027344 214.332031 169.511719 216.945312 170.476562 219.46875 C 171.742188 222.421875 173.289062 225.214844 175.117188 227.851562 C 176.550781 229.996094 177.859375 232.214844 179.046875 234.503906 C 181.769531 240 183.121094 247.8125 178.734375 253.257812 C 175.304688 257.535156 169.867188 258.554688 165.457031 258.554688 Z M 165.457031 258.554688"/><path fill="#FFF" d="M 148.40625 362.855469 C 147.976562 362.855469 147.582031 362.730469 147.230469 362.480469 C 146.878906 362.230469 146.628906 361.902344 146.488281 361.496094 C 145.554688 358.894531 145 356.21875 144.832031 353.460938 C 144.21875 342.953125 149.699219 333.289062 154.539062 326.042969 C 155.585938 324.488281 156.664062 322.945312 157.742188 321.398438 C 161.949219 315.375 166.304688 309.148438 168.546875 302.226562 C 171.082031 294.382812 170.5625 283.972656 163.679688 278.40625 C 157.035156 273.035156 146.964844 274.441406 139.925781 278.214844 C 133.933594 281.808594 128.53125 286.144531 123.722656 291.222656 C 122.230469 292.652344 120.734375 294.097656 119.21875 295.496094 C 115.082031 299.28125 110.730469 302.800781 106.164062 306.050781 C 101.597656 309.300781 96.847656 312.257812 91.914062 314.921875 C 86.984375 317.585938 81.90625 319.9375 76.6875 321.972656 C 71.464844 324.011719 66.140625 325.722656 60.710938 327.101562 C 60.40625 327.171875 60.101562 327.175781 59.792969 327.109375 C 59.488281 327.042969 59.210938 326.914062 58.964844 326.71875 C 58.71875 326.527344 58.523438 326.292969 58.382812 326.011719 C 58.242188 325.734375 58.167969 325.4375 58.160156 325.121094 C 58.160156 324.882812 58.199219 324.652344 58.28125 324.429688 C 58.359375 324.207031 58.476562 324.003906 58.628906 323.820312 C 58.78125 323.636719 58.957031 323.484375 59.164062 323.363281 C 59.367188 323.242188 59.585938 323.160156 59.820312 323.117188 C 65.078125 321.773438 70.234375 320.117188 75.285156 318.140625 C 80.339844 316.164062 85.253906 313.882812 90.03125 311.300781 C 94.804688 308.71875 99.402344 305.855469 103.824219 302.707031 C 108.25 299.558594 112.460938 296.152344 116.46875 292.484375 C 117.960938 291.109375 119.433594 289.691406 120.90625 288.273438 C 125.976562 282.925781 131.679688 278.371094 138.011719 274.609375 C 145.628906 270.523438 157.59375 268.234375 166.246094 275.222656 C 174.636719 282.003906 175.398438 294.300781 172.429688 303.484375 C 169.984375 310.976562 165.460938 317.460938 161.082031 323.734375 C 160.019531 325.257812 158.957031 326.78125 157.925781 328.3125 C 153.441406 335.023438 148.363281 343.917969 148.902344 353.226562 C 149.050781 355.597656 149.527344 357.898438 150.328125 360.136719 C 150.417969 360.390625 150.457031 360.652344 150.441406 360.921875 C 150.429688 361.195312 150.363281 361.453125 150.246094 361.695312 C 150.128906 361.941406 149.972656 362.152344 149.769531 362.332031 C 149.570312 362.515625 149.34375 362.652344 149.085938 362.742188 C 148.867188 362.816406 148.640625 362.855469 148.40625 362.855469 Z M 148.40625 362.855469"/><path fill="#FFF" d="M 192.289062 362.855469 C 191.90625 362.859375 191.550781 362.757812 191.226562 362.558594 C 190.898438 362.359375 190.648438 362.089844 190.472656 361.75 C 188.226562 357.199219 186.710938 352.417969 185.933594 347.398438 C 185.152344 342.382812 185.148438 337.363281 185.914062 332.34375 C 187.746094 319.621094 193.871094 306.617188 204.621094 292.558594 L 206.15625 290.566406 C 212.59375 282.222656 219.253906 273.589844 218.253906 263.925781 C 217.488281 256.417969 212.363281 250.539062 206.945312 244.324219 C 203.046875 240.214844 199.71875 235.6875 196.957031 230.742188 C 195.492188 227.738281 194.511719 224.582031 194.015625 221.273438 C 193.515625 217.96875 193.523438 214.664062 194.035156 211.359375 C 194.074219 211.089844 194.164062 210.839844 194.300781 210.609375 C 194.441406 210.378906 194.621094 210.179688 194.835938 210.019531 C 195.054688 209.859375 195.292969 209.746094 195.554688 209.679688 C 195.816406 209.613281 196.082031 209.601562 196.347656 209.640625 C 196.617188 209.679688 196.867188 209.769531 197.097656 209.910156 C 197.328125 210.050781 197.527344 210.226562 197.6875 210.445312 C 197.847656 210.660156 197.960938 210.902344 198.027344 211.164062 C 198.09375 211.425781 198.105469 211.691406 198.066406 211.960938 C 197.617188 214.847656 197.605469 217.738281 198.039062 220.628906 C 198.46875 223.519531 199.324219 226.277344 200.597656 228.90625 C 203.210938 233.539062 206.347656 237.78125 210.007812 241.636719 C 215.609375 248.070312 221.402344 254.71875 222.300781 263.515625 C 223.46875 274.804688 215.984375 284.507812 209.371094 293.070312 L 207.851562 295.050781 C 197.535156 308.527344 191.675781 320.925781 189.941406 332.933594 C 189.234375 337.535156 189.234375 342.132812 189.941406 346.734375 C 190.652344 351.332031 192.035156 355.71875 194.09375 359.890625 C 194.214844 360.132812 194.289062 360.386719 194.3125 360.65625 C 194.332031 360.925781 194.304688 361.191406 194.222656 361.449219 C 194.136719 361.707031 194.007812 361.9375 193.835938 362.144531 C 193.660156 362.351562 193.453125 362.515625 193.210938 362.640625 C 192.921875 362.789062 192.613281 362.859375 192.289062 362.855469 Z M 192.289062 362.855469"/><path fill="#FFF" d="M 238.042969 362.855469 C 237.613281 362.859375 237.21875 362.734375 236.867188 362.484375 C 236.515625 362.234375 236.265625 361.90625 236.121094 361.5 C 234.4375 356.777344 233.507812 351.914062 233.332031 346.902344 C 232.898438 334.039062 237.496094 321.597656 242.054688 311.109375 C 243.054688 308.816406 244.089844 306.53125 245.109375 304.246094 C 249.289062 295.730469 252.617188 286.894531 255.085938 277.738281 C 256.828125 270.21875 258.617188 255.875 251.0625 244.304688 C 248.210938 240.308594 244.9375 236.695312 241.246094 233.464844 C 240.226562 232.507812 239.226562 231.546875 238.238281 230.578125 C 234.023438 226.453125 228.953125 220.8125 227.152344 213.78125 C 226.992188 213.164062 226.867188 212.539062 226.789062 211.90625 C 226.753906 211.636719 226.769531 211.371094 226.84375 211.109375 C 226.914062 210.847656 227.03125 210.613281 227.195312 210.398438 C 227.359375 210.183594 227.558594 210.007812 227.796875 209.875 C 228.03125 209.738281 228.28125 209.652344 228.550781 209.617188 C 228.816406 209.589844 229.078125 209.609375 229.339844 209.679688 C 229.597656 209.753906 229.835938 209.871094 230.046875 210.035156 C 230.261719 210.203125 230.433594 210.402344 230.570312 210.632812 C 230.707031 210.867188 230.792969 211.117188 230.828125 211.382812 C 230.890625 211.84375 230.980469 212.300781 231.097656 212.75 C 232.640625 218.78125 237.007812 223.671875 241.085938 227.660156 C 242.0625 228.617188 243.054688 229.558594 244.046875 230.5 C 247.96875 233.949219 251.441406 237.804688 254.46875 242.066406 C 260.6875 251.585938 262.3125 264.582031 259.054688 278.664062 C 256.527344 288.085938 253.117188 297.171875 248.820312 305.925781 C 247.800781 308.195312 246.773438 310.46875 245.777344 312.742188 C 241.40625 322.808594 236.988281 334.722656 237.394531 346.765625 C 237.554688 351.355469 238.40625 355.808594 239.953125 360.132812 C 240.007812 360.285156 240.042969 360.445312 240.058594 360.605469 C 240.074219 360.769531 240.074219 360.929688 240.050781 361.09375 C 240.027344 361.253906 239.988281 361.414062 239.925781 361.5625 C 239.867188 361.714844 239.789062 361.859375 239.695312 361.992188 C 239.601562 362.125 239.492188 362.246094 239.371094 362.355469 C 239.246094 362.460938 239.113281 362.554688 238.96875 362.628906 C 238.824219 362.703125 238.671875 362.761719 238.515625 362.800781 C 238.355469 362.839844 238.195312 362.855469 238.03125 362.855469 Z M 238.042969 362.855469"/><path fill="#FFF" d="M 278.0625 361.613281 C 277.417969 361.613281 276.890625 361.363281 276.480469 360.859375 C 275.507812 359.679688 274.589844 358.457031 273.726562 357.195312 C 272.863281 355.929688 272.054688 354.632812 271.304688 353.296875 C 270.554688 351.964844 269.867188 350.597656 269.238281 349.203125 C 268.609375 347.808594 268.042969 346.386719 267.539062 344.941406 C 267.035156 343.496094 266.597656 342.03125 266.222656 340.546875 C 265.847656 339.058594 265.542969 337.5625 265.300781 336.050781 C 265.058594 334.539062 264.882812 333.019531 264.777344 331.492188 C 264.667969 329.964844 264.628906 328.433594 264.65625 326.902344 C 264.683594 325.371094 264.78125 323.847656 264.941406 322.324219 C 265.105469 320.800781 265.335938 319.289062 265.632812 317.785156 C 265.925781 316.285156 266.289062 314.796875 266.71875 313.328125 C 267.144531 311.859375 267.636719 310.410156 268.191406 308.984375 C 268.746094 307.558594 269.363281 306.15625 270.042969 304.785156 C 270.722656 303.414062 271.460938 302.074219 272.257812 300.769531 C 273.054688 299.460938 273.910156 298.195312 274.820312 296.964844 C 275.726562 295.734375 276.691406 294.542969 277.703125 293.398438 C 284.707031 285.496094 293.175781 281.640625 300.964844 282.835938 C 307.84375 283.882812 313.019531 288.46875 318.023438 292.902344 C 319.945312 294.605469 321.929688 296.363281 323.9375 297.84375 C 326.570312 299.746094 329.410156 301.269531 332.445312 302.421875 C 335.484375 303.570312 338.617188 304.304688 341.851562 304.625 C 342.105469 304.648438 342.34375 304.714844 342.574219 304.828125 C 342.800781 304.945312 343.003906 305.09375 343.175781 305.285156 C 343.34375 305.472656 343.476562 305.6875 343.570312 305.925781 C 343.660156 306.164062 343.707031 306.410156 343.703125 306.667969 C 343.699219 306.957031 343.636719 307.230469 343.519531 307.496094 C 343.398438 307.757812 343.230469 307.984375 343.015625 308.175781 C 342.800781 308.371094 342.558594 308.511719 342.285156 308.601562 C 342.007812 308.691406 341.730469 308.722656 341.441406 308.695312 C 337.847656 308.339844 334.363281 307.519531 330.984375 306.238281 C 327.605469 304.957031 324.453125 303.257812 321.523438 301.140625 C 319.359375 299.550781 317.304688 297.730469 315.316406 295.96875 C 310.542969 291.742188 306.035156 287.746094 300.339844 286.878906 C 291.28125 285.515625 283.617188 292.875 280.746094 296.117188 C 279.8125 297.171875 278.925781 298.265625 278.085938 299.402344 C 277.246094 300.535156 276.460938 301.703125 275.726562 302.910156 C 274.992188 304.113281 274.3125 305.347656 273.6875 306.609375 C 273.058594 307.875 272.492188 309.164062 271.980469 310.480469 C 271.46875 311.792969 271.015625 313.128906 270.621094 314.484375 C 270.226562 315.839844 269.894531 317.210938 269.621094 318.59375 C 269.347656 319.980469 269.136719 321.371094 268.988281 322.777344 C 268.835938 324.179688 268.75 325.585938 268.726562 326.996094 C 268.699219 328.410156 268.738281 329.816406 268.835938 331.226562 C 268.933594 332.632812 269.097656 334.035156 269.320312 335.425781 C 269.542969 336.820312 269.828125 338.203125 270.171875 339.570312 C 270.515625 340.9375 270.921875 342.289062 271.386719 343.621094 C 271.851562 344.953125 272.371094 346.261719 272.953125 347.550781 C 273.53125 348.835938 274.167969 350.09375 274.859375 351.324219 C 275.550781 352.550781 276.296875 353.75 277.09375 354.914062 C 277.890625 356.078125 278.734375 357.203125 279.632812 358.292969 C 279.878906 358.597656 280.027344 358.945312 280.074219 359.335938 C 280.121094 359.726562 280.058594 360.097656 279.890625 360.453125 C 279.722656 360.808594 279.472656 361.09375 279.140625 361.304688 C 278.808594 361.515625 278.445312 361.621094 278.054688 361.621094 Z M 278.0625 361.613281"/><path fill="#FFF" d="M 362.5625 263.78125 C 361.941406 263.78125 361.425781 263.546875 361.019531 263.074219 C 358.210938 259.757812 355.078125 256.78125 351.621094 254.148438 C 341.429688 246.472656 328.789062 244.207031 319.414062 248.367188 C 316.300781 249.886719 313.378906 251.714844 310.648438 253.851562 C 309.160156 254.933594 307.621094 256.046875 306.03125 257.070312 C 299.871094 261.066406 294.167969 262.484375 289.09375 261.296875 C 280.628906 259.316406 275.84375 250.28125 274.839844 242.210938 C 274.4375 237.894531 274.410156 233.574219 274.761719 229.253906 C 275.003906 225.902344 275.054688 222.542969 274.914062 219.1875 C 274.78125 216.828125 274.359375 214.523438 273.644531 212.273438 C 273.578125 212.019531 273.558594 211.765625 273.589844 211.503906 C 273.621094 211.246094 273.699219 211 273.824219 210.769531 C 273.949219 210.539062 274.109375 210.339844 274.3125 210.175781 C 274.511719 210.007812 274.738281 209.882812 274.984375 209.800781 C 275.234375 209.722656 275.488281 209.691406 275.75 209.707031 C 276.011719 209.722656 276.257812 209.789062 276.496094 209.902344 C 276.730469 210.015625 276.9375 210.167969 277.113281 210.359375 C 277.289062 210.554688 277.425781 210.769531 277.519531 211.015625 C 278.34375 213.59375 278.828125 216.238281 278.976562 218.941406 C 279.128906 222.453125 279.082031 225.964844 278.828125 229.472656 C 278.488281 233.558594 278.503906 237.640625 278.878906 241.722656 C 279.695312 248.382812 283.464844 255.796875 290.015625 257.332031 C 293.96875 258.257812 298.613281 257.023438 303.8125 253.65625 C 305.3125 252.691406 306.808594 251.613281 308.25 250.558594 C 311.214844 248.253906 314.386719 246.28125 317.765625 244.648438 C 330.757812 238.882812 345.035156 244.09375 354.0625 250.902344 C 357.753906 253.707031 361.101562 256.882812 364.101562 260.421875 C 364.359375 260.726562 364.519531 261.074219 364.574219 261.46875 C 364.628906 261.863281 364.574219 262.242188 364.410156 262.605469 C 364.246094 262.96875 363.996094 263.257812 363.660156 263.472656 C 363.324219 263.691406 362.957031 263.796875 362.558594 263.796875 Z M 362.5625 263.78125"/><path fill="#1A1A1A" d="M 269.191406 362.859375 L 118.4375 362.859375 C 101.339844 362.859375 76.246094 347.019531 56 323.449219 C 42.113281 307.277344 18.816406 273.785156 18.816406 231.128906 L 18.816406 211.640625 C 18.816406 211.371094 18.867188 211.109375 18.96875 210.859375 C 19.074219 210.609375 19.222656 210.386719 19.414062 210.195312 C 19.601562 210.003906 19.824219 209.859375 20.074219 209.753906 C 20.324219 209.652344 20.582031 209.597656 20.855469 209.597656 L 366.777344 209.597656 C 367.046875 209.597656 367.308594 209.652344 367.558594 209.753906 C 367.804688 209.859375 368.027344 210.003906 368.21875 210.195312 C 368.410156 210.386719 368.554688 210.609375 368.660156 210.859375 C 368.761719 211.109375 368.816406 211.371094 368.816406 211.640625 L 368.816406 231.125 C 368.816406 297.761719 305.78125 362.859375 269.191406 362.859375 Z M 22.890625 213.683594 L 22.890625 231.125 C 22.890625 299.6875 86.976562 358.773438 118.4375 358.773438 L 269.191406 358.773438 C 285.5 358.773438 309.570312 343.179688 329.09375 319.976562 C 351.746094 293.042969 364.738281 260.660156 364.738281 231.128906 L 364.738281 213.683594 Z M 22.890625 213.683594"/><path fill="#100F0D" d="M 181.136719 159.136719 C 182.339844 158.605469 183.945312 158.246094 184.710938 159.386719 C 185.445312 160.46875 184.800781 162.003906 184.15625 163.171875 L 164.277344 199.082031 C 163.539062 200.820312 162.371094 202.1875 160.769531 203.1875 C 160.367188 203.359375 159.941406 203.464844 159.503906 203.496094 C 159.0625 203.523438 158.628906 203.480469 158.203125 203.367188 C 157.777344 203.25 157.382812 203.066406 157.019531 202.816406 C 156.65625 202.566406 156.34375 202.261719 156.082031 201.90625 C 152.742188 197.386719 157.148438 186.433594 159.101562 182.046875 C 161.96875 175.53125 166.09375 169.941406 171.46875 165.28125 C 174.390625 162.757812 177.617188 160.710938 181.136719 159.136719 Z M 181.136719 159.136719"/><path fill="#100F0D" d="M 198.957031 149.386719 C 199.179688 149.402344 199.394531 149.453125 199.601562 149.539062 C 199.808594 149.628906 199.992188 149.746094 200.160156 149.898438 C 200.324219 150.050781 200.457031 150.226562 200.5625 150.425781 C 200.667969 150.625 200.734375 150.835938 200.765625 151.058594 C 200.726562 151.738281 200.535156 152.375 200.195312 152.96875 C 199.859375 153.558594 199.40625 154.042969 198.835938 154.417969 C 197.097656 155.855469 195.171875 156.96875 193.058594 157.757812 C 192.523438 158.058594 191.949219 158.191406 191.335938 158.160156 C 190.722656 158.125 190.164062 157.929688 189.664062 157.570312 C 184.933594 152.78125 197.148438 149.066406 198.957031 149.386719 Z M 198.957031 149.386719"/><path fill="#100F0D" d="M 270.792969 170.488281 C 272.269531 170.46875 274.179688 170.882812 274.375 172.347656 C 274.539062 173.613281 273.242188 174.527344 272.132812 175.128906 L 248.894531 187.554688 C 247.925781 188.199219 246.859375 188.523438 245.695312 188.519531 C 238.453125 187.765625 245.984375 178.164062 248.796875 176.488281 C 252.144531 174.558594 255.683594 173.085938 259.410156 172.070312 C 263.136719 171.054688 266.929688 170.527344 270.792969 170.488281 Z M 270.792969 170.488281"/><path fill="#1A1A1A" d="M 303.464844 188.539062 C 303.464844 208.902344 349.816406 216.949219 361.839844 190.917969 C 356.765625 201.535156 354.234375 206.625 348.632812 211.640625 L 299.402344 211.640625 C 302.566406 204.496094 304.890625 194.675781 303.464844 188.539062 Z M 303.464844 188.539062"/><path fill="#1A1A1A" d="M 299.402344 213.6875 C 299.234375 213.6875 299.066406 213.664062 298.902344 213.625 C 298.738281 213.582031 298.582031 213.519531 298.429688 213.441406 C 298.28125 213.359375 298.144531 213.261719 298.019531 213.144531 C 297.894531 213.03125 297.789062 212.902344 297.695312 212.757812 C 297.601562 212.617188 297.527344 212.464844 297.472656 212.304688 C 297.417969 212.140625 297.386719 211.976562 297.371094 211.808594 C 297.359375 211.636719 297.367188 211.46875 297.394531 211.300781 C 297.421875 211.132812 297.472656 210.972656 297.539062 210.816406 C 300.246094 204.867188 301.683594 198.621094 301.851562 192.082031 C 301.566406 190.917969 301.425781 189.738281 301.425781 188.539062 C 301.425781 188.289062 301.46875 188.046875 301.558594 187.8125 C 301.648438 187.578125 301.777344 187.367188 301.941406 187.183594 C 302.109375 186.996094 302.304688 186.84375 302.523438 186.730469 C 302.746094 186.613281 302.980469 186.542969 303.230469 186.515625 C 303.476562 186.484375 303.722656 186.5 303.964844 186.5625 C 304.207031 186.625 304.429688 186.726562 304.632812 186.871094 C 304.835938 187.015625 305.011719 187.1875 305.148438 187.394531 C 305.289062 187.601562 305.390625 187.828125 305.445312 188.070312 C 305.695312 189.179688 305.847656 190.304688 305.898438 191.4375 C 307.527344 197.351562 314.109375 202.246094 323.582031 204.339844 C 336.421875 207.167969 353.054688 204.0625 359.691406 190.679688 L 360 190.035156 C 360.113281 189.789062 360.273438 189.578125 360.472656 189.394531 C 360.671875 189.214844 360.898438 189.078125 361.152344 188.984375 C 361.40625 188.894531 361.667969 188.855469 361.9375 188.867188 C 362.207031 188.882812 362.464844 188.945312 362.710938 189.0625 C 362.953125 189.175781 363.167969 189.332031 363.347656 189.535156 C 363.53125 189.734375 363.667969 189.960938 363.757812 190.214844 C 363.851562 190.46875 363.890625 190.730469 363.878906 191 C 363.867188 191.269531 363.804688 191.527344 363.6875 191.773438 C 363.578125 192.011719 363.464844 192.246094 363.351562 192.476562 C 358.289062 203.050781 355.699219 208.050781 349.992188 213.160156 C 349.605469 213.507812 349.152344 213.683594 348.632812 213.683594 Z M 305.375 198.867188 C 304.738281 202.539062 303.761719 206.117188 302.4375 209.601562 L 347.84375 209.601562 C 349.582031 207.984375 351.117188 206.191406 352.453125 204.226562 C 350.203125 205.464844 347.863281 206.488281 345.425781 207.296875 C 342.992188 208.105469 340.5 208.6875 337.957031 209.039062 C 335.417969 209.386719 332.863281 209.503906 330.300781 209.386719 C 327.734375 209.265625 325.203125 208.914062 322.707031 208.332031 C 319.378906 207.738281 316.234375 206.632812 313.269531 205.015625 C 310.304688 203.394531 307.671875 201.34375 305.375 198.867188 Z M 305.375 198.867188"/></svg>