<svg xmlns="http://www.w3.org/2000/svg" width="375" viewBox="0 0 375 375" height="375" version="1.0"><defs><clipPath id="a"><path d="M 95 143 L 270 143 L 270 337.160156 L 95 337.160156 Z M 95 143"/></clipPath><clipPath id="b"><path d="M 95 48.410156 L 267 48.410156 L 267 147 L 95 147 Z M 95 48.410156"/></clipPath></defs><g clip-path="url(#a)"><path d="M 269.503906 143.558594 L 95.621094 143.558594 L 127.539062 191.550781 L 143.027344 258.21875 L 158.984375 245.269531 L 183.328125 337.15625 L 196.738281 286.207031 L 207.152344 301.902344 L 231.816406 222.203125 L 250.492188 211.316406 Z M 269.503906 143.558594"/></g><g clip-path="url(#b)"><path d="M 181.15625 48.417969 L 153.828125 81.753906 L 120.160156 96.855469 L 95.617188 146.453125 L 266.691406 146.453125 L 244.636719 103.589844 L 219.503906 98.222656 Z M 181.15625 48.417969"/></g><path fill="#FFF" d="M 181.023438 57.828125 L 157.21875 86.894531 L 124.324219 101.460938 L 105.542969 140.507812 L 210.929688 140.507812 L 198.941406 110.613281 L 157.339844 124.4375 L 183.652344 99.855469 Z M 181.023438 57.828125"/><path d="M -20.472656 140.960938 L 384.996094 140.960938 L 384.996094 146.863281 L -20.472656 146.863281 Z M -20.472656 140.960938"/></svg>