<svg xmlns="http://www.w3.org/2000/svg" width="375" viewBox="0 0 375 375" height="375" version="1.0"><path fill="#1A1A1A" d="M 84.171875 167.972656 C 69.535156 170.414062 61.269531 179.90625 57.066406 192.246094 C 49.613281 166.753906 42.566406 141.121094 38.230469 114.8125 C 36.335938 103.421875 19.125 108.304688 21.019531 119.558594 C 28.746094 165.804688 44.601562 210.011719 56.660156 255.304688 C 59.644531 266.5625 76.039062 261.679688 73.871094 250.558594 C 70.753906 234.015625 63.84375 192.519531 85.660156 185.738281 C 110.460938 178.007812 117.914062 235.507812 123.199219 250.558594 C 126.992188 261.273438 144.203125 256.664062 140.410156 245.8125 C 131.195312 219.097656 124.960938 161.054688 84.171875 167.972656 Z M 84.171875 167.972656"/><path fill="#1A1A1A" d="M 201.796875 232.253906 C 182.960938 251.101562 169.003906 235.914062 161.550781 216.386719 C 179.980469 213.808594 194.480469 195.636719 195.835938 174.210938 C 197.597656 145.734375 160.328125 137.054688 145.421875 159.023438 C 138.648438 168.921875 136.34375 181.804688 137.292969 195.09375 C 132.277344 198.214844 130.382812 206.621094 136.886719 210.691406 C 138.105469 211.503906 139.324219 212.046875 140.410156 212.722656 C 150.707031 247.984375 182.28125 276.867188 214.265625 245 C 222.53125 236.726562 209.925781 224.117188 201.796875 232.253906 Z M 155.585938 183.566406 C 155.859375 177.601562 157.621094 171.226562 161.820312 166.886719 C 166.425781 162.003906 175.640625 163.226562 177.539062 169.734375 C 182.011719 184.515625 169.816406 197.808594 156.671875 198.078125 C 155.722656 192.789062 155.449219 187.636719 155.585938 183.566406 Z M 155.585938 183.566406"/><path fill="#1A1A1A" d="M 242.992188 230.894531 C 238.113281 212.316406 234.183594 193.46875 230.117188 174.753906 C 226.59375 158.207031 223.207031 141.664062 218.871094 125.253906 C 216.839844 117.253906 214.804688 107.355469 207.757812 102.335938 C 198.410156 95.554688 189.464844 111.015625 198.816406 117.796875 C 195.5625 115.492188 199.492188 122.40625 200.441406 125.390625 C 202.339844 131.628906 203.828125 138.003906 205.183594 144.242188 C 209.113281 161.054688 212.636719 178.007812 216.296875 194.960938 C 221.851562 220.453125 225.242188 254.761719 240.824219 276.597656 C 247.464844 285.820312 262.914062 277.003906 256.273438 267.648438 C 248.820312 257.070312 246.246094 242.964844 242.992188 230.894531 Z M 242.992188 230.894531"/><path fill="#1A1A1A" d="M 283.375 256.121094 C 277.414062 251.238281 275.921875 238.082031 274.160156 231.167969 C 269.960938 214.621094 266.84375 197.808594 263.863281 180.992188 C 259.117188 154.410156 256.816406 126.613281 249.902344 100.4375 C 246.921875 89.320312 229.710938 94.066406 232.695312 105.183594 C 240.011719 132.578125 242.316406 161.734375 247.328125 189.535156 C 250.445312 207.027344 253.832031 224.523438 258.441406 241.746094 C 260.746094 250.289062 263.457031 262.765625 270.636719 268.730469 C 279.582031 275.917969 292.320312 263.308594 283.375 256.121094 Z M 283.375 256.121094"/><path fill="#1A1A1A" d="M 320.777344 149.9375 C 319.285156 146.140625 315.492188 143.15625 310.34375 144.242188 C 289.878906 148.582031 274.972656 162.957031 274.703125 184.515625 C 274.433594 204.046875 288.117188 221.675781 305.871094 228.320312 C 327.6875 236.589844 351.808594 221.675781 353.980469 198.890625 C 355.875 178.6875 338.664062 159.023438 320.777344 149.9375 Z M 308.71875 210.417969 C 298.960938 205.945312 293.132812 195.09375 292.589844 184.652344 C 292.050781 173.804688 298.960938 167.292969 307.632812 163.769531 C 307.769531 163.769531 307.769531 163.90625 307.902344 163.90625 C 321.320312 168.109375 332.023438 180.175781 335.546875 193.601562 C 339.886719 209.46875 320.507812 215.84375 308.71875 210.417969 Z M 308.71875 210.417969"/></svg>