<svg xmlns="http://www.w3.org/2000/svg" width="375" viewBox="0 0 375 375" height="375" version="1.0"><defs><clipPath id="a"><path d="M 8.453125 20 L 366 20 L 366 356 L 8.453125 356 Z M 8.453125 20"/></clipPath></defs><g clip-path="url(#a)"><path fill="#100F0D" d="M 348.667969 274.683594 L 343.40625 274.683594 C 343.40625 273.804688 343.40625 273.21875 343.40625 272.339844 C 343.40625 237.527344 315.054688 209.441406 280.566406 209.441406 C 271.796875 209.441406 263.03125 211.195312 255.140625 215 L 255.140625 211.488281 C 255.140625 203.296875 248.707031 196.863281 240.523438 196.863281 L 234.386719 196.863281 C 231.171875 196.863281 228.25 198.03125 225.910156 199.496094 C 223.28125 195.105469 218.605469 192.179688 213.34375 192.179688 L 207.203125 192.179688 C 206.328125 192.179688 205.453125 192.179688 204.574219 192.472656 L 204.574219 192.179688 C 204.574219 183.988281 198.144531 177.554688 189.960938 177.554688 L 183.824219 177.554688 C 177.101562 177.554688 171.253906 182.234375 169.792969 188.671875 C 168.625 188.378906 167.164062 188.085938 165.992188 188.085938 L 159.855469 188.085938 C 151.671875 188.085938 145.242188 194.519531 145.242188 202.714844 L 145.242188 208.855469 C 145.242188 210.320312 145.535156 211.78125 145.828125 212.953125 L 144.074219 207.980469 L 133.550781 175.210938 C 130.335938 165.265625 123.613281 157.074219 114.261719 152.394531 C 111.046875 150.636719 107.246094 149.46875 103.738281 148.882812 L 73.046875 37.710938 C 71.296875 31.273438 67.203125 26.007812 61.359375 22.789062 C 56.097656 19.863281 49.957031 19.28125 44.113281 21.035156 C 38.265625 22.789062 33.882812 26.886719 30.960938 32.445312 C 28.039062 38.296875 27.746094 45.023438 30.082031 51.167969 L 68.664062 159.707031 C 58.726562 169.945312 55.21875 184.574219 59.605469 198.324219 L 71.003906 234.601562 C 51.710938 240.160156 35.636719 255.082031 28.914062 274.683594 L 25.992188 274.683594 C 16.347656 274.683594 8.453125 282.582031 8.453125 292.234375 C 8.453125 316.226562 28.039062 335.828125 52.003906 335.828125 L 75.679688 335.828125 C 75.386719 336.996094 75.09375 338.460938 75.09375 339.921875 C 75.09375 348.699219 82.109375 355.71875 90.878906 355.71875 L 279.984375 355.71875 C 288.75 355.71875 295.765625 348.699219 295.765625 339.921875 C 295.765625 338.460938 295.472656 336.996094 295.179688 335.828125 L 322.070312 335.828125 C 346.039062 335.828125 365.621094 316.226562 365.621094 292.234375 C 366.203125 282.582031 358.605469 274.683594 348.667969 274.683594 Z M 264.199219 224.070312 C 269.460938 222.3125 275.304688 221.144531 280.859375 221.144531 C 309.210938 221.144531 332.007812 243.964844 332.007812 272.339844 C 332.007812 272.925781 332.007812 273.804688 332.007812 274.390625 L 323.238281 274.390625 C 323.238281 273.804688 323.238281 272.925781 323.238281 272.339844 C 323.238281 248.9375 304.242188 229.921875 280.859375 229.921875 C 278.230469 229.921875 275.597656 230.214844 272.96875 230.796875 C 270.046875 228.457031 267.121094 226.117188 264.199219 224.070312 Z M 227.957031 269.414062 C 234.679688 262.6875 243.15625 258.296875 252.507812 256.25 C 257.769531 254.789062 265.367188 254.789062 266.246094 254.789062 C 269.753906 254.789062 277.058594 256.25 281.445312 258.007812 C 290.503906 261.222656 298.394531 267.074219 304.242188 274.683594 L 292.257812 274.683594 C 284.367188 267.660156 274.429688 263.566406 263.613281 263.566406 C 252.800781 263.566406 242.863281 267.367188 234.972656 274.683594 L 222.988281 274.683594 C 223.574219 274.390625 227.957031 269.414062 227.957031 269.414062 Z M 222.695312 258.296875 C 220.359375 255.375 217.433594 253.03125 214.511719 250.691406 C 219.1875 247.765625 224.449219 246.304688 230.003906 246.304688 C 233.21875 246.304688 236.433594 246.890625 239.355469 247.765625 C 233.511719 250.398438 227.957031 253.910156 222.695312 258.296875 Z M 285.242188 246.890625 C 284.367188 245.132812 283.199219 243.378906 282.027344 241.621094 C 295.472656 242.207031 306.578125 251.277344 310.085938 263.566406 C 303.363281 256.25 294.890625 250.398438 285.242188 246.890625 Z M 231.757812 211.488281 C 231.757812 210.027344 232.925781 208.5625 234.679688 208.5625 L 240.816406 208.5625 C 242.277344 208.5625 243.738281 210.027344 243.738281 211.488281 L 243.738281 215.878906 C 242.863281 215.585938 238.769531 215 237.894531 215 C 235.847656 214.707031 233.800781 214.707031 232.046875 214.707031 L 232.046875 211.488281 Z M 204.574219 206.808594 C 204.574219 205.347656 206.035156 203.882812 207.496094 203.882812 L 213.636719 203.882812 C 215.097656 203.882812 216.558594 205.347656 216.558594 206.808594 L 216.558594 212.953125 C 216.558594 214.414062 215.097656 215.878906 213.636719 215.878906 L 207.496094 215.878906 C 206.035156 215.878906 204.574219 214.414062 204.574219 212.953125 Z M 232.925781 226.117188 C 238.769531 226.703125 249 227.582031 260.398438 236.0625 C 264.492188 238.988281 268.582031 243.378906 268.582031 243.378906 C 268.582031 243.378906 259.816406 242.792969 256.015625 243.671875 C 248.707031 237.820312 239.355469 234.894531 230.003906 234.894531 C 220.359375 234.894531 211.296875 238.113281 203.699219 243.964844 C 202.820312 243.378906 196.683594 240.746094 194.636719 240.160156 C 207.203125 228.164062 224.15625 224.949219 232.925781 226.117188 Z M 181.191406 192.179688 C 181.191406 190.71875 182.652344 189.253906 184.113281 189.253906 L 190.253906 189.253906 C 191.714844 189.253906 193.175781 190.71875 193.175781 192.179688 L 193.175781 198.324219 C 193.175781 199.789062 191.714844 201.25 190.253906 201.25 L 184.113281 201.25 C 182.652344 201.25 181.191406 199.789062 181.191406 198.324219 Z M 179.730469 218.511719 C 179.730469 217.046875 181.191406 215.585938 182.652344 215.585938 L 188.792969 215.585938 C 190.253906 215.585938 191.714844 217.046875 191.714844 218.511719 L 191.714844 224.65625 C 191.714844 226.117188 190.253906 227.582031 188.792969 227.582031 L 182.652344 227.582031 C 181.191406 227.582031 179.730469 226.117188 179.730469 224.65625 Z M 175.640625 248.644531 C 184.699219 248.644531 194.929688 251.570312 201.652344 255.957031 C 206.328125 258.882812 210.710938 262.394531 214.511719 266.78125 C 213.050781 268.246094 210.128906 273.21875 209.25 274.390625 C 201.359375 263.855469 188.792969 257.421875 175.347656 257.421875 C 164.238281 257.421875 153.71875 261.808594 145.828125 269.414062 C 145.828125 269.414062 142.609375 262.980469 141.441406 261.515625 C 146.703125 256.835938 154.300781 252.738281 158.101562 251.570312 C 166.871094 248.644531 174.46875 248.644531 175.640625 248.644531 Z M 193.46875 274.683594 L 158.394531 274.683594 C 163.363281 271.171875 169.5 269.125 175.929688 269.125 C 182.070312 269.125 188.207031 271.171875 193.46875 274.683594 Z M 134.71875 252.449219 C 130.628906 248.058594 125.953125 244.257812 120.691406 241.039062 C 124.199219 239.574219 128.289062 238.699219 132.089844 238.699219 C 137.933594 238.699219 143.195312 240.160156 148.164062 243.378906 C 143.488281 245.71875 138.8125 248.644531 134.71875 252.449219 Z M 156.933594 202.714844 C 156.933594 201.25 158.394531 199.789062 159.855469 199.789062 L 165.992188 199.789062 C 167.453125 199.789062 168.917969 201.25 168.917969 202.714844 L 168.917969 208.855469 C 168.917969 210.320312 167.453125 211.78125 165.992188 211.78125 L 159.855469 211.78125 C 158.394531 211.78125 156.933594 210.320312 156.933594 208.855469 Z M 171.839844 237.234375 C 168.625 237.234375 161.316406 238.699219 161.316406 238.699219 C 153.425781 231.382812 143.195312 226.996094 132.382812 226.996094 C 123.613281 226.996094 114.84375 229.921875 107.539062 234.894531 C 103.152344 233.429688 96.722656 232.554688 96.722656 232.554688 C 99.9375 229.628906 113.675781 217.339844 133.550781 218.21875 C 149.042969 218.804688 163.070312 226.117188 171.839844 237.234375 Z M 70.710938 194.8125 C 67.496094 184.28125 70.710938 172.871094 79.1875 165.851562 L 82.402344 163.21875 L 41.191406 47.074219 C 40.019531 43.855469 40.019531 40.34375 41.484375 37.417969 C 42.652344 34.785156 44.988281 33.03125 47.621094 32.152344 C 48.496094 31.859375 49.667969 31.566406 50.542969 31.566406 C 52.296875 31.566406 54.050781 32.152344 55.511719 33.03125 C 58.433594 34.492188 60.480469 37.417969 61.359375 40.636719 L 94.675781 159.121094 L 98.769531 159.414062 C 102.277344 159.707031 105.785156 160.878906 109 162.339844 C 115.429688 165.558594 120.105469 171.410156 122.445312 178.136719 L 131.210938 206.222656 C 131.210938 206.222656 126.242188 206.222656 120.398438 207.101562 L 113.382812 185.453125 C 112.507812 182.234375 109 180.769531 106.078125 181.648438 C 103.152344 182.527344 101.398438 185.746094 102.277344 188.960938 L 109 210.320312 C 106.078125 211.488281 102.570312 213.246094 100.230469 214.414062 L 92.921875 191.011719 C 92.046875 187.792969 88.539062 186.328125 85.617188 187.207031 C 82.695312 188.085938 80.941406 191.597656 81.816406 194.519531 L 90.292969 221.4375 C 89.125 222.3125 83.863281 227.289062 81.816406 230.507812 Z M 88.832031 243.964844 C 94.96875 243.964844 103.445312 245.71875 107.828125 247.765625 C 116.597656 251.570312 123.027344 256.25 128.582031 263.273438 C 128.582031 263.273438 132.964844 268.832031 135.597656 274.972656 L 125.953125 274.972656 C 118.644531 261.515625 104.324219 252.742188 88.832031 252.742188 C 73.339844 252.742188 59.019531 261.222656 51.710938 274.972656 L 42.066406 274.972656 C 48.789062 258.296875 66.617188 243.964844 88.832031 243.964844 Z M 111.628906 274.683594 L 65.742188 274.683594 C 71.296875 268.246094 79.769531 264.148438 88.832031 264.148438 C 97.601562 264.441406 106.078125 268.246094 111.628906 274.683594 Z M 280.566406 344.019531 L 91.460938 344.019531 C 89.125 344.019531 87.371094 342.261719 87.371094 339.921875 C 87.371094 337.582031 89.125 335.828125 91.460938 335.828125 L 280.566406 335.828125 C 282.90625 335.828125 284.660156 337.582031 284.660156 339.921875 C 284.660156 342.261719 282.90625 344.019531 280.566406 344.019531 Z M 322.949219 324.125 L 52.296875 324.125 C 34.761719 324.125 20.4375 309.789062 20.4375 292.234375 C 20.4375 289.015625 23.070312 286.382812 26.285156 286.382812 L 334.054688 286.382812 C 334.347656 286.382812 334.640625 286.382812 334.929688 286.382812 L 348.960938 286.382812 C 352.175781 286.382812 354.804688 289.015625 354.804688 292.234375 C 354.515625 309.789062 340.484375 324.125 322.949219 324.125 Z M 322.949219 324.125"/></g></svg>