<svg xmlns="http://www.w3.org/2000/svg" width="375" viewBox="0 0 375 375" height="375" version="1.0"><defs><clipPath id="a"><path d="M 54 210 L 112 210 L 112 284.59375 L 54 284.59375 Z M 54 210"/></clipPath><clipPath id="b"><path d="M 5.046875 219 L 61 219 L 61 284.59375 L 5.046875 284.59375 Z M 5.046875 219"/></clipPath><clipPath id="c"><path d="M 137 90.34375 L 223 90.34375 L 223 224 L 137 224 Z M 137 90.34375"/></clipPath><clipPath id="d"><path d="M 99 110 L 239 110 L 239 284.59375 L 99 284.59375 Z M 99 110"/></clipPath><clipPath id="e"><path d="M 37 183 L 114 183 L 114 284.59375 L 37 284.59375 Z M 37 183"/></clipPath><clipPath id="f"><path d="M 219 157 L 370 157 L 370 284.59375 L 219 284.59375 Z M 219 157"/></clipPath><clipPath id="g"><path d="M 127 187 L 312 187 L 312 284.59375 L 127 284.59375 Z M 127 187"/></clipPath></defs><path fill="#FFF" d="M 72.539062 219.039062 C 69.238281 215.300781 65.933594 211.5625 62.632812 207.824219 C 62.246094 207.382812 61.804688 206.925781 61.277344 206.714844 C 61.597656 208.039062 61.867188 209.339844 62.082031 210.625 C 65.679688 213.539062 68.902344 216.433594 72.539062 219.039062"/><path d="M 57.851562 238.46875 C 57.859375 238.429688 57.871094 238.390625 57.878906 238.347656 C 57.867188 238.328125 57.859375 238.308594 57.851562 238.285156 L 57.851562 238.46875"/><path fill="#FFF" d="M 69.84375 224.59375 L 63.097656 218.214844 C 63.21875 219.167969 63.355469 220.152344 63.496094 221.140625 L 71.371094 230.808594 L 69.84375 224.59375"/><g clip-path="url(#a)"><path d="M 105.15625 258.164062 C 101.816406 252.191406 97.25 247.015625 92.71875 241.882812 C 88.050781 236.597656 83.386719 231.316406 78.71875 226.035156 C 76.65625 223.703125 74.597656 221.371094 72.539062 219.039062 C 68.902344 216.433594 65.679688 213.539062 62.082031 210.625 C 62.417969 212.636719 62.660156 214.644531 62.910156 216.679688 C 62.972656 217.191406 63.03125 217.695312 63.097656 218.214844 L 69.84375 224.59375 L 71.324219 230.617188 L 71.371094 230.808594 L 63.496094 221.140625 C 63.539062 221.425781 63.570312 221.703125 63.613281 221.996094 C 61.421875 227.523438 58.867188 232.550781 57.878906 238.347656 C 59.019531 241.214844 60.347656 243.945312 61.535156 246.636719 C 60.722656 251.21875 59.949219 255.800781 59.148438 260.386719 C 57.734375 268.464844 56.246094 276.542969 54.304688 284.621094 L 103.082031 284.621094 C 105.867188 279.367188 107.421875 272.984375 111.894531 269.050781 C 108.894531 265.988281 107.25 261.902344 105.15625 258.164062"/></g><g clip-path="url(#b)"><path d="M 56.75 245.625 L 53.773438 243.644531 L 41.976562 261.746094 L 42.648438 258.539062 L 43.882812 252.640625 L 52.132812 236.335938 L 56.992188 226.734375 L 56.519531 219.429688 L 54.085938 219.949219 L 50.433594 232.398438 L 45.457031 234.410156 L 45.1875 234.761719 L 37.316406 245.003906 C 32.347656 246.996094 28.046875 249.363281 24.230469 252.265625 C 21.285156 255.785156 18.359375 260.273438 15.617188 264.984375 C 11.660156 271.785156 8.085938 279.066406 5.394531 284.621094 L 54.304688 284.621094 C 56.246094 276.542969 57.734375 268.464844 59.148438 260.386719 C 59.527344 258.210938 59.902344 256.039062 60.277344 253.863281 L 56.75 245.625"/></g><path fill="#FFF" d="M 57.851562 238.46875 L 57.851562 238.285156 C 57.859375 238.308594 57.867188 238.328125 57.878906 238.347656 C 58.867188 232.550781 61.421875 227.523438 63.613281 221.996094 C 63 218.011719 62.699219 214.359375 62.082031 210.625 C 61.867188 209.339844 61.597656 208.039062 61.277344 206.714844 C 61.121094 206.652344 60.957031 206.605469 60.785156 206.59375 C 59.820312 206.53125 59.078125 207.394531 58.503906 208.171875 C 53.355469 215.195312 48.570312 222.484375 44.179688 230.003906 C 42.265625 233.285156 40.40625 236.636719 37.90625 239.5 C 34.890625 242.949219 31.054688 245.558594 27.660156 248.632812 C 26.523438 249.664062 25.375 250.898438 24.230469 252.265625 C 28.046875 249.363281 32.347656 246.996094 37.316406 245.003906 L 45.1875 234.761719 L 45.457031 234.410156 L 50.433594 232.398438 L 54.085938 219.949219 L 56.519531 219.429688 L 56.992188 226.734375 L 43.882812 252.640625 L 41.976562 261.746094 L 53.773438 243.644531 L 56.75 245.625 L 60.277344 253.863281 C 60.691406 251.457031 61.109375 249.046875 61.535156 246.636719 C 60.347656 243.945312 59.019531 241.214844 57.878906 238.347656 C 57.871094 238.390625 57.859375 238.429688 57.851562 238.46875"/><path d="M 92.480469 212.347656 L 92.261719 212.585938 Z M 92.480469 212.347656"/><g clip-path="url(#c)"><path fill="#FFF" d="M 189.652344 110.859375 L 203.417969 135.292969 L 220.109375 151.585938 L 208.65625 132.03125 L 222.453125 140.445312 C 207.054688 126.199219 194.246094 109.160156 184.921875 90.375 C 184.382812 90.949219 183.847656 91.527344 183.304688 92.105469 L 178.625 110.339844 L 164.921875 127.164062 L 175.144531 152.847656 L 161.492188 193.429688 L 142.929688 205.292969 L 137.789062 223.78125 L 162.386719 199.859375 L 169.445312 212.660156 L 166.871094 195.261719 L 181.421875 154.425781 L 179.464844 159.917969 L 183.921875 191.769531 L 192.054688 204.300781 L 186.644531 160.308594 L 193.800781 159.910156 L 207.070312 171.761719 L 198.773438 154.25 L 178.730469 142.386719 L 175.621094 128.476562 L 186.300781 126.03125 L 189.652344 110.859375"/></g><path fill="#FFF" d="M 140.890625 150.960938 C 140.511719 151.917969 140.140625 152.878906 139.765625 153.839844 L 146.714844 144.59375 L 158.953125 123.90625 L 181.664062 98.511719 L 183.304688 92.105469 C 166.667969 109.917969 149.933594 128.382812 140.890625 150.960938"/><path fill="#FFF" d="M 106.277344 179.265625 L 107.34375 167.011719 C 99.933594 181.183594 92.675781 201.394531 87.574219 217.726562 L 91.585938 213.328125 L 104.238281 183.191406 L 107.878906 196.722656 L 115.167969 211.605469 L 106.277344 179.265625"/><path fill="#FFF" d="M 111.933594 188.796875 L 111.863281 188.34375 L 111.921875 188.269531 L 111.578125 172.078125 L 119.613281 171.90625 C 113.191406 169.136719 107.613281 166.484375 107.613281 166.484375 C 107.523438 166.65625 107.433594 166.835938 107.34375 167.011719 L 106.277344 179.265625 L 115.167969 211.605469 L 115.6875 212.664062 L 111.933594 188.796875"/><path fill="#FFF" d="M 165.015625 127.410156 L 147.082031 153 L 142.554688 165.863281 L 161.550781 143.28125 L 175.082031 153.03125 L 175.144531 152.847656 L 165.015625 127.410156"/><path d="M 181.664062 98.511719 L 158.953125 123.90625 L 146.714844 144.59375 L 139.765625 153.839844 C 138.457031 157.226562 137.113281 160.605469 135.039062 163.566406 C 132.300781 167.472656 128.527344 170.34375 124.527344 173.011719 L 123.988281 173.535156 L 142.222656 180.796875 L 131.613281 184.617188 L 143.015625 205.238281 L 160.453125 194.09375 L 161.492188 193.429688 L 175.082031 153.03125 L 161.550781 143.28125 L 142.554688 165.863281 L 147.082031 153 L 165.015625 127.410156 L 164.921875 127.164062 L 178.625 110.339844 L 181.664062 98.511719"/><g clip-path="url(#d)"><path d="M 136.378906 228.839844 L 136.578125 228.132812 L 137.046875 226.449219 Z M 222.453125 140.445312 L 208.65625 132.03125 L 220.109375 151.585938 L 203.417969 135.292969 L 189.652344 110.859375 L 186.300781 126.03125 L 175.621094 128.476562 L 178.730469 142.386719 L 198.773438 154.25 L 200.054688 156.949219 L 206.609375 170.792969 L 207.070312 171.761719 L 193.800781 159.910156 L 186.644531 160.308594 L 191.707031 201.476562 L 192.054688 204.300781 L 190.839844 202.429688 L 183.921875 191.769531 L 181.980469 177.898438 L 179.464844 159.917969 L 166.871094 195.261719 L 169.445312 212.660156 L 162.386719 199.859375 L 137.789062 223.78125 L 142.929688 205.292969 L 143.015625 205.238281 L 131.613281 184.617188 L 142.222656 180.796875 L 123.988281 173.535156 L 124.527344 173.011719 C 124.226562 173.210938 123.929688 173.410156 123.628906 173.609375 C 122.28125 173.050781 120.933594 172.476562 119.613281 171.90625 L 111.578125 172.078125 L 111.921875 188.269531 L 111.863281 188.34375 L 115.472656 211.296875 L 115.6875 212.664062 L 113.527344 208.257812 L 113.023438 246.195312 L 113.082031 246.03125 L 104.964844 268.320312 L 99.058594 284.554688 L 99.03125 284.621094 L 154.710938 284.621094 L 161.511719 248.449219 L 161.578125 248.117188 L 163.8125 236.222656 L 179.675781 223.371094 L 186.953125 217.472656 L 193.503906 212.164062 L 205.351562 192.703125 L 210.523438 184.203125 L 213.820312 178.789062 L 214.121094 178.292969 L 217.363281 172.96875 L 224.566406 171.789062 L 234.230469 158.769531 L 238.21875 153.394531 C 232.710938 149.398438 227.445312 145.070312 222.453125 140.445312"/></g><g clip-path="url(#e)"><path d="M 107.476562 195.898438 L 107.878906 196.722656 L 104.238281 183.191406 L 91.585938 213.328125 L 92.261719 212.585938 L 92.480469 212.347656 L 92.261719 212.585938 L 87.574219 217.726562 C 85.453125 221.84375 83.308594 225.941406 81.003906 229.890625 C 74.160156 241.621094 65.613281 252.355469 55.714844 261.660156 L 46.304688 273.945312 L 37.703125 284.621094 L 99.03125 284.621094 L 113.023438 246.195312 L 113.527344 208.257812 L 107.476562 195.898438"/></g><path fill="#FFF" d="M 220.148438 201.691406 L 229.054688 211.351562 L 228.121094 208.347656 L 221.632812 201.871094 L 219.828125 181.71875 L 226.5625 174.367188 L 227.570312 167.738281 L 224.566406 171.789062 L 217.449219 172.957031 L 216.953125 188.820312 L 220.148438 201.691406"/><path fill="#FFF" d="M 220.148438 201.691406 L 216.953125 188.820312 L 217.449219 172.957031 L 217.363281 172.96875 L 192.613281 213.632812 L 197.445312 211.285156 L 214.375 187.679688 L 218.378906 202.453125 L 229.5 212.78125 L 229.054688 211.351562 L 220.148438 201.691406"/><path fill="#FFF" d="M 236.636719 159.292969 L 238.785156 164.265625 L 238.707031 157.953125 L 241.941406 149.941406 C 240.40625 151.796875 238.375 153.511719 238.375 153.511719 C 238.324219 153.472656 238.269531 153.433594 238.21875 153.394531 L 227.570312 167.738281 L 226.5625 174.367188 L 226.664062 174.257812 L 241.121094 184.402344 L 232.671875 172.242188 L 236.636719 159.292969"/><path fill="#FFF" d="M 283.316406 192.917969 C 282.453125 191.019531 281.710938 188.988281 280.230469 187.515625 C 278.335938 185.632812 275.578125 184.992188 273.121094 183.933594 C 258.800781 177.753906 255.449219 157.738281 241.949219 149.929688 C 241.945312 149.933594 241.945312 149.9375 241.941406 149.941406 L 238.707031 157.953125 L 238.785156 164.265625 L 239.011719 164.796875 L 240.964844 157.488281 L 250.3125 164.796875 L 259.894531 183.152344 L 252.550781 216.800781 L 259.152344 207.472656 L 265.933594 188.816406 L 274.480469 188.921875 L 284.351562 194.980469 C 283.992188 194.300781 283.636719 193.617188 283.316406 192.917969"/><g clip-path="url(#f)"><path d="M 347.933594 256.082031 C 344.566406 253.492188 341.199219 250.90625 337.835938 248.316406 C 336.019531 246.917969 334.183594 245.511719 332.082031 244.613281 C 330.242188 243.828125 328.242188 243.453125 326.441406 242.589844 C 325.90625 242.332031 325.402344 242.027344 324.910156 241.703125 C 322.945312 240.390625 321.308594 238.589844 319.71875 236.816406 C 313.683594 230.078125 307.65625 223.339844 301.625 216.605469 C 299.753906 214.515625 297.882812 212.433594 296.015625 210.339844 C 291.714844 205.542969 287.371094 200.648438 284.351562 194.980469 L 274.480469 188.921875 L 265.933594 188.816406 L 259.152344 207.472656 L 253.09375 216.039062 L 252.550781 216.800781 L 257.335938 194.894531 L 257.890625 192.34375 L 259.894531 183.152344 L 255.863281 175.425781 L 250.3125 164.796875 L 249.484375 164.144531 L 240.964844 157.488281 L 239.011719 164.796875 L 236.636719 159.292969 L 232.671875 172.242188 L 241.121094 184.402344 L 240.746094 184.144531 L 226.664062 174.257812 L 226.582031 174.347656 L 219.828125 181.71875 L 221.632812 201.871094 L 228.121094 208.347656 L 229.28125 212.074219 L 229.5 212.78125 L 229.40625 212.691406 L 239.339844 242.082031 L 311.25 284.621094 L 369.933594 284.621094 L 347.933594 256.082031"/></g><g clip-path="url(#g)"><path d="M 239.339844 242.082031 L 229.40625 212.691406 L 228.453125 211.804688 L 218.378906 202.453125 L 218.328125 202.253906 L 214.375 187.679688 L 197.445312 211.285156 L 192.613281 213.632812 L 193.503906 212.164062 L 163.8125 236.222656 L 127.386719 284.621094 L 311.25 284.621094 L 239.339844 242.082031"/></g></svg>