<svg xmlns="http://www.w3.org/2000/svg" width="375" viewBox="0 0 375 375" height="375" version="1.0"><defs><clipPath id="a"><path d="M 26.824219 136 L 347.824219 136 L 347.824219 337.757812 L 26.824219 337.757812 Z M 26.824219 136"/></clipPath><clipPath id="b"><path d="M 35 32.507812 L 340 32.507812 L 340 119 L 35 119 Z M 35 32.507812"/></clipPath></defs><g clip-path="url(#a)"><path d="M 319.105469 292.347656 L 319.105469 136.023438 L 277.941406 136.023438 L 277.941406 292.347656 L 245.003906 292.347656 L 245.003906 136.023438 L 203.839844 136.023438 L 203.839844 292.347656 L 170.90625 292.347656 L 170.90625 136.023438 L 129.738281 136.023438 L 129.738281 292.347656 L 96.804688 292.347656 L 96.804688 136.023438 L 55.636719 136.023438 L 55.636719 292.347656 L 55.59375 292.347656 L 26.824219 337.769531 L 347.824219 337.714844 Z M 319.105469 292.347656"/></g><g clip-path="url(#b)"><path d="M 35.007812 118.804688 L 339.644531 118.804688 L 187.320312 32.523438 Z M 35.007812 118.804688"/></g></svg>