<svg xmlns="http://www.w3.org/2000/svg" width="375" viewBox="0 0 375 375" height="375" version="1.0"><defs><clipPath id="a"><path d="M 12 25.308594 L 363 25.308594 L 363 349 L 12 349 Z M 12 25.308594"/></clipPath></defs><g clip-path="url(#a)"><path d="M 186.277344 25.652344 C 181.640625 25.679688 177.015625 25.910156 172.40625 26.335938 C 160.128906 27.472656 147.980469 30.050781 136.261719 34.078125 C 118.421875 39.667969 101.851562 48.75 87.261719 60.378906 L 33.359375 60.378906 C 21.773438 60.378906 12.347656 69.820312 12.347656 81.421875 L 12.347656 123.503906 C 12.347656 134.671875 21.089844 143.746094 32.074219 144.425781 C 19.480469 189.875 28.273438 240.625 55.632812 279.019531 C 83.578125 320.214844 131.6875 346.476562 181.613281 347.953125 L 181.640625 347.953125 C 234.4375 350.128906 286.933594 325.308594 317.800781 282.625 L 317.84375 282.582031 C 333.6875 260.25 343.761719 233.816406 347.171875 206.8125 C 356.019531 204.328125 362.5625 196.269531 362.5625 186.632812 L 362.5625 144.546875 C 362.5625 132.945312 353.136719 123.503906 341.550781 123.503906 L 335.378906 123.503906 C 323.949219 96.578125 305.472656 72.683594 281.125 55.925781 C 280.261719 54.839844 279.101562 54.03125 277.785156 53.613281 L 277.773438 53.613281 C 266.515625 45.828125 254.28125 39.71875 241.519531 35.160156 C 240.664062 34.273438 239.589844 33.640625 238.414062 33.296875 C 228.691406 30.511719 219.011719 27.492188 207.539062 26.71875 C 207.300781 26.707031 207.066406 26.699219 206.828125 26.707031 C 206.488281 26.71875 206.148438 26.765625 205.8125 26.828125 C 199.328125 26.078125 192.804688 25.617188 186.277344 25.652344 Z M 186.375 39.734375 C 187.921875 39.726562 189.464844 39.851562 191.011719 39.886719 L 189.507812 41.390625 C 186.769531 44.128906 186.777344 48.574219 189.507812 51.308594 C 190.277344 52.082031 191.214844 52.664062 192.242188 53.007812 L 211.667969 59.503906 L 224.527344 72.351562 C 227.265625 75.089844 231.6875 75.089844 234.417969 72.351562 C 235.308594 71.460938 235.945312 70.355469 236.253906 69.132812 L 241.175781 49.925781 C 251.433594 53.9375 261.230469 59.109375 270.304688 65.433594 L 270.496094 65.558594 C 270.789062 65.746094 271.054688 65.972656 271.34375 66.160156 L 285.515625 83.886719 L 285.515625 88.4375 C 285.515625 91.324219 287.277344 93.910156 289.960938 94.96875 L 305.488281 101.066406 L 307.210938 123.503906 L 264.503906 123.503906 C 258.871094 123.503906 253.589844 125.707031 249.617188 129.699219 C 245.648438 133.6875 243.46875 138.992188 243.488281 144.628906 L 243.679688 190.441406 L 241.671875 188.222656 C 240.296875 186.714844 238.34375 185.878906 236.308594 185.933594 L 208.289062 186.644531 C 207.261719 186.675781 206.253906 186.914062 205.335938 187.371094 L 193.925781 193.085938 L 175.855469 187.058594 L 152.433594 177.671875 L 152.433594 149.601562 L 167.578125 144.546875 L 176.128906 144.546875 L 177.6875 147.683594 C 179.417969 151.148438 183.625 152.554688 187.085938 150.820312 C 190.546875 149.089844 191.949219 144.875 190.21875 141.410156 L 188.972656 138.917969 L 212.929688 114.929688 L 233.367188 101.285156 C 236.589844 99.132812 237.460938 94.785156 235.308594 91.558594 C 235.054688 91.171875 234.761719 90.8125 234.433594 90.492188 L 220.425781 76.460938 L 213.421875 69.449219 L 207.414062 63.433594 C 205.816406 61 202.890625 59.808594 200.054688 60.433594 C 200.035156 60.441406 200.019531 60.441406 200 60.449219 C 198.289062 60.796875 196.769531 61.777344 195.746094 63.203125 L 185.921875 73.039062 L 180.449219 70.570312 L 180.449219 53.679688 C 180.457031 53.46875 180.449219 53.261719 180.4375 53.050781 L 180.4375 52.953125 C 180.269531 49.167969 177.125 46.199219 173.335938 46.253906 C 172.945312 46.261719 172.558594 46.300781 172.175781 46.378906 L 147.152344 47.007812 L 145.25 45.96875 C 154.503906 43.132812 164.046875 41.214844 173.691406 40.335938 C 177.902344 39.953125 182.136719 39.753906 186.375 39.734375 Z M 33.359375 74.40625 L 110.722656 74.40625 C 112.597656 74.40625 114.371094 75.144531 115.6875 76.476562 C 117.011719 77.808594 117.734375 79.578125 117.726562 81.449219 L 117.464844 144.492188 L 100.953125 131.929688 C 99.734375 131.011719 98.242188 130.519531 96.714844 130.519531 L 33.359375 130.519531 C 29.492188 130.519531 26.355469 127.371094 26.355469 123.503906 L 26.355469 81.421875 C 26.355469 77.558594 29.492188 74.40625 33.359375 74.40625 Z M 264.503906 137.535156 L 341.550781 137.535156 C 345.417969 137.535156 348.554688 140.683594 348.554688 144.546875 L 348.554688 186.632812 C 348.554688 190.496094 345.417969 193.644531 341.550781 193.644531 L 278.511719 193.644531 C 276.984375 193.644531 275.496094 194.144531 274.285156 195.070312 L 257.757812 207.621094 L 257.5 144.574219 C 257.492188 142.695312 258.226562 140.933594 259.550781 139.601562 C 260.867188 138.269531 262.625 137.535156 264.503906 137.535156 Z M 46.65625 144.546875 L 94.359375 144.546875 L 112.199219 158.097656 L 117.769531 174.824219 C 118.355469 176.589844 119.625 178.050781 121.285156 178.878906 L 135.292969 185.890625 C 135.46875 185.976562 135.644531 186.054688 135.824219 186.125 L 154.609375 193.644531 L 124.417969 193.644531 C 112.832031 193.644531 103.402344 203.085938 103.402344 214.6875 L 103.402344 256.773438 C 103.402344 268.375 112.832031 277.816406 124.417969 277.816406 L 185.101562 277.816406 L 200.890625 289.800781 L 187.90625 324.445312 C 186.644531 327.808594 188.125 331.582031 191.328125 333.1875 L 192.789062 333.925781 C 189.246094 334.046875 185.699219 334.074219 182.148438 333.925781 L 182.050781 333.925781 C 136.753906 332.59375 92.457031 308.390625 67.179688 271.074219 C 67.148438 271.027344 67.117188 270.988281 67.082031 270.9375 C 41.542969 235.136719 33.753906 186.660156 46.65625 144.546875 Z M 194.625 158.546875 C 190.757812 158.394531 187.507812 161.402344 187.359375 165.273438 C 187.234375 168.4375 189.238281 171.292969 192.257812 172.246094 L 213.269531 179.261719 C 216.941406 180.488281 220.910156 178.5 222.132812 174.824219 C 223.351562 171.148438 221.371094 167.171875 217.703125 165.945312 L 217.6875 165.945312 L 196.675781 158.933594 C 196.015625 158.699219 195.324219 158.578125 194.625 158.546875 Z M 124.417969 207.675781 L 201.464844 207.675781 C 203.339844 207.675781 205.097656 208.410156 206.414062 209.742188 C 207.738281 211.074219 208.476562 212.84375 208.46875 214.714844 L 208.207031 277.761719 L 191.695312 265.199219 C 190.476562 264.277344 188.980469 263.785156 187.453125 263.785156 L 124.417969 263.785156 C 120.550781 263.785156 117.410156 260.636719 117.410156 256.773438 L 117.410156 214.6875 C 117.410156 210.824219 120.550781 207.675781 124.417969 207.675781 Z M 280.863281 207.675781 L 332.738281 207.675781 C 329.320312 231.457031 320.359375 254.820312 306.417969 274.457031 C 284.878906 304.210938 251.261719 324.539062 215.007812 331.421875 C 214.453125 329.988281 213.449219 328.773438 212.148438 327.96875 L 268.277344 283.773438 L 281.644531 277.074219 C 283.304688 276.238281 284.570312 274.789062 285.160156 273.019531 L 292 252.445312 L 298.785156 238.855469 C 299.535156 237.359375 299.726562 235.652344 299.320312 234.03125 L 295.816406 220.003906 C 295.207031 217.570312 293.347656 215.636719 290.945312 214.949219 L 276.664062 210.867188 Z M 280.863281 207.675781"/></g></svg>