<svg xmlns="http://www.w3.org/2000/svg" width="375" viewBox="0 0 375 375" height="375" version="1.0"><defs><clipPath id="a"><path d="M 135.773438 12.660156 L 239.273438 12.660156 L 239.273438 362.160156 L 135.773438 362.160156 Z M 135.773438 12.660156"/></clipPath></defs><g clip-path="url(#a)"><path d="M 213.441406 265.714844 C 228.90625 274.628906 239.273438 291.351562 239.273438 310.449219 C 239.273438 338.96875 216.074219 362.144531 187.523438 362.144531 C 158.972656 362.144531 135.773438 338.96875 135.773438 310.449219 C 135.773438 291.351562 146.140625 274.628906 161.605469 265.714844 L 161.605469 38.480469 C 161.605469 24.304688 173.246094 12.675781 187.4375 12.675781 C 201.628906 12.675781 213.269531 24.304688 213.269531 38.480469 L 213.269531 85.675781 L 231.03125 85.675781 L 231.03125 92.296875 L 213.269531 92.296875 L 213.269531 134.058594 L 231.03125 134.058594 L 231.03125 140.679688 L 213.269531 140.679688 L 213.269531 182.441406 L 231.03125 182.441406 L 231.03125 189.0625 L 213.269531 189.0625 L 213.269531 230.828125 L 231.03125 230.828125 L 231.03125 237.449219 L 213.269531 237.449219 L 213.269531 265.96875 Z M 197.550781 275.308594 L 197.550781 168.605469 L 177.496094 168.605469 L 177.496094 275.308594 C 162.117188 279.636719 150.898438 293.726562 150.898438 310.449219 C 150.898438 330.652344 167.300781 347.035156 187.523438 347.035156 C 207.746094 347.035156 224.148438 330.652344 224.148438 310.449219 C 224.148438 293.726562 212.929688 279.636719 197.550781 275.308594 Z M 204.09375 271.0625 L 204.09375 38.480469 C 204.09375 29.394531 196.617188 21.925781 187.523438 21.925781 C 178.429688 21.925781 170.953125 29.394531 170.953125 38.480469 L 170.953125 271.0625 L 166.28125 273.777344 C 153.195312 281.332031 145.035156 295.339844 145.035156 310.535156 C 145.035156 333.960938 164.070312 352.890625 187.4375 352.890625 C 210.890625 352.890625 229.839844 333.878906 229.839844 310.535156 C 229.839844 295.339844 221.769531 281.417969 208.597656 273.777344 L 203.925781 271.0625 Z M 204.09375 271.0625" fill-rule="evenodd"/></g></svg>