<svg xmlns="http://www.w3.org/2000/svg" width="375" viewBox="0 0 375 375" height="375" version="1.0"><defs><clipPath id="a"><path d="M 59 75 L 330 75 L 330 345.75 L 59 345.75 Z M 59 75"/></clipPath><clipPath id="b"><path d="M 334 53 L 363.824219 53 L 363.824219 345.75 L 334 345.75 Z M 334 53"/></clipPath><clipPath id="c"><path d="M 11.324219 67 L 60 67 L 60 345.75 L 11.324219 345.75 Z M 11.324219 67"/></clipPath></defs><g clip-path="url(#a)"><path d="M 194.535156 75.53125 C 120.0625 75.53125 59.6875 135.898438 59.6875 210.367188 C 59.6875 284.835938 120.0625 345.203125 194.535156 345.203125 C 269.011719 345.203125 329.382812 284.835938 329.382812 210.367188 C 329.382812 135.898438 269 75.53125 194.535156 75.53125 Z M 194.535156 317.246094 C 135.503906 317.246094 87.636719 269.382812 87.636719 210.355469 C 87.636719 151.324219 135.503906 103.464844 194.535156 103.464844 C 253.570312 103.464844 301.4375 151.324219 301.4375 210.355469 C 301.4375 269.382812 253.570312 317.246094 194.535156 317.246094 Z M 194.535156 317.246094"/></g><path d="M 288.945312 210.355469 C 288.945312 211.898438 288.90625 213.445312 288.832031 214.988281 C 288.753906 216.53125 288.640625 218.070312 288.492188 219.609375 C 288.339844 221.144531 288.148438 222.679688 287.921875 224.207031 C 287.695312 225.734375 287.433594 227.257812 287.132812 228.769531 C 286.828125 230.285156 286.492188 231.792969 286.117188 233.292969 C 285.742188 234.789062 285.328125 236.277344 284.878906 237.757812 C 284.429688 239.234375 283.945312 240.703125 283.425781 242.15625 C 282.90625 243.613281 282.351562 245.050781 281.757812 246.480469 C 281.167969 247.90625 280.542969 249.320312 279.878906 250.714844 C 279.21875 252.113281 278.527344 253.492188 277.796875 254.855469 C 277.070312 256.21875 276.308594 257.5625 275.511719 258.886719 C 274.71875 260.210938 273.894531 261.515625 273.035156 262.800781 C 272.175781 264.085938 271.285156 265.347656 270.367188 266.589844 C 269.445312 267.828125 268.496094 269.046875 267.515625 270.242188 C 266.535156 271.4375 265.527344 272.605469 264.488281 273.75 C 263.449219 274.894531 262.386719 276.011719 261.292969 277.105469 C 260.199219 278.199219 259.082031 279.261719 257.9375 280.300781 C 256.792969 281.339844 255.621094 282.347656 254.429688 283.328125 C 253.234375 284.308594 252.015625 285.257812 250.777344 286.175781 C 249.535156 287.097656 248.273438 287.988281 246.988281 288.84375 C 245.703125 289.703125 244.398438 290.53125 243.070312 291.324219 C 241.746094 292.117188 240.402344 292.878906 239.039062 293.609375 C 237.679688 294.335938 236.296875 295.03125 234.902344 295.691406 C 233.503906 296.351562 232.09375 296.976562 230.664062 297.570312 C 229.238281 298.160156 227.796875 298.714844 226.34375 299.238281 C 224.886719 299.757812 223.421875 300.242188 221.941406 300.691406 C 220.464844 301.136719 218.976562 301.550781 217.476562 301.925781 C 215.976562 302.300781 214.46875 302.640625 212.953125 302.941406 C 211.4375 303.242188 209.917969 303.507812 208.390625 303.734375 C 206.859375 303.960938 205.328125 304.148438 203.789062 304.300781 C 202.253906 304.453125 200.710938 304.566406 199.167969 304.640625 C 197.625 304.714844 196.082031 304.753906 194.535156 304.753906 C 192.992188 304.753906 191.449219 304.714844 189.902344 304.640625 C 188.359375 304.566406 186.820312 304.453125 185.28125 304.300781 C 183.746094 304.148438 182.210938 303.960938 180.683594 303.734375 C 179.15625 303.507812 177.632812 303.242188 176.117188 302.941406 C 174.601562 302.640625 173.097656 302.300781 171.597656 301.925781 C 170.097656 301.550781 168.609375 301.136719 167.132812 300.691406 C 165.652344 300.242188 164.1875 299.757812 162.730469 299.238281 C 161.277344 298.714844 159.835938 298.160156 158.40625 297.570312 C 156.980469 296.976562 155.570312 296.351562 154.171875 295.691406 C 152.773438 295.03125 151.394531 294.335938 150.03125 293.609375 C 148.671875 292.878906 147.328125 292.117188 146 291.324219 C 144.675781 290.53125 143.371094 289.703125 142.085938 288.84375 C 140.800781 287.988281 139.539062 287.097656 138.296875 286.175781 C 137.058594 285.257812 135.839844 284.308594 134.644531 283.328125 C 133.449219 282.347656 132.28125 281.339844 131.136719 280.300781 C 129.992188 279.261719 128.871094 278.199219 127.78125 277.105469 C 126.6875 276.011719 125.621094 274.894531 124.585938 273.75 C 123.546875 272.605469 122.539062 271.4375 121.558594 270.242188 C 120.578125 269.046875 119.628906 267.828125 118.707031 266.589844 C 117.785156 265.347656 116.898438 264.085938 116.039062 262.800781 C 115.179688 261.515625 114.355469 260.210938 113.558594 258.886719 C 112.765625 257.5625 112.003906 256.21875 111.277344 254.855469 C 110.546875 253.492188 109.851562 252.113281 109.191406 250.714844 C 108.53125 249.320312 107.90625 247.90625 107.316406 246.480469 C 106.722656 245.050781 106.167969 243.613281 105.648438 242.15625 C 105.125 240.703125 104.640625 239.234375 104.195312 237.757812 C 103.746094 236.277344 103.332031 234.789062 102.957031 233.292969 C 102.582031 231.792969 102.242188 230.285156 101.941406 228.769531 C 101.640625 227.257812 101.375 225.734375 101.148438 224.207031 C 100.921875 222.679688 100.734375 221.144531 100.582031 219.609375 C 100.429688 218.070312 100.316406 216.53125 100.242188 214.988281 C 100.167969 213.445312 100.128906 211.898438 100.128906 210.355469 C 100.128906 208.808594 100.167969 207.265625 100.242188 205.722656 C 100.316406 204.179688 100.429688 202.640625 100.582031 201.101562 C 100.734375 199.566406 100.921875 198.03125 101.148438 196.503906 C 101.375 194.976562 101.640625 193.453125 101.941406 191.9375 C 102.242188 190.421875 102.582031 188.917969 102.957031 187.417969 C 103.332031 185.917969 103.746094 184.429688 104.195312 182.953125 C 104.640625 181.472656 105.125 180.007812 105.648438 178.550781 C 106.167969 177.097656 106.722656 175.65625 107.316406 174.230469 C 107.90625 172.800781 108.53125 171.390625 109.191406 169.992188 C 109.851562 168.597656 110.546875 167.21875 111.277344 165.855469 C 112.003906 164.492188 112.765625 163.148438 113.558594 161.824219 C 114.355469 160.5 115.179688 159.195312 116.039062 157.910156 C 116.898438 156.625 117.785156 155.363281 118.707031 154.121094 C 119.628906 152.878906 120.578125 151.664062 121.558594 150.46875 C 122.539062 149.273438 123.546875 148.105469 124.585938 146.960938 C 125.621094 145.816406 126.6875 144.695312 127.78125 143.605469 C 128.871094 142.511719 129.992188 141.445312 131.136719 140.410156 C 132.28125 139.371094 133.449219 138.363281 134.644531 137.382812 C 135.839844 136.402344 137.058594 135.453125 138.296875 134.53125 C 139.539062 133.613281 140.800781 132.722656 142.085938 131.863281 C 143.371094 131.003906 144.675781 130.179688 146 129.386719 C 147.328125 128.589844 148.671875 127.828125 150.03125 127.101562 C 151.394531 126.375 152.773438 125.679688 154.171875 125.019531 C 155.570312 124.359375 156.980469 123.730469 158.40625 123.140625 C 159.835938 122.550781 161.277344 121.992188 162.730469 121.472656 C 164.1875 120.953125 165.652344 120.46875 167.132812 120.019531 C 168.609375 119.570312 170.097656 119.160156 171.597656 118.785156 C 173.097656 118.410156 174.601562 118.070312 176.117188 117.769531 C 177.632812 117.46875 179.15625 117.203125 180.683594 116.976562 C 182.210938 116.75 183.746094 116.5625 185.28125 116.410156 C 186.820312 116.257812 188.359375 116.144531 189.902344 116.070312 C 191.449219 115.992188 192.992188 115.953125 194.535156 115.953125 C 196.082031 115.953125 197.625 115.992188 199.167969 116.070312 C 200.710938 116.144531 202.253906 116.257812 203.789062 116.410156 C 205.328125 116.5625 206.859375 116.75 208.390625 116.976562 C 209.917969 117.203125 211.4375 117.46875 212.953125 117.769531 C 214.46875 118.070312 215.976562 118.410156 217.476562 118.785156 C 218.976562 119.160156 220.464844 119.570312 221.941406 120.019531 C 223.421875 120.46875 224.886719 120.953125 226.34375 121.472656 C 227.796875 121.992188 229.238281 122.550781 230.664062 123.140625 C 232.09375 123.730469 233.503906 124.359375 234.902344 125.019531 C 236.296875 125.679688 237.679688 126.375 239.039062 127.101562 C 240.402344 127.828125 241.746094 128.589844 243.070312 129.386719 C 244.398438 130.179688 245.703125 131.003906 246.988281 131.863281 C 248.273438 132.722656 249.535156 133.613281 250.777344 134.53125 C 252.015625 135.453125 253.234375 136.402344 254.429688 137.382812 C 255.621094 138.363281 256.792969 139.371094 257.9375 140.410156 C 259.082031 141.445312 260.199219 142.511719 261.292969 143.605469 C 262.386719 144.695312 263.449219 145.816406 264.488281 146.960938 C 265.527344 148.105469 266.535156 149.273438 267.515625 150.46875 C 268.496094 151.664062 269.445312 152.878906 270.367188 154.121094 C 271.285156 155.363281 272.175781 156.625 273.035156 157.910156 C 273.894531 159.195312 274.71875 160.5 275.511719 161.824219 C 276.308594 163.148438 277.070312 164.492188 277.796875 165.855469 C 278.527344 167.21875 279.21875 168.597656 279.878906 169.992188 C 280.542969 171.390625 281.167969 172.800781 281.757812 174.230469 C 282.351562 175.65625 282.90625 177.097656 283.425781 178.550781 C 283.945312 180.007812 284.429688 181.472656 284.878906 182.953125 C 285.328125 184.429688 285.742188 185.917969 286.117188 187.417969 C 286.492188 188.917969 286.828125 190.421875 287.132812 191.9375 C 287.433594 193.453125 287.695312 194.976562 287.921875 196.503906 C 288.148438 198.03125 288.339844 199.566406 288.492188 201.101562 C 288.640625 202.640625 288.753906 204.179688 288.832031 205.722656 C 288.90625 207.265625 288.945312 208.808594 288.945312 210.355469 Z M 288.945312 210.355469"/><g clip-path="url(#b)"><path d="M 347.773438 66.480469 C 330.898438 96.789062 331.296875 126.589844 343.746094 165.074219 C 343.746094 165.074219 349.316406 183.242188 345.195312 198.476562 C 344.144531 202.355469 343.746094 206.382812 343.746094 210.394531 L 343.734375 335.128906 C 343.734375 341 348.839844 345.75 354.832031 345.136719 C 360.046875 344.601562 363.855469 339.894531 363.855469 334.652344 L 363.855469 234.519531 L 363.871094 202.957031 L 363.855469 66.496094 C 363.882812 66.480469 363.882812 37.554688 347.773438 66.480469 Z M 347.773438 66.480469"/></g><g clip-path="url(#c)"><path d="M 54.980469 67.722656 L 54.417969 67.722656 C 51.8125 67.722656 49.707031 121.878906 49.707031 121.878906 C 49.707031 124.144531 48.042969 126.070312 45.804688 126.398438 C 43.058594 126.792969 40.589844 124.664062 40.589844 121.878906 C 40.589844 121.878906 38.472656 67.722656 35.878906 67.722656 L 35.25 67.722656 C 32.644531 67.722656 30.539062 121.921875 30.539062 121.921875 C 30.539062 124.679688 28.097656 126.808594 25.367188 126.4375 L 24.804688 126.355469 C 22.554688 126.042969 20.859375 124.117188 20.859375 121.839844 C 20.859375 121.839844 18.746094 67.710938 16.152344 67.710938 C 13.542969 67.710938 11.441406 126.753906 11.441406 126.753906 C 11.441406 134.125 13.066406 145.484375 21.066406 152.078125 C 25.832031 156.007812 26.9375 160.292969 27.03125 162.082031 L 27.03125 335.101562 C 27.03125 340.628906 31.566406 345.164062 37.09375 345.164062 C 42.625 345.164062 47.15625 340.628906 47.15625 335.101562 L 47.15625 162.835938 L 47.167969 162.835938 C 47.140625 162.453125 47.167969 162.109375 47.15625 161.742188 L 47.15625 160.511719 C 47.386719 155.652344 49.382812 152.894531 51.550781 151.082031 C 59.742188 144.253906 59.742188 133.578125 59.742188 126.835938 C 59.6875 126.835938 57.585938 67.722656 54.980469 67.722656 Z M 54.980469 67.722656"/></g></svg>