<svg xmlns="http://www.w3.org/2000/svg" width="375" viewBox="0 0 375 375" height="375" version="1.0"><defs><clipPath id="a"><path d="M 13 19 L 239 19 L 239 357.007812 L 13 357.007812 Z M 13 19"/></clipPath></defs><path d="M 277.230469 188.695312 C 300.453125 188.695312 319.289062 169.855469 319.289062 146.621094 C 319.289062 123.386719 300.453125 104.542969 277.230469 104.542969 C 254.003906 104.542969 235.167969 123.386719 235.167969 146.621094 C 235.167969 169.855469 254.003906 188.695312 277.230469 188.695312 Z M 277.230469 115.335938 C 294.601562 115.335938 308.683594 129.421875 308.683594 146.800781 C 308.683594 164.183594 294.601562 178.269531 277.230469 178.269531 C 259.855469 178.269531 245.777344 164.183594 245.777344 146.800781 C 245.777344 129.421875 259.855469 115.335938 277.230469 115.335938 Z M 277.230469 115.335938"/><path d="M 262.050781 146.800781 C 262.050781 138.386719 268.816406 131.617188 277.230469 131.617188 C 280.15625 131.617188 282.53125 129.238281 282.53125 126.3125 C 282.53125 123.386719 280.15625 121.007812 277.230469 121.007812 C 263.148438 121.007812 251.628906 132.53125 251.628906 146.621094 C 251.628906 149.546875 254.003906 151.925781 256.929688 151.925781 C 259.675781 152.109375 262.050781 149.730469 262.050781 146.800781 Z M 262.050781 146.800781"/><path d="M 326.972656 146.800781 C 326.972656 149.730469 329.347656 152.109375 332.273438 152.109375 L 350.5625 152.109375 C 353.488281 152.109375 355.863281 149.730469 355.863281 146.800781 C 355.863281 143.875 353.488281 141.496094 350.5625 141.496094 L 332.273438 141.496094 C 329.347656 141.496094 326.972656 143.875 326.972656 146.800781 Z M 326.972656 146.800781"/><path d="M 324.960938 124.484375 C 325.875 124.484375 326.789062 124.300781 327.519531 123.75 L 343.429688 114.605469 C 345.988281 113.140625 346.722656 110.03125 345.441406 107.46875 C 343.976562 104.90625 340.6875 104.175781 338.308594 105.457031 L 322.398438 114.605469 C 319.839844 116.066406 319.109375 119.175781 320.386719 121.738281 C 321.300781 123.566406 323.132812 124.484375 324.960938 124.484375 Z M 324.960938 124.484375"/><path d="M 302.101562 103.628906 C 303.015625 104.175781 303.746094 104.359375 304.660156 104.359375 C 306.488281 104.359375 308.316406 103.445312 309.234375 101.796875 L 318.375 85.882812 C 319.839844 83.320312 318.925781 80.210938 316.363281 78.746094 C 313.804688 77.28125 310.695312 78.199219 309.234375 80.757812 L 300.089844 96.675781 C 298.808594 98.871094 299.539062 102.164062 302.101562 103.628906 Z M 302.101562 103.628906"/><path d="M 277.230469 96.859375 C 280.15625 96.859375 282.53125 94.480469 282.53125 91.550781 L 282.53125 73.257812 C 282.53125 70.332031 280.15625 67.953125 277.230469 67.953125 C 274.304688 67.953125 271.925781 70.332031 271.925781 73.257812 L 271.925781 91.550781 C 271.925781 94.480469 274.304688 96.859375 277.230469 96.859375 Z M 277.230469 96.859375"/><path d="M 245.042969 101.613281 C 245.957031 103.261719 247.789062 104.175781 249.617188 104.175781 C 250.53125 104.175781 251.445312 103.992188 252.175781 103.445312 C 254.738281 101.980469 255.46875 98.871094 254.1875 96.308594 L 245.042969 80.394531 C 243.582031 77.832031 240.472656 77.101562 237.914062 78.378906 C 235.351562 79.84375 234.621094 82.953125 235.902344 85.515625 Z M 245.042969 101.613281"/><path d="M 210.847656 114.605469 L 226.757812 123.75 C 227.671875 124.300781 228.402344 124.484375 229.316406 124.484375 C 231.144531 124.484375 232.976562 123.566406 233.890625 121.921875 C 235.351562 119.359375 234.4375 116.25 231.878906 114.785156 L 215.96875 105.640625 C 213.40625 104.175781 210.296875 105.089844 208.835938 107.652344 C 207.554688 109.847656 208.46875 113.140625 210.847656 114.605469 Z M 210.847656 114.605469"/><path d="M 227.304688 146.800781 C 227.304688 143.875 224.929688 141.496094 222.003906 141.496094 L 203.714844 141.496094 C 200.789062 141.496094 198.410156 143.875 198.410156 146.800781 C 198.410156 149.730469 200.789062 152.109375 203.714844 152.109375 L 222.003906 152.109375 C 224.929688 152.109375 227.304688 149.730469 227.304688 146.800781 Z M 227.304688 146.800781"/><path d="M 213.589844 188.695312 C 214.503906 188.695312 215.417969 188.515625 216.148438 187.964844 L 232.058594 178.816406 C 234.621094 177.355469 235.351562 174.246094 234.070312 171.683594 C 232.609375 169.121094 229.5 168.390625 226.941406 169.671875 L 211.03125 178.816406 C 208.46875 180.28125 207.738281 183.390625 209.019531 185.953125 C 209.933594 187.78125 211.761719 188.695312 213.589844 188.695312 Z M 213.589844 188.695312"/><path d="M 240.472656 215.773438 C 242.300781 215.773438 244.128906 214.859375 245.042969 213.210938 L 254.1875 197.296875 C 255.652344 194.734375 254.738281 191.625 252.175781 190.160156 C 249.617188 188.695312 246.507812 189.613281 245.042969 192.171875 L 235.902344 208.089844 C 234.4375 210.652344 235.351562 213.761719 237.914062 215.222656 C 238.644531 215.40625 239.558594 215.773438 240.472656 215.773438 Z M 240.472656 215.773438"/><path d="M 282.351562 220.347656 L 282.351562 202.050781 C 282.351562 199.125 279.972656 196.746094 277.046875 196.746094 C 274.121094 196.746094 271.742188 199.125 271.742188 202.050781 L 271.742188 220.347656 C 271.742188 223.273438 274.121094 225.652344 277.046875 225.652344 C 280.15625 225.46875 282.351562 223.273438 282.351562 220.347656 Z M 282.351562 220.347656"/><path d="M 313.988281 215.773438 C 314.902344 215.773438 315.816406 215.589844 316.546875 215.042969 C 319.109375 213.578125 319.839844 210.46875 318.558594 207.90625 L 309.414062 191.988281 C 307.953125 189.429688 304.84375 188.695312 302.285156 189.976562 C 299.722656 191.441406 298.992188 194.550781 300.273438 197.113281 L 309.414062 213.027344 C 310.328125 214.675781 312.160156 215.773438 313.988281 215.773438 Z M 313.988281 215.773438"/><path d="M 322.214844 178.816406 L 338.125 187.964844 C 339.039062 188.515625 339.773438 188.695312 340.6875 188.695312 C 342.515625 188.695312 344.34375 187.78125 345.257812 186.136719 C 346.722656 183.574219 345.808594 180.464844 343.246094 179 L 327.335938 169.855469 C 324.777344 168.390625 321.667969 169.304688 320.203125 171.867188 C 318.925781 174.246094 319.839844 177.355469 322.214844 178.816406 Z M 322.214844 178.816406"/><g clip-path="url(#a)"><path d="M 101.125 284.011719 C 115.570312 232.789062 118.863281 169.304688 119.59375 145.703125 L 169.152344 202.785156 C 170.25 204.066406 171.710938 204.613281 173.175781 204.613281 C 174.457031 204.613281 175.550781 204.246094 176.648438 203.332031 C 181.769531 198.941406 183.050781 189.792969 179.941406 178.453125 C 177.015625 167.660156 170.980469 156.316406 162.570312 146.800781 C 157.8125 141.3125 152.328125 136.558594 146.839844 132.53125 L 208.46875 136.921875 C 208.652344 136.921875 208.652344 136.921875 208.835938 136.921875 C 211.578125 136.921875 213.957031 134.726562 214.140625 131.984375 C 214.6875 125.214844 209.019531 117.898438 198.960938 112.042969 C 189.269531 106.371094 177.015625 102.894531 164.214844 101.980469 C 157.996094 101.429688 151.597656 101.796875 145.5625 102.53125 L 189.816406 64.109375 C 192.011719 62.28125 192.195312 58.804688 190.367188 56.792969 C 185.976562 51.671875 176.832031 50.390625 165.496094 53.5 C 154.707031 56.425781 143.367188 62.464844 133.859375 70.878906 C 128.371094 75.636719 123.617188 80.941406 119.59375 86.613281 L 123.984375 24.960938 C 123.984375 23.3125 123.433594 22.03125 122.519531 20.933594 C 121.605469 19.835938 120.324219 19.289062 118.863281 19.105469 C 105.148438 18.007812 90.882812 41.972656 88.871094 69.050781 C 88.503906 74.539062 88.6875 80.210938 89.238281 85.515625 C 84.300781 81.492188 78.628906 77.832031 72.414062 74.722656 C 48.089844 63.011719 20.292969 63.5625 14.257812 76.003906 C 12.980469 78.5625 14.074219 81.671875 16.636719 82.953125 L 78.996094 113.324219 C 72.777344 114.054688 66.558594 115.703125 60.34375 117.898438 C 34.742188 127.042969 15.722656 147.351562 20.476562 160.339844 C 21.023438 161.621094 21.941406 162.71875 23.21875 163.265625 C 23.949219 163.632812 24.683594 163.816406 25.414062 163.816406 C 25.960938 163.816406 26.695312 163.632812 27.242188 163.449219 L 92.710938 139.851562 C 89.054688 158.875 73.144531 233.519531 48.273438 285.476562 C 45.53125 285.839844 42.96875 286.207031 40.226562 286.574219 C 37.300781 286.9375 35.472656 289.683594 35.835938 292.609375 C 36.203125 295.171875 38.398438 297 40.957031 297 C 41.140625 297 41.507812 297 41.691406 297 C 41.871094 297 42.054688 297 42.238281 297 C 40.410156 300.476562 38.398438 303.769531 36.386719 306.878906 C 34.742188 309.257812 35.472656 312.550781 38.03125 314.199219 C 38.945312 314.746094 39.859375 314.929688 40.777344 314.929688 C 42.421875 314.929688 44.25 314.015625 45.164062 312.550781 C 82.105469 254.558594 102.769531 142.230469 103.683594 137.472656 C 103.683594 136.921875 103.683594 136.558594 103.683594 136.191406 L 109.167969 134.179688 L 109.535156 134.546875 C 109.351562 135.09375 109.167969 135.824219 109.167969 136.558594 C 109.167969 137.65625 107.707031 250.351562 80.457031 311.089844 C 79.363281 313.648438 80.457031 316.757812 83.019531 318.039062 C 83.75 318.40625 84.480469 318.589844 85.214844 318.589844 C 87.226562 318.589844 89.054688 317.492188 89.96875 315.480469 C 92.894531 309.074219 95.453125 302.125 97.832031 294.804688 C 158.546875 298.097656 210.847656 321.882812 228.585938 354.265625 C 229.5 356.09375 231.328125 357.007812 233.15625 357.007812 C 234.070312 357.007812 234.804688 356.824219 235.71875 356.277344 C 238.277344 354.8125 239.191406 351.703125 237.730469 349.140625 C 218.34375 313.101562 164.945312 288.035156 101.125 284.011719 Z M 154.523438 153.570312 C 161.65625 161.804688 167.324219 171.867188 169.699219 181.011719 C 170.433594 184.125 170.980469 186.683594 170.980469 188.878906 L 121.789062 132.167969 C 129.652344 133.8125 142.820312 140.214844 154.523438 153.570312 Z M 163.300781 112.410156 C 174.273438 113.140625 185.246094 116.433594 193.472656 121.191406 C 196.21875 122.835938 198.410156 124.300781 199.875 125.761719 L 125.261719 120.457031 C 126.910156 119.175781 129.285156 117.898438 132.210938 116.800781 C 140.988281 113.140625 152.328125 111.675781 163.300781 112.410156 Z M 121.605469 103.808594 C 125.261719 95.027344 132.210938 85.882812 140.441406 78.746094 C 148.671875 71.609375 158.726562 65.941406 167.871094 63.5625 C 170.980469 62.828125 173.542969 62.28125 175.734375 62.28125 L 119.226562 111.3125 C 119.777344 109.296875 120.507812 106.738281 121.605469 103.808594 Z M 29.4375 77.648438 C 37.300781 76.003906 51.929688 76.734375 67.839844 84.417969 C 81.554688 91.003906 90.515625 99.96875 95.089844 106.921875 C 95.636719 108.019531 96.1875 109.117188 96.734375 110.214844 Z M 32.363281 150.460938 C 36.570312 143.691406 47.359375 133.628906 64 127.59375 C 74.425781 123.933594 85.761719 122.289062 95.089844 123.386719 C 98.199219 123.75 100.757812 124.300781 102.769531 125.03125 Z M 107.523438 108.019531 C 107.339844 107.652344 107.160156 107.285156 106.792969 106.921875 C 106.0625 105.457031 105.328125 103.808594 104.414062 102.164062 C 104.230469 101.796875 104.050781 101.429688 103.867188 100.882812 C 100.390625 92.101562 98.746094 80.757812 99.476562 69.78125 C 100.757812 52.035156 107.339844 39.046875 112.828125 33.191406 Z M 107.523438 108.019531"/></g><path d="M 231.695312 324.992188 L 251.992188 318.222656 C 257.664062 316.394531 263.699219 316.941406 268.816406 320.054688 L 271.925781 321.882812 C 281.617188 327.738281 293.871094 327.738281 303.5625 321.882812 C 309.964844 318.039062 318.011719 318.039062 324.410156 321.882812 L 337.578125 329.75 C 338.492188 330.296875 339.40625 330.480469 340.320312 330.480469 C 342.148438 330.480469 343.796875 329.566406 344.894531 327.917969 C 346.355469 325.359375 345.625 322.25 343.0625 320.785156 L 329.898438 312.917969 C 320.203125 307.0625 307.953125 307.0625 298.261719 312.917969 C 291.859375 316.757812 283.8125 316.757812 277.414062 312.917969 L 274.304688 311.089844 C 266.625 306.515625 257.296875 305.417969 248.703125 308.34375 L 228.402344 315.113281 C 225.660156 316.027344 224.195312 318.957031 225.109375 321.699219 C 225.84375 324.445312 228.953125 325.90625 231.695312 324.992188 Z M 231.695312 324.992188"/><path d="M 358.609375 347.128906 L 345.441406 339.261719 C 335.75 333.40625 323.496094 333.40625 313.804688 339.261719 C 307.402344 343.105469 299.359375 343.105469 292.957031 339.261719 L 289.847656 337.433594 C 282.167969 332.859375 272.839844 331.761719 264.246094 334.6875 L 243.945312 341.457031 C 241.203125 342.371094 239.742188 345.300781 240.65625 348.042969 C 241.570312 350.789062 244.496094 352.25 247.238281 351.335938 L 267.539062 344.566406 C 273.207031 342.738281 279.242188 343.285156 284.363281 346.398438 L 287.472656 348.226562 C 297.164062 354.082031 309.414062 354.082031 319.109375 348.226562 C 325.507812 344.382812 333.554688 344.382812 339.957031 348.226562 L 353.121094 356.09375 C 354.035156 356.640625 354.949219 356.824219 355.863281 356.824219 C 357.695312 356.824219 359.339844 355.910156 360.4375 354.265625 C 361.898438 351.703125 361.167969 348.59375 358.609375 347.128906 Z M 358.609375 347.128906"/></svg>