<svg xmlns="http://www.w3.org/2000/svg" width="375" viewBox="0 0 375 375" height="375" version="1.0"><defs><clipPath id="a"><path d="M 13.398438 124 L 45 124 L 45 227 L 13.398438 227 Z M 13.398438 124"/></clipPath><clipPath id="b"><path d="M 13.398438 37.5 L 150 37.5 L 150 112 L 13.398438 112 Z M 13.398438 37.5"/></clipPath><clipPath id="c"><path d="M 287 260 L 361.398438 260 L 361.398438 336 L 287 336 Z M 287 260"/></clipPath></defs><path fill="#100F0D" d="M 75.476562 68.277344 C 72.050781 68.277344 69.261719 71.066406 69.261719 74.492188 C 69.261719 77.917969 72.050781 80.707031 75.476562 80.707031 C 78.902344 80.707031 81.695312 77.917969 81.695312 74.492188 C 81.695312 71.066406 78.902344 68.277344 75.476562 68.277344"/><g clip-path="url(#a)"><path fill="#100F0D" d="M 24.980469 190.914062 C 29.886719 203.996094 36.308594 215.722656 44.398438 226.382812 L 44.398438 124.203125 L 13.390625 124.203125 C 13.917969 149.667969 17.71875 171.546875 24.980469 190.914062"/></g><g clip-path="url(#b)"><path fill="#100F0D" d="M 75.476562 93.132812 C 65.195312 93.132812 56.832031 84.773438 56.832031 74.492188 C 56.832031 64.214844 65.195312 55.851562 75.476562 55.851562 C 85.761719 55.851562 94.125 64.214844 94.125 74.492188 C 94.125 84.773438 85.761719 93.132812 75.476562 93.132812 Z M 115.257812 56.160156 C 101.058594 45.515625 86.804688 39.558594 81.699219 37.609375 C 76.550781 39.582031 62.089844 45.636719 47.863281 56.359375 C 26.976562 72.109375 15.476562 90.726562 13.601562 111.777344 L 149.785156 111.777344 C 147.902344 90.632812 136.3125 71.949219 115.257812 56.160156"/></g><path fill="#100F0D" d="M 168.710938 260.90625 L 168.710938 246.34375 C 168.710938 241.441406 166.722656 236.636719 163.253906 233.167969 L 142.410156 212.335938 C 140.191406 216.636719 137.785156 220.796875 135.1875 224.820312 L 147.179688 236.808594 C 153.050781 242.675781 156.28125 250.472656 156.28125 258.773438 L 156.28125 260.90625 C 156.28125 284.894531 175.800781 304.40625 199.792969 304.40625 L 199.964844 304.40625 C 200.203125 299.9375 200.703125 295.800781 201.398438 291.976562 L 199.792969 291.976562 C 182.65625 291.976562 168.710938 278.039062 168.710938 260.90625"/><path fill="#100F0D" d="M 193.574219 117.988281 C 193.574219 104.285156 204.730469 93.132812 218.4375 93.132812 C 232.148438 93.132812 243.300781 104.285156 243.300781 117.988281 C 243.300781 131.695312 232.148438 142.84375 218.4375 142.84375 C 204.730469 142.84375 193.574219 131.695312 193.574219 117.988281 Z M 249.515625 242.265625 C 251.59375 242.265625 253.667969 242.460938 255.730469 242.8125 L 255.730469 99.347656 C 255.730469 89.070312 247.367188 80.707031 237.085938 80.707031 L 187.359375 80.707031 C 176.546875 80.707031 166.089844 84.792969 158.125 92.007812 C 161.015625 100.324219 162.496094 109.015625 162.496094 117.988281 C 162.496094 149.460938 157.71875 176.734375 148.027344 200.214844 C 148.429688 200.710938 148.851562 201.195312 149.308594 201.65625 L 172.042969 224.378906 C 177.910156 230.25 181.144531 238.046875 181.144531 246.34375 L 181.144531 260.90625 C 181.144531 271.1875 189.507812 279.550781 199.792969 279.550781 L 204.652344 279.550781 C 207.84375 270.441406 212.128906 263.828125 216.027344 259.222656 C 225.144531 248.445312 237.351562 242.265625 249.515625 242.265625"/><g clip-path="url(#c)"><path fill="#100F0D" d="M 294.28125 334.214844 C 297.699219 335.042969 301.429688 335.472656 305.457031 335.472656 C 346.210938 335.472656 361.398438 312.605469 361.398438 298.191406 C 361.398438 283.777344 346.210938 260.90625 305.457031 260.90625 C 298.398438 260.90625 292.261719 262.195312 287.121094 264.730469 C 293.328125 274.140625 299.242188 288.824219 299.242188 310.617188 C 299.242188 320.253906 297.304688 328 294.28125 334.214844"/></g><path fill="#100F0D" d="M 230.871094 117.988281 C 230.871094 111.140625 225.292969 105.5625 218.4375 105.5625 C 211.585938 105.5625 206.007812 111.140625 206.007812 117.988281 C 206.007812 124.839844 211.585938 130.417969 218.4375 130.417969 C 225.292969 130.417969 230.871094 124.839844 230.871094 117.988281"/><path fill="#100F0D" d="M 118.988281 136.632812 L 118.988281 124.203125 L 94.125 124.203125 L 94.125 136.632812 C 94.125 143.480469 99.703125 149.058594 106.554688 149.058594 C 113.410156 149.058594 118.988281 143.480469 118.988281 136.632812"/><path fill="#100F0D" d="M 149.996094 124.203125 L 131.417969 124.203125 L 131.417969 136.632812 C 131.417969 150.335938 120.265625 161.488281 106.554688 161.488281 C 92.847656 161.488281 81.695312 150.335938 81.695312 136.632812 L 81.695312 124.203125 L 56.832031 124.203125 L 56.832031 240.617188 C 57.742188 241.53125 58.664062 242.429688 59.605469 243.324219 C 65.742188 249.152344 69.261719 257.351562 69.261719 265.824219 L 69.261719 273.335938 L 94.125 273.335938 L 94.125 265.824219 C 94.125 257.351562 97.644531 249.152344 103.78125 243.324219 C 119.429688 228.464844 130.753906 211.320312 138.40625 190.914062 C 145.667969 171.546875 149.46875 149.667969 149.996094 124.203125"/><path fill="#100F0D" d="M 67.144531 285.761719 L 55.566406 312.777344 L 79.726562 304.722656 C 81.003906 304.296875 82.382812 304.296875 83.660156 304.722656 L 107.820312 312.777344 L 96.242188 285.761719 L 67.144531 285.761719"/><path fill="#100F0D" d="M 187.359375 68.277344 L 237.085938 68.277344 C 254.222656 68.277344 268.164062 82.21875 268.164062 99.347656 L 268.164062 247.113281 C 272 249.148438 275.652344 251.789062 279 254.984375 C 279.523438 254.679688 280.058594 254.386719 280.59375 254.101562 L 280.59375 99.347656 C 280.59375 75.363281 261.078125 55.851562 237.085938 55.851562 L 187.359375 55.851562 C 172.441406 55.851562 158.046875 60.703125 146.246094 69.597656 C 148.753906 73.023438 150.976562 76.546875 152.914062 80.15625 C 162.683594 72.53125 174.835938 68.277344 187.359375 68.277344"/><path fill="#100F0D" d="M 249.515625 254.695312 C 235.097656 254.695312 212.222656 269.875 212.222656 310.617188 C 212.222656 347.476562 247.992188 347.902344 249.515625 347.902344 C 249.59375 347.902344 259.390625 347.785156 268.839844 342.945312 C 280.765625 336.835938 286.8125 325.960938 286.8125 310.617188 C 286.8125 269.875 263.9375 254.695312 249.515625 254.695312"/></svg>