<svg xmlns="http://www.w3.org/2000/svg" width="375" viewBox="0 0 375 375" height="375" version="1.0"><path stroke-linecap="round" transform="translate(-35.714 -35.714) scale(8.92857)" fill="none" d="M 25.000001 16.000188 C 29.963001 16.000188 33.999814 20.037876 33.999814 25.000001 C 33.999814 29.963002 29.963001 33.999814 25.000001 33.999814 C 20.037876 33.999814 16.000188 29.963002 16.000188 25.000001 C 16.000188 20.037876 20.037876 16.000188 25.000001 16.000188" stroke="#000" stroke-width="2" stroke-miterlimit="10"/><path stroke-linecap="round" transform="translate(-35.714 -35.714) scale(8.92857)" fill="none" d="M 25.000001 44.999878 L 25.000001 39.000002" stroke="#000" stroke-width="2" stroke-miterlimit="10"/><path stroke-linecap="round" transform="translate(-35.714 -35.714) scale(8.92857)" fill="none" d="M 25.000001 11 L 25.000001 5.000125" stroke="#000" stroke-width="2" stroke-miterlimit="10"/><path stroke-linecap="round" transform="translate(-35.714 -35.714) scale(8.92857)" fill="none" d="M 5.000125 25.000001 L 11 25.000001" stroke="#000" stroke-width="2" stroke-miterlimit="10"/><path stroke-linecap="round" transform="translate(-35.714 -35.714) scale(8.92857)" fill="none" d="M 39.000002 25.000001 L 44.999877 25.000001" stroke="#000" stroke-width="2" stroke-miterlimit="10"/><path stroke-linecap="round" transform="translate(-35.714 -35.714) scale(8.92857)" fill="none" d="M 10.857812 39.143065 L 15.101125 34.90019" stroke="#000" stroke-width="2" stroke-miterlimit="10"/><path stroke-linecap="round" transform="translate(-35.714 -35.714) scale(8.92857)" fill="none" d="M 34.898877 15.102001 L 39.143064 10.857813" stroke="#000" stroke-width="2" stroke-miterlimit="10"/><path stroke-linecap="round" transform="translate(-35.714 -35.714) scale(8.92857)" fill="none" d="M 10.857812 10.857813 L 15.101125 15.102001" stroke="#000" stroke-width="2" stroke-miterlimit="10"/><path stroke-linecap="round" transform="translate(-35.714 -35.714) scale(8.92857)" fill="none" d="M 34.898877 34.90019 L 39.143064 39.143065" stroke="#000" stroke-width="2" stroke-miterlimit="10"/></svg>