<svg xmlns="http://www.w3.org/2000/svg" width="375" viewBox="0 0 375 375" height="375" version="1.0"><path d="M 177.242188 202.746094 L 177.242188 215.878906 L 167.71875 225.734375 L 167.949219 212.039062 Z M 212.03125 167.953125 L 225.730469 167.722656 L 215.878906 177.246094 L 202.742188 177.246094 Z M 201.464844 212.03125 L 201.699219 225.722656 L 192.1875 215.878906 L 192.1875 202.746094 Z M 215.878906 192.1875 L 225.730469 201.695312 L 212.023438 201.472656 L 202.742188 192.1875 Z M 60.722656 319.265625 L 85.808594 294.179688 L 85.371094 320.128906 C 85.308594 324.257812 88.59375 327.664062 92.710938 327.730469 C 96.839844 327.792969 100.234375 324.515625 100.3125 320.386719 L 101.011719 278.976562 L 121.066406 258.921875 L 120.617188 284.878906 C 120.558594 289.007812 123.839844 292.414062 127.960938 292.484375 C 132.089844 292.542969 135.492188 289.257812 135.5625 285.136719 L 136.261719 243.726562 L 152.753906 227.230469 L 152.507812 241.457031 L 148.457031 245.667969 C 145.613281 248.59375 145.671875 253.257812 148.542969 256.128906 L 148.636719 256.226562 C 150.195312 257.734375 152.238281 258.414062 154.246094 258.300781 C 155.582031 259.792969 157.496094 260.757812 159.652344 260.792969 C 163.78125 260.851562 167.183594 257.566406 167.253906 253.449219 L 167.347656 247.613281 L 177.242188 237.375 L 177.242188 260.695312 L 148.457031 290.484375 C 145.585938 293.4375 145.613281 298.1875 148.636719 301.035156 C 151.601562 303.898438 156.332031 303.820312 159.195312 300.859375 L 177.242188 282.191406 L 177.242188 310.546875 L 148.457031 340.328125 C 145.613281 343.261719 145.671875 347.925781 148.542969 350.792969 L 148.636719 350.886719 C 151.59375 353.757812 156.324219 353.679688 159.195312 350.707031 L 177.242188 332.042969 L 177.242188 367.53125 C 177.242188 371.667969 180.585938 375.011719 184.714844 375.003906 C 188.832031 375.003906 192.179688 371.660156 192.179688 367.539062 L 192.179688 332.050781 L 210.226562 350.714844 C 213.082031 353.734375 217.816406 353.757812 220.792969 350.886719 C 223.753906 348.027344 223.832031 343.296875 220.96875 340.328125 L 192.179688 310.554688 L 192.179688 282.199219 L 210.226562 300.867188 C 213.082031 303.847656 217.816406 303.90625 220.792969 301.035156 C 223.746094 298.171875 223.832031 293.445312 220.960938 290.476562 L 192.179688 260.703125 L 192.1875 237.375 L 202.070312 247.605469 L 202.175781 253.449219 C 202.242188 257.566406 205.636719 260.859375 209.765625 260.78125 C 211.914062 260.757812 213.816406 259.800781 215.164062 258.316406 C 217.171875 258.429688 219.230469 257.734375 220.792969 256.226562 C 223.746094 253.355469 223.832031 248.628906 220.960938 245.65625 L 216.90625 241.457031 L 216.671875 227.230469 L 233.15625 243.71875 L 233.863281 285.136719 C 233.933594 289.257812 237.328125 292.550781 241.457031 292.472656 C 245.574219 292.402344 248.871094 289.007812 248.800781 284.886719 L 248.363281 258.921875 L 268.417969 278.976562 L 269.113281 320.386719 C 269.183594 324.507812 272.578125 327.800781 276.710938 327.722656 C 280.832031 327.664062 284.117188 324.257812 284.050781 320.136719 L 283.609375 294.171875 L 308.707031 319.265625 C 311.628906 322.1875 316.347656 322.1875 319.277344 319.265625 C 322.1875 316.355469 322.1875 311.632812 319.261719 308.707031 L 294.167969 283.613281 L 320.132812 284.054688 C 324.253906 284.121094 327.65625 280.839844 327.722656 276.710938 C 327.761719 274.601562 326.917969 272.683594 325.539062 271.304688 C 324.210938 269.980469 322.402344 269.152344 320.382812 269.117188 L 278.976562 268.417969 L 258.917969 248.363281 L 284.886719 248.804688 C 289.003906 248.871094 292.402344 245.578125 292.472656 241.457031 C 292.511719 239.351562 291.667969 237.433594 290.289062 236.058594 C 288.964844 234.730469 287.15625 233.898438 285.136719 233.867188 L 243.71875 233.15625 L 227.230469 216.675781 L 241.457031 216.90625 L 245.65625 220.96875 C 248.628906 223.839844 253.351562 223.75 256.222656 220.792969 C 257.730469 219.234375 258.410156 217.191406 258.296875 215.183594 C 259.777344 213.839844 260.746094 211.925781 260.78125 209.769531 C 260.820312 207.65625 259.980469 205.746094 258.59375 204.359375 C 257.269531 203.039062 255.453125 202.203125 253.445312 202.179688 L 247.605469 202.074219 L 237.371094 192.1875 L 260.703125 192.179688 L 290.46875 220.96875 C 293.441406 223.839844 298.167969 223.75 301.035156 220.792969 C 303.871094 217.855469 303.828125 213.191406 300.949219 210.3125 L 300.863281 210.226562 L 282.195312 192.179688 L 310.550781 192.179688 L 340.328125 220.976562 C 343.292969 223.839844 348.027344 223.757812 350.886719 220.792969 C 353.722656 217.855469 353.679688 213.191406 350.800781 210.3125 L 350.714844 210.226562 L 332.046875 192.179688 L 367.539062 192.179688 C 371.652344 192.179688 375 188.839844 375 184.71875 C 375 182.648438 374.171875 180.789062 372.820312 179.433594 C 371.464844 178.078125 369.597656 177.246094 367.53125 177.246094 L 332.039062 177.246094 L 350.703125 159.195312 C 353.679688 156.328125 353.753906 151.59375 350.886719 148.636719 L 350.792969 148.546875 C 347.921875 145.675781 343.257812 145.613281 340.328125 148.457031 L 310.542969 177.246094 L 282.1875 177.246094 L 300.855469 159.195312 C 303.828125 156.328125 303.90625 151.59375 301.035156 148.636719 L 300.941406 148.546875 C 298.070312 145.675781 293.410156 145.613281 290.480469 148.457031 L 260.691406 177.246094 L 237.371094 177.246094 L 247.613281 167.351562 L 253.445312 167.253906 C 257.566406 167.1875 260.851562 163.78125 260.789062 159.65625 C 260.753906 157.636719 259.917969 155.816406 258.601562 154.5 C 258.503906 154.40625 258.398438 154.320312 258.296875 154.234375 C 258.410156 152.226562 257.722656 150.191406 256.222656 148.636719 L 256.125 148.546875 C 253.253906 145.675781 248.59375 145.613281 245.664062 148.457031 L 241.457031 152.507812 L 227.230469 152.757812 L 243.726562 136.261719 L 285.136719 135.566406 C 289.253906 135.496094 292.539062 132.089844 292.480469 127.960938 C 292.445312 125.945312 291.609375 124.128906 290.289062 122.808594 C 288.90625 121.429688 286.988281 120.597656 284.878906 120.621094 L 258.917969 121.070312 L 278.976562 101.011719 L 320.382812 100.316406 C 324.511719 100.238281 327.789062 96.84375 327.730469 92.714844 C 327.691406 90.695312 326.859375 88.878906 325.539062 87.5625 C 324.160156 86.183594 322.238281 85.34375 320.125 85.371094 L 294.175781 85.8125 L 319.277344 60.714844 C 322.1875 57.800781 322.1875 53.078125 319.261719 50.15625 L 50.15625 319.265625 C 53.078125 322.1875 57.796875 322.1875 60.722656 319.265625"/><path d="M 228.257812 109.191406 L 305.867188 47.316406 L 236.128906 117.058594 Z M 228.257812 109.191406"/><path d="M 187.632812 92.382812 L 223.914062 -0.00390625 L 209.136719 98.144531 Z M 187.632812 92.382812"/><path d="M 144.050781 98.144531 L 129.277344 -0.00390625 L 165.558594 92.382812 Z M 144.050781 98.144531"/><path d="M 109.1875 124.929688 L 47.316406 47.316406 L 124.933594 109.183594 Z M 109.1875 124.929688"/><path d="M 92.386719 165.554688 L 0 129.277344 L 98.148438 144.050781 Z M 92.386719 165.554688"/><path d="M 98.148438 209.136719 L 0 223.914062 L 92.386719 187.628906 Z M 98.148438 209.136719"/><path d="M 109.1875 228.261719 L 117.054688 236.128906 L 47.316406 305.871094 Z M 109.1875 228.261719"/><path d="M 129.386719 129.390625 C 155.460938 103.320312 197.726562 103.320312 223.796875 129.390625 L 129.386719 223.796875 C 103.320312 197.726562 103.320312 155.460938 129.386719 129.390625"/></svg>