<svg xmlns="http://www.w3.org/2000/svg" width="375" viewBox="0 0 375 375" height="375" version="1.0"><defs><clipPath id="a"><path d="M 163 114 L 238 114 L 238 372.109375 L 163 372.109375 Z M 163 114"/></clipPath><clipPath id="b"><path d="M 4.378906 3.109375 L 370.378906 3.109375 L 370.378906 285 L 4.378906 285 Z M 4.378906 3.109375"/></clipPath></defs><g clip-path="url(#a)"><path d="M 182.476562 117.082031 C 182.476562 117.082031 232.371094 170.164062 237.914062 278.402344 C 237.914062 346.398438 233.757812 364.09375 232.71875 367.910156 C 231.679688 371.726562 225.101562 371.726562 216.4375 372.074219 C 207.769531 372.421875 190.449219 370.335938 186.289062 368.257812 C 192.875 361.664062 217.546875 338.9375 211.929688 249.261719 C 206.386719 160.796875 175.550781 127.835938 165.5 119.164062 C 155.449219 110.492188 182.476562 117.082031 182.476562 117.082031 Z M 182.476562 117.082031"/></g><path d="M 321.421875 68.296875 C 321.421875 68.296875 312.457031 8.839844 242.03125 16.90625 C 205.519531 23.414062 180.136719 51.601562 167.925781 70.59375 C 165.167969 58.9375 165.257812 44.445312 177.195312 37.960938 C 177.492188 37.800781 173.292969 30.632812 178.605469 37.257812 C 178.722656 37.398438 178.605469 37.257812 178.605469 37.257812 C 179.335938 36.925781 180.101562 36.621094 180.90625 36.34375 C 181.402344 36.175781 176.027344 29.503906 176.546875 29.65625 C 182.78125 31.476562 183.421875 35.605469 183.945312 35.488281 C 185.46875 35.144531 187.113281 34.890625 188.890625 34.730469 C 179.402344 20.421875 154.066406 15.972656 118.03125 42.589844 C 106.25 53.941406 108.757812 70.378906 126.777344 84.949219 C 113.699219 82.347656 88.058594 71.027344 58.953125 87.679688 C 29.847656 104.332031 -2.75 137.335938 26.078125 177.574219 C 26.078125 177.574219 21.726562 169.59375 26.46875 158.0625 C 26.679688 157.546875 24.390625 150.789062 24.648438 150.257812 C 24.894531 149.761719 27.871094 155.449219 28.160156 154.941406 C 29.015625 153.414062 29.207031 152.648438 30.496094 151.039062 C 30.8125 150.644531 27.378906 144.273438 28.546875 139.980469 C 28.710938 139.367188 32.636719 147.753906 33.09375 147.265625 C 38.132812 141.933594 44.796875 134.210938 56.3125 128.550781 C 56.808594 128.308594 56.371094 122.527344 56.871094 122.285156 C 57.457031 122.007812 59.152344 125.023438 59.152344 125.023438 C 57.582031 125.746094 60.976562 110.269531 60.902344 110.707031 C 60.511719 113.167969 63.335938 125.304688 64.183594 124.945312 C 68.351562 123.164062 72.9375 121.386719 77.957031 119.628906 C 78.484375 119.445312 79.078125 114.664062 79.613281 114.480469 C 79.894531 114.386719 80.097656 118.890625 80.378906 118.792969 C 83.125 117.863281 85.996094 116.9375 89.007812 116.019531 C 89.183594 115.960938 90.214844 107.769531 90.398438 107.714844 C 91.226562 107.464844 91.207031 115.351562 92.054688 115.101562 C 93.742188 114.601562 95.46875 114.105469 97.238281 113.617188 C 97.867188 113.414062 98.488281 113.226562 99.101562 113.050781 C 99.917969 112.816406 100.261719 99.96875 101.050781 99.78125 C 101.972656 99.5625 103.414062 112.824219 104.296875 112.660156 C 117.699219 110.179688 126.671875 111.988281 132.625 113.179688 C 122.878906 118.515625 70.125 131.132812 54.402344 186.421875 C 46.609375 232.605469 63.28125 269.730469 82.683594 291.238281 C 82.542969 287.945312 82.078125 282.292969 82.988281 275.28125 C 83.101562 274.386719 75.316406 263.863281 75.453125 262.921875 C 75.585938 261.996094 84.375 270.890625 84.53125 269.921875 C 85.941406 261.109375 88.238281 250.40625 91.753906 238.570312 C 91.960938 237.863281 85.714844 230.785156 86.753906 229.09375 C 87.171875 228.421875 92.863281 234.925781 93.109375 234.160156 C 93.601562 232.59375 94.113281 231.015625 94.652344 229.417969 C 95.101562 228.074219 86.792969 218.359375 87.277344 216.996094 C 87.519531 216.304688 96.542969 223.96875 96.792969 223.273438 C 104.703125 201.445312 117.445312 178.210938 135.09375 155.332031 C 135.449219 154.871094 126.648438 137.769531 127.554688 135.554688 C 127.890625 136.878906 138.796875 150.738281 140.03125 149.605469 C 145.257812 144.808594 148.746094 140.320312 152.59375 136.546875 C 153.375 135.777344 147.566406 123.585938 149.90625 122.675781 C 151.722656 125.40625 157.648438 133.335938 158.480469 132.5625 C 171.949219 120.058594 174.332031 118.382812 214.222656 121.375 C 215.117188 121.503906 216.089844 108.355469 217.082031 108.496094 C 219.253906 108.804688 220.265625 120.238281 221.617188 122.011719 C 232.347656 123.636719 246.6875 126.121094 262.917969 130.40625 C 263.445312 130.542969 266.328125 119.683594 266.328125 119.683594 C 267.167969 119.976562 267.078125 131.8125 267.539062 131.9375 C 268.042969 132.070312 273.101562 134.242188 273.605469 134.386719 C 276.195312 135.109375 274.285156 116.019531 275.8125 111.488281 C 278.800781 114.742188 281.917969 137.378906 281.917969 137.378906 C 298.859375 143.070312 319.238281 151.300781 336.882812 161.964844 C 338.996094 163.242188 342.898438 145.878906 341.957031 164.46875 C 341.902344 165.585938 344.003906 167.324219 344.9375 167.949219 C 345.992188 168.660156 347.648438 148.492188 348.097656 149.695312 C 351.824219 159.625 349.890625 171.632812 350.914062 172.375 C 351.792969 173.007812 351.988281 172.890625 352.863281 173.546875 C 360.484375 181.871094 369.617188 189.941406 369.617188 189.941406 C 369.617188 189.941406 373.394531 138.160156 323.496094 96.527344 C 273.605469 54.894531 188.710938 91.410156 188.710938 91.410156 C 188.710938 91.410156 196.21875 80.695312 211.738281 70.496094 C 212.519531 69.980469 208.730469 68.15625 209.546875 67.644531 C 209.957031 67.390625 211.398438 68.082031 211.824219 67.824219 C 212.027344 67.703125 206.484375 62.953125 207.597656 63.222656 C 213.441406 64.652344 216.386719 67.605469 216.570312 67.496094 C 229.957031 59.671875 252.03125 52.554688 271.789062 52.378906 C 272.773438 52.371094 260.613281 37.167969 261.519531 37.59375 C 275.03125 43.96875 276.839844 52.378906 277.886719 52.402344 C 282.308594 52.523438 286.898438 52.867188 291.664062 53.464844 C 293.222656 53.785156 294.675781 54.09375 296.050781 54.390625 C 297.019531 54.597656 295.976562 50.132812 296.863281 50.34375 C 297.292969 50.445312 299.6875 55.226562 300.101562 55.328125 C 301.835938 55.757812 303.421875 56.210938 304.917969 56.71875 C 305.585938 56.945312 302.699219 48.351562 303.230469 48.78125 C 308.6875 53.207031 309.292969 58.5 310.457031 59.140625 C 314.015625 61.113281 317.355469 63.902344 321.421875 68.296875 Z M 321.421875 68.296875"/><g clip-path="url(#b)"><path d="M 321.730469 57.683594 C 321.730469 57.683594 313.179688 -3.75 240.4375 3.746094 C 202.703125 10.023438 176.195312 38.804688 163.375 58.253906 C 160.667969 46.195312 160.929688 31.25 173.316406 24.703125 C 173.628906 24.535156 169.382812 17.09375 174.78125 23.988281 C 174.898438 24.140625 174.78125 23.988281 174.78125 23.988281 C 175.535156 23.660156 176.332031 23.355469 177.164062 23.078125 C 177.679688 22.910156 172.214844 15.964844 172.742188 16.125 C 179.15625 18.078125 179.769531 22.347656 180.304688 22.230469 C 181.882812 21.894531 183.582031 21.648438 185.417969 21.507812 C 175.804688 6.632812 149.714844 1.75 112.234375 28.785156 C 99.953125 40.355469 102.347656 57.335938 120.765625 72.578125 C 107.304688 69.738281 80.988281 57.765625 50.777344 74.601562 C 20.558594 91.4375 -13.449219 125.097656 15.816406 166.945312 C 15.816406 166.945312 11.421875 158.65625 16.449219 146.820312 C 16.671875 146.289062 14.386719 139.289062 14.660156 138.742188 C 14.917969 138.238281 17.925781 144.140625 18.226562 143.617188 C 19.125 142.054688 19.332031 141.269531 20.683594 139.621094 C 21.015625 139.21875 17.546875 132.605469 18.800781 128.191406 C 18.980469 127.558594 22.929688 136.257812 23.410156 135.757812 C 28.664062 130.316406 35.628906 122.425781 47.578125 116.726562 C 48.089844 116.480469 47.703125 110.515625 48.222656 110.269531 C 48.832031 109.988281 50.542969 113.121094 50.542969 113.121094 C 48.914062 113.847656 52.59375 97.921875 52.515625 98.375 C 52.082031 100.910156 54.855469 113.464844 55.738281 113.101562 C 60.054688 111.3125 64.808594 109.527344 70.007812 107.777344 C 70.550781 107.59375 71.21875 102.667969 71.769531 102.484375 C 72.0625 102.394531 72.222656 107.039062 72.511719 106.945312 C 75.355469 106.019531 78.328125 105.09375 81.445312 104.179688 C 81.632812 104.128906 82.792969 95.691406 82.976562 95.632812 C 83.832031 95.386719 83.722656 103.519531 84.605469 103.273438 C 86.347656 102.777344 88.136719 102.289062 89.960938 101.800781 C 90.617188 101.601562 91.257812 101.414062 91.890625 101.242188 C 92.738281 101.011719 93.246094 87.753906 94.058594 87.574219 C 95.011719 87.359375 96.34375 101.054688 97.257812 100.898438 C 111.109375 98.496094 120.34375 100.46875 126.472656 101.765625 C 116.355469 107.15625 61.796875 119.554688 44.929688 176.398438 C 36.351562 223.945312 53.113281 262.433594 72.878906 284.84375 C 72.769531 281.441406 72.359375 275.609375 73.378906 268.386719 C 73.507812 267.46875 65.597656 256.523438 65.753906 255.550781 C 65.898438 254.597656 74.859375 263.871094 75.035156 262.878906 C 76.585938 253.804688 79.085938 242.792969 82.84375 230.625 C 83.070312 229.898438 76.714844 222.527344 77.808594 220.792969 C 78.242188 220.105469 84.039062 226.878906 84.296875 226.09375 C 84.824219 224.484375 85.375 222.863281 85.945312 221.21875 C 86.425781 219.839844 77.96875 209.722656 78.484375 208.320312 C 78.742188 207.609375 87.960938 215.621094 88.226562 214.90625 C 96.640625 192.484375 110.054688 168.667969 128.523438 145.273438 C 128.894531 144.804688 120.019531 127.058594 120.980469 124.785156 C 121.308594 126.15625 132.394531 140.582031 133.683594 139.425781 C 139.136719 134.539062 142.78125 129.949219 146.796875 126.101562 C 147.605469 125.320312 141.761719 112.679688 144.1875 111.761719 C 146.027344 114.605469 152.046875 122.851562 152.910156 122.0625 C 166.945312 109.324219 169.429688 107.621094 210.542969 111.171875 C 211.460938 111.316406 212.617188 97.765625 213.640625 97.921875 C 215.871094 98.265625 216.789062 110.074219 218.160156 111.914062 C 229.210938 113.71875 243.96875 116.449219 260.660156 121.058594 C 261.203125 121.207031 264.304688 110.039062 264.304688 110.039062 C 265.167969 110.351562 264.9375 122.558594 265.410156 122.691406 C 265.929688 122.839844 271.121094 125.136719 271.640625 125.285156 C 274.300781 126.066406 272.558594 106.355469 274.183594 101.695312 C 277.230469 105.085938 280.183594 128.472656 280.183594 128.472656 C 297.589844 134.539062 318.515625 143.269531 336.589844 154.476562 C 338.75 155.820312 342.980469 137.953125 341.792969 157.117188 C 341.722656 158.269531 343.871094 160.085938 344.828125 160.742188 C 345.90625 161.484375 347.851562 140.703125 348.300781 141.953125 C 352.027344 152.234375 349.894531 164.601562 350.941406 165.378906 C 351.839844 166.039062 352.042969 165.925781 352.9375 166.605469 C 360.703125 175.285156 370.027344 183.714844 370.027344 183.714844 C 370.027344 183.714844 374.527344 130.347656 323.546875 86.820312 C 272.566406 43.292969 184.574219 79.964844 184.574219 79.964844 C 184.574219 79.964844 192.445312 69 208.574219 58.660156 C 209.382812 58.140625 205.496094 56.210938 206.34375 55.695312 C 206.777344 55.4375 208.25 56.167969 208.695312 55.90625 C 208.902344 55.785156 203.242188 50.820312 204.386719 51.113281 C 210.398438 52.65625 213.398438 55.734375 213.59375 55.625 C 227.492188 47.707031 250.34375 40.625 270.726562 40.679688 C 271.742188 40.679688 259.375 24.855469 260.304688 25.304688 C 274.164062 32.039062 275.933594 40.734375 277.011719 40.773438 C 281.574219 40.949219 286.304688 41.355469 291.214844 42.03125 C 292.820312 42.378906 294.3125 42.710938 295.726562 43.035156 C 296.726562 43.261719 295.703125 38.648438 296.613281 38.871094 C 297.050781 38.980469 299.46875 43.9375 299.898438 44.054688 C 301.679688 44.515625 303.3125 45 304.847656 45.542969 C 305.535156 45.785156 302.65625 36.886719 303.199219 37.332031 C 308.773438 41.964844 309.34375 47.429688 310.535156 48.097656 C 314.179688 50.183594 317.589844 53.101562 321.730469 57.683594 Z M 321.730469 57.683594"/></g></svg>