<?xml version="1.0" encoding="UTF-8"?><svg xmlns="http://www.w3.org/2000/svg" xmlns:xlink="http://www.w3.org/1999/xlink" contentScriptType="text/ecmascript" width="375" zoomAndPan="magnify" contentStyleType="text/css" viewBox="0 0 375 374.999991" height="374.999991" preserveAspectRatio="xMidYMid meet" version="1.0"><path fill="rgb(96.078491%, 96.078491%, 96.078491%)" d="M 56.84375 325.265625 C 128.679688 359.5 245.148438 359.511719 316.988281 325.265625 C 388.824219 291.019531 388.816406 235.515625 316.988281 201.28125 C 245.160156 167.042969 128.679688 167.042969 56.84375 201.28125 C -14.996094 235.515625 -14.988281 291.027344 56.84375 325.265625 Z M 56.84375 325.265625 " fill-opacity="1" fill-rule="nonzero"/><path fill="rgb(92.158508%, 92.158508%, 92.158508%)" d="M 340.695312 288.546875 C 340.695312 288.921875 340.65625 289.292969 340.578125 289.667969 C 340.5 290.039062 340.386719 290.40625 340.234375 290.773438 C 340.082031 291.140625 339.890625 291.503906 339.664062 291.859375 C 339.433594 292.21875 339.171875 292.570312 338.871094 292.914062 C 338.570312 293.261719 338.234375 293.597656 337.863281 293.929688 C 337.496094 294.257812 337.09375 294.578125 336.65625 294.890625 C 336.21875 295.199219 335.753906 295.5 335.253906 295.789062 C 334.757812 296.078125 334.230469 296.355469 333.675781 296.621094 C 333.121094 296.882812 332.542969 297.132812 331.933594 297.371094 C 331.328125 297.609375 330.699219 297.832031 330.046875 298.039062 C 329.394531 298.246094 328.722656 298.4375 328.03125 298.613281 C 327.339844 298.792969 326.628906 298.949219 325.90625 299.09375 C 325.179688 299.238281 324.441406 299.363281 323.691406 299.472656 C 322.941406 299.578125 322.179688 299.671875 321.410156 299.742188 C 320.640625 299.816406 319.867188 299.871094 319.085938 299.90625 C 318.304688 299.945312 317.523438 299.960938 316.738281 299.960938 C 315.953125 299.960938 315.167969 299.945312 314.390625 299.90625 C 313.609375 299.871094 312.832031 299.816406 312.0625 299.742188 C 311.292969 299.671875 310.535156 299.578125 309.78125 299.472656 C 309.03125 299.363281 308.292969 299.238281 307.570312 299.09375 C 306.84375 298.949219 306.136719 298.792969 305.445312 298.613281 C 304.753906 298.4375 304.078125 298.246094 303.425781 298.039062 C 302.773438 297.832031 302.144531 297.609375 301.539062 297.371094 C 300.933594 297.132812 300.351562 296.882812 299.796875 296.621094 C 299.242188 296.355469 298.714844 296.078125 298.21875 295.789062 C 297.71875 295.5 297.253906 295.199219 296.816406 294.890625 C 296.382812 294.578125 295.980469 294.257812 295.609375 293.929688 C 295.238281 293.597656 294.902344 293.261719 294.605469 292.914062 C 294.304688 292.570312 294.039062 292.21875 293.8125 291.859375 C 293.585938 291.503906 293.394531 291.140625 293.242188 290.773438 C 293.085938 290.40625 292.972656 290.039062 292.894531 289.667969 C 292.820312 289.292969 292.78125 288.921875 292.78125 288.546875 C 292.78125 288.171875 292.820312 287.800781 292.894531 287.429688 C 292.972656 287.054688 293.085938 286.6875 293.242188 286.320312 C 293.394531 285.953125 293.585938 285.589844 293.8125 285.234375 C 294.039062 284.875 294.304688 284.523438 294.605469 284.179688 C 294.902344 283.832031 295.238281 283.496094 295.609375 283.167969 C 295.980469 282.835938 296.382812 282.515625 296.816406 282.207031 C 297.253906 281.894531 297.71875 281.59375 298.21875 281.304688 C 298.714844 281.015625 299.242188 280.738281 299.796875 280.476562 C 300.351562 280.210938 300.933594 279.960938 301.539062 279.722656 C 302.144531 279.484375 302.773438 279.261719 303.425781 279.054688 C 304.078125 278.847656 304.753906 278.65625 305.445312 278.480469 C 306.136719 278.304688 306.84375 278.144531 307.570312 278 C 308.292969 277.859375 309.03125 277.730469 309.78125 277.625 C 310.535156 277.515625 311.292969 277.425781 312.0625 277.351562 C 312.832031 277.277344 313.609375 277.222656 314.390625 277.1875 C 315.167969 277.152344 315.953125 277.132812 316.738281 277.132812 C 317.523438 277.132812 318.304688 277.152344 319.085938 277.1875 C 319.867188 277.222656 320.640625 277.277344 321.410156 277.351562 C 322.179688 277.425781 322.941406 277.515625 323.691406 277.625 C 324.441406 277.730469 325.179688 277.859375 325.90625 278 C 326.628906 278.144531 327.339844 278.304688 328.03125 278.480469 C 328.722656 278.65625 329.394531 278.847656 330.046875 279.054688 C 330.699219 279.261719 331.328125 279.484375 331.933594 279.722656 C 332.542969 279.960938 333.121094 280.210938 333.675781 280.476562 C 334.230469 280.738281 334.757812 281.015625 335.253906 281.304688 C 335.753906 281.59375 336.21875 281.894531 336.65625 282.207031 C 337.09375 282.515625 337.496094 282.835938 337.863281 283.167969 C 338.234375 283.496094 338.570312 283.832031 338.871094 284.179688 C 339.171875 284.523438 339.433594 284.875 339.664062 285.234375 C 339.890625 285.589844 340.082031 285.953125 340.234375 286.320312 C 340.386719 286.6875 340.5 287.054688 340.578125 287.429688 C 340.65625 287.800781 340.695312 288.171875 340.695312 288.546875 Z M 340.695312 288.546875 " fill-opacity="1" fill-rule="nonzero"/><path fill="rgb(65.098572%, 13.729858%, 40.388489%)" d="M 51.390625 290.183594 L 59.863281 285.292969 C 62.230469 283.363281 64.296875 281.152344 66.066406 278.664062 C 67.835938 276.175781 69.246094 273.496094 70.289062 270.625 C 72.90625 263.414062 72.542969 257.929688 70.664062 255.175781 C 68.363281 251.789062 62.386719 252.382812 62.148438 259.515625 C 61.648438 273.566406 57.550781 283.3125 51.390625 290.183594 Z M 51.390625 290.183594 " fill-opacity="1" fill-rule="nonzero"/><path fill="rgb(0%, 0%, 0%)" d="M 51.390625 290.183594 L 59.863281 285.292969 C 62.230469 283.363281 64.296875 281.152344 66.066406 278.664062 C 67.835938 276.175781 69.246094 273.496094 70.289062 270.625 C 72.90625 263.414062 72.542969 257.929688 70.664062 255.175781 C 68.363281 251.789062 62.386719 252.382812 62.148438 259.515625 C 61.648438 273.566406 57.550781 283.3125 51.390625 290.183594 Z M 51.390625 290.183594 " fill-opacity="0.2" fill-rule="nonzero"/><path fill="rgb(100%, 100%, 100%)" d="M 51.390625 290.707031 C 51.136719 290.703125 50.972656 290.578125 50.898438 290.335938 C 50.824219 290.09375 50.890625 289.902344 51.097656 289.757812 C 70.695312 276.203125 66.902344 257.304688 66.859375 257.117188 C 66.828125 256.972656 66.855469 256.839844 66.933594 256.714844 C 67.015625 256.589844 67.128906 256.515625 67.273438 256.484375 C 67.414062 256.453125 67.550781 256.480469 67.671875 256.558594 C 67.796875 256.640625 67.871094 256.753906 67.902344 256.898438 C 67.902344 257.09375 71.90625 276.640625 51.722656 290.613281 C 51.621094 290.679688 51.511719 290.710938 51.390625 290.707031 Z M 51.390625 290.707031 " fill-opacity="1" fill-rule="nonzero"/><path fill="rgb(65.098572%, 13.729858%, 40.388489%)" d="M 34.40625 299.996094 C 34.40625 299.996094 31.457031 297.597656 32.164062 294.34375 C 32.875 291.089844 34.78125 288.757812 31.519531 284.566406 C 28.257812 280.375 27.347656 274.785156 31.25 271.761719 C 34.21875 269.417969 38.859375 272.734375 40.527344 266.550781 C 41.757812 262.027344 41.339844 252.007812 47.105469 248.671875 C 52.871094 245.335938 56.488281 250.359375 55.582031 257.15625 C 54.789062 263.234375 53.664062 269.085938 54.539062 270.710938 C 56.226562 273.835938 59.113281 273.410156 58.980469 279.125 C 58.863281 284.441406 53.828125 288.839844 53.828125 288.839844 Z M 34.40625 299.996094 " fill-opacity="1" fill-rule="nonzero"/><path fill="rgb(100%, 100%, 100%)" d="M 44.09375 294.894531 C 43.960938 294.894531 43.84375 294.851562 43.746094 294.765625 C 43.648438 294.675781 43.589844 294.566406 43.570312 294.4375 C 42.078125 282.082031 45.65625 260.753906 48.574219 254.414062 C 48.628906 254.265625 48.726562 254.164062 48.875 254.105469 C 49.019531 254.046875 49.164062 254.050781 49.304688 254.125 C 49.4375 254.183594 49.527344 254.28125 49.574219 254.414062 C 49.625 254.550781 49.617188 254.683594 49.554688 254.8125 C 46.667969 261.066406 43.214844 282.460938 44.644531 294.269531 C 44.660156 294.414062 44.621094 294.539062 44.535156 294.652344 C 44.445312 294.765625 44.328125 294.828125 44.1875 294.84375 Z M 44.09375 294.894531 " fill-opacity="1" fill-rule="nonzero"/><path fill="rgb(100%, 100%, 100%)" d="M 43.8125 285.273438 C 43.730469 285.277344 43.652344 285.261719 43.582031 285.222656 C 39.964844 283.460938 37.671875 277.175781 37.578125 276.882812 C 37.523438 276.746094 37.527344 276.609375 37.585938 276.476562 C 37.648438 276.34375 37.746094 276.25 37.882812 276.199219 C 38.023438 276.152344 38.15625 276.15625 38.289062 276.222656 C 38.421875 276.285156 38.511719 276.386719 38.554688 276.527344 C 38.554688 276.589844 40.796875 282.679688 44.039062 284.253906 C 44.148438 284.304688 44.230469 284.386719 44.28125 284.496094 C 44.335938 284.605469 44.347656 284.71875 44.320312 284.839844 C 44.292969 284.957031 44.230469 285.054688 44.136719 285.128906 C 44.039062 285.207031 43.933594 285.242188 43.8125 285.242188 Z M 43.8125 285.273438 " fill-opacity="1" fill-rule="nonzero"/><path fill="rgb(100%, 100%, 100%)" d="M 43.75 289.445312 C 43.511719 289.445312 43.351562 289.332031 43.269531 289.109375 C 43.214844 288.976562 43.214844 288.847656 43.269531 288.714844 C 43.324219 288.582031 43.417969 288.488281 43.550781 288.433594 C 49.636719 285.992188 53.433594 278.746094 53.472656 278.664062 C 53.539062 278.535156 53.644531 278.449219 53.78125 278.40625 C 53.917969 278.363281 54.050781 278.375 54.179688 278.441406 C 54.304688 278.507812 54.390625 278.609375 54.4375 278.746094 C 54.480469 278.882812 54.46875 279.015625 54.402344 279.144531 C 54.234375 279.457031 50.390625 286.816406 43.976562 289.402344 C 43.90625 289.4375 43.828125 289.449219 43.75 289.445312 Z M 43.75 289.445312 " fill-opacity="1" fill-rule="nonzero"/><path fill="rgb(65.098572%, 13.729858%, 40.388489%)" d="M 256.554688 233.359375 C 256.554688 233.359375 251.996094 225.976562 251.550781 217.960938 C 251.101562 209.941406 252.863281 206.605469 255.28125 205.648438 C 257.699219 204.6875 257.886719 207.640625 259.128906 209.378906 C 260.367188 211.121094 262.902344 210.128906 263.839844 204.699219 C 264.777344 199.269531 268.199219 190.105469 275.308594 188.320312 C 283.125 186.382812 278.9375 195.554688 276.964844 199.132812 C 274.996094 202.707031 273.472656 207.585938 274.765625 208.910156 C 276.058594 210.234375 278.070312 207.785156 279.980469 210.058594 C 282.304688 212.800781 275.078125 222.671875 270.929688 225.058594 Z M 256.554688 233.359375 " fill-opacity="1" fill-rule="nonzero"/><path fill="rgb(100%, 100%, 100%)" d="M 262.796875 230.261719 C 262.652344 230.253906 262.535156 230.199219 262.4375 230.09375 C 262.335938 229.988281 262.292969 229.863281 262.296875 229.71875 C 262.652344 223.269531 263.816406 216.972656 265.792969 210.828125 C 267.773438 204.679688 270.5 198.882812 273.972656 193.441406 C 274.058594 193.320312 274.171875 193.25 274.3125 193.226562 C 274.457031 193.203125 274.585938 193.238281 274.703125 193.324219 C 274.816406 193.410156 274.886719 193.523438 274.90625 193.660156 C 274.929688 193.800781 274.898438 193.929688 274.816406 194.042969 C 271.40625 199.410156 268.730469 205.117188 266.785156 211.171875 C 264.84375 217.222656 263.699219 223.421875 263.351562 229.769531 C 263.34375 229.914062 263.285156 230.035156 263.175781 230.132812 C 263.066406 230.226562 262.941406 230.269531 262.796875 230.261719 Z M 262.796875 230.261719 " fill-opacity="1" fill-rule="nonzero"/><path fill="rgb(100%, 100%, 100%)" d="M 263.390625 224.101562 C 263.304688 224.097656 263.21875 224.078125 263.140625 224.039062 C 260.222656 222.421875 258.605469 217.625 258.542969 217.429688 C 258.496094 217.292969 258.503906 217.15625 258.566406 217.027344 C 258.628906 216.898438 258.730469 216.808594 258.867188 216.761719 C 259.003906 216.714844 259.136719 216.726562 259.265625 216.792969 C 259.394531 216.855469 259.480469 216.957031 259.523438 217.09375 C 259.523438 217.09375 261.089844 221.710938 263.695312 223.121094 C 263.816406 223.191406 263.898438 223.296875 263.9375 223.433594 C 263.972656 223.570312 263.960938 223.703125 263.894531 223.828125 C 263.785156 224.03125 263.621094 224.121094 263.390625 224.101562 Z M 263.390625 224.101562 " fill-opacity="1" fill-rule="nonzero"/><path fill="rgb(100%, 100%, 100%)" d="M 263.902344 220.941406 C 263.632812 220.9375 263.46875 220.804688 263.402344 220.546875 C 263.367188 220.40625 263.386719 220.277344 263.460938 220.152344 C 263.53125 220.03125 263.640625 219.953125 263.777344 219.917969 C 271.304688 218.011719 273.910156 214.070312 273.933594 214.03125 C 274.011719 213.90625 274.121094 213.832031 274.261719 213.800781 C 274.402344 213.769531 274.535156 213.789062 274.65625 213.867188 C 274.777344 213.945312 274.855469 214.054688 274.886719 214.195312 C 274.917969 214.339844 274.894531 214.46875 274.816406 214.59375 C 274.703125 214.769531 271.992188 218.910156 264.039062 220.929688 Z M 263.902344 220.941406 " fill-opacity="1" fill-rule="nonzero"/><path fill="rgb(65.098572%, 13.729858%, 40.388489%)" d="M 143.128906 217.15625 C 143.128906 217.15625 133.132812 214.71875 132.609375 195.996094 C 132.058594 175.789062 135.0625 152.210938 123.226562 150.300781 C 111.394531 148.394531 104.828125 162.8125 104.972656 179.648438 C 105.109375 194.390625 111.050781 226.394531 143.089844 232.667969 Z M 143.128906 217.15625 " fill-opacity="1" fill-rule="nonzero"/><path fill="rgb(0%, 0%, 0%)" d="M 143.128906 217.15625 C 143.128906 217.15625 133.132812 214.71875 132.609375 195.996094 C 132.058594 175.789062 135.0625 152.210938 123.226562 150.300781 C 111.394531 148.394531 104.828125 162.8125 104.972656 179.648438 C 105.109375 194.390625 111.050781 226.394531 143.089844 232.667969 Z M 143.128906 217.15625 " fill-opacity="0.2" fill-rule="nonzero"/><path fill="rgb(100%, 100%, 100%)" d="M 143.128906 230.75 L 143.035156 230.75 C 135.832031 229.4375 129.960938 225.464844 125.59375 218.960938 C 112.648438 199.644531 116.722656 163.574219 118.066406 157.277344 C 118.097656 157.136719 118.175781 157.027344 118.292969 156.949219 C 118.414062 156.871094 118.542969 156.84375 118.683594 156.871094 C 118.824219 156.902344 118.933594 156.980469 119.011719 157.101562 C 119.089844 157.222656 119.117188 157.351562 119.089844 157.496094 C 117.765625 163.75 113.710938 199.363281 126.460938 218.375 C 127.386719 219.851562 128.457031 221.214844 129.667969 222.464844 C 130.878906 223.71875 132.207031 224.832031 133.648438 225.808594 C 135.09375 226.785156 136.621094 227.601562 138.234375 228.261719 C 139.847656 228.921875 141.507812 229.40625 143.222656 229.71875 C 143.367188 229.746094 143.480469 229.820312 143.5625 229.9375 C 143.640625 230.058594 143.667969 230.191406 143.640625 230.335938 C 143.617188 230.457031 143.558594 230.558594 143.460938 230.636719 C 143.363281 230.714844 143.253906 230.753906 143.128906 230.75 Z M 143.128906 230.75 " fill-opacity="1" fill-rule="nonzero"/><path fill="rgb(65.098572%, 13.729858%, 40.388489%)" d="M 143.128906 278.800781 C 132.796875 280.195312 116.023438 280.175781 106.339844 272.546875 C 96.65625 264.914062 98.675781 258.347656 102.398438 255.605469 C 106.121094 252.863281 109.351562 249.734375 102.953125 243.648438 C 96.550781 237.558594 86.273438 227.78125 82.9375 213.113281 C 79.601562 198.445312 81.246094 189.269531 87.792969 186.214844 C 94.140625 183.253906 95.820312 187.96875 99.710938 197.683594 C 103.597656 207.398438 112.34375 199.070312 119.828125 202.101562 C 127.316406 205.136719 127.011719 211.140625 127.480469 216.300781 C 127.949219 221.460938 130.421875 222.890625 134.664062 222.890625 C 138.90625 222.890625 143.128906 225.332031 143.128906 230.1875 Z M 143.128906 278.800781 " fill-opacity="1" fill-rule="nonzero"/><path fill="rgb(100%, 100%, 100%)" d="M 143.128906 261.765625 C 143.085938 261.777344 143.039062 261.777344 142.992188 261.765625 C 142.546875 261.640625 131.859375 258.535156 116.296875 244.242188 C 99.71875 229.019531 91.902344 206.191406 91.816406 205.960938 C 91.777344 205.824219 91.789062 205.691406 91.851562 205.566406 C 91.917969 205.4375 92.015625 205.351562 92.152344 205.304688 C 92.285156 205.257812 92.417969 205.269531 92.546875 205.332031 C 92.675781 205.394531 92.761719 205.492188 92.808594 205.628906 C 92.882812 205.855469 100.625 228.4375 117.003906 243.46875 C 132.351562 257.574219 143.160156 260.734375 143.277344 260.765625 C 143.414062 260.804688 143.515625 260.886719 143.585938 261.015625 C 143.65625 261.140625 143.671875 261.273438 143.628906 261.410156 C 143.550781 261.65625 143.386719 261.773438 143.128906 261.765625 Z M 143.128906 261.765625 " fill-opacity="1" fill-rule="nonzero"/><path fill="rgb(100%, 100%, 100%)" d="M 120.644531 247.871094 C 120.402344 247.871094 120.242188 247.761719 120.164062 247.535156 C 116.816406 238.945312 116.054688 220.566406 115.992188 219.785156 C 115.992188 219.640625 116.039062 219.515625 116.132812 219.414062 C 116.230469 219.308594 116.351562 219.25 116.492188 219.242188 C 116.632812 219.242188 116.757812 219.292969 116.859375 219.386719 C 116.964844 219.484375 117.023438 219.601562 117.035156 219.742188 C 117.035156 219.929688 117.816406 238.726562 121.101562 247.160156 C 121.15625 247.296875 121.152344 247.429688 121.09375 247.5625 C 121.03125 247.695312 120.933594 247.785156 120.800781 247.835938 C 120.75 247.855469 120.695312 247.867188 120.644531 247.871094 Z M 120.644531 247.871094 " fill-opacity="1" fill-rule="nonzero"/><path fill="rgb(100%, 100%, 100%)" d="M 120.558594 260.222656 C 119.597656 260.230469 118.636719 260.183594 117.683594 260.078125 C 117.539062 260.058594 117.421875 259.996094 117.328125 259.878906 C 117.238281 259.765625 117.203125 259.636719 117.21875 259.492188 C 117.238281 259.347656 117.304688 259.230469 117.417969 259.140625 C 117.53125 259.050781 117.664062 259.015625 117.808594 259.035156 C 117.902344 259.035156 127.605469 260.140625 132.058594 255.605469 C 132.15625 255.488281 132.28125 255.425781 132.433594 255.421875 C 132.585938 255.414062 132.714844 255.464844 132.824219 255.570312 C 132.929688 255.675781 132.980469 255.804688 132.976562 255.957031 C 132.972656 256.109375 132.914062 256.234375 132.796875 256.335938 C 129.578125 259.660156 123.957031 260.222656 120.558594 260.222656 Z M 120.558594 260.222656 " fill-opacity="1" fill-rule="nonzero"/><path fill="rgb(87.838745%, 87.838745%, 87.838745%)" d="M 113.054688 62.816406 L 111.925781 56.320312 L 106.132812 60.136719 C 105.59375 59.082031 104.863281 58.1875 103.929688 57.457031 L 106.703125 49.949219 L 101.492188 48.792969 L 97.675781 56.089844 C 96.289062 56.324219 94.964844 56.757812 93.703125 57.382812 L 92.046875 51.878906 L 85.855469 56.746094 L 86.261719 63.210938 C 85 64.625 83.859375 66.132812 82.84375 67.734375 L 77.734375 67.476562 L 74.148438 75.511719 L 78.535156 77.390625 C 78.078125 79.054688 77.789062 80.75 77.671875 82.476562 L 72.09375 87.605469 L 73.210938 94.109375 L 79.015625 90.296875 C 79.550781 91.351562 80.28125 92.238281 81.214844 92.964844 L 78.496094 100.480469 L 83.707031 101.628906 L 89.167969 96.308594 C 90.429688 96.113281 90.117188 93.734375 91.496094 93.058594 L 93.152344 98.542969 L 99.335938 93.683594 L 99.179688 91.140625 C 100.429688 89.742188 105.160156 86.667969 106.183594 85.0625 L 107.464844 82.976562 L 111.050781 74.9375 L 109.382812 71.914062 L 107.527344 67.976562 Z M 94.132812 84.195312 C 89.378906 87.929688 87.878906 88.753906 87.074219 83.757812 C 86.273438 78.765625 88.992188 71.175781 93.746094 67.433594 C 98.5 63.691406 100.3125 63.429688 101.167969 68.414062 C 102.023438 73.394531 98.894531 80.507812 94.132812 84.195312 Z M 94.132812 84.195312 " fill-opacity="1" fill-rule="nonzero"/><path fill="rgb(96.078491%, 96.078491%, 96.078491%)" d="M 101.535156 48.792969 L 108.300781 52.691406 L 104.484375 59.96875 L 97.71875 56.070312 Z M 101.535156 48.792969 " fill-opacity="1" fill-rule="nonzero"/><path fill="rgb(96.078491%, 96.078491%, 96.078491%)" d="M 118.695312 60.21875 L 112.898438 64.035156 L 106.132812 60.136719 L 111.925781 56.320312 Z M 118.695312 60.21875 " fill-opacity="1" fill-rule="nonzero"/><path fill="rgb(87.838745%, 87.838745%, 87.838745%)" d="M 117.765625 78.808594 L 113.375 76.941406 L 106.609375 73.042969 L 111 74.90625 Z M 117.765625 78.808594 " fill-opacity="1" fill-rule="nonzero"/><path fill="rgb(87.838745%, 87.838745%, 87.838745%)" d="M 78.484375 100.480469 L 85.25 104.367188 L 88.023438 96.863281 L 81.257812 92.964844 Z M 78.484375 100.480469 " fill-opacity="1" fill-rule="nonzero"/><path fill="rgb(87.838745%, 87.838745%, 87.838745%)" d="M 99.855469 102.441406 L 93.101562 98.542969 L 91.441406 93.058594 L 98.207031 96.957031 Z M 99.855469 102.441406 " fill-opacity="1" fill-rule="nonzero"/><path fill="rgb(92.158508%, 92.158508%, 92.158508%)" d="M 119.808594 66.714844 L 118.695312 60.21875 L 112.898438 64.035156 C 112.355469 62.980469 111.621094 62.085938 110.6875 61.355469 L 113.460938 53.847656 L 108.300781 52.691406 L 104.472656 59.988281 C 103.085938 60.222656 101.761719 60.65625 100.5 61.28125 L 98.855469 55.800781 L 92.664062 60.667969 L 93.070312 67.132812 C 91.804688 68.554688 90.664062 70.074219 89.648438 71.6875 L 84.53125 71.425781 L 80.945312 79.464844 L 85.332031 81.339844 C 84.878906 83.011719 84.589844 84.710938 84.46875 86.4375 L 78.902344 91.496094 L 80.015625 98 L 85.8125 94.183594 C 86.351562 95.234375 87.089844 96.125 88.023438 96.851562 L 85.25 104.359375 L 90.460938 105.515625 L 94.277344 98.21875 C 95.671875 97.988281 97 97.550781 98.261719 96.914062 L 99.90625 102.398438 L 106.101562 97.539062 L 105.695312 91.078125 C 106.957031 89.664062 108.097656 88.152344 109.113281 86.550781 L 114.230469 86.804688 L 117.816406 78.765625 L 113.367188 76.898438 C 113.828125 75.230469 114.121094 73.53125 114.242188 71.800781 Z M 100.910156 88.136719 C 96.164062 91.871094 91.621094 90.859375 90.753906 85.875 C 89.890625 80.890625 93.046875 73.8125 97.800781 70.082031 C 102.554688 66.347656 107.089844 67.371094 107.957031 72.355469 C 108.820312 77.335938 105.664062 84.40625 100.910156 88.136719 Z M 100.910156 88.136719 " fill-opacity="1" fill-rule="nonzero"/><path fill="rgb(96.078491%, 96.078491%, 96.078491%)" d="M 98.855469 55.777344 L 92.089844 51.878906 L 85.894531 56.746094 L 92.664062 60.648438 Z M 98.855469 55.777344 " fill-opacity="1" fill-rule="nonzero"/><path fill="rgb(87.838745%, 87.838745%, 87.838745%)" d="M 85.894531 56.746094 L 86.304688 63.210938 L 93.070312 67.109375 L 92.664062 60.648438 Z M 85.894531 56.746094 " fill-opacity="1" fill-rule="nonzero"/><path fill="rgb(96.078491%, 96.078491%, 96.078491%)" d="M 89.648438 71.632812 L 82.882812 67.734375 L 77.773438 67.484375 L 84.53125 71.382812 Z M 89.648438 71.632812 " fill-opacity="1" fill-rule="nonzero"/><path fill="rgb(87.838745%, 87.838745%, 87.838745%)" d="M 77.773438 67.484375 L 74.1875 75.511719 L 80.945312 79.410156 L 84.53125 71.382812 Z M 77.773438 67.484375 " fill-opacity="1" fill-rule="nonzero"/><path fill="rgb(96.078491%, 96.078491%, 96.078491%)" d="M 84.46875 86.375 L 77.710938 82.476562 L 72.136719 87.605469 L 78.890625 91.503906 Z M 84.46875 86.375 " fill-opacity="1" fill-rule="nonzero"/><path fill="rgb(87.838745%, 87.838745%, 87.838745%)" d="M 80.015625 98.011719 L 73.25 94.109375 L 72.136719 87.605469 L 78.890625 91.503906 Z M 80.015625 98.011719 " fill-opacity="1" fill-rule="nonzero"/><path fill="rgb(96.078491%, 96.078491%, 96.078491%)" d="M 108.300781 52.691406 L 101.535156 48.792969 L 106.703125 49.949219 L 113.460938 53.847656 Z M 108.300781 52.691406 " fill-opacity="1" fill-rule="nonzero"/><path fill="rgb(87.838745%, 87.838745%, 87.838745%)" d="M 82.757812 33.332031 L 82.757812 23.628906 L 75.035156 27.109375 C 74.621094 25.449219 73.925781 23.917969 72.949219 22.511719 L 77.816406 12.703125 L 71.875 9.273438 L 65.808594 18.394531 C 64.101562 18.246094 62.425781 18.410156 60.78125 18.882812 L 59.925781 10.449219 L 51.523438 15.308594 L 50.679688 24.691406 C 48.847656 26.3125 47.171875 28.085938 45.65625 30.007812 L 39.589844 27.921875 L 33.644531 38.222656 L 38.503906 42.390625 C 37.605469 44.667969 36.910156 47.003906 36.417969 49.398438 L 28.695312 54.828125 L 28.695312 64.546875 L 36.417969 61.0625 C 36.832031 62.722656 37.527344 64.257812 38.503906 65.660156 L 33.667969 75.480469 L 39.609375 78.910156 L 45.675781 69.789062 C 47.382812 69.9375 49.058594 69.773438 50.703125 69.300781 L 51.546875 77.734375 L 59.949219 72.875 L 60.804688 63.492188 C 63.472656 62.519531 65.71875 60.941406 67.539062 58.757812 L 71.894531 60.292969 L 77.835938 50.003906 L 74.1875 46.875 C 74.988281 44.242188 75.277344 41.558594 75.054688 38.816406 Z M 55.726562 57.582031 C 49.285156 61.304688 45.300781 58.625 45.300781 51.210938 C 45.300781 43.800781 50.628906 34.636719 57.082031 30.914062 C 63.535156 27.191406 67.433594 29.871094 67.433594 37.347656 C 67.433594 44.820312 62.179688 53.847656 55.726562 57.582031 Z M 55.726562 57.582031 " fill-opacity="1" fill-rule="nonzero"/><path fill="rgb(96.078491%, 96.078491%, 96.078491%)" d="M 78.628906 13.160156 L 71.875 9.273438 L 65.808594 18.394531 L 72.5625 22.292969 Z M 78.628906 13.160156 " fill-opacity="1" fill-rule="nonzero"/><path fill="rgb(96.078491%, 96.078491%, 96.078491%)" d="M 89.523438 27.527344 L 82.757812 23.628906 L 75.035156 27.109375 L 81.800781 31.007812 Z M 89.523438 27.527344 " fill-opacity="1" fill-rule="nonzero"/><path fill="rgb(87.838745%, 87.838745%, 87.838745%)" d="M 58.28125 81.632812 L 51.523438 77.734375 L 50.679688 69.300781 L 57.4375 73.199219 Z M 58.28125 81.632812 " fill-opacity="1" fill-rule="nonzero"/><path fill="rgb(87.838745%, 87.838745%, 87.838745%)" d="M 33.636719 75.480469 L 40.402344 79.378906 L 45.269531 69.570312 L 38.503906 65.671875 Z M 33.636719 75.480469 " fill-opacity="1" fill-rule="nonzero"/><path fill="rgb(92.158508%, 92.158508%, 92.158508%)" d="M 89.523438 37.285156 L 89.523438 27.578125 L 81.800781 31.027344 C 81.390625 29.367188 80.695312 27.835938 79.714844 26.433594 L 84.582031 16.621094 L 78.640625 13.179688 L 72.574219 22.3125 C 70.867188 22.160156 69.191406 22.324219 67.546875 22.804688 L 66.695312 14.347656 L 58.289062 19.207031 L 57.4375 28.589844 C 55.605469 30.214844 53.929688 31.988281 52.410156 33.90625 L 46.34375 31.820312 L 40.402344 42.121094 L 45.269531 46.292969 C 44.367188 48.5625 43.671875 50.898438 43.183594 53.296875 L 35.460938 58.726562 L 35.460938 68.445312 L 43.183594 64.960938 C 43.59375 66.625 44.289062 68.15625 45.269531 69.558594 L 40.402344 79.371094 L 46.34375 82.800781 L 52.410156 73.679688 C 54.117188 73.828125 55.792969 73.664062 57.4375 73.1875 L 58.289062 81.621094 L 66.695312 76.761719 L 67.539062 67.382812 C 69.371094 65.757812 71.046875 63.984375 72.5625 62.0625 L 78.628906 64.148438 L 84.574219 53.859375 L 79.703125 49.691406 C 80.609375 47.417969 81.304688 45.082031 81.789062 42.683594 Z M 62.492188 61.53125 C 56.039062 65.253906 50.804688 62.230469 50.804688 54.789062 C 50.804688 47.34375 56.019531 38.285156 62.492188 34.554688 C 68.964844 30.820312 74.167969 33.855469 74.167969 41.296875 C 74.167969 48.742188 68.933594 57.75 62.492188 61.480469 Z M 62.492188 61.53125 " fill-opacity="1" fill-rule="nonzero"/><path fill="rgb(94.119263%, 94.119263%, 94.119263%)" d="M 45.65625 30.027344 L 52.410156 33.925781 L 46.34375 31.8125 L 39.589844 27.902344 Z M 45.65625 30.027344 " fill-opacity="1" fill-rule="nonzero"/><path fill="rgb(96.078491%, 96.078491%, 96.078491%)" d="M 33.644531 38.214844 L 39.585938 27.910156 L 46.351562 31.8125 L 40.40625 42.117188 Z M 33.644531 38.214844 " fill-opacity="1" fill-rule="nonzero"/><path fill="rgb(87.838745%, 87.838745%, 87.838745%)" d="M 33.636719 38.203125 L 40.402344 42.101562 L 45.269531 46.292969 L 38.503906 42.402344 Z M 33.636719 38.203125 " fill-opacity="1" fill-rule="nonzero"/><path fill="rgb(96.078491%, 96.078491%, 96.078491%)" d="M 36.417969 49.410156 L 43.183594 53.308594 L 35.460938 58.738281 L 28.695312 54.839844 Z M 36.417969 49.410156 " fill-opacity="1" fill-rule="nonzero"/><path fill="rgb(87.838745%, 87.838745%, 87.838745%)" d="M 28.695312 54.839844 L 35.460938 58.738281 L 35.460938 68.453125 L 28.695312 64.554688 Z M 28.695312 54.839844 " fill-opacity="1" fill-rule="nonzero"/><path fill="rgb(96.078491%, 96.078491%, 96.078491%)" d="M 66.695312 14.347656 L 59.925781 10.449219 L 51.523438 15.308594 L 58.28125 19.207031 Z M 66.695312 14.347656 " fill-opacity="1" fill-rule="nonzero"/><path fill="rgb(87.838745%, 87.838745%, 87.838745%)" d="M 153.429688 292.75 L 251.425781 236.160156 C 251.644531 236.085938 251.824219 235.949219 251.960938 235.757812 C 252.09375 235.566406 252.164062 235.355469 252.164062 235.121094 C 252.164062 234.886719 252.09375 234.671875 251.960938 234.480469 C 251.824219 234.289062 251.644531 234.15625 251.425781 234.078125 L 242.363281 228.863281 C 241.796875 228.578125 241.191406 228.433594 240.554688 228.433594 C 239.917969 228.433594 239.316406 228.578125 238.746094 228.863281 L 140.722656 285.398438 C 140.5 285.476562 140.320312 285.613281 140.1875 285.804688 C 140.050781 285.996094 139.984375 286.207031 139.984375 286.441406 C 139.984375 286.675781 140.050781 286.890625 140.1875 287.082031 C 140.320312 287.273438 140.5 287.40625 140.722656 287.484375 L 149.8125 292.695312 C 150.375 292.992188 150.976562 293.144531 151.613281 293.152344 C 152.25 293.160156 152.855469 293.027344 153.429688 292.75 Z M 153.429688 292.75 " fill-opacity="1" fill-rule="nonzero"/><path fill="rgb(27.059937%, 35.289001%, 39.219666%)" d="M 248.734375 17.683594 L 160.371094 68.707031 C 159.714844 69.132812 159.117188 69.632812 158.578125 70.203125 C 158.039062 70.773438 157.574219 71.394531 157.179688 72.074219 C 156.789062 72.753906 156.480469 73.46875 156.257812 74.222656 C 156.035156 74.972656 155.902344 75.742188 155.859375 76.523438 L 155.859375 286.140625 C 155.859375 289.015625 157.882812 290.183594 160.371094 288.746094 L 248.734375 237.726562 C 249.390625 237.296875 249.992188 236.800781 250.53125 236.230469 C 251.070312 235.660156 251.535156 235.035156 251.929688 234.355469 C 252.320312 233.679688 252.628906 232.960938 252.851562 232.210938 C 253.074219 231.457031 253.207031 230.691406 253.25 229.90625 L 253.25 20.292969 C 253.25 17.414062 251.238281 16.246094 248.734375 17.683594 Z M 248.734375 17.683594 " fill-opacity="1" fill-rule="nonzero"/><path fill="rgb(21.569824%, 27.839661%, 30.979919%)" d="M 160.371094 68.707031 L 248.734375 17.683594 C 250.964844 16.390625 252.8125 17.195312 253.1875 19.4375 C 252.976562 18.011719 252.480469 16.691406 251.707031 15.476562 C 250.929688 14.265625 249.941406 13.261719 248.734375 12.472656 L 245.066406 10.386719 C 244.367188 10.03125 243.632812 9.765625 242.871094 9.582031 C 242.109375 9.398438 241.335938 9.308594 240.550781 9.308594 C 239.765625 9.308594 238.992188 9.398438 238.230469 9.582031 C 237.46875 9.765625 236.738281 10.03125 236.039062 10.386719 L 147.664062 61.367188 C 146.3125 62.214844 145.25 63.335938 144.472656 64.734375 L 157.183594 72.03125 C 157.957031 70.644531 159.019531 69.535156 160.371094 68.707031 Z M 160.371094 68.707031 " fill-opacity="1" fill-rule="nonzero"/><path fill="rgb(14.898682%, 19.60907%, 21.958923%)" d="M 143.128906 278.800781 C 143.171875 279.582031 143.304688 280.351562 143.527344 281.101562 C 143.753906 281.855469 144.0625 282.570312 144.453125 283.25 C 144.84375 283.929688 145.308594 284.550781 145.851562 285.121094 C 146.390625 285.691406 146.988281 286.191406 147.644531 286.617188 L 151.324219 288.703125 C 152.613281 289.347656 153.976562 289.703125 155.414062 289.761719 C 156.851562 289.824219 158.242188 289.589844 159.582031 289.058594 C 157.496094 289.871094 155.835938 288.671875 155.835938 286.097656 L 155.835938 76.523438 C 155.890625 74.925781 156.332031 73.441406 157.160156 72.074219 L 144.453125 64.773438 C 143.636719 66.132812 143.195312 67.601562 143.128906 69.183594 Z M 143.128906 278.800781 " fill-opacity="1" fill-rule="nonzero"/><path fill="rgb(100%, 100%, 100%)" d="M 162.800781 96.632812 L 246.335938 48.417969 C 247.839844 47.5625 249.046875 48.261719 249.046875 49.980469 L 249.046875 205.125 C 248.996094 206.082031 248.734375 206.96875 248.253906 207.796875 C 247.777344 208.625 247.136719 209.296875 246.335938 209.816406 L 162.832031 258.035156 C 161.332031 258.898438 160.121094 258.199219 160.121094 256.46875 L 160.121094 101.324219 C 160.171875 100.375 160.429688 99.484375 160.902344 98.660156 C 161.375 97.832031 162.007812 97.15625 162.800781 96.632812 Z M 162.800781 96.632812 " fill-opacity="1" fill-rule="nonzero"/><path fill="rgb(21.569824%, 27.839661%, 30.979919%)" d="M 204.554688 51.140625 C 204.085938 51.445312 203.710938 51.839844 203.433594 52.328125 C 203.15625 52.8125 203 53.332031 202.96875 53.890625 C 202.96875 54.933594 203.679688 55.320312 204.554688 54.808594 C 205.023438 54.503906 205.398438 54.109375 205.675781 53.621094 C 205.957031 53.136719 206.109375 52.617188 206.136719 52.054688 C 206.136719 51.046875 205.429688 50.636719 204.554688 51.140625 Z M 204.554688 51.140625 " fill-opacity="1" fill-rule="nonzero"/><path fill="rgb(21.569824%, 27.839661%, 30.979919%)" d="M 204.554688 241.34375 C 203.640625 241.9375 202.8125 242.632812 202.066406 243.425781 C 201.316406 244.214844 200.671875 245.082031 200.128906 246.027344 C 199.585938 246.972656 199.160156 247.964844 198.851562 249.007812 C 198.539062 250.054688 198.355469 251.117188 198.296875 252.207031 C 198.296875 256.199219 201.101562 257.824219 204.554688 255.824219 C 205.464844 255.226562 206.292969 254.53125 207.042969 253.742188 C 207.789062 252.949219 208.433594 252.082031 208.976562 251.136719 C 209.519531 250.195312 209.949219 249.203125 210.257812 248.15625 C 210.566406 247.113281 210.75 246.046875 210.808594 244.960938 C 210.828125 240.96875 208.015625 239.339844 204.554688 241.34375 Z M 204.554688 241.34375 " fill-opacity="1" fill-rule="nonzero"/><path fill="rgb(21.569824%, 27.839661%, 30.979919%)" d="M 189.550781 67.277344 C 188.621094 67.894531 187.882812 68.6875 187.332031 69.65625 C 186.78125 70.625 186.480469 71.667969 186.425781 72.78125 C 186.425781 74.804688 187.84375 75.628906 189.550781 74.617188 C 190.492188 74.003906 191.242188 73.214844 191.800781 72.246094 C 192.363281 71.273438 192.671875 70.230469 192.730469 69.113281 C 192.730469 67.089844 191.3125 66.265625 189.550781 67.277344 Z M 189.550781 67.277344 " fill-opacity="1" fill-rule="nonzero"/><path fill="rgb(21.569824%, 27.839661%, 30.979919%)" d="M 197.339844 66.589844 C 197.339844 67.945312 198.382812 68.453125 199.601562 67.734375 L 220.453125 55.675781 C 221.105469 55.265625 221.632812 54.730469 222.03125 54.066406 C 222.429688 53.40625 222.660156 52.691406 222.714844 51.921875 C 222.714844 50.574219 221.671875 50.066406 220.453125 50.785156 L 199.601562 62.847656 C 198.949219 63.253906 198.421875 63.789062 198.023438 64.449219 C 197.625 65.105469 197.398438 65.820312 197.339844 66.589844 Z M 197.339844 66.589844 " fill-opacity="1" fill-rule="nonzero"/><path fill="rgb(21.569824%, 27.839661%, 30.979919%)" d="M 150.175781 103.347656 C 150.925781 103.835938 151.527344 104.46875 151.972656 105.242188 C 152.421875 106.019531 152.671875 106.851562 152.71875 107.746094 C 152.71875 109.371094 151.585938 110.03125 150.175781 109.214844 C 149.429688 108.726562 148.832031 108.09375 148.386719 107.320312 C 147.941406 106.542969 147.691406 105.710938 147.644531 104.816406 C 147.644531 103.203125 148.78125 102.542969 150.175781 103.347656 Z M 150.175781 103.347656 " fill-opacity="1" fill-rule="nonzero"/><path fill="rgb(21.569824%, 27.839661%, 30.979919%)" d="M 150.175781 122.925781 C 150.925781 123.414062 151.527344 124.046875 151.972656 124.820312 C 152.421875 125.597656 152.671875 126.429688 152.71875 127.324219 C 152.71875 128.941406 151.585938 129.597656 150.175781 128.792969 C 149.429688 128.304688 148.832031 127.671875 148.386719 126.898438 C 147.941406 126.121094 147.691406 125.289062 147.644531 124.394531 C 147.644531 122.769531 148.78125 122.113281 150.175781 122.925781 Z M 150.175781 122.925781 " fill-opacity="1" fill-rule="nonzero"/><path fill="rgb(27.059937%, 35.289001%, 39.219666%)" d="M 149.382812 103.742188 C 150.136719 104.230469 150.734375 104.863281 151.183594 105.640625 C 151.628906 106.414062 151.878906 107.25 151.929688 108.144531 C 151.929688 109.757812 150.792969 110.414062 149.382812 109.613281 C 148.632812 109.125 148.035156 108.492188 147.585938 107.71875 C 147.140625 106.941406 146.890625 106.109375 146.839844 105.214844 C 146.851562 103.585938 147.988281 102.960938 149.382812 103.742188 Z M 149.382812 103.742188 " fill-opacity="1" fill-rule="nonzero"/><path fill="rgb(27.059937%, 35.289001%, 39.219666%)" d="M 149.382812 123.3125 C 150.136719 123.800781 150.734375 124.433594 151.183594 125.210938 C 151.632812 125.988281 151.878906 126.824219 151.929688 127.722656 C 151.929688 129.335938 150.792969 129.992188 149.382812 129.179688 C 148.632812 128.695312 148.03125 128.0625 147.582031 127.285156 C 147.136719 126.511719 146.886719 125.675781 146.839844 124.78125 C 146.851562 123.164062 147.988281 122.507812 149.382812 123.3125 Z M 149.382812 123.3125 " fill-opacity="1" fill-rule="nonzero"/><path fill="rgb(100%, 100%, 100%)" d="M 265.957031 54.890625 C 265.957031 53.160156 264.746094 52.464844 263.246094 53.328125 L 253.25 59.09375 L 179.742188 101.542969 C 178.941406 102.0625 178.300781 102.738281 177.824219 103.566406 C 177.347656 104.390625 177.082031 105.28125 177.03125 106.234375 L 177.03125 261.339844 C 177.03125 263.070312 178.242188 263.765625 179.742188 262.902344 L 253.28125 220.441406 L 263.246094 214.6875 C 264.046875 214.167969 264.6875 213.492188 265.164062 212.664062 C 265.640625 211.839844 265.90625 210.949219 265.957031 209.996094 Z M 265.957031 54.890625 " fill-opacity="1" fill-rule="nonzero"/><path fill="rgb(65.098572%, 13.729858%, 40.388489%)" d="M 267 54.890625 C 267.066406 54.359375 266.980469 53.847656 266.742188 53.367188 C 266.5 52.882812 266.148438 52.507812 265.683594 52.238281 C 265.214844 51.96875 264.714844 51.851562 264.175781 51.882812 C 263.636719 51.917969 263.15625 52.097656 262.726562 52.421875 L 253.1875 57.9375 L 179.222656 100.679688 C 178.253906 101.289062 177.484375 102.089844 176.914062 103.078125 C 176.34375 104.070312 176.035156 105.132812 175.988281 106.277344 L 175.988281 261.339844 C 175.945312 261.867188 176.042969 262.371094 176.277344 262.847656 C 176.515625 263.324219 176.855469 263.707031 177.300781 263.996094 C 177.683594 264.21875 178.09375 264.324219 178.53125 264.320312 C 179.152344 264.300781 179.730469 264.128906 180.261719 263.808594 L 254.28125 221.066406 L 263.800781 215.574219 C 264.757812 214.957031 265.523438 214.15625 266.09375 213.167969 C 266.667969 212.179688 266.976562 211.113281 267.03125 209.972656 Z M 253.207031 219.285156 L 252.351562 219.785156 L 179.261719 261.984375 C 179 262.1875 178.707031 262.25 178.386719 262.171875 C 178.25 262.089844 178.117188 261.796875 178.117188 261.316406 L 178.117188 106.234375 C 178.171875 105.46875 178.390625 104.75 178.773438 104.085938 C 179.160156 103.421875 179.667969 102.871094 180.304688 102.441406 L 253.320312 60.21875 L 263.746094 54.183594 C 264.007812 53.980469 264.300781 53.917969 264.621094 53.996094 C 264.757812 54.078125 264.894531 54.371094 264.894531 54.851562 L 264.894531 209.996094 C 264.839844 210.761719 264.621094 211.476562 264.234375 212.144531 C 263.851562 212.808594 263.339844 213.359375 262.703125 213.789062 L 253.1875 219.285156 Z M 253.207031 219.285156 " fill-opacity="1" fill-rule="nonzero"/><path fill="rgb(65.098572%, 13.729858%, 40.388489%)" d="M 221.496094 90.929688 C 230.875 85.53125 238.433594 89.890625 238.433594 100.71875 C 238.433594 111.550781 230.84375 124.699219 221.496094 130.054688 C 212.144531 135.414062 204.554688 131.097656 204.554688 120.277344 C 204.554688 109.457031 212.144531 96.339844 221.496094 90.929688 Z M 221.496094 90.929688 " fill-opacity="1" fill-rule="nonzero"/><path fill="rgb(65.098572%, 13.729858%, 40.388489%)" d="M 221.496094 99.4375 C 224.527344 97.6875 226.988281 99.105469 226.988281 102.566406 C 226.9375 103.519531 226.773438 104.453125 226.503906 105.367188 C 226.230469 106.285156 225.855469 107.15625 225.378906 107.980469 C 224.902344 108.808594 224.335938 109.570312 223.679688 110.261719 C 223.023438 110.953125 222.292969 111.5625 221.496094 112.082031 C 218.460938 113.835938 216 112.417969 216 108.957031 C 216.050781 108.003906 216.214844 107.070312 216.484375 106.152344 C 216.757812 105.238281 217.132812 104.367188 217.609375 103.539062 C 218.085938 102.714844 218.652344 101.953125 219.308594 101.261719 C 219.964844 100.566406 220.695312 99.960938 221.496094 99.4375 Z M 221.496094 99.4375 " fill-opacity="1" fill-rule="nonzero"/><path fill="rgb(65.098572%, 13.729858%, 40.388489%)" d="M 232.199219 118.121094 C 232.199219 112.363281 228.167969 110.03125 223.171875 112.90625 L 220.046875 114.710938 C 215.0625 117.589844 211.015625 124.59375 211.015625 130.347656 L 211.015625 131.902344 C 213.90625 132.851562 217.53125 132.339844 221.441406 130.054688 C 225.832031 127.347656 229.398438 123.816406 232.148438 119.453125 Z M 232.199219 118.121094 " fill-opacity="1" fill-rule="nonzero"/><path fill="rgb(100%, 100%, 100%)" d="M 221.496094 99.4375 C 224.527344 97.6875 226.988281 99.105469 226.988281 102.566406 C 226.9375 103.519531 226.773438 104.453125 226.503906 105.367188 C 226.230469 106.285156 225.855469 107.15625 225.378906 107.980469 C 224.902344 108.808594 224.335938 109.570312 223.679688 110.261719 C 223.023438 110.953125 222.292969 111.5625 221.496094 112.082031 C 218.460938 113.835938 216 112.417969 216 108.957031 C 216.050781 108.003906 216.214844 107.070312 216.484375 106.152344 C 216.757812 105.238281 217.132812 104.367188 217.609375 103.539062 C 218.085938 102.714844 218.652344 101.953125 219.308594 101.261719 C 219.964844 100.566406 220.695312 99.960938 221.496094 99.4375 Z M 221.496094 99.4375 " fill-opacity="0.698" fill-rule="nonzero"/><path fill="rgb(100%, 100%, 100%)" d="M 232.199219 118.121094 C 232.199219 112.363281 228.167969 110.03125 223.171875 112.90625 L 220.046875 114.710938 C 215.0625 117.589844 211.015625 124.59375 211.015625 130.347656 L 211.015625 131.902344 C 213.90625 132.851562 217.53125 132.339844 221.441406 130.054688 C 225.832031 127.347656 229.398438 123.816406 232.148438 119.453125 Z M 232.199219 118.121094 " fill-opacity="0.698" fill-rule="nonzero"/><path fill="rgb(65.098572%, 13.729858%, 40.388489%)" d="M 188.71875 153.878906 L 210.515625 141.292969 C 211.558594 140.722656 212.320312 141.179688 212.320312 142.335938 L 212.320312 143.054688 C 212.285156 143.691406 212.109375 144.285156 211.792969 144.835938 C 211.476562 145.386719 211.050781 145.835938 210.515625 146.183594 L 188.71875 158.765625 C 187.726562 159.339844 186.914062 158.871094 186.914062 157.722656 L 186.914062 157.003906 C 186.949219 156.371094 187.125 155.777344 187.441406 155.226562 C 187.761719 154.675781 188.1875 154.226562 188.71875 153.878906 Z M 188.71875 153.878906 " fill-opacity="1" fill-rule="nonzero"/><path fill="rgb(0%, 0%, 0%)" d="M 188.71875 153.878906 L 210.515625 141.292969 C 211.558594 140.722656 212.320312 141.179688 212.320312 142.335938 L 212.320312 143.054688 C 212.285156 143.691406 212.109375 144.285156 211.792969 144.835938 C 211.476562 145.386719 211.050781 145.835938 210.515625 146.183594 L 188.71875 158.765625 C 187.726562 159.339844 186.914062 158.871094 186.914062 157.722656 L 186.914062 157.003906 C 186.949219 156.371094 187.125 155.777344 187.441406 155.226562 C 187.761719 154.675781 188.1875 154.226562 188.71875 153.878906 Z M 188.71875 153.878906 " fill-opacity="0.098" fill-rule="nonzero"/><path fill="rgb(65.098572%, 13.729858%, 40.388489%)" d="M 187.820312 169.066406 L 253.769531 130.996094 C 254.261719 130.703125 254.667969 130.933594 254.667969 131.515625 L 254.667969 139.210938 C 254.628906 139.878906 254.328125 140.402344 253.769531 140.773438 L 187.820312 178.84375 C 187.320312 179.136719 186.914062 178.898438 186.914062 178.324219 L 186.914062 170.628906 C 186.953125 169.957031 187.253906 169.433594 187.820312 169.066406 Z M 187.820312 169.066406 " fill-opacity="1" fill-rule="nonzero"/><path fill="rgb(100%, 100%, 100%)" d="M 187.820312 169.066406 L 253.769531 130.996094 C 254.261719 130.703125 254.667969 130.933594 254.667969 131.515625 L 254.667969 139.210938 C 254.628906 139.878906 254.328125 140.402344 253.769531 140.773438 L 187.820312 178.84375 C 187.320312 179.136719 186.914062 178.898438 186.914062 178.324219 L 186.914062 170.628906 C 186.953125 169.957031 187.253906 169.433594 187.820312 169.066406 Z M 187.820312 169.066406 " fill-opacity="0.2" fill-rule="nonzero"/><path fill="rgb(65.098572%, 13.729858%, 40.388489%)" d="M 188.71875 188.101562 L 210.515625 175.519531 C 211.558594 174.945312 212.320312 175.414062 212.320312 176.5625 L 212.320312 177.28125 C 212.289062 177.917969 212.113281 178.511719 211.792969 179.0625 C 211.476562 179.613281 211.050781 180.0625 210.515625 180.410156 L 188.71875 192.992188 C 187.726562 193.574219 186.914062 193.105469 186.914062 191.949219 L 186.914062 191.230469 C 186.949219 190.59375 187.128906 190.003906 187.445312 189.453125 C 187.761719 188.902344 188.1875 188.453125 188.71875 188.101562 Z M 188.71875 188.101562 " fill-opacity="1" fill-rule="nonzero"/><path fill="rgb(0%, 0%, 0%)" d="M 188.71875 188.101562 L 210.515625 175.519531 C 211.558594 174.945312 212.320312 175.414062 212.320312 176.5625 L 212.320312 177.28125 C 212.289062 177.917969 212.113281 178.511719 211.792969 179.0625 C 211.476562 179.613281 211.050781 180.0625 210.515625 180.410156 L 188.71875 192.992188 C 187.726562 193.574219 186.914062 193.105469 186.914062 191.949219 L 186.914062 191.230469 C 186.949219 190.59375 187.128906 190.003906 187.445312 189.453125 C 187.761719 188.902344 188.1875 188.453125 188.71875 188.101562 Z M 188.71875 188.101562 " fill-opacity="0.098" fill-rule="nonzero"/><path fill="rgb(65.098572%, 13.729858%, 40.388489%)" d="M 187.820312 203.292969 L 253.769531 165.21875 C 254.261719 164.929688 254.667969 165.167969 254.667969 165.742188 L 254.667969 173.433594 C 254.628906 174.105469 254.328125 174.625 253.769531 175 L 187.820312 213.070312 C 187.320312 213.363281 186.914062 213.132812 186.914062 212.550781 L 186.914062 204.855469 C 186.953125 204.179688 187.253906 203.660156 187.820312 203.292969 Z M 187.820312 203.292969 " fill-opacity="1" fill-rule="nonzero"/><path fill="rgb(100%, 100%, 100%)" d="M 187.820312 203.292969 L 253.769531 165.21875 C 254.261719 164.929688 254.667969 165.167969 254.667969 165.742188 L 254.667969 173.433594 C 254.628906 174.105469 254.328125 174.625 253.769531 175 L 187.820312 213.070312 C 187.320312 213.363281 186.914062 213.132812 186.914062 212.550781 L 186.914062 204.855469 C 186.953125 204.179688 187.253906 203.660156 187.820312 203.292969 Z M 187.820312 203.292969 " fill-opacity="0.2" fill-rule="nonzero"/><path fill="rgb(65.098572%, 13.729858%, 40.388489%)" d="M 214.125 207.660156 L 240.1875 192.636719 C 241.230469 192.054688 242 192.523438 242 193.679688 L 242 201.726562 C 241.964844 202.363281 241.789062 202.957031 241.46875 203.507812 C 241.148438 204.0625 240.722656 204.507812 240.1875 204.855469 L 214.125 219.886719 C 213.082031 220.460938 212.320312 219.992188 212.320312 218.847656 L 212.320312 210.789062 C 212.355469 210.152344 212.535156 209.5625 212.851562 209.011719 C 213.167969 208.460938 213.59375 208.007812 214.125 207.660156 Z M 214.125 207.660156 " fill-opacity="1" fill-rule="nonzero"/><path fill="rgb(0%, 0%, 0%)" d="M 214.125 207.660156 L 240.1875 192.636719 C 241.230469 192.054688 242 192.523438 242 193.679688 L 242 201.726562 C 241.964844 202.363281 241.789062 202.957031 241.46875 203.507812 C 241.148438 204.0625 240.722656 204.507812 240.1875 204.855469 L 214.125 219.886719 C 213.082031 220.460938 212.320312 219.992188 212.320312 218.847656 L 212.320312 210.789062 C 212.355469 210.152344 212.535156 209.5625 212.851562 209.011719 C 213.167969 208.460938 213.59375 208.007812 214.125 207.660156 Z M 214.125 207.660156 " fill-opacity="0.098" fill-rule="nonzero"/><path fill="rgb(100%, 65.879822%, 65.489197%)" d="M 275.839844 173.695312 C 275.839844 173.695312 263.039062 156.035156 262.289062 153.886719 C 261.691406 152.304688 262.289062 149.945312 262.476562 148.851562 C 262.664062 147.757812 262.828125 145.320312 263.015625 144.683594 C 263.328125 143.492188 261.796875 143.734375 260.933594 144.816406 C 260.066406 145.902344 259.773438 148.070312 259.328125 148.425781 C 258.878906 148.78125 255.46875 143.808594 253.6875 141.511719 C 251.902344 139.21875 250.789062 137.824219 249.695312 138.675781 C 248.910156 139.292969 249.496094 140.628906 250.789062 142.585938 C 251.542969 143.644531 252.238281 144.738281 252.875 145.871094 C 253.070312 146.296875 252.007812 146.328125 251.433594 147.214844 C 250.988281 147.902344 251.433594 149.019531 250.808594 149.550781 C 250.617188 149.699219 250.457031 149.875 250.328125 150.078125 C 250.203125 150.285156 250.113281 150.503906 250.066406 150.742188 C 250.023438 150.980469 250.019531 151.21875 250.0625 151.457031 C 250.101562 151.695312 250.183594 151.917969 250.308594 152.125 C 251.480469 153.964844 252.949219 155.523438 254.71875 156.796875 C 256.636719 158.121094 257.410156 158.589844 258.542969 160.394531 C 259.679688 162.195312 269.875 180.617188 270.566406 181.722656 C 271.253906 182.828125 272.578125 185.078125 274.589844 185.140625 C 276.601562 185.203125 293.074219 171.027344 293.917969 170.316406 C 296.628906 168.054688 297.492188 167.730469 297.953125 169.765625 C 298.109375 170.488281 298.226562 171.21875 298.304688 171.953125 C 298.628906 174.539062 300.390625 183.777344 300.390625 183.777344 C 300.390625 183.777344 308.730469 187.8125 315.578125 185.859375 C 322.429688 183.910156 324.742188 181.003906 324.742188 181.003906 L 321.3125 175.414062 C 322.242188 173.113281 326.527344 163.769531 327.914062 157.234375 L 306.4375 153.761719 C 306 153.667969 305.289062 153.492188 304.351562 153.25 C 303.175781 152.9375 300.183594 151.90625 297.917969 153.886719 C 290.539062 160.320312 275.859375 173.695312 275.859375 173.695312 " fill-opacity="1" fill-rule="nonzero"/><path fill="rgb(21.569824%, 27.839661%, 30.979919%)" d="M 318.414062 282.050781 L 314.570312 287.402344 C 316.339844 288.226562 318.203125 288.628906 320.15625 288.601562 C 323.605469 288.726562 324.554688 287.558594 324.679688 287.328125 C 325.265625 286.078125 324.359375 283.824219 324.109375 281.886719 Z M 318.414062 282.050781 " fill-opacity="1" fill-rule="nonzero"/><path fill="rgb(21.569824%, 27.839661%, 30.979919%)" d="M 314.789062 284.835938 C 314.789062 284.835938 310.117188 284.535156 306.894531 284.136719 C 303.675781 283.742188 301.121094 285.304688 301.871094 286.628906 C 302.621094 287.953125 304.40625 289.058594 307.175781 289.984375 C 309.542969 290.789062 312.390625 291.363281 314.851562 292.070312 C 317.308594 292.78125 319.019531 293.707031 320.449219 293.207031 C 322.042969 292.65625 322.730469 292.019531 322.597656 290.851562 C 322.246094 289.191406 321.816406 287.550781 321.304688 285.929688 Z M 314.789062 284.835938 " fill-opacity="1" fill-rule="nonzero"/><path fill="rgb(94.898987%, 56.079102%, 56.079102%)" d="M 324.679688 276.683594 C 324.679688 276.683594 324.097656 281.542969 324.054688 282.585938 C 324.015625 283.625 319.3125 283.960938 318.414062 282.050781 L 318.269531 276.109375 Z M 324.679688 276.683594 " fill-opacity="1" fill-rule="nonzero"/><path fill="rgb(100%, 65.879822%, 65.489197%)" d="M 319.949219 279.664062 L 321.625 287.046875 C 321.625 287.046875 321.78125 287.941406 317.945312 288.515625 C 314.109375 289.089844 308.085938 286.503906 307.050781 285.984375 C 306.019531 285.460938 305.90625 284.410156 309.679688 284.617188 C 313.453125 284.824219 314.789062 284.835938 314.789062 284.835938 L 313.558594 281.574219 Z M 319.949219 279.664062 " fill-opacity="1" fill-rule="nonzero"/><path fill="rgb(94.898987%, 56.079102%, 56.079102%)" d="M 327.851562 157.171875 L 330.507812 156.429688 C 330.507812 156.429688 336.066406 174.019531 336.679688 175.71875 C 337.296875 177.417969 337.992188 179.210938 336.792969 181.304688 C 335.367188 183.796875 327.851562 193.816406 327.851562 193.816406 L 323.074219 189.144531 L 328.496094 179.21875 L 323.699219 169.523438 Z M 327.851562 157.171875 " fill-opacity="1" fill-rule="nonzero"/><path fill="rgb(21.569824%, 27.839661%, 30.979919%)" d="M 300.546875 134.332031 C 300.234375 133.746094 300 133.132812 299.847656 132.488281 C 299.691406 131.84375 299.617188 131.1875 299.628906 130.527344 C 299.636719 129.863281 299.730469 129.210938 299.90625 128.574219 C 300.082031 127.933594 300.332031 127.328125 300.660156 126.75 C 303.308594 121.839844 309.210938 119.453125 316.238281 120.359375 C 319.488281 120.789062 323.324219 123.488281 325.421875 127.523438 C 327.734375 131.996094 327.953125 141.003906 328.546875 144.410156 Z M 300.546875 134.332031 " fill-opacity="1" fill-rule="nonzero"/><path fill="rgb(100%, 65.879822%, 65.489197%)" d="M 300.359375 136.257812 C 300.359375 136.257812 298.691406 139.4375 298.984375 139.730469 C 299.417969 139.984375 299.882812 140.160156 300.378906 140.25 Z M 300.359375 136.257812 " fill-opacity="1" fill-rule="nonzero"/><path fill="rgb(100%, 65.879822%, 65.489197%)" d="M 305.425781 126.210938 C 303.613281 127.386719 300.484375 129.554688 300.347656 136.695312 C 300.203125 143.996094 301.246094 146.402344 302.328125 147.246094 C 303.058594 147.820312 307.34375 147.527344 309.179688 147.101562 C 311.015625 146.671875 316.300781 144.058594 318.207031 140.085938 C 320.449219 135.414062 319.988281 128.617188 316.664062 126.53125 C 315.816406 126.03125 314.921875 125.644531 313.976562 125.371094 C 313.035156 125.097656 312.070312 124.949219 311.085938 124.921875 C 310.105469 124.890625 309.132812 124.988281 308.175781 125.207031 C 307.214844 125.421875 306.300781 125.757812 305.425781 126.210938 Z M 305.425781 126.210938 " fill-opacity="1" fill-rule="nonzero"/><path fill="rgb(65.098572%, 13.729858%, 40.388489%)" d="M 324.679688 180.960938 C 327.890625 185.964844 330.9375 190.34375 331.601562 195.996094 C 332.980469 207.867188 328.476562 221.441406 327.507812 230.230469 C 329.371094 232.785156 330.378906 235.640625 330.53125 238.800781 C 330.53125 242.4375 324.679688 276.683594 324.679688 276.683594 C 324.679688 276.683594 320.425781 277.976562 318.269531 276.109375 L 314.257812 213.113281 L 316.339844 205.4375 Z M 324.679688 180.960938 " fill-opacity="1" fill-rule="nonzero"/><path fill="rgb(0%, 0%, 0%)" d="M 324.679688 180.960938 C 327.890625 185.964844 330.9375 190.34375 331.601562 195.996094 C 332.980469 207.867188 328.476562 221.441406 327.507812 230.230469 C 329.371094 232.785156 330.378906 235.640625 330.53125 238.800781 C 330.53125 242.4375 324.679688 276.683594 324.679688 276.683594 C 324.679688 276.683594 320.425781 277.976562 318.269531 276.109375 L 314.257812 213.113281 L 316.339844 205.4375 Z M 324.679688 180.960938 " fill-opacity="0.2" fill-rule="nonzero"/><path fill="rgb(65.098572%, 13.729858%, 40.388489%)" d="M 314.257812 213.113281 L 316.339844 205.4375 C 320.347656 204.382812 324.171875 202.867188 327.808594 200.882812 C 327.808594 200.882812 325.640625 204.835938 319.40625 207.003906 L 316.183594 216.855469 L 315.914062 239.425781 Z M 314.257812 213.113281 " fill-opacity="1" fill-rule="nonzero"/><path fill="rgb(0%, 0%, 0%)" d="M 314.257812 213.113281 L 316.339844 205.4375 C 320.347656 204.382812 324.171875 202.867188 327.808594 200.882812 C 327.808594 200.882812 325.640625 204.835938 319.40625 207.003906 L 316.183594 216.855469 L 315.914062 239.425781 Z M 314.257812 213.113281 " fill-opacity="0.298" fill-rule="nonzero"/><path fill="rgb(65.098572%, 13.729858%, 40.388489%)" d="M 324.679688 180.960938 C 326.402344 183.777344 330.507812 188.570312 329.632812 193.191406 C 328.589844 198.777344 325.566406 202.707031 316.371094 205.4375 L 307.742188 236.714844 C 307.742188 236.714844 312.234375 240.882812 313.609375 244.917969 C 314.984375 248.953125 319.949219 279.6875 319.949219 279.6875 C 319.949219 279.6875 318.40625 282.199219 313.558594 281.59375 C 313.558594 281.59375 296.660156 243.023438 295.46875 240.507812 C 294.75 239.238281 294.265625 237.878906 294.019531 236.4375 C 293.773438 234.996094 293.78125 233.554688 294.042969 232.117188 C 294.574219 228.070312 300.296875 183.796875 300.296875 183.796875 Z M 324.679688 180.960938 " fill-opacity="1" fill-rule="nonzero"/><path fill="rgb(0%, 0%, 0%)" d="M 324.679688 180.960938 C 326.402344 183.777344 330.507812 188.570312 329.632812 193.191406 C 328.589844 198.777344 325.566406 202.707031 316.371094 205.4375 L 307.742188 236.714844 C 307.742188 236.714844 312.234375 240.882812 313.609375 244.917969 C 314.984375 248.953125 319.949219 279.6875 319.949219 279.6875 C 319.949219 279.6875 318.40625 282.199219 313.558594 281.59375 C 313.558594 281.59375 296.660156 243.023438 295.46875 240.507812 C 294.75 239.238281 294.265625 237.878906 294.019531 236.4375 C 293.773438 234.996094 293.78125 233.554688 294.042969 232.117188 C 294.574219 228.070312 300.296875 183.796875 300.296875 183.796875 Z M 324.679688 180.960938 " fill-opacity="0.2" fill-rule="nonzero"/><path fill="rgb(65.098572%, 13.729858%, 40.388489%)" d="M 327.851562 157.171875 L 306.375 153.699219 C 305.9375 153.605469 305.226562 153.429688 304.289062 153.1875 C 304.289062 153.1875 303.371094 166.660156 297.855469 169.746094 C 297.992188 170.390625 298.109375 171.109375 298.210938 171.933594 C 298.535156 174.519531 300.296875 183.753906 300.296875 183.753906 C 300.296875 183.753906 308.636719 187.789062 315.484375 185.839844 C 322.335938 183.890625 324.648438 180.980469 324.648438 180.980469 L 321.21875 175.394531 C 322.179688 173.070312 326.496094 163.730469 327.851562 157.171875 Z M 327.851562 157.171875 " fill-opacity="1" fill-rule="nonzero"/><path fill="rgb(100%, 100%, 100%)" d="M 327.851562 157.171875 L 306.375 153.699219 C 305.9375 153.605469 305.226562 153.429688 304.289062 153.1875 C 304.289062 153.1875 303.371094 166.660156 297.855469 169.746094 C 297.992188 170.390625 298.109375 171.109375 298.210938 171.933594 C 298.535156 174.519531 300.296875 183.753906 300.296875 183.753906 C 300.296875 183.753906 308.636719 187.789062 315.484375 185.839844 C 322.335938 183.890625 324.648438 180.980469 324.648438 180.980469 L 321.21875 175.394531 C 322.179688 173.070312 326.496094 163.730469 327.851562 157.171875 Z M 327.851562 157.171875 " fill-opacity="0.698" fill-rule="nonzero"/><path fill="rgb(65.098572%, 13.729858%, 40.388489%)" d="M 322.1875 173.175781 C 319.332031 174.890625 316.355469 176.359375 313.253906 177.582031 C 316.109375 177.527344 318.773438 176.789062 321.25 175.375 Z M 322.1875 173.175781 " fill-opacity="1" fill-rule="nonzero"/><path fill="rgb(21.569824%, 27.839661%, 30.979919%)" d="M 304.894531 126.5625 C 304.894531 126.5625 303.851562 133.339844 306.3125 137.324219 C 306.3125 137.324219 307.230469 134.621094 309.511719 135.132812 C 311.796875 135.644531 311.921875 138.65625 310.316406 140.34375 C 309.898438 140.828125 309.386719 141.164062 308.777344 141.351562 C 308.167969 141.542969 307.554688 141.554688 306.9375 141.386719 C 306.9375 141.386719 306.574219 146.289062 306.375 150.394531 C 306.175781 154.503906 305.09375 163.457031 309.710938 167.074219 C 314.328125 170.691406 325.921875 171.964844 331.351562 164.375 C 334.375 160.152344 330.363281 152.6875 328.496094 144.316406 C 326.777344 136.625 325.808594 125.21875 317.644531 123.382812 C 309.480469 121.550781 304.894531 126.5625 304.894531 126.5625 Z M 304.894531 126.5625 " fill-opacity="1" fill-rule="nonzero"/><path fill="rgb(92.158508%, 92.158508%, 92.158508%)" d="M 334.84375 33.980469 L 333.125 35.023438 C 333.269531 34.410156 333.351562 33.785156 333.363281 33.15625 C 333.363281 29.664062 330.914062 28.257812 327.890625 30.027344 C 326.964844 30.585938 326.15625 31.28125 325.460938 32.113281 C 325.460938 27.421875 322.167969 25.515625 318.101562 27.859375 C 317.03125 28.558594 316.054688 29.371094 315.175781 30.300781 C 314.296875 31.230469 313.539062 32.246094 312.898438 33.355469 C 312.257812 34.460938 311.757812 35.628906 311.394531 36.855469 C 311.027344 38.082031 310.8125 39.332031 310.742188 40.609375 C 310.742188 40.847656 310.742188 41.078125 310.742188 41.308594 C 309.660156 41.171875 308.664062 41.402344 307.75 41.996094 C 306.953125 42.515625 306.230469 43.121094 305.574219 43.808594 C 304.921875 44.5 304.355469 45.257812 303.882812 46.078125 C 303.40625 46.902344 303.03125 47.769531 302.761719 48.683594 C 302.492188 49.59375 302.328125 50.523438 302.277344 51.472656 C 302.277344 51.914062 302.324219 52.351562 302.414062 52.785156 L 301.496094 53.316406 C 299.003906 54.757812 296.980469 57.5625 296.980469 59.574219 C 296.980469 61.585938 299.003906 62.0625 301.496094 60.617188 L 334.855469 41.382812 C 337.347656 39.941406 339.371094 37.136719 339.371094 35.125 C 339.371094 33.113281 337.335938 32.53125 334.84375 33.980469 Z M 334.84375 33.980469 " fill-opacity="1" fill-rule="nonzero"/></svg>