<svg width="22" height="23" viewBox="0 0 22 23" fill="none" xmlns="http://www.w3.org/2000/svg">
<path d="M12.9435 3.83335L14.621 5.75002H18.3335V17.25H3.66683V5.75002H7.37933L9.05683 3.83335H12.9435ZM13.7502 1.91669H8.25016L6.57266 3.83335H3.66683C2.6585 3.83335 1.8335 4.69585 1.8335 5.75002V17.25C1.8335 18.3042 2.6585 19.1667 3.66683 19.1667H18.3335C19.3418 19.1667 20.1668 18.3042 20.1668 17.25V5.75002C20.1668 4.69585 19.3418 3.83335 18.3335 3.83335H15.4277L13.7502 1.91669ZM11.0002 8.62502C12.5127 8.62502 13.7502 9.91877 13.7502 11.5C13.7502 13.0813 12.5127 14.375 11.0002 14.375C9.48766 14.375 8.25016 13.0813 8.25016 11.5C8.25016 9.91877 9.48766 8.62502 11.0002 8.62502ZM11.0002 6.70835C8.47016 6.70835 6.41683 8.85502 6.41683 11.5C6.41683 14.145 8.47016 16.2917 11.0002 16.2917C13.5302 16.2917 15.5835 14.145 15.5835 11.5C15.5835 8.85502 13.5302 6.70835 11.0002 6.70835Z" fill="black"/>
</svg>
