<svg width="1157" height="1098" viewBox="0 0 1157 1098" fill="none" xmlns="http://www.w3.org/2000/svg">
<g filter="url(#filter0_d_262_676)">
<path d="M307.314 924.682C476.42 1009.28 750.58 1009.3 919.686 924.682C1088.79 840.061 1088.77 702.914 919.686 618.319C750.605 533.723 476.42 533.723 307.314 618.319C138.209 702.914 138.234 840.086 307.314 924.682Z" fill="#F5F5F5"/>
<path d="M919.097 862.163C950.242 862.163 975.49 849.534 975.49 833.955C975.49 818.377 950.242 805.748 919.097 805.748C887.952 805.748 862.704 818.377 862.704 833.955C862.704 849.534 887.952 862.163 919.097 862.163Z" fill="#EBEBEB"/>
<path d="M294.48 838L314.431 825.918C325.57 816.376 334.049 803.854 338.971 789.674C345.131 771.848 344.272 758.298 339.854 751.498C334.431 743.126 320.37 744.594 319.805 762.214C318.627 796.938 308.983 821.024 294.48 838Z" fill="#13A2CF"/>
<path opacity="0.2" d="M294.48 838L314.431 825.918C325.57 816.376 334.049 803.854 338.971 789.674C345.131 771.848 344.272 758.298 339.854 751.498C334.431 743.126 320.37 744.594 319.805 762.214C318.627 796.938 308.983 821.024 294.48 838Z" fill="black"/>
<path d="M294.48 839.288C294.22 839.284 293.968 839.195 293.76 839.031C293.552 838.868 293.399 838.639 293.322 838.379C293.246 838.118 293.25 837.839 293.335 837.581C293.419 837.323 293.58 837.1 293.793 836.944C339.928 803.456 330.996 756.753 330.897 756.289C330.864 756.12 330.862 755.945 330.892 755.775C330.923 755.606 330.985 755.444 331.075 755.299C331.165 755.154 331.281 755.03 331.417 754.932C331.553 754.834 331.706 754.766 331.867 754.731C332.028 754.695 332.194 754.693 332.356 754.725C332.518 754.757 332.672 754.822 332.81 754.916C332.948 755.011 333.066 755.133 333.159 755.276C333.252 755.418 333.318 755.579 333.351 755.748C333.351 756.237 342.775 804.537 295.265 839.056C295.035 839.221 294.759 839.303 294.48 839.288Z" fill="white"/>
<path d="M254.504 862.24C254.504 862.24 247.56 856.315 249.228 848.278C250.897 840.241 255.388 834.471 247.707 824.115C240.026 813.76 237.891 799.952 247.069 792.482C254.063 786.686 264.983 794.878 268.909 779.602C271.805 768.422 270.823 743.667 284.394 735.424C297.965 727.18 306.48 739.597 304.345 756.392C302.48 771.41 299.83 785.862 301.891 789.88C305.867 797.608 312.664 796.552 312.345 810.669C312.075 823.806 300.222 834.677 300.222 834.677L254.504 862.24Z" fill="#13A2CF"/>
<path d="M277.302 849.643C277.002 849.64 276.713 849.524 276.488 849.316C276.263 849.108 276.116 848.822 276.075 848.51C272.566 817.984 280.983 765.279 287.854 749.617C287.912 749.443 288.005 749.285 288.126 749.152C288.247 749.019 288.394 748.915 288.557 748.846C288.72 748.778 288.894 748.747 289.069 748.756C289.245 748.764 289.416 748.812 289.572 748.896C289.718 748.965 289.85 749.064 289.96 749.188C290.069 749.312 290.153 749.457 290.208 749.615C290.263 749.774 290.287 749.942 290.279 750.111C290.271 750.279 290.231 750.444 290.161 750.596C283.363 766.052 275.241 818.912 278.603 848.098C278.637 848.436 278.543 848.774 278.341 849.039C278.138 849.305 277.844 849.476 277.523 849.514L277.302 849.643Z" fill="white"/>
<path d="M276.639 825.867C276.452 825.876 276.265 825.832 276.1 825.738C267.584 821.385 262.185 805.851 261.965 805.13C261.904 804.97 261.875 804.799 261.879 804.626C261.883 804.454 261.92 804.285 261.988 804.128C262.055 803.971 262.152 803.83 262.273 803.713C262.393 803.596 262.534 803.505 262.689 803.447C262.843 803.388 263.007 803.363 263.171 803.372C263.335 803.381 263.495 803.424 263.643 803.499C263.79 803.575 263.922 803.68 264.03 803.81C264.138 803.94 264.22 804.091 264.271 804.254C264.271 804.409 269.547 819.453 277.179 823.342C277.43 823.47 277.631 823.682 277.751 823.946C277.871 824.209 277.903 824.508 277.84 824.792C277.777 825.077 277.624 825.33 277.406 825.512C277.188 825.693 276.918 825.791 276.639 825.79V825.867Z" fill="white"/>
<path d="M276.492 836.171C276.246 836.171 276.006 836.092 275.804 835.945C275.603 835.797 275.449 835.589 275.363 835.347C275.241 835.032 275.242 834.68 275.366 834.366C275.491 834.053 275.728 833.803 276.026 833.672C290.357 827.644 299.29 809.741 299.388 809.535C299.538 809.231 299.796 809.002 300.107 808.898C300.418 808.794 300.755 808.824 301.044 808.981C301.334 809.138 301.552 809.41 301.651 809.736C301.75 810.062 301.722 810.416 301.572 810.72C301.179 811.493 292.124 829.679 277.032 836.068C276.864 836.152 276.678 836.187 276.492 836.171Z" fill="white"/>
<path d="M777.427 697.582C777.427 697.582 766.703 679.344 765.648 659.535C764.593 639.725 768.74 631.482 774.433 629.112C780.127 626.742 780.568 634.032 783.489 638.334C786.409 642.636 792.372 640.189 794.581 626.768C796.789 613.347 804.838 590.704 821.575 586.299C839.98 581.508 830.115 604.176 825.477 613.012C820.839 621.848 817.256 633.903 820.299 637.175C823.342 640.446 828.078 634.393 832.569 640.009C838.041 646.783 821.035 671.178 811.268 677.077L777.427 697.582Z" fill="#13A2CF"/>
<path d="M792.127 689.931C791.965 689.925 791.807 689.885 791.661 689.814C791.514 689.743 791.382 689.642 791.273 689.518C791.164 689.394 791.079 689.248 791.023 689.089C790.967 688.93 790.942 688.761 790.949 688.592C792.61 656.726 802.077 625.849 818.434 598.947C818.526 598.807 818.645 598.688 818.783 598.597C818.92 598.507 819.074 598.446 819.235 598.42C819.395 598.393 819.559 598.401 819.717 598.443C819.874 598.485 820.022 598.56 820.151 598.664C820.408 598.864 820.581 599.162 820.631 599.495C820.682 599.827 820.606 600.166 820.421 600.441C804.357 626.949 795.061 657.35 793.427 688.721C793.418 688.89 793.377 689.056 793.306 689.208C793.236 689.361 793.137 689.497 793.016 689.609C792.896 689.722 792.755 689.808 792.602 689.864C792.449 689.919 792.288 689.942 792.127 689.931Z" fill="white"/>
<path d="M793.525 674.707C793.32 674.705 793.118 674.652 792.937 674.552C786.065 670.56 782.262 658.71 782.114 658.221C782.06 658.06 782.037 657.89 782.046 657.72C782.055 657.55 782.096 657.383 782.167 657.23C782.238 657.076 782.337 656.939 782.458 656.826C782.58 656.713 782.721 656.627 782.875 656.572C783.184 656.466 783.521 656.494 783.811 656.648C784.1 656.803 784.32 657.072 784.421 657.396C784.421 657.396 788.102 668.808 794.237 672.286C794.515 672.458 794.719 672.737 794.806 673.063C794.893 673.389 794.856 673.739 794.703 674.037C794.592 674.259 794.421 674.441 794.212 674.56C794.002 674.68 793.763 674.731 793.525 674.707Z" fill="white"/>
<path d="M794.728 666.902C794.456 666.899 794.193 666.801 793.98 666.624C793.766 666.447 793.615 666.2 793.55 665.923C793.51 665.761 793.501 665.591 793.523 665.425C793.546 665.259 793.6 665.099 793.683 664.955C793.765 664.811 793.874 664.686 794.003 664.587C794.131 664.488 794.278 664.416 794.433 664.377C812.151 659.663 818.286 649.926 818.335 649.823C818.422 649.679 818.536 649.555 818.668 649.457C818.801 649.359 818.951 649.29 819.109 649.253C819.268 649.215 819.432 649.211 819.591 649.241C819.751 649.27 819.904 649.332 820.041 649.424C820.178 649.515 820.296 649.634 820.39 649.773C820.483 649.913 820.549 650.07 820.584 650.236C820.62 650.402 820.623 650.574 820.595 650.742C820.567 650.91 820.508 651.07 820.421 651.214C820.151 651.652 813.771 661.879 795.047 666.876L794.728 666.902Z" fill="white"/>
<path d="M510.432 657.551C510.432 657.551 486.898 651.523 485.671 605.258C484.371 555.335 491.438 497.066 463.585 492.352C435.732 487.638 420.272 523.264 420.616 564.867C420.935 601.291 434.922 680.374 510.334 695.882L510.432 657.551Z" fill="#13A2CF"/>
<path opacity="0.2" d="M510.432 657.551C510.432 657.551 486.898 651.523 485.671 605.258C484.371 555.335 491.438 497.066 463.585 492.352C435.732 487.638 420.272 523.264 420.616 564.867C420.935 601.291 434.922 680.374 510.334 695.882L510.432 657.551Z" fill="black"/>
<path d="M510.432 691.142H510.211C493.254 687.896 479.438 678.082 469.156 662.007C438.677 614.274 448.272 525.145 451.438 509.586C451.509 509.254 451.699 508.964 451.969 508.777C452.239 508.59 452.567 508.519 452.886 508.581C453.203 508.661 453.48 508.866 453.658 509.153C453.836 509.441 453.902 509.789 453.843 510.127C450.726 525.583 441.18 613.579 471.192 660.565C475.561 667.851 481.325 674.105 488.118 678.93C494.911 683.755 502.585 687.045 510.653 688.592C510.813 688.623 510.966 688.687 511.102 688.78C511.238 688.873 511.356 688.994 511.447 689.136C511.538 689.277 511.602 689.436 511.634 689.604C511.666 689.771 511.666 689.944 511.634 690.112C511.582 690.405 511.433 690.669 511.213 690.858C510.993 691.046 510.716 691.147 510.432 691.142Z" fill="white"/>
<path d="M510.432 809.87C486.113 813.322 446.628 813.27 423.83 794.414C401.033 775.558 405.793 759.329 414.554 752.554C423.315 745.779 430.922 738.051 415.855 723.007C400.787 707.963 376.591 683.8 368.738 647.556C360.885 611.312 364.763 588.643 380.174 581.095C395.119 573.78 399.07 585.423 408.223 609.431C417.376 633.44 437.965 612.857 455.585 620.354C473.205 627.85 472.493 642.688 473.597 655.439C474.702 668.19 480.518 671.719 490.506 671.719C500.493 671.719 510.432 677.747 510.432 689.751V809.87Z" fill="#13A2CF"/>
<path d="M510.432 767.778C510.327 767.803 510.218 767.803 510.113 767.778C509.058 767.469 483.904 759.792 447.266 724.475C408.247 686.866 389.842 630.452 389.646 629.885C389.552 629.56 389.581 629.21 389.728 628.907C389.874 628.605 390.126 628.374 390.431 628.262C390.737 628.155 391.071 628.179 391.36 628.328C391.65 628.478 391.871 628.741 391.977 629.061C392.149 629.627 410.382 685.423 448.935 722.569C485.058 757.423 510.506 765.228 510.776 765.305C510.93 765.352 511.075 765.431 511.2 765.537C511.326 765.643 511.43 765.774 511.508 765.922C511.585 766.071 511.634 766.233 511.652 766.402C511.669 766.57 511.655 766.74 511.61 766.902C511.53 767.162 511.372 767.388 511.16 767.546C510.948 767.704 510.692 767.786 510.432 767.778Z" fill="white"/>
<path d="M457.499 733.44C457.252 733.444 457.011 733.367 456.808 733.219C456.606 733.071 456.453 732.86 456.37 732.616C448.493 711.389 446.702 665.975 446.554 664.043C446.547 663.703 446.666 663.373 446.886 663.123C447.106 662.874 447.409 662.723 447.732 662.703C448.053 662.708 448.36 662.837 448.596 663.065C448.831 663.293 448.978 663.605 449.008 663.94C449.008 664.403 450.849 710.849 458.579 731.688C458.638 731.847 458.667 732.017 458.663 732.187C458.659 732.358 458.623 732.526 458.557 732.682C458.49 732.837 458.395 732.978 458.277 733.095C458.159 733.212 458.019 733.303 457.867 733.363C457.749 733.407 457.625 733.433 457.499 733.44Z" fill="white"/>
<path d="M457.303 763.966C455.04 763.984 452.779 763.864 450.53 763.605C450.369 763.585 450.213 763.531 450.072 763.448C449.93 763.364 449.806 763.252 449.705 763.118C449.605 762.984 449.531 762.831 449.487 762.667C449.443 762.503 449.431 762.331 449.45 762.162C449.469 761.993 449.52 761.83 449.6 761.681C449.679 761.533 449.786 761.402 449.914 761.297C450.041 761.192 450.187 761.114 450.344 761.068C450.5 761.022 450.663 761.009 450.824 761.029C451.045 761.029 473.892 763.759 484.371 752.554C484.48 752.418 484.614 752.308 484.766 752.23C484.918 752.151 485.083 752.106 485.252 752.098C485.421 752.09 485.59 752.119 485.747 752.183C485.905 752.246 486.049 752.343 486.169 752.468C486.29 752.592 486.384 752.742 486.447 752.907C486.51 753.071 486.54 753.248 486.534 753.425C486.529 753.603 486.489 753.777 486.416 753.937C486.344 754.098 486.24 754.241 486.113 754.357C478.53 762.574 465.303 763.966 457.303 763.966Z" fill="white"/>
<path d="M439.634 276.174L436.984 260.126L423.34 269.554C422.093 266.978 420.326 264.719 418.162 262.934L424.689 244.386L412.419 241.527L403.438 259.559C400.188 260.135 397.038 261.211 394.088 262.753L390.186 249.152L375.609 261.182L376.566 277.153C373.598 280.644 370.906 284.383 368.517 288.333L356.493 287.689L348.051 307.55L358.382 312.187C357.304 316.295 356.621 320.506 356.345 324.758L343.216 337.432L345.842 353.506L359.511 344.078C360.751 346.651 362.519 348.904 364.689 350.672L358.284 369.245L370.554 372.079L383.413 358.941C386.382 358.452 385.646 352.578 388.885 350.904L392.787 364.454L407.34 352.45L406.971 346.164C409.916 342.712 421.057 335.113 423.462 331.146L426.481 325.994L434.922 306.133L430.996 298.663L426.628 288.925L439.634 276.174ZM395.094 329.008C383.904 338.23 380.37 340.265 378.48 327.926C376.591 315.587 382.996 296.834 394.186 287.586C405.376 278.338 409.646 277.694 411.659 290.007C413.671 302.321 406.309 319.889 395.094 329.008Z" fill="#E0E0E0"/>
<path d="M412.517 241.527L428.444 251.161L419.462 269.142L403.536 259.508L412.517 241.527Z" fill="#F5F5F5"/>
<path d="M452.91 269.76L439.266 279.188L423.34 269.554L436.984 260.126L452.91 269.76Z" fill="#F5F5F5"/>
<path d="M450.726 315.69L440.395 311.079L424.468 301.445L434.8 306.056L450.726 315.69Z" fill="#E0E0E0"/>
<path d="M358.259 369.245L374.186 378.854L380.714 360.306L364.787 350.672L358.259 369.245Z" fill="#E0E0E0"/>
<path d="M408.566 374.088L392.665 364.454L388.763 350.904L404.689 360.538L408.566 374.088Z" fill="#E0E0E0"/>
<path d="M455.536 285.809L452.91 269.76L439.266 279.188C438.01 276.611 436.235 274.352 434.064 272.568L440.591 254.021L428.444 251.161L419.438 269.193C416.188 269.769 413.038 270.845 410.088 272.388L406.211 258.838L391.634 270.868L392.591 286.839C389.619 290.354 386.927 294.119 384.542 298.096L372.493 297.452L364.051 317.313L374.382 321.95C373.313 326.069 372.631 330.288 372.345 334.546L359.241 347.04L361.867 363.114L375.511 353.686C376.767 356.256 378.543 358.506 380.714 360.281L374.186 378.828L386.456 381.687L395.438 363.655C398.7 363.086 401.86 362 404.812 360.435L408.689 373.985L423.266 361.981L422.309 346.01C425.277 342.519 427.969 338.78 430.358 334.83L442.407 335.448L450.849 315.587L440.37 310.976C441.457 306.86 442.147 302.64 442.432 298.379L455.536 285.809ZM411.045 338.745C399.879 347.967 389.18 345.469 387.143 333.155C385.106 320.842 392.542 303.351 403.732 294.129C414.922 284.907 425.597 287.431 427.634 299.745C429.671 312.058 422.235 329.523 411.045 338.745Z" fill="#EBEBEB"/>
<path d="M406.211 258.786L390.284 249.152L375.707 261.182L391.634 270.816L406.211 258.786Z" fill="#F5F5F5"/>
<path d="M375.707 261.182L376.664 277.153L392.591 286.787L391.634 270.816L375.707 261.182Z" fill="#E0E0E0"/>
<path d="M384.542 297.967L368.615 288.333L356.591 287.715L372.493 297.349L384.542 297.967Z" fill="#F5F5F5"/>
<path d="M356.591 287.715L348.149 307.55L364.051 317.184L372.493 297.349L356.591 287.715Z" fill="#E0E0E0"/>
<path d="M372.345 334.392L356.444 324.758L343.315 337.432L359.217 347.066L372.345 334.392Z" fill="#F5F5F5"/>
<path d="M361.867 363.14L345.94 353.506L343.315 337.432L359.217 347.066L361.867 363.14Z" fill="#E0E0E0"/>
<path d="M428.444 251.161L412.517 241.527L424.689 244.386L440.591 254.021L428.444 251.161Z" fill="#F5F5F5"/>
<path d="M368.321 203.325V179.342L350.137 187.946C349.174 183.877 347.51 180.027 345.229 176.586L356.689 152.346L342.701 143.871L328.419 166.411C324.439 166.046 320.429 166.456 316.591 167.622L314.578 146.782L294.799 158.786L292.811 181.97C288.507 185.974 284.548 190.37 280.983 195.107L266.701 189.955L252.713 215.406L264.149 225.71C262.036 231.32 260.393 237.112 259.241 243.021L241.056 256.442V280.45L259.241 271.847C260.204 275.915 261.867 279.765 264.149 283.207L252.762 307.473L266.75 315.948L281.032 293.408C285.012 293.771 289.022 293.361 292.86 292.197L294.848 313.037L314.627 301.033L316.64 277.849C322.813 275.484 328.282 271.45 332.492 266.154L342.75 269.94L356.738 244.515L348.149 236.787C350.014 230.343 350.705 223.588 350.186 216.875L368.321 203.325ZM304.689 263.243C289.523 272.439 280.149 265.819 280.149 247.503C280.149 229.188 292.689 206.545 307.879 197.349C323.069 188.152 332.247 194.773 332.247 213.243C332.247 231.712 319.879 254.021 304.689 263.243Z" fill="#E0E0E0"/>
<path d="M358.603 153.479L342.701 143.871L328.419 166.411L344.321 176.045L358.603 153.479Z" fill="#F5F5F5"/>
<path d="M384.247 188.977L368.321 179.342L350.137 187.946L366.063 197.58L384.247 188.977Z" fill="#F5F5F5"/>
<path d="M310.701 322.671L294.799 313.037L292.811 292.197L308.713 301.831L310.701 322.671Z" fill="#E0E0E0"/>
<path d="M252.688 307.473L268.615 317.107L280.075 292.867L264.149 283.232L252.688 307.473Z" fill="#E0E0E0"/>
<path d="M384.247 213.088V189.105L366.063 197.632C365.11 193.559 363.446 189.708 361.155 186.272L372.615 162.032L358.628 153.531L344.345 176.097C340.365 175.719 336.353 176.13 332.517 177.307L330.505 156.416L310.725 168.42L308.713 191.604C304.415 195.615 300.457 200.011 296.885 204.742L282.603 199.59L268.615 225.041L280.075 235.345C277.951 240.95 276.308 246.743 275.167 252.655L256.983 266.076V290.085L275.167 281.481C276.12 285.554 277.784 289.405 280.075 292.841L268.615 317.081L282.603 325.556L296.885 303.016C300.865 303.381 304.875 302.971 308.713 301.805L310.725 322.645L330.505 310.641L332.492 287.457C336.797 283.453 340.755 279.057 344.321 274.319L358.603 279.471L372.591 254.046L361.131 243.742C363.254 238.137 364.897 232.344 366.039 226.432L384.247 213.088ZM320.615 273.006C305.425 282.202 293.106 274.732 293.106 256.339C293.106 237.946 305.376 215.561 320.615 206.339C335.854 197.117 348.1 204.613 348.1 223.006C348.1 241.398 335.781 263.655 320.615 272.877V273.006Z" fill="#EBEBEB"/>
<path d="M280.983 195.159L296.885 204.793L282.603 199.564L266.701 189.904L280.983 195.159Z" fill="#F0F0F0"/>
<path d="M266.699 189.93L252.707 215.39L268.629 225.031L282.62 199.572L266.699 189.93Z" fill="#F5F5F5"/>
<path d="M252.688 215.355L268.615 224.989L280.075 235.345L264.149 225.736L252.688 215.355Z" fill="#E0E0E0"/>
<path d="M259.241 243.047L275.167 252.681L256.983 266.102L241.056 256.468L259.241 243.047Z" fill="#F5F5F5"/>
<path d="M241.056 256.468L256.983 266.102V290.11L241.056 280.476V256.468Z" fill="#E0E0E0"/>
<path d="M330.505 156.416L314.578 146.782L294.799 158.786L310.701 168.42L330.505 156.416Z" fill="#F5F5F5"/>
<path d="M534.678 844.337L765.354 704.512C765.862 704.324 766.302 703.976 766.613 703.514C766.925 703.053 767.092 702.501 767.092 701.936C767.092 701.37 766.925 700.819 766.613 700.357C766.302 699.896 765.862 699.547 765.354 699.36L744.028 686.48C742.707 685.782 741.249 685.419 739.771 685.419C738.292 685.419 736.834 685.782 735.513 686.48L504.763 826.176C504.255 826.364 503.815 826.712 503.503 827.174C503.192 827.635 503.025 828.187 503.025 828.752C503.025 829.318 503.192 829.869 503.503 830.331C503.815 830.792 504.255 831.141 504.763 831.328L526.162 844.208C527.473 844.926 528.927 845.311 530.405 845.334C531.884 845.356 533.347 845.015 534.678 844.337Z" fill="#E0E0E0"/>
<path d="M759.022 164.659L551.021 290.729C547.929 292.847 545.356 295.7 543.51 299.056C541.664 302.413 540.597 306.179 540.395 310.049V828.005C540.395 835.115 545.156 838 551.021 834.445L759.022 708.376C762.118 706.262 764.695 703.41 766.541 700.053C768.388 696.695 769.452 692.927 769.648 689.056V171.099C769.648 163.989 764.912 161.104 759.022 164.659Z" fill="#455A64"/>
<path d="M551.021 290.729L759.022 164.659C764.274 161.465 768.617 163.449 769.501 168.987C769.01 165.505 767.823 162.171 766.017 159.205C764.211 156.239 761.827 153.709 759.022 151.779L750.384 146.627C747.091 144.873 743.451 143.96 739.758 143.96C736.066 143.96 732.425 144.873 729.132 146.627L521.107 272.594C517.974 274.656 515.39 277.519 513.598 280.914L543.512 298.946C545.304 295.578 547.889 292.748 551.021 290.729Z" fill="#37474F"/>
<path d="M510.432 809.87C510.633 813.74 511.7 817.506 513.547 820.862C515.393 824.219 517.966 827.072 521.058 829.19L529.72 834.342C532.719 835.916 536 836.808 539.349 836.959C542.698 837.11 546.04 836.517 549.156 835.218C544.248 837.227 540.346 834.265 540.346 827.902V310.049C540.469 306.162 541.542 302.374 543.463 299.049L513.549 281.017C511.655 284.317 510.583 288.064 510.432 291.914V809.87Z" fill="#263238"/>
<path d="M556.739 359.74L753.378 240.6C756.912 238.487 759.758 240.213 759.758 244.464V627.824C759.64 630.147 759.001 632.409 757.892 634.423C756.783 636.438 755.237 638.148 753.378 639.416L556.813 758.556C553.279 760.694 550.432 758.968 550.432 754.692V371.332C550.544 369.016 551.173 366.76 552.268 364.746C553.364 362.732 554.895 361.017 556.739 359.74Z" fill="white"/>
<path d="M655.022 247.323C653.936 248.071 653.033 249.076 652.385 250.257C651.738 251.438 651.363 252.763 651.292 254.124C651.292 256.7 652.96 257.653 655.022 256.391C656.111 255.647 657.017 254.643 657.666 253.461C658.314 252.279 658.686 250.952 658.752 249.59C658.752 247.091 657.083 246.087 655.022 247.323Z" fill="#37474F"/>
<path d="M655.022 717.314C650.732 720.26 647.163 724.225 644.605 728.889C642.047 733.552 640.571 738.783 640.298 744.156C640.298 754.022 646.899 758.041 655.022 753.095C659.31 750.147 662.878 746.182 665.436 741.519C667.994 736.856 669.47 731.626 669.746 726.253C669.795 716.387 663.169 712.368 655.022 717.314Z" fill="#37474F"/>
<path d="M619.709 287.2C617.552 288.702 615.762 290.716 614.483 293.079C613.204 295.442 612.472 298.087 612.347 300.801C612.347 305.798 615.684 307.833 619.709 305.335C621.888 303.846 623.702 301.838 625.003 299.475C626.303 297.111 627.054 294.459 627.193 291.733C627.193 286.736 623.856 284.701 619.709 287.2Z" fill="#37474F"/>
<path d="M638.04 285.499C638.04 288.848 640.494 290.11 643.365 288.333L692.445 258.529C693.966 257.532 695.24 256.173 696.166 254.561C697.091 252.95 697.641 251.132 697.77 249.255C697.77 245.932 695.316 244.67 692.445 246.447L643.365 276.252C641.848 277.246 640.575 278.601 639.65 280.208C638.725 281.814 638.173 283.627 638.04 285.499Z" fill="#37474F"/>
<path d="M527.021 376.329C528.763 377.52 530.212 379.125 531.253 381.013C532.293 382.902 532.895 385.022 533.009 387.2C533.009 391.218 530.334 392.841 527.021 390.832C525.285 389.637 523.842 388.031 522.806 386.142C521.77 384.254 521.171 382.137 521.058 379.961C521.058 375.969 523.733 374.346 527.021 376.329Z" fill="#37474F"/>
<path d="M527.021 424.706C528.763 425.897 530.212 427.502 531.253 429.391C532.293 431.279 532.895 433.399 533.009 435.577C533.009 439.57 530.334 441.193 527.021 439.209C525.285 438.014 523.842 436.408 522.806 434.52C521.77 432.631 521.171 430.514 521.058 428.339C521.058 424.32 523.733 422.697 527.021 424.706Z" fill="#37474F"/>
<path d="M525.156 377.308C526.897 378.499 528.347 380.104 529.388 381.992C530.428 383.881 531.03 386 531.144 388.179C531.144 392.172 528.469 393.794 525.156 391.811C523.415 390.62 521.965 389.015 520.925 387.127C519.884 385.238 519.282 383.119 519.168 380.94C519.193 376.922 521.868 375.376 525.156 377.308Z" fill="#455A64"/>
<path d="M525.156 425.66C526.901 426.853 528.352 428.462 529.393 430.355C530.433 432.249 531.033 434.373 531.144 436.556C531.144 440.549 528.469 442.172 525.156 440.162C523.41 438.976 521.958 437.373 520.917 435.483C519.876 433.593 519.277 431.472 519.168 429.292C519.193 425.299 521.868 423.676 525.156 425.66Z" fill="#455A64"/>
<path d="M799.562 256.597C799.562 252.321 796.716 250.595 793.182 252.733L769.648 266.978L596.617 371.873C594.758 373.14 593.211 374.851 592.102 376.866C590.994 378.88 590.354 381.141 590.236 383.465V766.722C590.236 770.998 593.083 772.724 596.617 770.586L769.722 665.666L793.182 651.446C795.041 650.178 796.587 648.468 797.696 646.453C798.805 644.438 799.444 642.177 799.562 639.854V256.597Z" fill="white"/>
<path d="M802.016 256.597C802.171 255.305 801.959 253.994 801.407 252.828C800.856 251.662 799.989 250.692 798.915 250.041C797.841 249.389 796.608 249.084 795.37 249.165C794.132 249.245 792.944 249.706 791.955 250.492L769.501 264.119L595.389 369.735C593.148 371.22 591.284 373.255 589.959 375.665C588.633 378.075 587.886 380.787 587.782 383.568V766.722C587.684 768.008 587.919 769.298 588.464 770.455C589.008 771.611 589.841 772.591 590.874 773.291C591.753 773.827 592.754 774.103 593.77 774.089C595.208 774.042 596.611 773.607 597.843 772.827L772.078 667.211L794.483 653.635C796.711 652.136 798.565 650.097 799.889 647.69C801.213 645.283 801.967 642.578 802.09 639.802L802.016 256.597ZM769.55 662.806L767.538 664.043L595.488 768.319C595.198 768.552 594.863 768.715 594.507 768.795C594.15 768.875 593.781 768.871 593.426 768.783C593.107 768.577 592.788 767.855 592.788 766.67V383.465C592.915 381.594 593.445 379.779 594.338 378.154C595.231 376.53 596.463 375.14 597.942 374.088L769.82 269.76L794.36 254.845C794.649 254.612 794.984 254.449 795.341 254.369C795.697 254.289 796.066 254.293 796.421 254.381C796.74 254.587 797.059 255.309 797.059 256.494V639.854C796.932 641.724 796.402 643.54 795.51 645.164C794.617 646.788 793.385 648.179 791.906 649.231L769.501 662.806H769.55Z" fill="#13A2CF"/>
<path d="M694.899 345.649C716.985 332.305 734.777 343.073 734.777 369.838C734.777 396.602 716.912 429.086 694.899 442.326C672.887 455.567 655.022 444.902 655.022 418.163C655.022 391.424 672.887 359.018 694.899 345.649Z" fill="#13A2CF"/>
<path d="M694.899 366.669C702.04 362.341 707.832 365.845 707.832 374.397C707.589 379.109 706.292 383.694 704.045 387.78C701.798 391.866 698.664 395.339 694.899 397.916C687.758 402.244 681.967 398.74 681.967 390.188C682.209 385.477 683.507 380.892 685.754 376.805C688.001 372.719 691.134 369.246 694.899 366.669Z" fill="#13A2CF"/>
<path d="M720.102 412.831C720.102 398.612 710.605 392.841 698.85 399.951L691.488 404.408C679.758 411.517 670.236 428.828 670.236 443.048V446.886C677.034 449.23 685.574 447.968 694.776 442.326C704.971 435.726 713.592 426.764 719.979 416.128L720.102 412.831Z" fill="#13A2CF"/>
<path opacity="0.7" d="M694.899 366.669C702.04 362.341 707.832 365.845 707.832 374.397C707.589 379.109 706.292 383.694 704.045 387.78C701.798 391.866 698.664 395.339 694.899 397.916C687.758 402.244 681.967 398.74 681.967 390.188C682.209 385.477 683.507 380.892 685.754 376.805C688.001 372.719 691.134 369.246 694.899 366.669Z" fill="white"/>
<path opacity="0.7" d="M720.102 412.831C720.102 398.612 710.605 392.841 698.85 399.951L691.488 404.408C679.758 411.517 670.236 428.828 670.236 443.048V446.886C677.034 449.23 685.574 447.968 694.776 442.326C704.971 435.726 713.592 426.764 719.979 416.128L720.102 412.831Z" fill="white"/>
<path d="M617.745 501.188L669.059 470.096C671.513 468.679 673.304 469.812 673.304 472.672V474.449C673.226 475.997 672.801 477.504 672.063 478.847C671.326 480.19 670.296 481.331 669.059 482.177L617.745 513.269C615.414 514.686 613.5 513.527 613.5 510.693V508.916C613.58 507.368 614.006 505.862 614.743 504.52C615.481 503.177 616.509 502.036 617.745 501.188Z" fill="#13A2CF"/>
<path opacity="0.1" d="M617.745 501.188L669.059 470.096C671.513 468.679 673.304 469.812 673.304 472.672V474.449C673.226 475.997 672.801 477.504 672.063 478.847C671.326 480.19 670.296 481.331 669.059 482.177L617.745 513.269C615.414 514.686 613.5 513.527 613.5 510.693V508.916C613.58 507.368 614.006 505.862 614.743 504.52C615.481 503.177 616.509 502.036 617.745 501.188Z" fill="black"/>
<path d="M615.635 538.72L770.875 444.645C772.028 443.923 772.985 444.49 772.985 445.933V464.944C772.942 465.715 772.729 466.466 772.363 467.136C771.997 467.806 771.487 468.379 770.875 468.808L615.635 562.883C614.457 563.604 613.5 563.012 613.5 561.595V542.584C613.542 541.81 613.757 541.056 614.128 540.385C614.499 539.714 615.015 539.143 615.635 538.72Z" fill="#13A2CF"/>
<path opacity="0.2" d="M615.635 538.72L770.875 444.645C772.028 443.923 772.985 444.49 772.985 445.933V464.944C772.942 465.715 772.729 466.466 772.363 467.136C771.997 467.806 771.487 468.379 770.875 468.808L615.635 562.883C614.457 563.604 613.5 563.012 613.5 561.595V542.584C613.542 541.81 613.757 541.056 614.128 540.385C614.499 539.714 615.015 539.143 615.635 538.72Z" fill="white"/>
<path d="M617.745 585.758L669.059 554.666C671.513 553.249 673.304 554.408 673.304 557.242V559.019C673.228 560.568 672.804 562.075 672.066 563.419C671.328 564.762 670.297 565.902 669.059 566.747L617.745 597.839C615.414 599.282 613.5 598.123 613.5 595.263V593.486C613.583 591.939 614.011 590.435 614.748 589.093C615.485 587.751 616.512 586.609 617.745 585.758Z" fill="#13A2CF"/>
<path opacity="0.1" d="M617.745 585.758L669.059 554.666C671.513 553.249 673.304 554.408 673.304 557.242V559.019C673.228 560.568 672.804 562.075 672.066 563.419C671.328 564.762 670.297 565.902 669.059 566.747L617.745 597.839C615.414 599.282 613.5 598.123 613.5 595.263V593.486C613.583 591.939 614.011 590.435 614.748 589.093C615.485 587.751 616.512 586.609 617.745 585.758Z" fill="black"/>
<path d="M615.635 623.29L770.875 529.215C772.028 528.494 772.985 529.086 772.985 530.503V549.514C772.942 550.285 772.729 551.036 772.363 551.706C771.997 552.377 771.487 552.949 770.875 553.378L615.635 647.453C614.457 648.174 613.5 647.608 613.5 646.165V627.154C613.542 626.379 613.757 625.626 614.128 624.955C614.499 624.284 615.015 623.713 615.635 623.29Z" fill="#13A2CF"/>
<path opacity="0.2" d="M615.635 623.29L770.875 529.215C772.028 528.494 772.985 529.086 772.985 530.503V549.514C772.942 550.285 772.729 551.036 772.363 551.706C771.997 552.377 771.487 552.949 770.875 553.378L615.635 647.453C614.457 648.174 613.5 647.608 613.5 646.165V627.154C613.542 626.379 613.757 625.626 614.128 624.955C614.499 624.284 615.015 623.713 615.635 623.29Z" fill="white"/>
<path d="M677.549 634.084L738.899 596.963C741.353 595.521 743.169 596.68 743.169 599.539V619.426C743.089 620.977 742.66 622.485 741.918 623.828C741.176 625.171 740.142 626.311 738.899 627.154L677.549 664.3C675.095 665.717 673.304 664.558 673.304 661.724V641.812C673.389 640.265 673.818 638.762 674.555 637.42C675.292 636.078 676.317 634.936 677.549 634.084Z" fill="#13A2CF"/>
<path opacity="0.1" d="M677.549 634.084L738.899 596.963C741.353 595.521 743.169 596.68 743.169 599.539V619.426C743.089 620.977 742.66 622.485 741.918 623.828C741.176 625.171 740.142 626.311 738.899 627.154L677.549 664.3C675.095 665.717 673.304 664.558 673.304 661.724V641.812C673.389 640.265 673.818 638.762 674.555 637.42C675.292 636.078 676.317 634.936 677.549 634.084Z" fill="black"/>
<path d="M822.826 550.158C822.826 550.158 792.691 506.52 790.924 501.214C789.525 497.298 790.924 491.476 791.366 488.771C791.808 486.067 792.2 480.039 792.642 478.467C793.378 475.531 789.771 476.123 787.734 478.802C785.697 481.481 785.01 486.839 783.955 487.715C782.9 488.591 774.875 476.304 770.679 470.636C766.482 464.969 763.857 461.517 761.28 463.63C759.439 465.149 760.814 468.447 763.857 473.29C765.634 475.897 767.272 478.606 768.765 481.404C769.231 482.46 766.728 482.538 765.378 484.727C764.323 486.427 765.378 489.184 763.906 490.497C763 491.221 762.379 492.27 762.161 493.443C761.944 494.616 762.146 495.833 762.728 496.86C765.459 501.363 768.982 505.28 773.108 508.401C777.624 511.672 779.439 512.831 782.114 517.288C784.789 521.744 808.789 567.262 810.409 569.993C812.029 572.723 815.145 578.287 819.881 578.442C824.618 578.597 863.391 543.563 865.379 541.811C871.759 536.221 873.796 535.423 874.876 540.446C875.248 542.232 875.527 544.038 875.71 545.856C876.471 552.244 880.618 575.067 880.618 575.067C880.618 575.067 900.25 585.037 916.373 580.219C932.495 575.402 937.943 568.215 937.943 568.215L929.87 554.408C932.054 548.715 942.14 525.634 945.404 509.482L894.851 500.904C893.82 500.673 892.152 500.235 889.943 499.642C887.17 498.869 880.127 496.319 874.802 501.214C857.428 517.107 822.875 550.158 822.875 550.158" fill="#FFA8A7"/>
<path d="M923.048 817.907L913.992 831.122C918.108 833.139 922.604 834.152 927.146 834.084C935.268 834.393 937.502 831.508 937.796 830.942C939.17 827.85 937.035 822.286 936.446 817.495L923.048 817.907Z" fill="#37474F"/>
<path d="M914.508 824.785C914.508 824.785 903.514 824.038 895.931 823.059C888.348 822.08 882.336 825.944 884.103 829.216C885.869 832.487 890.066 835.218 896.593 837.51C902.164 839.494 908.863 840.911 914.655 842.662C920.446 844.414 924.471 846.707 927.833 845.47C931.588 844.105 933.207 842.534 932.888 839.648C932.069 835.545 931.053 831.486 929.845 827.49L914.508 824.785Z" fill="#37474F"/>
<path d="M937.796 804.64C937.796 804.64 936.422 816.645 936.324 819.221C936.226 821.797 925.158 822.621 923.048 817.907L922.704 803.224L937.796 804.64Z" fill="#F28F8F"/>
<path d="M926.655 812.008L930.606 830.246C930.606 830.246 930.974 832.461 921.943 833.878C912.913 835.295 898.728 828.907 896.299 827.619C893.87 826.331 893.6 823.729 902.483 824.244C911.367 824.759 914.508 824.785 914.508 824.785L911.612 816.722L926.655 812.008Z" fill="#FFA8A7"/>
<path d="M945.256 509.328L951.514 507.499C951.514 507.499 964.594 550.956 966.042 555.155C967.49 559.354 969.134 563.785 966.312 568.962C962.95 575.119 945.256 599.874 945.256 599.874L934.017 588.334L946.778 563.81L935.489 539.854L945.256 509.328Z" fill="#F28F8F"/>
<path d="M880.986 452.888C879.519 449.997 878.774 446.763 878.822 443.488C878.869 440.212 879.706 437.003 881.256 434.16C887.489 422.027 901.379 416.128 917.919 418.369C925.575 419.426 934.606 426.097 939.538 436.067C944.986 447.118 945.502 469.374 946.9 477.798L880.986 452.888Z" fill="#37474F"/>
<path d="M880.544 457.653C880.544 457.653 876.618 465.51 877.305 466.232C878.323 466.856 879.435 467.291 880.593 467.52L880.544 457.653Z" fill="#FFA8A7"/>
<path d="M892.471 432.821C888.201 435.732 880.839 441.09 880.52 458.735C880.176 476.767 882.63 482.718 885.182 484.804C886.9 486.221 896.986 485.5 901.305 484.444C905.624 483.388 918.066 476.922 922.557 467.107C927.833 455.567 926.753 438.771 918.925 433.619C914.94 431.146 910.423 429.775 905.796 429.636C901.169 429.496 896.584 430.592 892.471 432.821Z" fill="#FFA8A7"/>
<path d="M937.796 568.112C945.354 580.477 952.52 591.296 954.091 605.258C957.33 634.599 946.729 668.138 944.446 689.854C948.738 696.031 951.213 703.392 951.563 711.029C951.563 720.019 937.796 804.641 937.796 804.641C937.796 804.641 927.784 807.835 922.704 803.224L913.256 647.556L918.164 628.597L937.796 568.112Z" fill="#13A2CF"/>
<path opacity="0.2" d="M937.796 568.112C945.354 580.477 952.52 591.296 954.091 605.258C957.33 634.599 946.729 668.138 944.446 689.854C948.738 696.031 951.213 703.392 951.563 711.029C951.563 720.019 937.796 804.641 937.796 804.641C937.796 804.641 927.784 807.835 922.704 803.224L913.256 647.556L918.164 628.597L937.796 568.112Z" fill="black"/>
<path d="M913.256 647.556L918.164 628.597C927.561 626 936.625 622.22 945.158 617.34C945.158 617.34 940.054 627.103 925.379 632.461L917.796 656.804L917.158 712.574L913.256 647.556Z" fill="#13A2CF"/>
<path opacity="0.3" d="M913.256 647.556L918.164 628.597C927.561 626 936.625 622.22 945.158 617.34C945.158 617.34 940.054 627.103 925.379 632.461L917.796 656.804L917.158 712.574L913.256 647.556Z" fill="black"/>
<path d="M937.796 568.112C941.845 575.068 951.514 586.917 949.453 598.329C946.999 612.136 939.882 621.848 918.238 628.597L897.919 705.877C897.919 705.877 908.495 716.181 911.735 726.15C914.974 736.119 926.655 812.059 926.655 812.059C926.655 812.059 923.023 818.268 911.612 816.774C911.612 816.774 871.833 721.462 869.035 715.253C865.64 708.966 864.45 701.629 865.673 694.517C866.925 684.522 880.397 575.119 880.397 575.119L937.796 568.112Z" fill="#13A2CF"/>
<path opacity="0.2" d="M937.796 568.112C941.845 575.068 951.514 586.917 949.453 598.329C946.999 612.136 939.882 621.848 918.238 628.597L897.919 705.877C897.919 705.877 908.495 716.181 911.735 726.15C914.974 736.119 926.655 812.059 926.655 812.059C926.655 812.059 923.023 818.268 911.612 816.774C911.612 816.774 871.833 721.462 869.035 715.253C865.64 708.966 864.45 701.629 865.673 694.517C866.925 684.522 880.397 575.119 880.397 575.119L937.796 568.112Z" fill="black"/>
<path d="M945.256 509.328L894.704 500.75C893.673 500.518 892.005 500.08 889.796 499.488C889.796 499.488 887.636 532.77 874.655 540.395C874.974 541.992 875.244 543.769 875.489 545.804C876.25 552.193 880.397 575.016 880.397 575.016C880.397 575.016 900.029 584.985 916.152 580.168C932.275 575.351 937.723 568.164 937.723 568.164L929.649 554.356C931.907 548.612 942.066 525.531 945.256 509.328Z" fill="#13A2CF"/>
<path opacity="0.7" d="M945.256 509.328L894.704 500.75C893.673 500.518 892.005 500.08 889.796 499.488C889.796 499.488 887.636 532.77 874.655 540.395C874.974 541.992 875.244 543.769 875.489 545.804C876.25 552.193 880.397 575.016 880.397 575.016C880.397 575.016 900.029 584.985 916.152 580.168C932.275 575.351 937.723 568.164 937.723 568.164L929.649 554.356C931.907 548.612 942.066 525.531 945.256 509.328Z" fill="white"/>
<path d="M931.931 548.87C925.217 553.101 918.183 556.746 910.9 559.766C917.511 559.628 923.982 557.75 929.722 554.305L931.931 548.87Z" fill="#13A2CF"/>
<path d="M891.219 433.697C891.219 433.697 888.765 450.441 894.557 460.281C894.557 460.281 896.716 453.609 902.09 454.871C907.465 456.134 907.759 463.578 903.98 467.751C903.019 468.922 901.764 469.785 900.358 470.24C898.951 470.696 897.451 470.726 896.029 470.327C896.029 470.327 895.17 482.435 894.704 492.584C894.238 502.733 891.685 524.861 902.557 533.8C913.428 542.739 940.716 545.881 953.502 527.128C960.618 516.695 951.17 498.251 946.778 477.566C942.729 458.555 940.446 430.374 921.232 425.84C902.017 421.306 891.219 433.697 891.219 433.697Z" fill="#37474F"/>
<path d="M961.723 204.922L957.673 207.498C958.013 205.986 958.203 204.44 958.238 202.887C958.238 194.257 952.471 190.78 945.354 195.159C943.189 196.53 941.256 198.272 939.637 200.311C939.637 188.719 931.882 184.005 922.311 189.801C917.268 193.253 913.071 197.905 910.061 203.379C907.051 208.853 905.312 214.994 904.986 221.305C904.986 221.898 904.986 222.465 904.986 223.031C902.521 222.706 900.025 223.308 897.943 224.732C894.193 227.297 891.072 230.754 888.834 234.822C886.595 238.891 885.302 243.456 885.06 248.147C885.058 249.238 885.165 250.326 885.379 251.393L883.219 252.707C877.354 256.262 872.593 263.191 872.593 268.163C872.593 273.135 877.354 274.32 883.219 270.739L961.747 223.212C967.612 219.657 972.373 212.727 972.373 207.756C972.373 202.784 967.588 201.341 961.723 204.922Z" fill="#EBEBEB"/>
<path d="M237.418 489.816L242.876 489.993C241.213 488.57 239.633 487.014 238.162 485.349C230.14 475.975 231.269 468.464 240.723 468.614C243.636 468.702 246.717 469.343 249.838 470.51C239.061 457.917 240.544 447.776 253.172 447.877C260.196 448.363 267.696 450.7 275.061 454.697C282.427 458.695 289.451 464.241 295.565 470.886C296.116 471.529 296.643 472.145 297.17 472.761C298.732 470.811 301.179 469.85 304.078 470.048C309.299 470.407 314.873 472.143 320.349 475.113C325.824 478.084 331.047 482.206 335.591 487.145C336.606 488.329 337.537 489.58 338.368 490.878L341.222 490.907C348.964 490.972 359.007 495.418 363.629 500.818C368.251 506.219 365.751 510.588 357.986 510.495L254.403 509.7C246.662 509.635 236.619 505.189 231.997 499.788C227.375 494.387 229.653 489.723 237.418 489.816Z" fill="#EBEBEB"/>
</g>
<defs>
<filter id="filter0_d_262_676" x="-4" y="-78" width="1235" height="1296" filterUnits="userSpaceOnUse" color-interpolation-filters="sRGB">
<feFlood flood-opacity="0" result="BackgroundImageFix"/>
<feColorMatrix in="SourceAlpha" type="matrix" values="0 0 0 0 0 0 0 0 0 0 0 0 0 0 0 0 0 0 127 0" result="hardAlpha"/>
<feOffset dy="4"/>
<feGaussianBlur stdDeviation="2"/>
<feComposite in2="hardAlpha" operator="out"/>
<feColorMatrix type="matrix" values="0 0 0 0 0 0 0 0 0 0 0 0 0 0 0 0 0 0 0.25 0"/>
<feBlend mode="normal" in2="BackgroundImageFix" result="effect1_dropShadow_262_676"/>
<feBlend mode="normal" in="SourceGraphic" in2="effect1_dropShadow_262_676" result="shape"/>
</filter>
</defs>
</svg>
